<?xml version="1.0" encoding="utf-8"?>
<!-- Generator: Adobe Illustrator 21.0.0, SVG Export Plug-In . SVG Version: 6.00 Build 0)  -->
<svg version="1.1" id="Calque_1" xmlns="http://www.w3.org/2000/svg" xmlns:xlink="http://www.w3.org/1999/xlink" x="0px" y="0px"
	 viewBox="0 0 106.7 107.1" style="enable-background:new 0 0 106.7 107.1;" xml:space="preserve">
<style type="text/css">
	.st0{opacity:0.2;}
	.st1{fill:none;}
	.st2{fill-rule:evenodd;clip-rule:evenodd;fill:#EFEFEF;}
</style>
<g class="st0">
	<g>
		<g>
			<g>
				<g>
					<path class="st1" d="M97.6,57.2c0,0.3,0,0.7-0.1,1l-0.2,1l-0.3,2c-0.1,1.4-0.6,2.6-0.9,4l8.8,2.4c0.4-1.6,0.9-3.2,1.1-4.8
						l0.4-2.4l0.2-1.2c0.1-0.4,0.1-0.8,0.1-1.2L97.6,57.2z"/>
					<path class="st2" d="M100.6,66.4c-1.2-0.3-2.2-1.1-2.8-2c-0.6-0.9-0.8-2-0.7-3.1c0.2-1.1,0.8-2,1.8-2.7c0.9-0.7,2-1.1,3.3-1
						c1.2,0.1,2.4,0.7,3.1,1.7c0.7,0.9,1,2.2,0.8,3.6c-0.2,1.3-1,2.4-2,3.1C103,66.6,101.8,66.8,100.6,66.4z"/>
				</g>
			</g>
			<g>
				<g>
					<path class="st1" d="M93.7,72.1c-1.1,2.5-2.5,4.8-4.1,7l7.4,5.3c1.9-2.7,3.5-5.5,4.9-8.5L93.7,72.1z"/>
					<path class="st2" d="M93.3,81.8c-1-0.7-1.6-1.8-1.9-2.9c-0.3-1.1-0.2-2.2,0.4-3.2c0.6-0.9,1.5-1.6,2.5-1.9
						c1.1-0.3,2.3-0.3,3.5,0.2c1.1,0.5,1.9,1.5,2.3,2.6c0.4,1.1,0.3,2.5-0.4,3.6c-0.7,1.2-1.8,1.9-2.9,2.2
						C95.6,82.8,94.3,82.5,93.3,81.8z"/>
				</g>
			</g>
			<g>
				<g>
					<path class="st1" d="M84.9,84.8c-1,0.9-2,1.8-3,2.8c-1,0.9-2.2,1.6-3.2,2.5l5.2,7.5c1.3-1,2.6-1.9,3.9-3
						c1.2-1.1,2.4-2.2,3.6-3.3L84.9,84.8z"/>
					<path class="st2" d="M81.2,93.8c-0.7-1-1-2.3-0.9-3.4c0.1-1.1,0.6-2.1,1.5-2.8c1.6-1.5,4.4-1.3,6.2,0.5
						c1.8,1.8,1.7,4.7-0.4,6.5c-1,0.9-2.4,1.2-3.5,1C83,95.4,82,94.8,81.2,93.8z"/>
				</g>
			</g>
			<g>
				<g>
					<path class="st1" d="M72.3,93.7c-0.6,0.3-1.2,0.6-1.8,0.9l-1.9,0.7L66.6,96l-2,0.5l2.3,8.8l2.4-0.6l2.3-0.8l2.3-0.8
						c0.8-0.3,1.5-0.7,2.2-1L72.3,93.7z"/>
					<path class="st2" d="M65.8,100.9c-0.6-2.5,0.7-4.8,2.7-5.6c1-0.4,2.2-0.2,3.2,0.2c1,0.4,1.9,1.2,2.5,2.4
						c0.5,1.1,0.6,2.4,0.1,3.5c-0.4,1.2-1.4,2-2.7,2.5C69.1,104.8,66.4,103.3,65.8,100.9z"/>
				</g>
			</g>
			<g>
				<g>
					<polygon class="st1" points="57.4,97.8 53.3,98 49.3,97.8 48.4,106.8 53.3,107.1 58.2,106.8 					"/>
					<path class="st2" d="M48.8,102.3c0.3-2.5,2.3-4.4,4.5-4.3c2.2-0.1,4.2,1.8,4.5,4.3c0.3,2.5-1.7,4.6-4.5,4.8
						C50.6,107,48.6,104.8,48.8,102.3z"/>
				</g>
			</g>
			<g>
				<g>
					<path class="st1" d="M42,96.5L40,96l-1.9-0.7l-1.9-0.7c-0.6-0.3-1.2-0.6-1.8-0.9l-3.9,8.2c0.7,0.3,1.5,0.7,2.2,1l2.3,0.8
						l2.3,0.8l2.4,0.6L42,96.5z"/>
					<path class="st2" d="M32.4,97.8c0.5-1.1,1.5-1.9,2.5-2.4c1-0.4,2.2-0.6,3.2-0.2c2,0.8,3.3,3.1,2.7,5.6c-0.6,2.4-3.3,4-5.8,2.9
						c-1.3-0.5-2.3-1.3-2.7-2.5C31.9,100.2,31.9,99,32.4,97.8z"/>
				</g>
			</g>
			<g>
				<g>
					<path class="st1" d="M28,90.1c-1.1-0.8-2.2-1.6-3.2-2.5c-1-0.9-2-1.8-3-2.8l-6.5,6.4c1.2,1.1,2.4,2.2,3.6,3.3
						c1.3,1,2.6,2,3.9,3L28,90.1z"/>
					<path class="st2" d="M18.5,88c1.8-1.7,4.6-1.9,6.2-0.5c0.9,0.7,1.4,1.7,1.5,2.8c0.1,1.1-0.1,2.3-0.9,3.4c-0.7,1-1.8,1.7-3,1.8
						c-1.2,0.1-2.5-0.2-3.5-1C16.9,92.7,16.7,89.8,18.5,88z"/>
				</g>
			</g>
			<g>
				<g>
					<path class="st1" d="M17.1,79.2c-1.5-2.2-2.9-4.6-4.1-7L4.7,76c1.3,3,3,5.8,4.9,8.5L17.1,79.2z"/>
					<path class="st2" d="M8.9,74c1.1-0.5,2.4-0.6,3.5-0.2c1.1,0.3,1.9,1,2.5,1.9c0.6,1,0.7,2.1,0.4,3.2c-0.3,1.1-0.9,2.1-1.9,2.9
						c-1,0.7-2.3,1-3.4,0.7c-1.1-0.3-2.2-1.1-2.9-2.2c-0.7-1.1-0.8-2.5-0.4-3.6C6.9,75.5,7.7,74.6,8.9,74z"/>
				</g>
			</g>
			<g>
				<g>
					<path class="st1" d="M10.5,65.2c-0.3-1.3-0.8-2.6-0.9-4l-0.3-2l-0.2-1c0-0.3,0-0.7-0.1-1L0,58c0,0.4,0,0.8,0.1,1.2l0.2,1.2
						l0.4,2.4c0.2,1.6,0.7,3.2,1.1,4.8L10.5,65.2z"/>
					<path class="st2" d="M4.5,57.6c1.3-0.1,2.4,0.3,3.3,1c0.9,0.7,1.6,1.6,1.8,2.7c0.1,1.1-0.1,2.2-0.7,3.1c-0.6,0.9-1.6,1.7-2.8,2
						c-1.2,0.3-2.4,0.1-3.4-0.5c-1-0.6-1.8-1.7-2-3.1c-0.2-1.3,0.1-2.6,0.8-3.6C2.1,58.3,3.3,57.7,4.5,57.6z"/>
				</g>
			</g>
			<g>
				<g>
					<path class="st1" d="M9.1,49.9c0-0.3,0-0.7,0.1-1l0.2-1l0.3-2c0.1-1.4,0.6-2.6,0.9-4l-8.8-2.4c-0.4,1.6-0.9,3.2-1.1,4.8
						l-0.4,2.4l-0.2,1.2C0,48.3,0,48.7,0,49.1L9.1,49.9z"/>
					<path class="st2" d="M6.1,40.7c1.2,0.3,2.2,1.1,2.8,2c0.6,0.9,0.8,2,0.7,3.1c-0.2,1.1-0.8,2-1.8,2.7c-0.9,0.7-2,1.1-3.3,1
						c-1.2-0.1-2.4-0.7-3.1-1.7c-0.7-0.9-1-2.2-0.8-3.6c0.2-1.3,1-2.4,2-3.1C3.7,40.5,4.9,40.3,6.1,40.7z"/>
				</g>
			</g>
			<g>
				<g>
					<path class="st1" d="M13,35c1.1-2.5,2.5-4.8,4.1-7l-7.4-5.3c-1.9,2.7-3.5,5.5-4.9,8.5L13,35z"/>
					<path class="st2" d="M13.3,25.3c1,0.7,1.6,1.8,1.9,2.9c0.3,1.1,0.2,2.2-0.4,3.2c-0.6,0.9-1.5,1.6-2.5,1.9
						c-1.1,0.3-2.3,0.3-3.5-0.2c-1.1-0.5-1.9-1.5-2.3-2.6c-0.4-1.1-0.3-2.5,0.4-3.6c0.7-1.2,1.8-1.9,2.9-2.2
						C11.1,24.3,12.3,24.6,13.3,25.3z"/>
				</g>
			</g>
			<g>
				<g>
					<path class="st1" d="M21.8,22.3c1-0.9,2-1.8,3-2.8c1-0.9,2.2-1.6,3.2-2.5l-5.2-7.5c-1.3,1-2.6,1.9-3.9,3
						c-1.2,1.1-2.4,2.2-3.6,3.3L21.8,22.3z"/>
					<path class="st2" d="M25.4,13.3c0.7,1,1,2.3,0.9,3.4c-0.1,1.1-0.6,2.1-1.5,2.8c-1.6,1.5-4.4,1.3-6.2-0.5
						c-1.8-1.8-1.7-4.7,0.4-6.5c1-0.9,2.4-1.2,3.5-1C23.6,11.6,24.7,12.3,25.4,13.3z"/>
				</g>
			</g>
			<g>
				<g>
					<path class="st1" d="M34.4,13.4c0.6-0.3,1.2-0.6,1.8-0.9l1.9-0.7l1.9-0.7l2-0.5l-2.3-8.8l-2.4,0.6L35,3.3l-2.3,0.8
						c-0.8,0.3-1.5,0.7-2.2,1L34.4,13.4z"/>
					<path class="st2" d="M40.9,6.2c0.6,2.5-0.7,4.8-2.7,5.6c-1,0.4-2.2,0.2-3.2-0.2c-1-0.4-1.9-1.2-2.5-2.4
						c-0.5-1.1-0.6-2.4-0.1-3.5c0.4-1.2,1.4-2,2.7-2.5C37.6,2.2,40.3,3.8,40.9,6.2z"/>
				</g>
			</g>
			<g>
				<g>
					<polygon class="st1" points="49.3,9.3 53.3,9.1 57.4,9.3 58.2,0.2 53.3,0 48.4,0.2 					"/>
					<path class="st2" d="M57.8,4.8c-0.3,2.5-2.3,4.4-4.5,4.3c-2.2,0.1-4.2-1.8-4.5-4.3c-0.3-2.5,1.7-4.6,4.5-4.8
						C56.1,0.1,58.1,2.3,57.8,4.8z"/>
				</g>
			</g>
			<g>
				<g>
					<path class="st1" d="M64.6,10.6l2,0.5l1.9,0.7l1.9,0.7c0.6,0.3,1.2,0.6,1.8,0.9l3.9-8.2c-0.7-0.3-1.5-0.7-2.2-1l-2.3-0.8
						l-2.3-0.8l-2.4-0.6L64.6,10.6z"/>
					<path class="st2" d="M74.2,9.3c-0.5,1.1-1.5,1.9-2.5,2.4c-1,0.4-2.2,0.6-3.2,0.2c-2-0.8-3.3-3.1-2.7-5.6c0.6-2.4,3.3-4,5.8-2.9
						c1.3,0.5,2.3,1.3,2.7,2.5C74.8,6.9,74.7,8.1,74.2,9.3z"/>
				</g>
			</g>
			<g>
				<g>
					<path class="st1" d="M78.6,17c1.1,0.8,2.2,1.6,3.2,2.5c1,0.9,2,1.8,3,2.8l6.5-6.4c-1.2-1.1-2.4-2.2-3.6-3.3c-1.3-1-2.6-2-3.9-3
						L78.6,17z"/>
					<path class="st2" d="M88.1,19.1c-1.8,1.7-4.6,1.9-6.2,0.5c-0.9-0.7-1.4-1.7-1.5-2.8c-0.1-1.1,0.1-2.3,0.9-3.4
						c0.7-1,1.8-1.7,3-1.8c1.2-0.1,2.5,0.2,3.5,1C89.8,14.4,90,17.3,88.1,19.1z"/>
				</g>
			</g>
			<g>
				<g>
					<path class="st1" d="M89.6,27.9c1.5,2.2,2.9,4.6,4.1,7l8.3-3.8c-1.3-3-3-5.8-4.9-8.5L89.6,27.9z"/>
					<path class="st2" d="M97.8,33c-1.1,0.5-2.4,0.6-3.5,0.2c-1.1-0.3-1.9-1-2.5-1.9c-0.6-1-0.7-2.1-0.4-3.2
						c0.3-1.1,0.9-2.1,1.9-2.9c1-0.7,2.3-1,3.4-0.7c1.1,0.3,2.2,1.1,2.9,2.2c0.7,1.1,0.8,2.5,0.4,3.6C99.7,31.6,98.9,32.5,97.8,33z"
						/>
				</g>
			</g>
			<g>
				<g>
					<path class="st1" d="M96.2,41.9c0.3,1.3,0.8,2.6,0.9,4l0.3,2l0.2,1c0,0.3,0,0.7,0.1,1l9.1-0.7c0-0.4,0-0.8-0.1-1.2l-0.2-1.2
						l-0.4-2.4c-0.2-1.6-0.7-3.2-1.1-4.8L96.2,41.9z"/>
					<path class="st2" d="M102.1,49.5c-1.3,0.1-2.4-0.3-3.3-1c-0.9-0.7-1.6-1.6-1.8-2.7c-0.1-1.1,0.1-2.2,0.7-3.1
						c0.6-0.9,1.6-1.7,2.8-2c1.2-0.3,2.4-0.1,3.4,0.5c1,0.6,1.8,1.7,2,3.1c0.2,1.3-0.1,2.6-0.8,3.6
						C104.5,48.8,103.4,49.4,102.1,49.5z"/>
				</g>
			</g>
		</g>
	</g>
</g>
</svg>
