<?xml version="1.0" encoding="utf-8"?>
<!-- Generator: Adobe Illustrator 22.1.0, SVG Export Plug-In . SVG Version: 6.00 Build 0)  -->
<svg version="1.1" id="Calque_1" xmlns="http://www.w3.org/2000/svg" xmlns:xlink="http://www.w3.org/1999/xlink" x="0px" y="0px"
	 viewBox="0 0 105.6 129.6" style="enable-background:new 0 0 105.6 129.6;" xml:space="preserve">
<style type="text/css">
	.st0{fill:none;}
	.st1{fill:#E64648;}
	.st2{fill:#2EA636;}
	.st3{fill:#E54848;}
</style>
<g>
	<path class="st0" d="M86.7,52C81.2,46.9,74,44.2,66,44.2c-3.8,0-7.9,0.6-11.9,1.8l-1.2,0.3L51.6,46c-4.1-1.2-8.2-1.8-12-1.8
		c-8,0-15.2,2.7-20.7,7.8C9.4,60.7,6,75.2,9.9,89.9c3.9,14.4,16.7,31.3,42.6,31.5h0.3c24.6-0.1,38.9-17,42.8-31.5
		C99.6,75.2,96.2,60.7,86.7,52z"/>
	<path class="st1" d="M92.3,45.9c-7.1-6.5-16.2-10-26.4-10c-4.3,0-8.7,0.6-13.1,1.8c-4.5-1.2-8.9-1.8-13.1-1.8
		c-10.2,0-19.3,3.5-26.4,10C1.5,56.7-2.9,74.4,1.9,92c4.6,17.2,19.9,37.4,50.6,37.6h0.4l0,0c29.3-0.1,46.1-20.3,50.8-37.6
		C108.4,74.4,104.1,56.7,92.3,45.9z M95.7,89.9c-3.9,14.5-18.2,31.4-42.8,31.5h-0.3c-26-0.2-38.7-17.1-42.6-31.5
		C6,75.3,9.5,60.7,19,52c5.5-5.1,12.7-7.8,20.7-7.8c3.8,0,7.9,0.6,12,1.8l1.2,0.3L54,46c4.1-1.2,8.1-1.8,11.9-1.8
		c8,0,15.2,2.7,20.7,7.8C96.2,60.7,99.6,75.2,95.7,89.9z"/>
	<path class="st2" d="M58.6,33.5c8.1-4.3,16.8-7.9,24.9-10.3c-5.2,0-14.9,1.8-22.3,3.6c2.9-5.2,4.4-11.1,4.2-17.1
		c-1.3,5.9-4,10.5-7.8,12.9c-0.5,0.3-1,0.6-1.6,0.8c1.7-8.1,3.1-18.1,3-23.4c-2.8,4.9-6.5,15.2-9,23.5c-5.2-3.2-11.2-4.6-17.3-4.1
		c5.1,0.8,9.1,2.9,11.4,6.1c0.5,0.7,0.9,1.4,1.2,2.1c-7.7-0.9-17.9-1.7-23.3-1c8.4,1.5,19.3,4,26.3,7.5
		C52.3,35.8,54.8,35.6,58.6,33.5z"/>
	<g>
		<path class="st3" d="M46.2,107.1c-5.3-1.4-9.9-4.5-13.3-8.8C28.8,93,27,86.4,27.7,79.7c0.9-7.2,4.7-13.8,10-17.3l0.7-0.5l-0.5-0.7
			c-0.3-0.4-0.6-0.8-0.8-1.2c1.5-0.4,3.7-0.8,6.4-0.8c5.3,0,12.8,1.5,19.1,8.5C60.8,80.4,49.9,81,47.7,81c-18,0-13.5,12.3-13,12.3
			s4.3-3.8,6.1-4.7c-2.4,3.5-3.1,7-2.2,10.2C39.5,102.1,42.2,105,46.2,107.1z M52.8,67.1c-1.7,0-3.1,1.4-3.1,3.1s1.4,3.1,3.1,3.1
			s3.1-1.4,3.1-3.1C55.8,68.5,54.5,67.1,52.8,67.1z"/>
		<path class="st3" d="M59.4,58.4c5.3,1.4,9.9,4.5,13.3,8.8c4.1,5.3,5.9,11.9,5.2,18.6c-0.9,7.2-4.7,13.8-10,17.3l-0.7,0.5l0.5,0.7
			c0.3,0.4,0.6,0.8,0.8,1.2c-1.5,0.4-3.7,0.8-6.4,0.8c-5.3,0-12.8-1.5-19.1-8.5c1.8-12.7,12.7-13.3,14.9-13.3
			c18,0,13.5-12.3,13-12.3s-4.3,3.8-6.1,4.7c2.4-3.5,3.1-7,2.2-10.2C66,63.4,63.4,60.6,59.4,58.4z M52.8,98.5c1.7,0,3.1-1.4,3.1-3.1
			s-1.4-3.1-3.1-3.1s-3.1,1.4-3.1,3.1S51.1,98.5,52.8,98.5z"/>
	</g>
</g>
</svg>
