<svg id="Calque_1" data-name="Calque 1" xmlns="http://www.w3.org/2000/svg" viewBox="0 0 485 152.43"><title>logo</title><path d="M731.35,288.37a17.31,17.31,0,1,0,17.3,17.31A17.34,17.34,0,0,0,731.35,288.37Z" transform="translate(-408.16 -224.05)" style="fill:none"/><path d="M843,290.24a17.21,17.21,0,0,0-5.37,3.63,17,17,0,0,0-3.64,5.44,16.74,16.74,0,0,0-1.32,6.58,16.33,16.33,0,0,0,1.32,6.54,17.25,17.25,0,0,0,3.65,5.38,16.94,16.94,0,0,0,23.93,0,17.69,17.69,0,0,0,3.64-5.38,16.42,16.42,0,0,0,1.32-6.53v-17h-17A16.27,16.27,0,0,0,843,290.24Z" transform="translate(-408.16 -224.05)" style="fill:none"/><path d="M888.65,242.32a1.34,1.34,0,0,0-.39-1.09,2.17,2.17,0,0,0-1.33-.35h-1.56v2.8H887a1.89,1.89,0,0,0,1.2-.37A1.2,1.2,0,0,0,888.65,242.32Z" transform="translate(-408.16 -224.05)" style="fill:none"/><path d="M790.44,288.37a17.31,17.31,0,1,0,17.3,17.31A17.33,17.33,0,0,0,790.44,288.37Z" transform="translate(-408.16 -224.05)" style="fill:none"/><path d="M891.67,241a5.59,5.59,0,0,0-2-2.16,5.32,5.32,0,0,0-5.63,0,5.48,5.48,0,0,0-2,2.15,6,6,0,0,0-.74,3,6.24,6.24,0,0,0,.74,3,5.61,5.61,0,0,0,2,2.16,5.34,5.34,0,0,0,5.59,0,5.47,5.47,0,0,0,2-2.17,6.23,6.23,0,0,0,.74-3A6.1,6.1,0,0,0,891.67,241Zm-2.1,6.59h-.92a6.41,6.41,0,0,1-.12-1.63,1.53,1.53,0,0,0-.34-1.13,1.58,1.58,0,0,0-1.14-.33h-1.68v3.09h-.87v-7.5h2.3a3.2,3.2,0,0,1,2,.55,2,2,0,0,1,.71,1.66,1.85,1.85,0,0,1-1.26,1.76,1.53,1.53,0,0,1,.89.72,2.52,2.52,0,0,1,.25,1.17c0,.45,0,.78,0,1a1.74,1.74,0,0,0,.12.51Z" transform="translate(-408.16 -224.05)" style="fill:none"/><path d="M663.59,281.54H653.51v31.93a11.43,11.43,0,0,1-22.77-1.42V281.76h-9.67v30.29a21.13,21.13,0,0,0,21.1,21.1,20.84,20.84,0,0,0,11.34-3.32v25.08a12.47,12.47,0,0,1-3.16,8c-2.24,2.28-5.72,3.43-10.35,3.43h-8.67v10.09H640c7.5,0,13.43-2.2,17.64-6.55a22.41,22.41,0,0,0,6-15.12Z" transform="translate(-408.16 -224.05)" style="fill:#e64648"/><path d="M731.35,278.7a27,27,0,1,0,27,27A27,27,0,0,0,731.35,278.7Zm0,44.29a17.31,17.31,0,1,1,17.3-17.31A17.34,17.34,0,0,1,731.35,323Z" transform="translate(-408.16 -224.05)" style="fill:#2ea636"/><path d="M790.44,278.7a27,27,0,1,0,27,27A27,27,0,0,0,790.44,278.7Zm0,44.29a17.31,17.31,0,1,1,17.3-17.31A17.33,17.33,0,0,1,790.44,323Z" transform="translate(-408.16 -224.05)" style="fill:#2ea636"/><path d="M678.05,244.11a22.41,22.41,0,0,0-5.95,15.13v73.27h10.08V291.78H704V281.69H682.18V259.13a12.48,12.48,0,0,1,3.17-8c2.23-2.27,5.71-3.43,10.34-3.43h8.67V237.56h-8.67C688.19,237.56,682.26,239.77,678.05,244.11Z" transform="translate(-408.16 -224.05)" style="fill:#2ea636"/><path d="M866.57,279h-17a25.9,25.9,0,0,0-9.7,1.82,27.1,27.1,0,0,0-14,12.6,28.63,28.63,0,0,0-3.06,12.36v.14a26.61,26.61,0,0,0,2.08,10.46,26.94,26.94,0,0,0,14.28,14.27,26.32,26.32,0,0,0,10.45,2.09,26.71,26.71,0,0,0,24.83-16.36,26.37,26.37,0,0,0,2.1-10.46V236.78h-9.94Zm0,26.93a16.42,16.42,0,0,1-1.32,6.53,17.69,17.69,0,0,1-3.64,5.38A17,17,0,0,1,834,312.43a16.33,16.33,0,0,1-1.32-6.54,16.74,16.74,0,0,1,1.32-6.58,17,17,0,0,1,3.64-5.44,17.21,17.21,0,0,1,5.37-3.63,16.27,16.27,0,0,1,6.54-1.33h17Z" transform="translate(-408.16 -224.05)" style="fill:#2ea636"/><path d="M591.44,278.89a21.18,21.18,0,0,0-16.27,7.71A21.07,21.07,0,0,0,537.8,300v30.29h9.67V300a11.44,11.44,0,0,1,22.87,0v30.29H580V300a11.43,11.43,0,0,1,22.86,0v30.29h9.68V300A21.13,21.13,0,0,0,591.44,278.89Z" transform="translate(-408.16 -224.05)" style="fill:#e64648"/><path d="M892.33,240.58a6.21,6.21,0,0,0-2.31-2.43,6.18,6.18,0,0,0-6.39,0,6.23,6.23,0,0,0-2.32,2.43,6.9,6.9,0,0,0-.83,3.35,7,7,0,0,0,.81,3.32,6.44,6.44,0,0,0,2.29,2.46,6.17,6.17,0,0,0,6.48,0,6.37,6.37,0,0,0,2.29-2.46,7.12,7.12,0,0,0,0-6.67Zm-.67,6.32a5.47,5.47,0,0,1-2,2.17,5.34,5.34,0,0,1-5.59,0,5.61,5.61,0,0,1-2-2.16,6.24,6.24,0,0,1-.74-3,6,6,0,0,1,.74-3,5.48,5.48,0,0,1,2-2.15,5.32,5.32,0,0,1,5.63,0,5.59,5.59,0,0,1,2,2.16,6.1,6.1,0,0,1,.73,2.94A6.23,6.23,0,0,1,891.66,246.9Z" transform="translate(-408.16 -224.05)" style="fill:#2ca537"/><path d="M889.41,245.94a2.52,2.52,0,0,0-.25-1.17,1.53,1.53,0,0,0-.89-.72,1.85,1.85,0,0,0,1.26-1.76,2,2,0,0,0-.71-1.66,3.2,3.2,0,0,0-2-.55h-2.3v7.5h.87v-3.09h1.68a1.58,1.58,0,0,1,1.14.33,1.53,1.53,0,0,1,.34,1.13,6.41,6.41,0,0,0,.12,1.63h.92v-.14a1.74,1.74,0,0,1-.12-.51C889.43,246.72,889.41,246.39,889.41,245.94Zm-1.22-2.63a1.89,1.89,0,0,1-1.2.37h-1.62v-2.8h1.56a2.17,2.17,0,0,1,1.33.35,1.34,1.34,0,0,1,.39,1.09A1.2,1.2,0,0,1,888.19,243.31Z" transform="translate(-408.16 -224.05)" style="fill:#2ca537"/><path d="M494.84,276a30,30,0,0,0-20.75-7.8,42.89,42.89,0,0,0-11.94,1.8l-1.15.34-1.19-.32a42.83,42.83,0,0,0-12-1.82,30,30,0,0,0-20.75,7.8c-9.48,8.73-12.92,23.26-9,37.9,3.88,14.38,16.65,31.25,42.63,31.48H461c24.61-.1,38.88-17,42.78-31.48C507.77,299.29,504.33,284.76,494.84,276Z" transform="translate(-408.16 -224.05)" style="fill:none"/><path d="M500.48,269.91a38.19,38.19,0,0,0-26.39-10A50.69,50.69,0,0,0,461,261.73a50.63,50.63,0,0,0-13.14-1.81,38.16,38.16,0,0,0-26.38,10c-11.78,10.84-16.13,28.54-11.37,46.18,4.64,17.2,19.95,37.37,50.62,37.64h.38c29.3-.12,46.12-20.35,50.79-37.64C516.61,298.45,512.25,280.75,500.48,269.91Zm3.34,44c-3.9,14.46-18.17,31.38-42.78,31.48h-.32c-26-.23-38.75-17.1-42.63-31.48-3.95-14.64-.51-29.17,9-37.9a30,30,0,0,1,20.75-7.8,42.83,42.83,0,0,1,12,1.82l1.19.32,1.15-.34a42.89,42.89,0,0,1,11.94-1.8,30,30,0,0,1,20.75,7.8C504.33,284.76,507.77,299.29,503.82,313.93Z" transform="translate(-408.16 -224.05)" style="fill:#e64648"/><path d="M466.8,257.54a143.38,143.38,0,0,1,24.88-10.32c-5.21,0-14.86,1.81-22.28,3.6a33.28,33.28,0,0,0,4.21-17.08c-1.27,5.93-4,10.47-7.84,12.93a12.33,12.33,0,0,1-1.55.85c1.61-8.21,3.08-18.18,2.92-23.47-2.81,4.85-6.51,15.22-9,23.48a28.49,28.49,0,0,0-17.27-4.1c5.13.8,9.14,2.89,11.44,6.07a11.09,11.09,0,0,1,1.21,2.15c-7.67-.94-17.94-1.66-23.29-1,8.44,1.46,19.35,4,26.29,7.49C460.45,259.81,463,259.64,466.8,257.54Z" transform="translate(-408.16 -224.05)" style="fill:#2ea636"/><path d="M454.32,331.2a24.76,24.76,0,0,1-13.27-8.84,25.8,25.8,0,0,1-5.22-18.6c.89-7.16,4.72-13.79,10-17.29l.73-.49-.54-.69a7.77,7.77,0,0,1-.77-1.21,24.18,24.18,0,0,1,6.42-.82,24.93,24.93,0,0,1,19.08,8.53c-1.83,12.66-12.68,13.31-14.86,13.31-18,0-13.5,12.34-13,12.34s4.33-3.79,6-4.72c-2.37,3.49-3.13,7-2.21,10.17S450.36,329,454.32,331.2ZM461,291.13a3.06,3.06,0,1,0,3.06,3.06A3.07,3.07,0,0,0,461,291.13Z" transform="translate(-408.16 -224.05)" style="fill:#e54848"/><path d="M467.59,282.45a24.73,24.73,0,0,1,13.26,8.84,25.78,25.78,0,0,1,5.22,18.59c-.89,7.16-4.72,13.8-10,17.3l-.73.48.53.69a8.78,8.78,0,0,1,.78,1.22,24.27,24.27,0,0,1-6.43.81,24.88,24.88,0,0,1-19.07-8.52c1.82-12.67,12.68-13.31,14.85-13.31,18,0,13.5-12.35,13-12.35s-4.33,3.8-6.05,4.73c2.37-3.5,3.14-7,2.21-10.18S471.55,284.6,467.59,282.45Zm-6.65,40.07a3.06,3.06,0,1,0-3.06-3.06A3.07,3.07,0,0,0,460.94,322.52Z" transform="translate(-408.16 -224.05)" style="fill:#e54848"/></svg>