<?xml version="1.0" encoding="utf-8"?>
<!-- Generator: Adobe Illustrator 21.0.0, SVG Export Plug-In . SVG Version: 6.00 Build 0)  -->
<svg version="1.1" id="Calque_1" xmlns="http://www.w3.org/2000/svg" xmlns:xlink="http://www.w3.org/1999/xlink" x="0px" y="0px"
	 viewBox="0 0 253.6 253.6" style="enable-background:new 0 0 253.6 253.6;" xml:space="preserve">
<style type="text/css">
	.st0{opacity:0.12;}
	.st1{fill:none;}
	.st2{fill-rule:evenodd;clip-rule:evenodd;fill:#423F3D;}
</style>
<g class="st0">
	<g>
		<path class="st1" d="M247.9,129.3c-0.1,1.8,0,3.7-0.2,5.5l5.7,0.4c0.2-1.9,0.2-3.9,0.2-5.8L247.9,129.3z"/>
		<path class="st2" d="M250.5,135c-1.6-0.1-2.7-1.4-2.7-3c0-1.5,1.3-2.7,2.9-2.7c1.6,0,2.8,1.4,2.8,3
			C253.5,133.9,252,135.1,250.5,135z"/>
	</g>
	<g>
		<polygon class="st1" points="247.2,139.8 246.5,145.3 252.1,146.2 252.9,140.4 		"/>
		<path class="st2" d="M249.3,145.8c-1.5-0.2-2.7-1.7-2.5-3.2c0.2-1.5,1.6-2.6,3.2-2.4c1.6,0.2,2.7,1.6,2.5,3.2
			C252.3,144.9,250.9,146,249.3,145.8z"/>
	</g>
	<g>
		<path class="st1" d="M245.6,150.3c-0.3,1.8-0.8,3.6-1.2,5.4l5.5,1.4c0.4-1.9,0.9-3.8,1.3-5.7L245.6,150.3z"/>
		<path class="st2" d="M247.2,156.4c-1.5-0.4-2.5-1.9-2.1-3.4c0.2-0.7,0.6-1.4,1.3-1.7c0.6-0.4,1.3-0.6,2.1-0.4
			c0.8,0.2,1.4,0.6,1.8,1.2c0.4,0.6,0.5,1.4,0.4,2.2C250.2,155.8,248.7,156.8,247.2,156.4z"/>
	</g>
	<g>
		<path class="st1" d="M243.1,160.6c-0.3,0.9-0.5,1.8-0.8,2.7l-0.9,2.6l5.4,1.8l0.9-2.8c0.3-0.9,0.5-1.9,0.8-2.8L243.1,160.6z"/>
		<path class="st2" d="M244.1,166.8c-1.5-0.5-2.3-2.1-1.8-3.5c0.5-1.5,2-2.3,3.5-1.9c1.5,0.4,2.4,2,1.9,3.6
			C247.3,166.4,245.6,167.3,244.1,166.8z"/>
	</g>
	<g>
		<path class="st1" d="M239.7,170.6c-0.7,1.7-1.3,3.5-2.1,5.1l5.2,2.3c0.8-1.7,1.5-3.6,2.2-5.4L239.7,170.6z"/>
		<path class="st2" d="M240.2,176.8c-1.4-0.6-2-2.3-1.5-3.7c0.6-1.4,2.2-2.1,3.7-1.6c1.5,0.6,2.2,2.2,1.6,3.7
			C243.4,176.8,241.6,177.5,240.2,176.8z"/>
	</g>
	<g>
		<path class="st1" d="M235.5,180.2c-0.9,1.6-1.7,3.3-2.6,4.9l5,2.7c0.9-1.7,1.8-3.4,2.7-5.2L235.5,180.2z"/>
		<path class="st2" d="M235.4,186.5c-0.7-0.4-1.1-1-1.4-1.7c-0.2-0.7-0.2-1.5,0.2-2.1c0.7-1.4,2.4-1.9,3.8-1.2
			c1.4,0.7,2,2.4,1.2,3.8c-0.4,0.7-1,1.2-1.7,1.4C236.9,187,236.1,186.9,235.4,186.5z"/>
	</g>
	<g>
		<polygon class="st1" points="230.4,189.5 227.4,194.2 232.2,197.4 235.3,192.5 		"/>
		<path class="st2" d="M229.8,195.8c-1.3-0.9-1.7-2.6-0.9-3.9c0.8-1.3,2.6-1.7,3.9-0.9c1.4,0.8,1.7,2.6,0.9,3.9
			C232.9,196.3,231.1,196.7,229.8,195.8z"/>
	</g>
	<g>
		<path class="st1" d="M224.5,198.3c-1.1,1.5-2.3,2.9-3.4,4.4l4.4,3.6c1.2-1.5,2.4-3,3.5-4.6L224.5,198.3z"/>
		<path class="st2" d="M223.4,204.5c-1.2-1-1.4-2.8-0.5-4c1-1.2,2.7-1.5,4-0.5c1.3,0.9,1.6,2.7,0.5,4
			C226.4,205.2,224.6,205.5,223.4,204.5z"/>
	</g>
	<g>
		<path class="st1" d="M217.9,206.5c-1.2,1.4-2.5,2.8-3.7,4.1l4.1,3.9c1.3-1.4,2.7-2.8,3.9-4.3L217.9,206.5z"/>
		<path class="st2" d="M216.2,212.6c-1.1-1.1-1.2-2.9-0.1-4c1-1.1,2.8-1.2,4-0.2c1.2,1,1.3,2.9,0.2,4
			C219.2,213.6,217.4,213.7,216.2,212.6z"/>
	</g>
	<g>
		<path class="st1" d="M210.6,214.2c-1.3,1.3-2.7,2.6-4.1,3.7l3.7,4.3c1.5-1.2,2.9-2.6,4.3-3.9L210.6,214.2z"/>
		<path class="st2" d="M208.4,220.1c-1-1.2-0.9-2.9,0.2-4c1.1-1.1,2.9-1,4,0.1c1.1,1.1,1,2.9-0.1,4.1
			C211.3,221.4,209.4,221.2,208.4,220.1z"/>
	</g>
	<g>
		<path class="st1" d="M202.7,221.2c-1.5,1.1-2.9,2.3-4.4,3.4l3.4,4.6c1.6-1.1,3.1-2.4,4.6-3.5L202.7,221.2z"/>
		<path class="st2" d="M200,226.8c-0.9-1.3-0.6-3,0.5-4c1.2-0.9,3-0.7,4,0.5c1,1.2,0.8,3-0.5,4C202.7,228.4,200.9,228.1,200,226.8z"
			/>
	</g>
	<g>
		<polygon class="st1" points="194.2,227.4 189.5,230.4 192.5,235.3 197.4,232.2 		"/>
		<path class="st2" d="M191,232.9c-0.8-1.3-0.4-3.1,0.9-3.9c1.3-0.8,3-0.4,3.9,0.9c0.9,1.3,0.5,3.1-0.9,3.9
			C193.6,234.6,191.8,234.2,191,232.9z"/>
	</g>
	<g>
		<path class="st1" d="M185.2,232.9c-1.6,0.9-3.3,1.7-4.9,2.6l2.5,5.1c1.7-0.9,3.5-1.7,5.2-2.7L185.2,232.9z"/>
		<path class="st2" d="M181.5,238.1c-0.7-1.4-0.1-3.1,1.2-3.8c0.7-0.3,1.4-0.4,2.1-0.2c0.7,0.2,1.3,0.7,1.7,1.4
			c0.4,0.7,0.4,1.5,0.2,2.2c-0.2,0.7-0.7,1.3-1.4,1.7C183.9,240,182.2,239.5,181.5,238.1z"/>
	</g>
	<g>
		<path class="st1" d="M175.7,237.6c-1.7,0.8-3.4,1.4-5.1,2.1l2.1,5.3c1.8-0.7,3.6-1.4,5.4-2.2L175.7,237.6z"/>
		<path class="st2" d="M171.6,242.4c-0.6-1.5,0.1-3.1,1.6-3.7c1.4-0.6,3,0,3.7,1.5c0.6,1.4,0,3.2-1.5,3.8
			C173.8,244.6,172.2,243.9,171.6,242.4z"/>
	</g>
	<g>
		<path class="st1" d="M165.8,241.5l-2.6,0.9c-0.9,0.3-1.8,0.5-2.7,0.8l1.6,5.5c0.9-0.3,1.9-0.5,2.8-0.8l2.8-0.9L165.8,241.5z"/>
		<path class="st2" d="M161.3,245.9c-0.4-1.5,0.4-3.1,1.9-3.5c1.4-0.5,3,0.3,3.5,1.8c0.5,1.5-0.3,3.1-1.8,3.6
			C163.4,248.3,161.8,247.4,161.3,245.9z"/>
	</g>
	<g>
		<path class="st1" d="M155.7,244.4c-1.8,0.4-3.6,0.9-5.4,1.2l1.1,5.6c1.9-0.3,3.8-0.8,5.7-1.3L155.7,244.4z"/>
		<path class="st2" d="M150.8,248.4c-0.2-0.8,0-1.5,0.4-2.1c0.4-0.6,1-1.1,1.7-1.3c1.5-0.3,3,0.6,3.4,2.1c0.4,1.5-0.6,3.1-2.2,3.4
			c-0.8,0.2-1.6,0-2.2-0.4C151.4,249.8,151,249.2,150.8,248.4z"/>
	</g>
	<g>
		<polygon class="st1" points="145.3,246.5 139.8,247.2 140.4,252.9 146.2,252.1 		"/>
		<path class="st2" d="M140.1,250c-0.2-1.6,0.9-3,2.4-3.2c1.5-0.2,2.9,0.9,3.2,2.5c0.2,1.6-0.9,3-2.4,3.2
			C141.7,252.7,140.3,251.6,140.1,250z"/>
	</g>
	<g>
		<path class="st1" d="M134.8,247.6c-1.8,0.2-3.7,0.2-5.5,0.2l0.1,5.7c1.9-0.1,3.9-0.1,5.8-0.2L134.8,247.6z"/>
		<path class="st2" d="M129.3,250.7c0-1.6,1.2-2.9,2.7-2.9c1.5,0,2.8,1.1,3,2.7c0.1,1.5-1.1,3-2.7,3
			C130.7,253.5,129.4,252.3,129.3,250.7z"/>
	</g>
	<g>
		<path class="st1" d="M124.3,247.9c-1.8-0.1-3.7,0-5.5-0.2l-0.4,5.7c1.9,0.2,3.9,0.2,5.8,0.2L124.3,247.9z"/>
		<path class="st2" d="M118.5,250.5c0.1-1.6,1.4-2.7,3-2.7c1.5,0,2.7,1.3,2.7,2.9c0,1.6-1.4,2.8-3,2.8
			C119.6,253.5,118.4,252,118.5,250.5z"/>
	</g>
	<g>
		<polygon class="st1" points="113.7,247.2 108.2,246.5 107.3,252.1 113.1,252.9 		"/>
		<path class="st2" d="M107.8,249.3c0.2-1.5,1.7-2.7,3.2-2.5c1.5,0.2,2.6,1.6,2.4,3.2c-0.2,1.6-1.6,2.7-3.2,2.5
			C108.6,252.3,107.5,250.9,107.8,249.3z"/>
	</g>
	<g>
		<path class="st1" d="M103.3,245.6c-1.8-0.3-3.6-0.8-5.4-1.2l-1.4,5.5c1.9,0.4,3.8,0.9,5.7,1.3L103.3,245.6z"/>
		<path class="st2" d="M97.2,247.2c0.4-1.5,1.9-2.5,3.4-2.1c0.7,0.2,1.4,0.6,1.7,1.3c0.4,0.6,0.6,1.3,0.4,2.1
			c-0.2,0.8-0.6,1.4-1.2,1.8c-0.6,0.4-1.4,0.5-2.2,0.4C97.8,250.2,96.8,248.7,97.2,247.2z"/>
	</g>
	<g>
		<path class="st1" d="M93,243.1c-0.9-0.3-1.8-0.5-2.7-0.8l-2.6-0.9l-1.8,5.4l2.8,0.9c0.9,0.3,1.9,0.5,2.8,0.8L93,243.1z"/>
		<path class="st2" d="M86.8,244.1c0.5-1.5,2.1-2.3,3.5-1.8c1.5,0.5,2.3,2,1.9,3.5c-0.4,1.5-2,2.4-3.6,1.9
			C87.1,247.3,86.3,245.6,86.8,244.1z"/>
	</g>
	<g>
		<path class="st1" d="M83,239.7c-1.7-0.7-3.5-1.3-5.1-2.1l-2.3,5.2c1.7,0.8,3.6,1.5,5.4,2.2L83,239.7z"/>
		<path class="st2" d="M76.7,240.2c0.6-1.4,2.3-2,3.7-1.5c1.4,0.6,2.1,2.2,1.6,3.7c-0.6,1.5-2.2,2.2-3.7,1.6
			C76.7,243.4,76.1,241.6,76.7,240.2z"/>
	</g>
	<g>
		<path class="st1" d="M73.3,235.5c-1.6-0.9-3.3-1.7-4.9-2.6l-2.7,5c1.7,0.9,3.4,1.8,5.2,2.7L73.3,235.5z"/>
		<path class="st2" d="M67,235.4c0.4-0.7,1-1.1,1.7-1.4c0.7-0.2,1.5-0.2,2.1,0.2c1.4,0.7,1.9,2.4,1.2,3.8c-0.7,1.4-2.4,2-3.8,1.2
			c-0.7-0.4-1.2-1-1.4-1.7C66.6,236.9,66.6,236.1,67,235.4z"/>
	</g>
	<g>
		<polygon class="st1" points="64,230.4 59.4,227.4 56.2,232.2 61.1,235.3 		"/>
		<path class="st2" d="M57.8,229.8c0.9-1.3,2.6-1.7,3.9-0.9c1.3,0.8,1.7,2.6,0.9,3.9c-0.8,1.4-2.6,1.7-3.9,0.9
			C57.3,232.9,56.9,231.1,57.8,229.8z"/>
	</g>
	<g>
		<path class="st1" d="M55.3,224.5c-1.5-1.1-2.9-2.3-4.4-3.4l-3.6,4.4c1.5,1.2,3,2.4,4.6,3.5L55.3,224.5z"/>
		<path class="st2" d="M49.1,223.4c1-1.2,2.8-1.4,4-0.5c1.2,1,1.5,2.7,0.5,4c-0.9,1.3-2.7,1.6-4,0.5
			C48.3,226.4,48.1,224.6,49.1,223.4z"/>
	</g>
	<g>
		<path class="st1" d="M47,217.9c-1.4-1.2-2.8-2.5-4.1-3.7l-3.9,4.1c1.4,1.3,2.8,2.7,4.3,3.9L47,217.9z"/>
		<path class="st2" d="M41,216.2c1.1-1.1,2.9-1.2,4-0.1c1.1,1,1.2,2.8,0.2,4c-1,1.2-2.9,1.3-4,0.2C39.9,219.2,39.9,217.4,41,216.2z"
			/>
	</g>
	<g>
		<path class="st1" d="M39.4,210.6c-1.3-1.3-2.6-2.7-3.7-4.1l-4.3,3.7c1.2,1.5,2.6,2.9,3.9,4.3L39.4,210.6z"/>
		<path class="st2" d="M33.5,208.4c1.2-1,2.9-0.9,4,0.2c1.1,1.1,1,2.9-0.1,4c-1.1,1.1-2.9,1-4.1-0.1
			C32.2,211.3,32.3,209.4,33.5,208.4z"/>
	</g>
	<g>
		<path class="st1" d="M32.4,202.7c-1.1-1.5-2.3-2.9-3.4-4.4l-4.6,3.4c1.1,1.6,2.4,3.1,3.5,4.6L32.4,202.7z"/>
		<path class="st2" d="M26.7,200c1.3-0.9,3-0.6,4,0.5c0.9,1.2,0.7,3-0.5,4c-1.2,1-3,0.8-4-0.5C25.1,202.7,25.4,200.9,26.7,200z"/>
	</g>
	<g>
		<polygon class="st1" points="26.1,194.2 23.1,189.5 18.3,192.5 21.4,197.4 		"/>
		<path class="st2" d="M20.7,191c1.3-0.8,3.1-0.4,3.9,0.9c0.8,1.3,0.4,3-0.9,3.9c-1.3,0.9-3.1,0.5-3.9-0.9
			C18.9,193.6,19.3,191.8,20.7,191z"/>
	</g>
	<g>
		<path class="st1" d="M20.6,185.2c-0.9-1.6-1.7-3.3-2.6-4.9l-5.1,2.5c0.9,1.7,1.7,3.5,2.7,5.2L20.6,185.2z"/>
		<path class="st2" d="M15.5,181.5c1.4-0.7,3.1-0.1,3.8,1.2c0.3,0.7,0.4,1.4,0.2,2.1c-0.2,0.7-0.7,1.3-1.4,1.7
			c-0.7,0.4-1.5,0.4-2.2,0.2c-0.7-0.2-1.3-0.7-1.7-1.4C13.5,183.9,14.1,182.2,15.5,181.5z"/>
	</g>
	<g>
		<path class="st1" d="M15.9,175.7c-0.8-1.7-1.4-3.4-2.1-5.1l-5.3,2.1c0.7,1.8,1.4,3.6,2.2,5.4L15.9,175.7z"/>
		<path class="st2" d="M11.2,171.6c1.5-0.6,3.1,0.1,3.7,1.6c0.6,1.4,0,3-1.5,3.7c-1.4,0.6-3.2,0-3.8-1.5
			C9,173.8,9.7,172.2,11.2,171.6z"/>
	</g>
	<g>
		<path class="st1" d="M12.1,165.8l-0.9-2.6c-0.3-0.9-0.5-1.8-0.8-2.7L5,162.1c0.3,0.9,0.5,1.9,0.8,2.8l0.9,2.8L12.1,165.8z"/>
		<path class="st2" d="M7.7,161.3c1.5-0.4,3.1,0.4,3.5,1.9c0.5,1.4-0.3,3-1.8,3.5c-1.5,0.5-3.1-0.3-3.6-1.8
			C5.3,163.4,6.2,161.8,7.7,161.3z"/>
	</g>
	<g>
		<path class="st1" d="M9.1,155.7c-0.4-1.8-0.9-3.6-1.2-5.4l-5.6,1.1c0.3,1.9,0.8,3.8,1.3,5.7L9.1,155.7z"/>
		<path class="st2" d="M5.1,150.8c0.8-0.2,1.5,0,2.1,0.4c0.6,0.4,1.1,1,1.3,1.7c0.3,1.5-0.6,3-2.1,3.4c-1.5,0.4-3.1-0.6-3.4-2.2
			c-0.2-0.8,0-1.6,0.4-2.2C3.7,151.4,4.4,151,5.1,150.8z"/>
	</g>
	<g>
		<polygon class="st1" points="7,145.3 6.3,139.8 0.7,140.4 1.4,146.2 		"/>
		<path class="st2" d="M3.5,140.1c1.6-0.2,3,0.9,3.2,2.4c0.2,1.5-0.9,2.9-2.5,3.2c-1.6,0.2-3-0.9-3.2-2.4
			C0.8,141.7,1.9,140.3,3.5,140.1z"/>
	</g>
	<g>
		<path class="st1" d="M5.9,134.8c-0.2-1.8-0.2-3.7-0.2-5.5L0,129.4c0.1,1.9,0.1,3.9,0.2,5.8L5.9,134.8z"/>
		<path class="st2" d="M2.8,129.3c1.6,0,2.9,1.2,2.9,2.7c0,1.5-1.1,2.8-2.7,3c-1.5,0.1-3-1.1-3-2.7C0,130.7,1.3,129.4,2.8,129.3z"/>
	</g>
	<g>
		<path class="st1" d="M5.7,124.3c0.1-1.8,0-3.7,0.2-5.5l-5.7-0.4c-0.2,1.9-0.2,3.9-0.2,5.8L5.7,124.3z"/>
		<path class="st2" d="M3.1,118.5c1.6,0.1,2.7,1.4,2.7,3c0,1.5-1.3,2.7-2.9,2.7c-1.6,0-2.8-1.4-2.8-3C0.1,119.6,1.5,118.4,3.1,118.5
			z"/>
	</g>
	<g>
		<polygon class="st1" points="6.3,113.7 7,108.2 1.4,107.3 0.7,113.1 		"/>
		<path class="st2" d="M4.2,107.8c1.5,0.2,2.7,1.7,2.5,3.2c-0.2,1.5-1.6,2.6-3.2,2.4c-1.6-0.2-2.7-1.6-2.5-3.2
			C1.2,108.6,2.7,107.5,4.2,107.8z"/>
	</g>
	<g>
		<path class="st1" d="M7.9,103.3c0.3-1.8,0.8-3.6,1.2-5.4l-5.5-1.4c-0.4,1.9-0.9,3.8-1.3,5.7L7.9,103.3z"/>
		<path class="st2" d="M6.4,97.2c1.5,0.4,2.5,1.9,2.1,3.4c-0.2,0.7-0.6,1.4-1.3,1.7c-0.6,0.4-1.3,0.6-2.1,0.4
			c-0.8-0.2-1.4-0.6-1.8-1.2c-0.4-0.6-0.5-1.4-0.4-2.2C3.3,97.8,4.8,96.8,6.4,97.2z"/>
	</g>
	<g>
		<path class="st1" d="M10.4,93c0.3-0.9,0.5-1.8,0.8-2.7l0.9-2.6l-5.4-1.8l-0.9,2.8c-0.3,0.9-0.5,1.9-0.8,2.8L10.4,93z"/>
		<path class="st2" d="M9.4,86.8c1.5,0.5,2.3,2.1,1.8,3.5c-0.5,1.5-2,2.3-3.5,1.9c-1.5-0.4-2.4-2-1.9-3.6
			C6.3,87.1,7.9,86.3,9.4,86.8z"/>
	</g>
	<g>
		<path class="st1" d="M13.8,83c0.7-1.7,1.3-3.5,2.1-5.1l-5.2-2.3c-0.8,1.7-1.5,3.6-2.2,5.4L13.8,83z"/>
		<path class="st2" d="M13.3,76.7c1.4,0.6,2,2.3,1.5,3.7c-0.6,1.4-2.2,2.1-3.7,1.6c-1.5-0.6-2.2-2.2-1.6-3.7
			C10.2,76.7,11.9,76.1,13.3,76.7z"/>
	</g>
	<g>
		<path class="st1" d="M18,73.3c0.9-1.6,1.7-3.3,2.6-4.9l-5-2.7c-0.9,1.7-1.8,3.4-2.7,5.2L18,73.3z"/>
		<path class="st2" d="M18.1,67c0.7,0.4,1.1,1,1.4,1.7c0.2,0.7,0.2,1.5-0.2,2.1c-0.7,1.4-2.4,1.9-3.8,1.2c-1.4-0.7-2-2.4-1.2-3.8
			c0.4-0.7,1-1.2,1.7-1.4C16.6,66.6,17.4,66.6,18.1,67z"/>
	</g>
	<g>
		<polygon class="st1" points="23.1,64 26.1,59.4 21.4,56.2 18.3,61.1 		"/>
		<path class="st2" d="M23.7,57.8c1.3,0.9,1.7,2.6,0.9,3.9c-0.8,1.3-2.6,1.7-3.9,0.9c-1.4-0.8-1.7-2.6-0.9-3.9
			C20.7,57.3,22.4,56.9,23.7,57.8z"/>
	</g>
	<g>
		<path class="st1" d="M29,55.3c1.1-1.5,2.3-2.9,3.4-4.4L28,47.3c-1.2,1.5-2.4,3-3.5,4.6L29,55.3z"/>
		<path class="st2" d="M30.2,49.1c1.2,1,1.4,2.8,0.5,4c-1,1.2-2.7,1.5-4,0.5c-1.3-0.9-1.6-2.7-0.5-4C27.2,48.3,29,48.1,30.2,49.1z"
			/>
	</g>
	<g>
		<path class="st1" d="M35.6,47c1.2-1.4,2.5-2.8,3.7-4.1L35.3,39c-1.3,1.4-2.7,2.8-3.9,4.3L35.6,47z"/>
		<path class="st2" d="M37.3,41c1.1,1.1,1.2,2.9,0.1,4c-1,1.1-2.8,1.2-4,0.2c-1.2-1-1.3-2.9-0.2-4C34.4,39.9,36.2,39.9,37.3,41z"/>
	</g>
	<g>
		<path class="st1" d="M42.9,39.4c1.3-1.3,2.7-2.6,4.1-3.7l-3.7-4.3c-1.5,1.2-2.9,2.6-4.3,3.9L42.9,39.4z"/>
		<path class="st2" d="M45.1,33.5c1,1.2,0.9,2.9-0.2,4c-1.1,1.1-2.9,1-4-0.1c-1.1-1.1-1-2.9,0.1-4.1C42.3,32.2,44.1,32.3,45.1,33.5z
			"/>
	</g>
	<g>
		<path class="st1" d="M50.9,32.4c1.5-1.1,2.9-2.3,4.4-3.4l-3.4-4.6c-1.6,1.1-3.1,2.4-4.6,3.5L50.9,32.4z"/>
		<path class="st2" d="M53.6,26.7c0.9,1.3,0.6,3-0.5,4c-1.2,0.9-3,0.7-4-0.5c-1-1.2-0.8-3,0.5-4C50.8,25.1,52.7,25.4,53.6,26.7z"/>
	</g>
	<g>
		<polygon class="st1" points="59.4,26.1 64,23.1 61.1,18.3 56.2,21.4 		"/>
		<path class="st2" d="M62.6,20.7c0.8,1.3,0.4,3.1-0.9,3.9c-1.3,0.8-3,0.4-3.9-0.9c-0.9-1.3-0.5-3.1,0.9-3.9
			C60,18.9,61.7,19.3,62.6,20.7z"/>
	</g>
	<g>
		<path class="st1" d="M68.4,20.6c1.6-0.9,3.3-1.7,4.9-2.6l-2.5-5.1c-1.7,0.9-3.5,1.7-5.2,2.7L68.4,20.6z"/>
		<path class="st2" d="M72.1,15.5c0.7,1.4,0.1,3.1-1.2,3.8c-0.7,0.3-1.4,0.4-2.1,0.2c-0.7-0.2-1.3-0.7-1.7-1.4
			c-0.4-0.7-0.4-1.5-0.2-2.2c0.2-0.7,0.7-1.3,1.4-1.7C69.6,13.5,71.4,14.1,72.1,15.5z"/>
	</g>
	<g>
		<path class="st1" d="M77.9,15.9c1.7-0.8,3.4-1.4,5.1-2.1l-2.1-5.3c-1.8,0.7-3.6,1.4-5.4,2.2L77.9,15.9z"/>
		<path class="st2" d="M82,11.2c0.6,1.5-0.1,3.1-1.6,3.7c-1.4,0.6-3,0-3.7-1.5c-0.6-1.4,0-3.2,1.5-3.8C79.7,9,81.4,9.7,82,11.2z"/>
	</g>
	<g>
		<path class="st1" d="M87.7,12.1l2.6-0.9c0.9-0.3,1.8-0.5,2.7-0.8L91.4,5c-0.9,0.3-1.9,0.5-2.8,0.8l-2.8,0.9L87.7,12.1z"/>
		<path class="st2" d="M92.2,7.7c0.4,1.5-0.4,3.1-1.9,3.5c-1.4,0.5-3-0.3-3.5-1.8c-0.5-1.5,0.3-3.1,1.8-3.6
			C90.2,5.3,91.8,6.2,92.2,7.7z"/>
	</g>
	<g>
		<path class="st1" d="M97.8,9.1c1.8-0.4,3.6-0.9,5.4-1.2l-1.1-5.6c-1.9,0.3-3.8,0.8-5.7,1.3L97.8,9.1z"/>
		<path class="st2" d="M102.7,5.1c0.2,0.8,0,1.5-0.4,2.1c-0.4,0.6-1,1.1-1.7,1.3c-1.5,0.3-3-0.6-3.4-2.1c-0.4-1.5,0.6-3.1,2.2-3.4
			c0.8-0.2,1.6,0,2.2,0.4C102.1,3.7,102.6,4.4,102.7,5.1z"/>
	</g>
	<g>
		<polygon class="st1" points="108.2,7 113.7,6.3 113.1,0.7 107.3,1.4 		"/>
		<path class="st2" d="M113.4,3.5c0.2,1.6-0.9,3-2.4,3.2c-1.5,0.2-2.9-0.9-3.2-2.5c-0.2-1.6,0.9-3,2.4-3.2
			C111.8,0.8,113.2,1.9,113.4,3.5z"/>
	</g>
	<g>
		<path class="st1" d="M118.7,5.9c1.8-0.2,3.7-0.2,5.5-0.2L124.1,0c-1.9,0.1-3.9,0.1-5.8,0.2L118.7,5.9z"/>
		<path class="st2" d="M124.2,2.8c0,1.6-1.2,2.9-2.7,2.9c-1.5,0-2.8-1.1-3-2.7c-0.1-1.5,1.1-3,2.7-3C122.9,0,124.2,1.3,124.2,2.8z"
			/>
	</g>
	<g>
		<path class="st1" d="M129.3,5.7c1.8,0.1,3.7,0,5.5,0.2l0.4-5.7c-1.9-0.2-3.9-0.2-5.8-0.2L129.3,5.7z"/>
		<path class="st2" d="M135,3.1c-0.1,1.6-1.4,2.7-3,2.7c-1.5,0-2.7-1.3-2.7-2.9c0-1.6,1.4-2.8,3-2.8C133.9,0.1,135.1,1.5,135,3.1z"
			/>
	</g>
	<g>
		<polygon class="st1" points="139.8,6.3 145.3,7 146.2,1.4 140.4,0.7 		"/>
		<path class="st2" d="M145.8,4.2c-0.2,1.5-1.7,2.7-3.2,2.5c-1.5-0.2-2.6-1.6-2.4-3.2c0.2-1.6,1.6-2.7,3.2-2.5
			C144.9,1.2,146,2.7,145.8,4.2z"/>
	</g>
	<g>
		<path class="st1" d="M150.3,7.9c1.8,0.3,3.6,0.8,5.4,1.2l1.4-5.5c-1.9-0.4-3.8-0.9-5.7-1.3L150.3,7.9z"/>
		<path class="st2" d="M156.4,6.4c-0.4,1.5-1.9,2.5-3.4,2.1c-0.7-0.2-1.4-0.6-1.7-1.3c-0.4-0.6-0.6-1.3-0.4-2.1
			c0.2-0.8,0.6-1.4,1.2-1.8c0.6-0.4,1.4-0.5,2.2-0.4C155.8,3.3,156.8,4.8,156.4,6.4z"/>
	</g>
	<g>
		<path class="st1" d="M160.6,10.4c0.9,0.3,1.8,0.5,2.7,0.8l2.6,0.9l1.8-5.4l-2.8-0.9c-0.9-0.3-1.9-0.5-2.8-0.8L160.6,10.4z"/>
		<path class="st2" d="M166.8,9.4c-0.5,1.5-2.1,2.3-3.5,1.8c-1.5-0.5-2.3-2-1.9-3.5c0.4-1.5,2-2.4,3.6-1.9
			C166.4,6.3,167.3,7.9,166.8,9.4z"/>
	</g>
	<g>
		<path class="st1" d="M170.6,13.8c1.7,0.7,3.5,1.3,5.1,2.1l2.3-5.2c-1.7-0.8-3.6-1.5-5.4-2.2L170.6,13.8z"/>
		<path class="st2" d="M176.8,13.3c-0.6,1.4-2.3,2-3.7,1.5c-1.4-0.6-2.1-2.2-1.6-3.7c0.6-1.5,2.2-2.2,3.7-1.6
			C176.8,10.2,177.5,11.9,176.8,13.3z"/>
	</g>
	<g>
		<path class="st1" d="M180.2,18c1.6,0.9,3.3,1.7,4.9,2.6l2.7-5c-1.7-0.9-3.4-1.8-5.2-2.7L180.2,18z"/>
		<path class="st2" d="M186.5,18.1c-0.4,0.7-1,1.1-1.7,1.4c-0.7,0.2-1.5,0.2-2.1-0.2c-1.4-0.7-1.9-2.4-1.2-3.8
			c0.7-1.4,2.4-2,3.8-1.2c0.7,0.4,1.2,1,1.4,1.7C187,16.6,186.9,17.4,186.5,18.1z"/>
	</g>
	<g>
		<polygon class="st1" points="189.5,23.1 194.2,26.1 197.4,21.4 192.5,18.3 		"/>
		<path class="st2" d="M195.8,23.7c-0.9,1.3-2.6,1.7-3.9,0.9c-1.3-0.8-1.7-2.6-0.9-3.9c0.8-1.4,2.6-1.7,3.9-0.9
			C196.3,20.7,196.7,22.4,195.8,23.7z"/>
	</g>
	<g>
		<path class="st1" d="M198.3,29c1.5,1.1,2.9,2.3,4.4,3.4l3.6-4.4c-1.5-1.2-3-2.4-4.6-3.5L198.3,29z"/>
		<path class="st2" d="M204.5,30.2c-1,1.2-2.8,1.4-4,0.5c-1.2-1-1.5-2.7-0.5-4c0.9-1.3,2.7-1.6,4-0.5
			C205.2,27.2,205.5,29,204.5,30.2z"/>
	</g>
	<g>
		<path class="st1" d="M206.5,35.6c1.4,1.2,2.8,2.5,4.1,3.7l3.9-4.1c-1.4-1.3-2.8-2.7-4.3-3.9L206.5,35.6z"/>
		<path class="st2" d="M212.6,37.3c-1.1,1.1-2.9,1.2-4,0.1c-1.1-1-1.2-2.8-0.2-4c1-1.2,2.9-1.3,4-0.2
			C213.6,34.4,213.7,36.2,212.6,37.3z"/>
	</g>
	<g>
		<path class="st1" d="M214.2,42.9c1.3,1.3,2.6,2.7,3.7,4.1l4.3-3.7c-1.2-1.5-2.6-2.9-3.9-4.3L214.2,42.9z"/>
		<path class="st2" d="M220.1,45.1c-1.2,1-2.9,0.9-4-0.2c-1.1-1.1-1-2.9,0.1-4c1.1-1.1,2.9-1,4.1,0.1
			C221.4,42.3,221.2,44.1,220.1,45.1z"/>
	</g>
	<g>
		<path class="st1" d="M221.2,50.9c1.1,1.5,2.3,2.9,3.4,4.4l4.6-3.4c-1.1-1.6-2.4-3.1-3.5-4.6L221.2,50.9z"/>
		<path class="st2" d="M226.8,53.6c-1.3,0.9-3,0.6-4-0.5c-0.9-1.2-0.7-3,0.5-4c1.2-1,3-0.8,4,0.5C228.4,50.8,228.1,52.7,226.8,53.6z
			"/>
	</g>
	<g>
		<polygon class="st1" points="227.4,59.4 230.4,64 235.3,61.1 232.2,56.2 		"/>
		<path class="st2" d="M232.9,62.6c-1.3,0.8-3.1,0.4-3.9-0.9c-0.8-1.3-0.4-3,0.9-3.9c1.3-0.9,3.1-0.5,3.9,0.9
			C234.6,60,234.2,61.7,232.9,62.6z"/>
	</g>
	<g>
		<path class="st1" d="M232.9,68.4c0.9,1.6,1.7,3.3,2.6,4.9l5.1-2.5c-0.9-1.7-1.7-3.5-2.7-5.2L232.9,68.4z"/>
		<path class="st2" d="M238.1,72.1c-1.4,0.7-3.1,0.1-3.8-1.2c-0.3-0.7-0.4-1.4-0.2-2.1c0.2-0.7,0.7-1.3,1.4-1.7
			c0.7-0.4,1.5-0.4,2.2-0.2c0.7,0.2,1.3,0.7,1.7,1.4C240,69.6,239.5,71.4,238.1,72.1z"/>
	</g>
	<g>
		<path class="st1" d="M237.6,77.9c0.8,1.7,1.4,3.4,2.1,5.1l5.3-2.1c-0.7-1.8-1.4-3.6-2.2-5.4L237.6,77.9z"/>
		<path class="st2" d="M242.4,82c-1.5,0.6-3.1-0.1-3.7-1.6c-0.6-1.4,0-3,1.5-3.7c1.4-0.6,3.2,0,3.8,1.5
			C244.6,79.7,243.9,81.4,242.4,82z"/>
	</g>
	<g>
		<path class="st1" d="M241.5,87.7l0.9,2.6c0.3,0.9,0.5,1.8,0.8,2.7l5.5-1.6c-0.3-0.9-0.5-1.9-0.8-2.8l-0.9-2.8L241.5,87.7z"/>
		<path class="st2" d="M245.9,92.2c-1.5,0.4-3.1-0.4-3.5-1.9c-0.5-1.4,0.3-3,1.8-3.5c1.5-0.5,3.1,0.3,3.6,1.8
			C248.3,90.2,247.4,91.8,245.9,92.2z"/>
	</g>
	<g>
		<path class="st1" d="M244.4,97.8c0.4,1.8,0.9,3.6,1.2,5.4l5.6-1.1c-0.3-1.9-0.8-3.8-1.3-5.7L244.4,97.8z"/>
		<path class="st2" d="M248.4,102.7c-0.8,0.2-1.5,0-2.1-0.4c-0.6-0.4-1.1-1-1.3-1.7c-0.3-1.5,0.6-3,2.1-3.4c1.5-0.4,3.1,0.6,3.4,2.2
			c0.2,0.8,0,1.6-0.4,2.2C249.8,102.1,249.2,102.6,248.4,102.7z"/>
	</g>
	<g>
		<polygon class="st1" points="246.5,108.2 247.2,113.7 252.9,113.1 252.1,107.3 		"/>
		<path class="st2" d="M250,113.4c-1.6,0.2-3-0.9-3.2-2.4c-0.2-1.5,0.9-2.9,2.5-3.2c1.6-0.2,3,0.9,3.2,2.4
			C252.7,111.8,251.6,113.2,250,113.4z"/>
	</g>
	<g>
		<path class="st1" d="M247.6,118.7c0.2,1.8,0.2,3.7,0.2,5.5l5.7-0.1c-0.1-1.9-0.1-3.9-0.2-5.8L247.6,118.7z"/>
		<path class="st2" d="M250.7,124.2c-1.6,0-2.9-1.2-2.9-2.7c0-1.5,1.1-2.8,2.7-3c1.5-0.1,3,1.1,3,2.7
			C253.5,122.9,252.3,124.2,250.7,124.2z"/>
	</g>
</g>
</svg>
