<?xml version="1.0" encoding="utf-8"?>
<!-- Generator: Adobe Illustrator 21.0.0, SVG Export Plug-In . SVG Version: 6.00 Build 0)  -->
<svg version="1.1" id="Calque_1" xmlns="http://www.w3.org/2000/svg" xmlns:xlink="http://www.w3.org/1999/xlink" x="0px" y="0px"
	 viewBox="0 0 273.6 273.7" style="enable-background:new 0 0 273.6 273.7;" xml:space="preserve">
<style type="text/css">
	.st0{opacity:0.12;}
	.st1{fill:none;}
	.st2{fill-rule:evenodd;clip-rule:evenodd;fill:#423F3D;}
</style>
<g class="st0">
	<g>
		<path class="st1" d="M267.9,139.4l-0.1,2.8c0,0.9,0,1.8-0.1,2.8l5.7,0.3c0.1-1,0.1-1.9,0.1-2.9l0.1-2.9L267.9,139.4z"/>
		<path class="st2" d="M270.5,145.1c-1.6-0.1-2.7-1.4-2.7-2.9c0-1.5,1.3-2.7,2.9-2.7c1.6,0,2.8,1.3,2.8,2.9
			C273.5,144,272.1,145.2,270.5,145.1z"/>
	</g>
	<g>
		<path class="st1" d="M267.3,149.9c-0.2,1.8-0.5,3.7-0.7,5.5l5.6,0.8c0.2-1.9,0.5-3.8,0.7-5.7L267.3,149.9z"/>
		<path class="st2" d="M269.4,155.8c-1.6-0.2-2.7-1.6-2.5-3.1c0.2-1.5,1.6-2.6,3.2-2.5c1.6,0.2,2.7,1.6,2.5,3.1
			C272.4,154.9,271,156,269.4,155.8z"/>
	</g>
	<g>
		<path class="st1" d="M265.8,160.4l-0.5,2.7c-0.2,0.9-0.4,1.8-0.6,2.7l5.5,1.2c0.2-0.9,0.4-1.9,0.6-2.8l0.5-2.8L265.8,160.4z"/>
		<path class="st2" d="M267.5,166.4c-1.5-0.4-2.5-1.8-2.2-3.3c0.3-1.5,1.7-2.5,3.3-2.2c1.5,0.3,2.6,1.8,2.3,3.4
			C270.5,165.8,269,166.8,267.5,166.4z"/>
	</g>
	<g>
		<polygon class="st1" points="263.5,170.7 262,176 267.4,177.7 269,172.1 		"/>
		<path class="st2" d="M264.7,176.8c-1.5-0.5-2.4-2-2-3.5c0.4-1.5,2-2.3,3.5-1.9c1.5,0.4,2.4,2,2,3.5
			C267.8,176.5,266.2,177.3,264.7,176.8z"/>
	</g>
	<g>
		<path class="st1" d="M260.4,180.8c-0.3,0.9-0.6,1.7-1,2.6l-1,2.6l5.3,2.1l1.1-2.7c0.4-0.9,0.7-1.8,1-2.7L260.4,180.8z"/>
		<path class="st2" d="M261,187c-1.5-0.6-2.2-2.2-1.6-3.6c0.6-1.4,2.2-2.2,3.6-1.6c1.5,0.5,2.3,2.2,1.7,3.7
			C264.1,186.9,262.5,187.6,261,187z"/>
	</g>
	<g>
		<path class="st1" d="M256.4,190.5c-0.8,1.7-1.5,3.4-2.4,5l5.1,2.5c0.9-1.7,1.7-3.5,2.5-5.2L256.4,190.5z"/>
		<path class="st2" d="M256.6,196.8c-1.4-0.7-1.9-2.4-1.3-3.8c0.6-1.4,2.3-2,3.7-1.4c1.4,0.6,2.1,2.3,1.4,3.8
			C259.8,197,258,197.5,256.6,196.8z"/>
	</g>
	<g>
		<polygon class="st1" points="251.7,200 249,204.8 253.8,207.8 256.7,202.7 		"/>
		<path class="st2" d="M251.4,206.3c-1.3-0.8-1.8-2.6-1-3.9c0.8-1.3,2.5-1.8,3.9-1c1.4,0.8,1.8,2.5,1,3.9
			C254.5,206.6,252.7,207.1,251.4,206.3z"/>
	</g>
	<g>
		<polygon class="st1" points="246.3,209 245.5,210.2 244.7,211.3 243.1,213.6 247.7,216.9 249.4,214.6 250.2,213.4 251,212.2 		"/>
		<path class="st2" d="M245.4,215.3c-1.3-0.9-1.6-2.7-0.7-3.9c0.9-1.2,2.6-1.6,3.9-0.7c1.3,0.9,1.7,2.7,0.8,4
			C248.5,215.9,246.7,216.2,245.4,215.3z"/>
	</g>
	<g>
		<path class="st1" d="M240.1,217.6c-1.1,1.5-2.3,2.9-3.5,4.3l4.3,3.7c1.3-1.4,2.5-3,3.7-4.5L240.1,217.6z"/>
		<path class="st2" d="M238.7,223.7c-1.2-1-1.3-2.8-0.4-4c0.9-1.2,2.7-1.4,4-0.4c1.2,1,1.4,2.8,0.4,4
			C241.8,224.6,239.9,224.8,238.7,223.7z"/>
	</g>
	<g>
		<polygon class="st1" points="233.3,225.7 229.4,229.7 233.4,233.7 237.4,229.5 		"/>
		<path class="st2" d="M231.4,231.7c-1.1-1.1-1.1-2.9-0.1-4c1.1-1.1,2.8-1.1,4-0.1c1.2,1.1,1.2,2.9,0.1,4
			C234.3,232.8,232.5,232.8,231.4,231.7z"/>
	</g>
	<g>
		<path class="st1" d="M225.8,233.1c-1.3,1.3-2.8,2.4-4.2,3.7l3.7,4.3c1.4-1.3,3-2.5,4.3-3.8L225.8,233.1z"/>
		<path class="st2" d="M223.5,239c-1-1.2-0.9-3,0.3-4c1.2-1,2.9-0.9,4,0.2c1.1,1.1,1,3-0.2,4C226.3,240.3,224.5,240.2,223.5,239z"/>
	</g>
	<g>
		<path class="st1" d="M217.7,240l-2.2,1.7c-0.7,0.6-1.5,1.1-2.2,1.6l3.3,4.6c0.8-0.6,1.6-1.1,2.3-1.7l2.3-1.8L217.7,240z"/>
		<path class="st2" d="M215,245.6c-0.9-1.3-0.6-3,0.6-3.9c1.2-0.9,3-0.7,3.9,0.5c1,1.2,0.7,3-0.5,4
			C217.7,247.2,215.9,246.9,215,245.6z"/>
	</g>
	<g>
		<path class="st1" d="M209.2,246.2c-1.6,1-3.1,2-4.7,3l2.9,4.9c1.6-1,3.3-2.1,4.9-3.1L209.2,246.2z"/>
		<path class="st2" d="M206,251.6c-0.8-1.3-0.4-3.1,0.9-3.9c1.3-0.8,3-0.4,3.9,0.9c0.9,1.3,0.5,3.1-0.9,3.9
			C208.6,253.3,206.8,253,206,251.6z"/>
	</g>
	<g>
		<path class="st1" d="M200.2,251.7c-1.6,0.9-3.3,1.7-4.9,2.6l2.5,5.1c1.7-0.9,3.5-1.7,5.1-2.7L200.2,251.7z"/>
		<path class="st2" d="M196.5,256.8c-0.7-1.4-0.2-3.1,1.2-3.8c1.4-0.7,3.1-0.2,3.8,1.2c0.8,1.4,0.3,3.1-1.2,3.8
			C198.9,258.7,197.2,258.2,196.5,256.8z"/>
	</g>
	<g>
		<path class="st1" d="M190.7,256.4l-2.5,1.1c-0.8,0.4-1.7,0.7-2.6,1l2.1,5.3c0.9-0.4,1.8-0.7,2.7-1.1l2.6-1.2L190.7,256.4z"/>
		<path class="st2" d="M186.7,261.2c-0.6-1.5,0.1-3.1,1.5-3.7c1.4-0.6,3,0,3.7,1.4c0.7,1.4,0,3.1-1.5,3.8
			C188.9,263.4,187.3,262.6,186.7,261.2z"/>
	</g>
	<g>
		<polygon class="st1" points="180.9,260.4 175.7,262.1 177.4,267.6 182.8,265.7 		"/>
		<path class="st2" d="M176.5,264.8c-0.5-1.5,0.3-3.1,1.8-3.6c1.4-0.5,3,0.3,3.6,1.8c0.5,1.5-0.3,3.1-1.8,3.6
			C178.6,267.1,177,266.4,176.5,264.8z"/>
	</g>
	<g>
		<polygon class="st1" points="170.9,263.5 169.5,263.9 168.2,264.2 165.5,264.8 166.7,270.4 169.5,269.7 170.9,269.4 172.3,269 		
			"/>
		<path class="st2" d="M166.1,267.6c-0.3-1.5,0.6-3.1,2.1-3.4c1.5-0.3,3,0.5,3.4,2.1c0.4,1.5-0.5,3.1-2.1,3.5
			C168,270.1,166.4,269.1,166.1,267.6z"/>
	</g>
	<g>
		<path class="st1" d="M160.5,265.8c-1.8,0.3-3.6,0.7-5.5,0.9l0.8,5.6c1.9-0.2,3.8-0.6,5.7-0.9L160.5,265.8z"/>
		<path class="st2" d="M155.5,269.5c-0.2-1.6,0.9-2.9,2.3-3.2c1.5-0.3,3,0.8,3.2,2.3c0.3,1.5-0.8,3-2.3,3.3
			C157.2,272.2,155.7,271,155.5,269.5z"/>
	</g>
	<g>
		<polygon class="st1" points="150.1,267.3 144.6,267.7 144.9,273.4 150.7,273 		"/>
		<path class="st2" d="M144.7,270.6c-0.1-1.6,1.1-2.9,2.6-3.1c1.5-0.1,2.9,1.1,3,2.6c0.2,1.6-1,2.9-2.6,3
			C146.2,273.3,144.8,272.2,144.7,270.6z"/>
	</g>
	<g>
		<polygon class="st1" points="139.5,267.9 136.8,268 134,267.9 133.9,273.6 136.8,273.7 139.7,273.6 		"/>
		<path class="st2" d="M133.9,270.8c0-1.6,1.3-2.8,2.8-2.8c1.5,0,2.8,1.2,2.8,2.8c0,1.6-1.2,2.9-2.8,2.9
			C135.2,273.6,133.9,272.3,133.9,270.8z"/>
	</g>
	<g>
		<polygon class="st1" points="129,267.7 123.5,267.3 122.9,273 128.7,273.4 		"/>
		<path class="st2" d="M123.2,270.2c0.2-1.6,1.5-2.7,3.1-2.6c1.5,0.1,2.7,1.5,2.6,3c-0.1,1.6-1.5,2.7-3,2.6
			C124.2,273.1,123,271.7,123.2,270.2z"/>
	</g>
	<g>
		<path class="st1" d="M118.5,266.7c-1.8-0.2-3.6-0.6-5.5-0.9l-1,5.6c1.9,0.3,3.8,0.7,5.7,0.9L118.5,266.7z"/>
		<path class="st2" d="M112.5,268.6c0.3-1.5,1.7-2.6,3.2-2.3c1.5,0.3,2.6,1.6,2.3,3.2c-0.2,1.5-1.7,2.7-3.3,2.4
			C113.2,271.6,112.2,270.1,112.5,268.6z"/>
	</g>
	<g>
		<polygon class="st1" points="108.1,264.8 105.4,264.2 104,263.9 102.7,263.5 101.2,269 102.6,269.4 104,269.7 106.8,270.4 		"/>
		<path class="st2" d="M102,266.2c0.4-1.5,1.9-2.4,3.4-2.1c1.5,0.3,2.4,1.9,2.1,3.4c-0.3,1.5-1.9,2.5-3.4,2.1
			C102.5,269.4,101.6,267.8,102,266.2z"/>
	</g>
	<g>
		<polygon class="st1" points="97.9,262.1 92.6,260.4 90.7,265.7 96.2,267.6 		"/>
		<path class="st2" d="M91.7,263c0.5-1.5,2.1-2.3,3.6-1.8c1.4,0.5,2.2,2.1,1.8,3.6c-0.5,1.5-2.1,2.3-3.6,1.8
			C91.9,266.1,91.1,264.5,91.7,263z"/>
	</g>
	<g>
		<path class="st1" d="M87.9,258.6c-0.9-0.3-1.7-0.7-2.6-1l-2.5-1.1l-2.3,5.2l2.6,1.2c0.9,0.4,1.8,0.7,2.7,1.1L87.9,258.6z"/>
		<path class="st2" d="M81.7,259c0.7-1.4,2.3-2.1,3.7-1.4c1.4,0.6,2.1,2.2,1.5,3.7c-0.6,1.4-2.3,2.2-3.7,1.6
			C81.7,262.1,81,260.4,81.7,259z"/>
	</g>
	<g>
		<path class="st1" d="M78.3,254.2c-1.6-0.9-3.3-1.6-4.9-2.6l-2.8,5c1.7,1,3.4,1.8,5.1,2.7L78.3,254.2z"/>
		<path class="st2" d="M72,254.2c0.8-1.4,2.5-1.9,3.8-1.2c1.4,0.7,1.9,2.4,1.2,3.8c-0.7,1.4-2.4,2-3.8,1.2
			C71.7,257.3,71.2,255.5,72,254.2z"/>
	</g>
	<g>
		<path class="st1" d="M69,249.2c-1.6-1-3.1-2-4.7-3l-3.1,4.7c1.6,1,3.2,2.1,4.9,3.1L69,249.2z"/>
		<path class="st2" d="M62.8,248.6c0.9-1.3,2.6-1.7,3.9-0.9c1.3,0.8,1.7,2.6,0.9,3.9c-0.8,1.4-2.6,1.7-3.9,0.9
			C62.3,251.6,61.9,249.9,62.8,248.6z"/>
	</g>
	<g>
		<path class="st1" d="M60.2,243.3c-0.7-0.5-1.5-1.1-2.2-1.6l-2.2-1.7l-3.5,4.5l2.3,1.8c0.8,0.6,1.6,1.1,2.3,1.7L60.2,243.3z"/>
		<path class="st2" d="M54.1,242.2c1-1.2,2.7-1.5,3.9-0.5c1.2,0.9,1.5,2.6,0.6,3.9c-0.9,1.3-2.7,1.6-4,0.6
			C53.3,245.2,53.1,243.4,54.1,242.2z"/>
	</g>
	<g>
		<path class="st1" d="M51.9,236.8c-1.4-1.2-2.8-2.4-4.2-3.7l-3.9,4.2c1.4,1.3,2.9,2.5,4.3,3.8L51.9,236.8z"/>
		<path class="st2" d="M45.8,235.2c1.1-1.1,2.8-1.2,4-0.2c1.2,1,1.3,2.8,0.3,4c-1,1.2-2.8,1.3-4,0.3
			C44.8,238.2,44.8,236.4,45.8,235.2z"/>
	</g>
	<g>
		<polygon class="st1" points="44.1,229.7 40.3,225.7 36.1,229.5 40.1,233.7 		"/>
		<path class="st2" d="M38.2,227.6c1.2-1.1,3-1,4,0.1c1.1,1.1,1,2.9-0.1,4c-1.1,1.1-2.9,1.1-4-0.1C37,230.4,37,228.6,38.2,227.6z"/>
	</g>
	<g>
		<path class="st1" d="M37,221.9c-1.2-1.4-2.4-2.8-3.5-4.3l-4.5,3.5c1.2,1.5,2.4,3,3.7,4.5L37,221.9z"/>
		<path class="st2" d="M31.2,219.4c1.2-1,3-0.8,4,0.4c1,1.2,0.8,2.9-0.4,4c-1.2,1-3,0.9-4-0.4C29.8,222.1,30,220.3,31.2,219.4z"/>
	</g>
	<g>
		<polygon class="st1" points="30.5,213.6 28.8,211.3 28,210.2 27.3,209 22.5,212.2 23.3,213.4 24.2,214.6 25.8,216.9 		"/>
		<path class="st2" d="M24.9,210.6c1.3-0.9,3-0.5,3.9,0.7c0.9,1.2,0.6,3-0.7,3.9c-1.3,0.9-3,0.6-4-0.7
			C23.2,213.3,23.6,211.5,24.9,210.6z"/>
	</g>
	<g>
		<polygon class="st1" points="24.6,204.8 21.8,200 16.8,202.7 19.7,207.8 		"/>
		<path class="st2" d="M19.3,201.4c1.4-0.8,3.1-0.3,3.9,1c0.8,1.3,0.3,3.1-1.1,3.9c-1.3,0.8-3.1,0.4-3.9-1
			C17.5,203.9,18,202.1,19.3,201.4z"/>
	</g>
	<g>
		<path class="st1" d="M19.5,195.6c-0.9-1.6-1.6-3.3-2.4-5l-5.2,2.3c0.8,1.8,1.6,3.5,2.5,5.2L19.5,195.6z"/>
		<path class="st2" d="M14.5,191.7c1.4-0.6,3.1,0,3.7,1.4c0.6,1.4,0.1,3-1.3,3.8c-1.4,0.7-3.2,0.1-3.8-1.3
			C12.5,194.1,13.1,192.3,14.5,191.7z"/>
	</g>
	<g>
		<path class="st1" d="M15.2,185.9l-1-2.6c-0.3-0.9-0.7-1.7-1-2.6l-5.4,1.9c0.3,0.9,0.6,1.8,1,2.7l1.1,2.7L15.2,185.9z"/>
		<path class="st2" d="M10.5,181.7c1.5-0.5,3.1,0.2,3.6,1.6c0.6,1.4-0.2,3.1-1.6,3.6c-1.5,0.6-3.1-0.1-3.7-1.6
			C8.2,183.9,9,182.2,10.5,181.7z"/>
	</g>
	<g>
		<polygon class="st1" points="11.6,176 10,170.7 4.6,172.1 6.1,177.7 		"/>
		<path class="st2" d="M7.3,171.4c1.5-0.4,3.1,0.5,3.5,1.9c0.4,1.5-0.5,3-2,3.5c-1.5,0.5-3.1-0.4-3.5-1.9
			C4.9,173.4,5.8,171.8,7.3,171.4z"/>
	</g>
	<g>
		<path class="st1" d="M8.9,165.8c-0.2-0.9-0.4-1.8-0.6-2.7l-0.5-2.7l-5.6,1l0.5,2.8c0.2,0.9,0.4,1.9,0.6,2.8L8.9,165.8z"/>
		<path class="st2" d="M5,160.9c1.5-0.3,3,0.7,3.3,2.2c0.3,1.5-0.6,3-2.2,3.3c-1.5,0.3-3.1-0.6-3.4-2.2C2.4,162.6,3.4,161.1,5,160.9
			z"/>
	</g>
	<g>
		<path class="st1" d="M7,155.4c-0.2-1.8-0.5-3.7-0.7-5.5l-5.7,0.6c0.2,1.9,0.5,3.8,0.7,5.7L7,155.4z"/>
		<path class="st2" d="M3.4,150.2c1.5-0.1,3,1,3.2,2.5c0.2,1.5-0.9,2.9-2.5,3.1c-1.6,0.2-3-0.9-3.2-2.5
			C0.8,151.7,1.9,150.3,3.4,150.2z"/>
	</g>
	<g>
		<path class="st1" d="M5.9,144.9c-0.1-0.9-0.1-1.8-0.1-2.8l-0.1-2.8L0,139.5l0.1,2.9c0,1,0.1,1.9,0.1,2.9L5.9,144.9z"/>
		<path class="st2" d="M2.8,139.4c1.6,0,2.9,1.2,2.9,2.7c0,1.5-1.1,2.8-2.7,2.9c-1.6,0.1-3-1.1-3-2.7C0,140.7,1.3,139.4,2.8,139.4z"
			/>
	</g>
	<g>
		<path class="st1" d="M5.7,134.3l0.1-2.8c0-0.9,0-1.8,0.1-2.8l-5.7-0.3c-0.1,1-0.1,1.9-0.1,2.9L0,134.2L5.7,134.3z"/>
		<path class="st2" d="M3.1,128.6c1.6,0.1,2.7,1.4,2.7,2.9c0,1.5-1.3,2.7-2.9,2.7c-1.6,0-2.8-1.3-2.8-2.9
			C0.1,129.7,1.5,128.5,3.1,128.6z"/>
	</g>
	<g>
		<path class="st1" d="M6.3,123.8c0.2-1.8,0.5-3.7,0.7-5.5l-5.6-0.8c-0.2,1.9-0.5,3.8-0.7,5.7L6.3,123.8z"/>
		<path class="st2" d="M4.1,117.9c1.6,0.2,2.7,1.6,2.5,3.1c-0.2,1.5-1.6,2.6-3.2,2.5c-1.6-0.2-2.7-1.6-2.5-3.1
			C1.2,118.8,2.6,117.7,4.1,117.9z"/>
	</g>
	<g>
		<path class="st1" d="M7.8,113.3l0.5-2.7c0.2-0.9,0.4-1.8,0.6-2.7l-5.5-1.2c-0.2,0.9-0.4,1.9-0.6,2.8l-0.5,2.8L7.8,113.3z"/>
		<path class="st2" d="M6.1,107.3c1.5,0.4,2.5,1.8,2.2,3.3c-0.3,1.5-1.7,2.5-3.3,2.2c-1.5-0.3-2.6-1.8-2.3-3.4
			C3,107.9,4.6,106.9,6.1,107.3z"/>
	</g>
	<g>
		<polygon class="st1" points="10,103 11.6,97.7 6.1,96 4.6,101.6 		"/>
		<path class="st2" d="M8.9,96.8c1.5,0.5,2.4,2,2,3.5c-0.4,1.5-2,2.3-3.5,1.9c-1.5-0.4-2.4-2-2-3.5C5.8,97.2,7.3,96.4,8.9,96.8z"/>
	</g>
	<g>
		<path class="st1" d="M13.2,92.9c0.3-0.9,0.6-1.7,1-2.6l1-2.6l-5.3-2.1l-1.1,2.7c-0.4,0.9-0.7,1.8-1,2.7L13.2,92.9z"/>
		<path class="st2" d="M12.5,86.7c1.5,0.6,2.2,2.2,1.6,3.6c-0.6,1.4-2.2,2.2-3.6,1.6c-1.5-0.5-2.3-2.2-1.7-3.7
			C9.4,86.8,11.1,86.1,12.5,86.7z"/>
	</g>
	<g>
		<path class="st1" d="M17.1,83.1c0.8-1.7,1.5-3.4,2.4-5l-5.1-2.5c-0.9,1.7-1.7,3.5-2.5,5.2L17.1,83.1z"/>
		<path class="st2" d="M17,76.9c1.4,0.7,1.9,2.4,1.3,3.8c-0.6,1.4-2.3,2-3.7,1.4c-1.4-0.6-2.1-2.3-1.4-3.8
			C13.8,76.7,15.6,76.2,17,76.9z"/>
	</g>
	<g>
		<polygon class="st1" points="21.8,73.7 24.6,68.9 19.7,65.9 16.8,70.9 		"/>
		<path class="st2" d="M22.2,67.4c1.3,0.8,1.8,2.6,1,3.9c-0.8,1.3-2.5,1.8-3.9,1c-1.4-0.8-1.8-2.5-1-3.9
			C19.1,67,20.8,66.6,22.2,67.4z"/>
	</g>
	<g>
		<polygon class="st1" points="27.3,64.6 28,63.5 28.8,62.3 30.5,60.1 25.8,56.8 24.2,59.1 23.3,60.3 22.5,61.5 		"/>
		<path class="st2" d="M28.1,58.4c1.3,0.9,1.6,2.7,0.7,3.9c-0.9,1.2-2.6,1.6-3.9,0.7c-1.3-0.9-1.7-2.7-0.8-4
			C25.1,57.8,26.9,57.5,28.1,58.4z"/>
	</g>
	<g>
		<path class="st1" d="M33.5,56.1c1.1-1.5,2.3-2.9,3.5-4.3l-4.3-3.7c-1.3,1.4-2.5,3-3.7,4.5L33.5,56.1z"/>
		<path class="st2" d="M34.8,49.9c1.2,1,1.3,2.8,0.4,4c-0.9,1.2-2.7,1.4-4,0.4c-1.2-1-1.4-2.8-0.4-4C31.8,49.1,33.6,48.9,34.8,49.9z
			"/>
	</g>
	<g>
		<polygon class="st1" points="40.3,48 44.1,44 40.1,40 36.1,44.2 		"/>
		<path class="st2" d="M42.1,42c1.1,1.1,1.1,2.9,0.1,4c-1.1,1.1-2.8,1.1-4,0.1c-1.2-1.1-1.2-2.9-0.1-4C39.2,40.9,41,40.9,42.1,42z"
			/>
	</g>
	<g>
		<path class="st1" d="M47.8,40.5c1.3-1.3,2.8-2.4,4.2-3.7l-3.7-4.3c-1.4,1.3-3,2.5-4.3,3.8L47.8,40.5z"/>
		<path class="st2" d="M50.1,34.7c1,1.2,0.9,3-0.3,4c-1.2,1-2.9,0.9-4-0.2c-1.1-1.1-1-3,0.2-4C47.3,33.4,49.1,33.5,50.1,34.7z"/>
	</g>
	<g>
		<path class="st1" d="M55.8,33.7L58,32c0.7-0.6,1.5-1.1,2.2-1.6l-3.3-4.6c-0.8,0.6-1.6,1.1-2.3,1.7l-2.3,1.8L55.8,33.7z"/>
		<path class="st2" d="M58.6,28.1c0.9,1.3,0.6,3-0.6,3.9c-1.2,0.9-3,0.7-3.9-0.5c-1-1.2-0.7-3,0.5-4C55.9,26.5,57.7,26.8,58.6,28.1z
			"/>
	</g>
	<g>
		<path class="st1" d="M64.4,27.5c1.6-1,3.1-2,4.7-3l-2.9-4.9c-1.6,1-3.3,2.1-4.9,3.1L64.4,27.5z"/>
		<path class="st2" d="M67.6,22.1c0.8,1.3,0.4,3.1-0.9,3.9c-1.3,0.8-3,0.4-3.9-0.9c-0.9-1.3-0.5-3.1,0.9-3.9
			C65,20.3,66.7,20.7,67.6,22.1z"/>
	</g>
	<g>
		<path class="st1" d="M73.4,22c1.6-0.9,3.3-1.7,4.9-2.6l-2.5-5.1c-1.7,0.9-3.5,1.7-5.1,2.7L73.4,22z"/>
		<path class="st2" d="M77,16.9c0.7,1.4,0.2,3.1-1.2,3.8c-1.4,0.7-3.1,0.2-3.8-1.2c-0.8-1.4-0.3-3.1,1.2-3.8
			C74.6,14.9,76.3,15.5,77,16.9z"/>
	</g>
	<g>
		<path class="st1" d="M82.8,17.3l2.5-1.1c0.8-0.4,1.7-0.7,2.6-1l-2.1-5.3c-0.9,0.4-1.8,0.7-2.7,1.1l-2.6,1.2L82.8,17.3z"/>
		<path class="st2" d="M86.9,12.5c0.6,1.5-0.1,3.1-1.5,3.7c-1.4,0.6-3,0-3.7-1.4c-0.7-1.4,0-3.1,1.5-3.8
			C84.6,10.3,86.3,11,86.9,12.5z"/>
	</g>
	<g>
		<polygon class="st1" points="92.6,13.3 97.9,11.6 96.2,6.1 90.7,8 		"/>
		<path class="st2" d="M97,8.8c0.5,1.5-0.3,3.1-1.8,3.6c-1.4,0.5-3-0.3-3.6-1.8c-0.5-1.5,0.3-3.1,1.8-3.6C95,6.5,96.6,7.3,97,8.8z"
			/>
	</g>
	<g>
		<polygon class="st1" points="102.7,10.2 104,9.8 105.4,9.5 108.1,8.9 106.8,3.3 104,4 102.6,4.3 101.2,4.7 		"/>
		<path class="st2" d="M107.5,6.1c0.3,1.5-0.6,3.1-2.1,3.4c-1.5,0.3-3-0.5-3.4-2.1c-0.4-1.5,0.5-3.1,2.1-3.5
			C105.6,3.6,107.1,4.6,107.5,6.1z"/>
	</g>
	<g>
		<path class="st1" d="M113,7.9c1.8-0.3,3.6-0.7,5.5-0.9l-0.8-5.6c-1.9,0.2-3.8,0.6-5.7,0.9L113,7.9z"/>
		<path class="st2" d="M118.1,4.2c0.2,1.6-0.9,2.9-2.3,3.2c-1.5,0.3-3-0.8-3.2-2.3c-0.3-1.5,0.8-3,2.3-3.3
			C116.4,1.5,117.9,2.6,118.1,4.2z"/>
	</g>
	<g>
		<polygon class="st1" points="123.5,6.4 129,5.9 128.7,0.3 122.9,0.7 		"/>
		<path class="st2" d="M128.8,3.1c0.1,1.6-1.1,2.9-2.6,3.1c-1.5,0.1-2.9-1.1-3-2.6c-0.2-1.6,1-2.9,2.6-3
			C127.4,0.4,128.7,1.5,128.8,3.1z"/>
	</g>
	<g>
		<polygon class="st1" points="134,5.8 136.8,5.7 139.5,5.8 139.7,0.1 136.8,0 133.9,0.1 		"/>
		<path class="st2" d="M139.6,2.9c0,1.6-1.3,2.8-2.8,2.8c-1.5,0-2.8-1.2-2.8-2.8c0-1.6,1.2-2.9,2.8-2.9C138.4,0,139.6,1.3,139.6,2.9
			z"/>
	</g>
	<g>
		<polygon class="st1" points="144.6,5.9 150.1,6.4 150.7,0.7 144.9,0.3 		"/>
		<path class="st2" d="M150.4,3.5c-0.2,1.6-1.5,2.7-3.1,2.6c-1.5-0.1-2.7-1.5-2.6-3c0.1-1.6,1.5-2.7,3-2.6
			C149.4,0.6,150.5,2,150.4,3.5z"/>
	</g>
	<g>
		<path class="st1" d="M155.1,7c1.8,0.2,3.6,0.6,5.5,0.9l1-5.6c-1.9-0.3-3.8-0.7-5.7-0.9L155.1,7z"/>
		<path class="st2" d="M161.1,5.1c-0.3,1.5-1.7,2.6-3.2,2.3c-1.5-0.3-2.6-1.6-2.3-3.2c0.2-1.5,1.7-2.7,3.3-2.4
			C160.3,2.1,161.3,3.5,161.1,5.1z"/>
	</g>
	<g>
		<polygon class="st1" points="165.5,8.9 168.2,9.5 169.5,9.8 170.9,10.2 172.3,4.7 170.9,4.3 169.5,4 166.7,3.3 		"/>
		<path class="st2" d="M171.6,7.4c-0.4,1.5-1.9,2.4-3.4,2.1c-1.5-0.3-2.4-1.9-2.1-3.4c0.3-1.5,1.9-2.5,3.4-2.1
			C171.1,4.3,172,5.9,171.6,7.4z"/>
	</g>
	<g>
		<polygon class="st1" points="175.7,11.6 180.9,13.3 182.8,8 177.4,6.1 		"/>
		<path class="st2" d="M181.9,10.6c-0.5,1.5-2.1,2.3-3.6,1.8c-1.4-0.5-2.2-2.1-1.8-3.6c0.5-1.5,2.1-2.3,3.6-1.8
			C181.6,7.6,182.4,9.2,181.9,10.6z"/>
	</g>
	<g>
		<path class="st1" d="M185.6,15.1c0.9,0.3,1.7,0.7,2.6,1l2.5,1.1l2.3-5.2l-2.6-1.2c-0.9-0.4-1.8-0.7-2.7-1.1L185.6,15.1z"/>
		<path class="st2" d="M191.9,14.7c-0.7,1.4-2.3,2.1-3.7,1.4c-1.4-0.6-2.1-2.2-1.5-3.7c0.6-1.4,2.3-2.2,3.7-1.6
			C191.9,11.6,192.5,13.3,191.9,14.7z"/>
	</g>
	<g>
		<path class="st1" d="M195.3,19.4c1.6,0.9,3.3,1.6,4.9,2.6l2.8-5c-1.7-1-3.4-1.8-5.1-2.7L195.3,19.4z"/>
		<path class="st2" d="M201.5,19.5c-0.8,1.4-2.5,1.9-3.8,1.2c-1.4-0.7-1.9-2.4-1.2-3.8c0.7-1.4,2.4-2,3.8-1.2
			C201.8,16.4,202.3,18.2,201.5,19.5z"/>
	</g>
	<g>
		<path class="st1" d="M204.5,24.5c1.6,1,3.1,2,4.7,3l3.1-4.7c-1.6-1-3.2-2.1-4.9-3.1L204.5,24.5z"/>
		<path class="st2" d="M210.8,25.1c-0.9,1.3-2.6,1.7-3.9,0.9c-1.3-0.8-1.7-2.6-0.9-3.9c0.8-1.4,2.6-1.7,3.9-0.9
			C211.3,22.1,211.6,23.8,210.8,25.1z"/>
	</g>
	<g>
		<path class="st1" d="M213.3,30.4c0.7,0.5,1.5,1.1,2.2,1.6l2.2,1.7l3.5-4.5l-2.3-1.8c-0.8-0.6-1.6-1.1-2.3-1.7L213.3,30.4z"/>
		<path class="st2" d="M219.5,31.5c-1,1.2-2.7,1.5-3.9,0.5c-1.2-0.9-1.5-2.6-0.6-3.9c0.9-1.3,2.7-1.6,4-0.6
			C220.2,28.4,220.5,30.2,219.5,31.5z"/>
	</g>
	<g>
		<path class="st1" d="M221.6,36.9c1.4,1.2,2.8,2.4,4.2,3.7l3.9-4.2c-1.4-1.3-2.9-2.5-4.3-3.8L221.6,36.9z"/>
		<path class="st2" d="M227.7,38.5c-1.1,1.1-2.8,1.2-4,0.2c-1.2-1-1.3-2.8-0.3-4c1-1.2,2.8-1.3,4-0.3
			C228.7,35.5,228.8,37.3,227.7,38.5z"/>
	</g>
	<g>
		<polygon class="st1" points="229.4,44 233.3,48 237.4,44.2 233.4,40 		"/>
		<path class="st2" d="M235.3,46.1c-1.2,1.1-3,1-4-0.1c-1.1-1.1-1-2.9,0.1-4c1.1-1.1,2.9-1.1,4,0.1C236.5,43.2,236.5,45,235.3,46.1z
			"/>
	</g>
	<g>
		<path class="st1" d="M236.6,51.8c1.2,1.4,2.4,2.8,3.5,4.3l4.5-3.5c-1.2-1.5-2.4-3-3.7-4.5L236.6,51.8z"/>
		<path class="st2" d="M242.3,54.3c-1.2,1-3,0.8-4-0.4c-1-1.2-0.8-2.9,0.4-4c1.2-1,3-0.9,4,0.4C243.8,51.6,243.6,53.4,242.3,54.3z"
			/>
	</g>
	<g>
		<polygon class="st1" points="243.1,60.1 244.7,62.3 245.5,63.5 246.3,64.6 251,61.5 250.2,60.3 249.4,59.1 247.7,56.8 		"/>
		<path class="st2" d="M248.6,63.1c-1.3,0.9-3,0.5-3.9-0.7c-0.9-1.2-0.6-3,0.7-3.9c1.3-0.9,3-0.6,4,0.7
			C250.3,60.4,249.9,62.2,248.6,63.1z"/>
	</g>
	<g>
		<polygon class="st1" points="249,68.9 251.7,73.7 256.7,70.9 253.8,65.9 		"/>
		<path class="st2" d="M254.2,72.3c-1.4,0.8-3.1,0.3-3.9-1c-0.8-1.3-0.3-3.1,1.1-3.9c1.3-0.8,3.1-0.4,3.9,1
			C256.1,69.8,255.6,71.6,254.2,72.3z"/>
	</g>
	<g>
		<path class="st1" d="M254.1,78.1c0.9,1.6,1.6,3.3,2.4,5l5.2-2.3c-0.8-1.8-1.6-3.5-2.5-5.2L254.1,78.1z"/>
		<path class="st2" d="M259,82c-1.4,0.6-3.1,0-3.7-1.4c-0.6-1.4-0.1-3,1.3-3.8c1.4-0.7,3.2-0.1,3.8,1.3
			C261.1,79.6,260.5,81.3,259,82z"/>
	</g>
	<g>
		<path class="st1" d="M258.4,87.8l1,2.6c0.3,0.9,0.7,1.7,1,2.6l5.4-1.9c-0.3-0.9-0.6-1.8-1-2.7l-1.1-2.7L258.4,87.8z"/>
		<path class="st2" d="M263.1,92c-1.5,0.5-3.1-0.2-3.6-1.6c-0.6-1.4,0.2-3.1,1.6-3.6c1.5-0.6,3.1,0.1,3.7,1.6
			C265.3,89.8,264.5,91.5,263.1,92z"/>
	</g>
	<g>
		<polygon class="st1" points="262,97.7 263.5,103 269,101.6 267.4,96 		"/>
		<path class="st2" d="M266.3,102.3c-1.5,0.4-3.1-0.5-3.5-1.9c-0.4-1.5,0.5-3,2-3.5c1.5-0.5,3.1,0.4,3.5,1.9
			C268.6,100.3,267.8,101.9,266.3,102.3z"/>
	</g>
	<g>
		<path class="st1" d="M264.7,107.9c0.2,0.9,0.4,1.8,0.6,2.7l0.5,2.7l5.6-1l-0.5-2.8c-0.2-0.9-0.4-1.9-0.6-2.8L264.7,107.9z"/>
		<path class="st2" d="M268.6,112.8c-1.5,0.3-3-0.7-3.3-2.2c-0.3-1.5,0.6-3,2.2-3.3c1.5-0.3,3.1,0.6,3.4,2.2
			C271.2,111,270.1,112.5,268.6,112.8z"/>
	</g>
	<g>
		<path class="st1" d="M266.6,118.3c0.2,1.8,0.5,3.7,0.7,5.5l5.7-0.6c-0.2-1.9-0.5-3.8-0.7-5.7L266.6,118.3z"/>
		<path class="st2" d="M270.1,123.5c-1.5,0.1-3-1-3.2-2.5c-0.2-1.5,0.9-2.9,2.5-3.1c1.6-0.2,3,0.9,3.2,2.5
			C272.8,121.9,271.7,123.4,270.1,123.5z"/>
	</g>
	<g>
		<path class="st1" d="M267.7,128.8c0.1,0.9,0.1,1.8,0.1,2.8l0.1,2.8l5.7-0.1l-0.1-2.9c0-1-0.1-1.9-0.1-2.9L267.7,128.8z"/>
		<path class="st2" d="M270.7,134.3c-1.6,0-2.9-1.2-2.9-2.7c0-1.5,1.1-2.8,2.7-2.9c1.6-0.1,3,1.1,3,2.7
			C273.5,132.9,272.3,134.3,270.7,134.3z"/>
	</g>
</g>
</svg>
