<?xml version="1.0" encoding="utf-8"?>
<!-- Generator: Adobe Illustrator 21.0.0, SVG Export Plug-In . SVG Version: 6.00 Build 0)  -->
<svg version="1.1" id="Calque_1" xmlns="http://www.w3.org/2000/svg" xmlns:xlink="http://www.w3.org/1999/xlink" x="0px" y="0px"
	 viewBox="0 0 103.4 103.4" style="enable-background:new 0 0 103.4 103.4;" xml:space="preserve">
<style type="text/css">
	.st0{opacity:0.12;}
	.st1{fill:none;}
	.st2{fill-rule:evenodd;clip-rule:evenodd;fill:#423F3D;}
</style>
<g class="st0">
	<g>
		<path class="st1" d="M97.7,54.2c-0.1,0.9,0,1.8-0.2,2.7l-0.4,2.7l5.6,1l0.5-3c0.2-1,0.1-2,0.2-3L97.7,54.2z"/>
		<path class="st2" d="M99.9,60c-1.5-0.3-2.6-1.7-2.4-3.2c0.2-1.5,1.4-2.6,3-2.6c1.5,0.1,2.8,1.5,2.6,3.2
			C103,59.2,101.5,60.3,99.9,60z"/>
	</g>
	<g>
		<path class="st1" d="M96.1,64.4c-0.1,0.4-0.2,0.9-0.4,1.3l-0.5,1.3l-0.9,2.6l5.2,2.2l1.1-2.9l0.5-1.4c0.2-0.5,0.3-1,0.4-1.5
			L96.1,64.4z"/>
		<path class="st2" d="M96.9,70.6c-1.4-0.6-2.2-2.3-1.7-3.6c0.2-0.7,0.8-1.2,1.4-1.6c0.6-0.3,1.4-0.4,2.1-0.2
			c0.8,0.2,1.4,0.7,1.7,1.4c0.4,0.7,0.4,1.5,0.1,2.3C100,70.4,98.4,71.2,96.9,70.6z"/>
	</g>
	<g>
		<path class="st1" d="M92.2,73.9l-1.4,2.3L90,77.4c-0.3,0.4-0.5,0.7-0.8,1.1l4.6,3.3c0.3-0.4,0.6-0.8,0.9-1.2l0.8-1.3l1.6-2.6
			L92.2,73.9z"/>
		<path class="st2" d="M91.6,80.1c-1.3-0.9-1.5-2.6-0.8-3.9c0.8-1.3,2.5-1.7,3.9-0.9c1.4,0.7,1.8,2.5,0.9,4
			C94.7,80.7,92.8,81.1,91.6,80.1z"/>
	</g>
	<g>
		<polygon class="st1" points="86.2,82.3 84.3,84.3 82.3,86.2 86.1,90.4 88.4,88.4 90.4,86.1 		"/>
		<path class="st2" d="M84.2,88.3c-1-1.2-1-3,0.1-4c1-1.1,2.8-1.2,4-0.1c1.2,1,1.2,2.9,0.1,4.1C87.1,89.5,85.2,89.5,84.2,88.3z"/>
	</g>
	<g>
		<path class="st1" d="M78.5,89.2c-0.4,0.3-0.7,0.6-1.1,0.8l-1.2,0.7l-2.3,1.4l2.7,5l2.6-1.6l1.3-0.8c0.4-0.3,0.8-0.6,1.2-0.9
			L78.5,89.2z"/>
		<path class="st2" d="M75.3,94.7c-0.7-1.4-0.3-3.1,1-3.9c1.3-0.7,3-0.5,3.9,0.8c0.9,1.3,0.6,3.2-0.9,4C77.8,96.4,76,96,75.3,94.7z"
			/>
	</g>
	<g>
		<path class="st1" d="M69.5,94.3l-2.6,0.9l-1.3,0.5c-0.4,0.2-0.9,0.2-1.3,0.4l1.6,5.5c0.5-0.1,1-0.2,1.5-0.4l1.4-0.5l2.9-1.1
			L69.5,94.3z"/>
		<path class="st2" d="M65.1,98.8c-0.2-0.8-0.1-1.5,0.2-2.1c0.3-0.6,0.9-1.2,1.6-1.4c1.4-0.5,3,0.3,3.6,1.7c0.6,1.4-0.2,3.1-1.8,3.7
			c-0.8,0.3-1.6,0.3-2.3-0.1C65.9,100.2,65.3,99.6,65.1,98.8z"/>
	</g>
	<g>
		<path class="st1" d="M59.6,97.1l-2.7,0.4c-0.9,0.1-1.8,0.1-2.7,0.2l0.3,5.7c1-0.1,2-0.1,3-0.2l3-0.5L59.6,97.1z"/>
		<path class="st2" d="M54.3,100.6c-0.1-1.6,1.1-2.9,2.6-3c1.5-0.2,2.9,0.8,3.2,2.4c0.3,1.5-0.9,3-2.5,3.3
			C55.8,103.4,54.4,102.1,54.3,100.6z"/>
	</g>
	<g>
		<path class="st1" d="M49.2,97.7c-0.9-0.1-1.8,0-2.7-0.2l-2.7-0.4l-1,5.6l3,0.5c1,0.2,2,0.1,3,0.2L49.2,97.7z"/>
		<path class="st2" d="M43.4,99.9c0.3-1.5,1.7-2.6,3.2-2.4c1.5,0.2,2.6,1.4,2.6,3c-0.1,1.5-1.5,2.8-3.2,2.6
			C44.2,103,43.1,101.5,43.4,99.9z"/>
	</g>
	<g>
		<path class="st1" d="M39.1,96.1c-0.4-0.1-0.9-0.2-1.3-0.4l-1.3-0.5l-2.6-0.9l-2.2,5.2l2.9,1.1l1.4,0.5c0.5,0.2,1,0.3,1.5,0.4
			L39.1,96.1z"/>
		<path class="st2" d="M32.8,96.9c0.6-1.4,2.3-2.2,3.6-1.7c0.7,0.2,1.2,0.8,1.6,1.4c0.3,0.6,0.4,1.4,0.2,2.1
			c-0.2,0.8-0.7,1.4-1.4,1.7c-0.7,0.4-1.5,0.4-2.3,0.1C33,100,32.2,98.4,32.8,96.9z"/>
	</g>
	<g>
		<path class="st1" d="M29.5,92.2l-2.3-1.4L26,90c-0.4-0.3-0.7-0.5-1.1-0.8l-3.3,4.6c0.4,0.3,0.8,0.6,1.2,0.9l1.3,0.8l2.6,1.6
			L29.5,92.2z"/>
		<path class="st2" d="M23.3,91.6c0.9-1.3,2.6-1.5,3.9-0.8c1.3,0.8,1.7,2.5,0.9,3.9c-0.7,1.4-2.5,1.8-4,0.9
			C22.7,94.7,22.3,92.8,23.3,91.6z"/>
	</g>
	<g>
		<polygon class="st1" points="21.1,86.2 19.1,84.3 17.2,82.3 13,86.1 15,88.4 17.3,90.4 		"/>
		<path class="st2" d="M15.1,84.2c1.2-1,3-1,4,0.1c1.1,1,1.2,2.8,0.1,4c-1,1.2-2.9,1.2-4.1,0.1C13.9,87.1,13.9,85.2,15.1,84.2z"/>
	</g>
	<g>
		<path class="st1" d="M14.2,78.5c-0.3-0.4-0.6-0.7-0.8-1.1l-0.7-1.2l-1.4-2.3l-5,2.7l1.6,2.6l0.8,1.3c0.3,0.4,0.6,0.8,0.9,1.2
			L14.2,78.5z"/>
		<path class="st2" d="M8.8,75.3c1.4-0.7,3.1-0.3,3.9,1c0.7,1.3,0.5,3-0.8,3.9c-1.3,0.9-3.2,0.6-4-0.9C7,77.8,7.4,76,8.8,75.3z"/>
	</g>
	<g>
		<path class="st1" d="M9.1,69.5l-0.9-2.6l-0.5-1.3c-0.2-0.4-0.2-0.9-0.4-1.3l-5.5,1.6c0.1,0.5,0.2,1,0.4,1.5l0.5,1.4l1.1,2.9
			L9.1,69.5z"/>
		<path class="st2" d="M4.6,65.1c0.8-0.2,1.5-0.1,2.1,0.2c0.6,0.3,1.2,0.9,1.4,1.6c0.5,1.4-0.3,3-1.7,3.6c-1.4,0.6-3.1-0.2-3.7-1.8
			c-0.3-0.8-0.3-1.6,0.1-2.3C3.3,65.9,3.9,65.3,4.6,65.1z"/>
	</g>
	<g>
		<path class="st1" d="M6.3,59.6l-0.4-2.7c-0.1-0.9-0.1-1.8-0.2-2.7L0,54.5c0.1,1,0.1,2,0.2,3l0.5,3L6.3,59.6z"/>
		<path class="st2" d="M2.8,54.3c1.6-0.1,2.9,1.1,3,2.6C6.1,58.3,5,59.8,3.5,60c-1.5,0.3-3-0.9-3.3-2.5C0,55.8,1.3,54.4,2.8,54.3z"
			/>
	</g>
	<g>
		<path class="st1" d="M5.7,49.2c0.1-0.9,0-1.8,0.2-2.7l0.4-2.7l-5.6-1l-0.5,3c-0.2,1-0.1,2-0.2,3L5.7,49.2z"/>
		<path class="st2" d="M3.5,43.4c1.5,0.3,2.6,1.7,2.4,3.2c-0.2,1.5-1.4,2.6-3,2.6C1.3,49,0,47.6,0.2,45.9
			C0.5,44.2,1.9,43.1,3.5,43.4z"/>
	</g>
	<g>
		<path class="st1" d="M7.3,39.1c0.1-0.4,0.2-0.9,0.4-1.3l0.5-1.3l0.9-2.6l-5.2-2.2l-1.1,2.9L2.3,36c-0.2,0.5-0.3,1-0.4,1.5
			L7.3,39.1z"/>
		<path class="st2" d="M6.5,32.8c1.4,0.6,2.2,2.3,1.7,3.6c-0.2,0.7-0.8,1.2-1.4,1.6c-0.6,0.3-1.4,0.4-2.1,0.2
			c-0.8-0.2-1.4-0.7-1.7-1.4c-0.4-0.7-0.4-1.5-0.1-2.3C3.4,33,5,32.2,6.5,32.8z"/>
	</g>
	<g>
		<path class="st1" d="M11.2,29.5l1.4-2.3l0.7-1.2c0.3-0.4,0.5-0.7,0.8-1.1l-4.6-3.3c-0.3,0.4-0.6,0.8-0.9,1.2l-0.8,1.3l-1.6,2.6
			L11.2,29.5z"/>
		<path class="st2" d="M11.9,23.3c1.3,0.9,1.5,2.6,0.8,3.9c-0.8,1.3-2.5,1.7-3.9,0.9c-1.4-0.7-1.8-2.5-0.9-4
			C8.7,22.7,10.6,22.3,11.9,23.3z"/>
	</g>
	<g>
		<polygon class="st1" points="17.2,21.1 19.1,19.1 21.1,17.2 17.3,13 15,15 13,17.3 		"/>
		<path class="st2" d="M19.2,15.1c1,1.2,1,3-0.1,4c-1,1.1-2.8,1.2-4,0.1c-1.2-1-1.2-2.9-0.1-4.1C16.3,13.9,18.2,13.9,19.2,15.1z"/>
	</g>
	<g>
		<path class="st1" d="M24.9,14.2c0.4-0.3,0.7-0.6,1.1-0.8l1.2-0.7l2.3-1.4l-2.7-5l-2.6,1.6l-1.3,0.8c-0.4,0.3-0.8,0.6-1.2,0.9
			L24.9,14.2z"/>
		<path class="st2" d="M28.1,8.8c0.7,1.4,0.3,3.1-1,3.9c-1.3,0.7-3,0.5-3.9-0.8c-0.9-1.3-0.6-3.2,0.9-4C25.6,7,27.4,7.4,28.1,8.8z"
			/>
	</g>
	<g>
		<path class="st1" d="M33.9,9.1l2.6-0.9l1.3-0.5c0.4-0.2,0.9-0.2,1.3-0.4l-1.6-5.5C37,2,36.5,2.1,36,2.3l-1.4,0.5l-2.9,1.1
			L33.9,9.1z"/>
		<path class="st2" d="M38.3,4.6c0.2,0.8,0.1,1.5-0.2,2.1c-0.3,0.6-0.9,1.2-1.6,1.4c-1.4,0.5-3-0.3-3.6-1.7C32.2,5,33,3.4,34.6,2.8
			c0.8-0.3,1.6-0.3,2.3,0.1C37.6,3.3,38.1,3.9,38.3,4.6z"/>
	</g>
	<g>
		<path class="st1" d="M43.9,6.3l2.7-0.4c0.9-0.1,1.8-0.1,2.7-0.2L48.9,0c-1,0.1-2,0.1-3,0.2l-3,0.5L43.9,6.3z"/>
		<path class="st2" d="M49.1,2.8c0.1,1.6-1.1,2.9-2.6,3c-1.5,0.2-2.9-0.8-3.2-2.4c-0.3-1.5,0.9-3,2.5-3.3C47.6,0,49,1.3,49.1,2.8z"
			/>
	</g>
	<g>
		<path class="st1" d="M54.2,5.7c0.9,0.1,1.8,0,2.7,0.2l2.7,0.4l1-5.6l-3-0.5c-1-0.2-2-0.1-3-0.2L54.2,5.7z"/>
		<path class="st2" d="M60,3.5c-0.3,1.5-1.7,2.6-3.2,2.4c-1.5-0.2-2.6-1.4-2.6-3c0.1-1.5,1.5-2.8,3.2-2.6C59.2,0.5,60.3,1.9,60,3.5z
			"/>
	</g>
	<g>
		<path class="st1" d="M64.4,7.3c0.4,0.1,0.9,0.2,1.3,0.4l1.3,0.5l2.6,0.9l2.2-5.2l-2.9-1.1l-1.4-0.5c-0.5-0.2-1-0.3-1.5-0.4
			L64.4,7.3z"/>
		<path class="st2" d="M70.6,6.5c-0.6,1.4-2.3,2.2-3.6,1.7c-0.7-0.2-1.2-0.8-1.6-1.4c-0.3-0.6-0.4-1.4-0.2-2.1
			c0.2-0.8,0.7-1.4,1.4-1.7c0.7-0.4,1.5-0.4,2.3-0.1C70.4,3.4,71.2,5,70.6,6.5z"/>
	</g>
	<g>
		<path class="st1" d="M73.9,11.2l2.3,1.4l1.2,0.7c0.4,0.3,0.7,0.5,1.1,0.8l3.3-4.6c-0.4-0.3-0.8-0.6-1.2-0.9l-1.3-0.8l-2.6-1.6
			L73.9,11.2z"/>
		<path class="st2" d="M80.1,11.9c-0.9,1.3-2.6,1.5-3.9,0.8c-1.3-0.8-1.7-2.5-0.9-3.9c0.7-1.4,2.5-1.8,4-0.9
			C80.7,8.7,81.1,10.6,80.1,11.9z"/>
	</g>
	<g>
		<polygon class="st1" points="82.3,17.2 84.3,19.1 86.2,21.1 90.4,17.3 88.4,15 86.1,13 		"/>
		<path class="st2" d="M88.3,19.2c-1.2,1-3,1-4-0.1c-1.1-1-1.2-2.8-0.1-4c1-1.2,2.9-1.2,4.1-0.1C89.5,16.3,89.5,18.2,88.3,19.2z"/>
	</g>
	<g>
		<path class="st1" d="M89.2,24.9c0.3,0.4,0.6,0.7,0.8,1.1l0.7,1.2l1.4,2.3l5-2.7l-1.6-2.6l-0.8-1.3c-0.3-0.4-0.6-0.8-0.9-1.2
			L89.2,24.9z"/>
		<path class="st2" d="M94.7,28.1c-1.4,0.7-3.1,0.3-3.9-1c-0.7-1.3-0.5-3,0.8-3.9c1.3-0.9,3.2-0.6,4,0.9
			C96.4,25.6,96,27.4,94.7,28.1z"/>
	</g>
	<g>
		<path class="st1" d="M94.3,33.9l0.9,2.6l0.5,1.3c0.2,0.4,0.2,0.9,0.4,1.3l5.5-1.6c-0.1-0.5-0.2-1-0.4-1.5l-0.5-1.4l-1.1-2.9
			L94.3,33.9z"/>
		<path class="st2" d="M98.8,38.3c-0.8,0.2-1.5,0.1-2.1-0.2c-0.6-0.3-1.2-0.9-1.4-1.6c-0.5-1.4,0.3-3,1.7-3.6
			c1.4-0.6,3.1,0.2,3.7,1.8c0.3,0.8,0.3,1.6-0.1,2.3C100.2,37.6,99.6,38.1,98.8,38.3z"/>
	</g>
	<g>
		<path class="st1" d="M97.1,43.9l0.4,2.7c0.1,0.9,0.1,1.8,0.2,2.7l5.7-0.3c-0.1-1-0.1-2-0.2-3l-0.5-3L97.1,43.9z"/>
		<path class="st2" d="M100.6,49.1c-1.6,0.1-2.9-1.1-3-2.6c-0.2-1.5,0.8-2.9,2.4-3.2c1.5-0.3,3,0.9,3.3,2.5
			C103.4,47.6,102.1,49,100.6,49.1z"/>
	</g>
</g>
</svg>
