<?xml version="1.0" encoding="utf-8"?>
<!-- Generator: Adobe Illustrator 21.0.0, SVG Export Plug-In . SVG Version: 6.00 Build 0)  -->
<svg version="1.1" id="Calque_1" xmlns="http://www.w3.org/2000/svg" xmlns:xlink="http://www.w3.org/1999/xlink" x="0px" y="0px"
	 viewBox="0 0 343.6 343.7" style="enable-background:new 0 0 343.6 343.7;" xml:space="preserve">
<style type="text/css">
	.st0{opacity:0.2;}
	.st1{fill:none;}
	.st2{fill-rule:evenodd;clip-rule:evenodd;fill:#EFEFEF;}
</style>
<g class="st0">
	<g>
		<polygon class="st1" points="337.9,174.4 337.7,180 343.4,180.2 343.6,174.5 		"/>
		<path class="st2" d="M340.6,180.1c-1.6-0.1-2.8-1.4-2.8-2.9c0-1.5,1.3-2.8,2.9-2.8c1.6,0,2.8,1.3,2.8,2.9
			C343.4,178.9,342.1,180.2,340.6,180.1z"/>
	</g>
	<g>
		<path class="st1" d="M337.4,185c-0.2,1.9-0.2,3.7-0.5,5.6l5.6,0.6c0.3-1.9,0.4-3.8,0.5-5.8L337.4,185z"/>
		<path class="st2" d="M339.7,190.9c-1.6-0.2-2.6-1.6-2.5-3.1c0.1-1.5,1.5-2.7,3-2.6c1.6,0.1,2.7,1.5,2.6,3.1
			C342.7,189.9,341.2,191.1,339.7,190.9z"/>
	</g>
	<g>
		<path class="st1" d="M336.2,195.6c-0.2,1.9-0.6,3.7-0.9,5.5l5.6,1c0.3-1.9,0.7-3.8,0.9-5.7L336.2,195.6z"/>
		<path class="st2" d="M338.1,201.6c-1.5-0.3-2.6-1.7-2.3-3.2c0.3-1.5,1.7-2.6,3.2-2.4c1.5,0.2,2.7,1.7,2.4,3.3
			C341.1,200.8,339.7,201.9,338.1,201.6z"/>
	</g>
	<g>
		<polygon class="st1" points="334.4,206.1 333.1,211.5 338.6,212.9 339.9,207.3 		"/>
		<path class="st2" d="M335.9,212.2c-1.5-0.4-2.5-1.9-2.1-3.4c0.3-1.5,1.9-2.5,3.4-2.1c1.5,0.3,2.5,1.8,2.1,3.4
			C338.9,211.6,337.4,212.6,335.9,212.2z"/>
	</g>
	<g>
		<path class="st1" d="M331.8,216.4c-0.5,1.8-1,3.6-1.6,5.4l5.4,1.7c0.6-1.8,1.1-3.7,1.6-5.6L331.8,216.4z"/>
		<path class="st2" d="M333,222.7c-1.5-0.5-2.3-2.1-1.9-3.5c0.4-1.5,2-2.3,3.5-1.9c1.5,0.4,2.4,2,1.9,3.5
			C336.1,222.3,334.5,223.1,333,222.7z"/>
	</g>
	<g>
		<path class="st1" d="M328.7,226.6c-0.3,0.9-0.6,1.8-0.9,2.6l-1,2.6l5.3,2.1l1.1-2.7c0.3-0.9,0.6-1.8,0.9-2.7L328.7,226.6z"/>
		<path class="st2" d="M329.4,232.9c-1.5-0.6-2.2-2.2-1.6-3.6c0.5-1.4,2.1-2.2,3.6-1.7c1.5,0.5,2.3,2.2,1.7,3.7
			C332.5,232.7,330.8,233.4,329.4,232.9z"/>
	</g>
	<g>
		<polygon class="st1" points="324.9,236.5 322.6,241.6 327.7,244 330.1,238.8 		"/>
		<path class="st2" d="M325.1,242.8c-1.4-0.7-2.1-2.3-1.4-3.7c0.6-1.4,2.3-2,3.8-1.4c1.4,0.6,2.1,2.3,1.4,3.7
			C328.2,242.9,326.6,243.5,325.1,242.8z"/>
	</g>
	<g>
		<polygon class="st1" points="320.4,246.2 317.8,251.2 322.8,253.9 325.4,248.7 		"/>
		<path class="st2" d="M320.3,252.5c-1.4-0.7-1.9-2.5-1.2-3.8c0.7-1.4,2.4-1.9,3.8-1.2c1.4,0.7,2,2.4,1.2,3.8
			C323.4,252.7,321.7,253.3,320.3,252.5z"/>
	</g>
	<g>
		<polygon class="st1" points="315.3,255.6 313.9,258 312.4,260.3 317.2,263.4 318.7,260.9 320.2,258.4 		"/>
		<path class="st2" d="M314.8,261.9c-1.3-0.8-1.7-2.6-0.9-3.9c0.8-1.3,2.5-1.8,3.8-1c1.4,0.8,1.8,2.6,1,3.9
			C317.9,262.3,316.1,262.7,314.8,261.9z"/>
	</g>
	<g>
		<polygon class="st1" points="309.6,264.6 306.4,269.2 311,272.5 314.4,267.8 		"/>
		<path class="st2" d="M308.7,270.8c-1.3-0.9-1.6-2.7-0.7-3.9c0.9-1.3,2.7-1.6,4-0.7c1.3,0.9,1.6,2.6,0.7,3.9
			C311.8,271.4,310,271.8,308.7,270.8z"/>
	</g>
	<g>
		<polygon class="st1" points="303.4,273.2 299.9,277.6 304.3,281.2 307.9,276.7 		"/>
		<path class="st2" d="M302.1,279.4c-1.2-1-1.4-2.8-0.5-4c1-1.2,2.7-1.4,4-0.5c1.2,1,1.5,2.7,0.5,4
			C305.1,280.2,303.3,280.4,302.1,279.4z"/>
	</g>
	<g>
		<polygon class="st1" points="296.6,281.4 294.8,283.5 292.9,285.6 297,289.5 299,287.4 300.9,285.2 		"/>
		<path class="st2" d="M294.9,287.5c-1.1-1.1-1.2-2.9-0.1-4c1-1.2,2.8-1.3,4-0.2c1.2,1,1.3,2.8,0.2,4.1
			C297.9,288.5,296.1,288.6,294.9,287.5z"/>
	</g>
	<g>
		<polygon class="st1" points="289.4,289.2 285.3,293.1 289.2,297.2 293.4,293.3 		"/>
		<path class="st2" d="M287.3,295.2c-1.1-1.1-1-2.9,0.1-4c1.1-1.1,2.9-1,4,0.1c1.1,1.1,1.1,2.9-0.1,4
			C290.1,296.4,288.3,296.3,287.3,295.2z"/>
	</g>
	<g>
		<polygon class="st1" points="281.6,296.5 277.3,300.2 281,304.5 285.3,300.8 		"/>
		<path class="st2" d="M279.1,302.4c-1-1.2-0.9-3,0.3-4c1.2-1,3-0.9,4,0.3c1,1.2,0.9,3-0.3,4C281.9,303.7,280.1,303.6,279.1,302.4z"
			/>
	</g>
	<g>
		<polygon class="st1" points="273.4,303.3 271.2,305 268.9,306.6 272.2,311.2 274.6,309.6 276.8,307.8 		"/>
		<path class="st2" d="M270.5,308.9c-0.9-1.3-0.6-3,0.6-3.9c1.2-0.9,3-0.7,3.9,0.5c1,1.2,0.7,3-0.5,4
			C273.3,310.5,271.5,310.2,270.5,308.9z"/>
	</g>
	<g>
		<polygon class="st1" points="264.8,309.6 260,312.6 263.1,317.4 267.9,314.3 		"/>
		<path class="st2" d="M261.6,315c-0.8-1.3-0.5-3.1,0.8-3.9c1.3-0.8,3.1-0.4,3.9,0.8c0.9,1.3,0.5,3.1-0.8,3.9
			C264.2,316.7,262.4,316.3,261.6,315z"/>
	</g>
	<g>
		<polygon class="st1" points="255.7,315.2 250.9,318 253.6,323 258.6,320.1 		"/>
		<path class="st2" d="M252.2,320.5c-0.7-1.4-0.3-3.1,1.1-3.9c1.3-0.8,3.1-0.3,3.9,1.1c0.8,1.3,0.3,3.1-1.1,3.9
			C254.7,322.4,253,321.9,252.2,320.5z"/>
	</g>
	<g>
		<polygon class="st1" points="246.4,320.3 243.9,321.6 241.3,322.7 243.7,327.9 246.4,326.7 248.9,325.4 		"/>
		<path class="st2" d="M242.5,325.3c-0.7-1.4,0-3.1,1.4-3.7c1.4-0.7,3.1-0.1,3.8,1.3c0.7,1.4,0.1,3.1-1.3,3.9
			C244.9,327.4,243.2,326.7,242.5,325.3z"/>
	</g>
	<g>
		<path class="st1" d="M236.7,324.8c-1.7,0.7-3.5,1.4-5.2,2.1l2,5.3c1.8-0.7,3.6-1.4,5.4-2.1L236.7,324.8z"/>
		<path class="st2" d="M232.6,329.5c-0.6-1.5,0.1-3.1,1.6-3.7c1.4-0.6,3.1,0.2,3.7,1.6c0.6,1.5-0.1,3.1-1.6,3.7
			C234.8,331.7,233.1,331,232.6,329.5z"/>
	</g>
	<g>
		<polygon class="st1" points="226.8,328.6 221.5,330.4 223.2,335.9 228.7,334 		"/>
		<path class="st2" d="M222.3,333.1c-0.5-1.5,0.3-3.1,1.8-3.6c1.5-0.5,3.1,0.3,3.6,1.8c0.5,1.5-0.3,3.1-1.8,3.6
			C224.4,335.4,222.8,334.6,222.3,333.1z"/>
	</g>
	<g>
		<path class="st1" d="M216.6,331.8c-1.8,0.5-3.6,1-5.4,1.4l1.3,5.5c1.9-0.4,3.7-0.9,5.6-1.5L216.6,331.8z"/>
		<path class="st2" d="M211.9,336c-0.4-1.5,0.6-3,2-3.4c1.5-0.4,3,0.5,3.5,2c0.4,1.5-0.5,3.1-2,3.5
			C213.8,338.5,212.3,337.5,211.9,336z"/>
	</g>
	<g>
		<path class="st1" d="M206.3,334.4c-1.8,0.4-3.7,0.7-5.5,1l1,5.6c1.9-0.4,3.8-0.6,5.7-1.1L206.3,334.4z"/>
		<path class="st2" d="M201.3,338.2c-0.3-1.5,0.7-3,2.3-3.3c1.5-0.2,3,0.7,3.3,2.2c0.3,1.5-0.7,3.1-2.2,3.3
			C203,340.8,201.6,339.8,201.3,338.2z"/>
	</g>
	<g>
		<polygon class="st1" points="195.8,336.2 190.3,337 190.9,342.6 196.6,341.9 		"/>
		<path class="st2" d="M190.6,339.8c-0.2-1.6,0.9-3,2.5-3.2s3,0.9,3.2,2.5c0.2,1.6-0.9,3-2.5,3.2
			C192.2,342.4,190.7,341.3,190.6,339.8z"/>
	</g>
	<g>
		<path class="st1" d="M185.2,337.4c-1.9,0.1-3.7,0.3-5.6,0.4l0.3,5.7c1.9-0.1,3.8-0.3,5.8-0.4L185.2,337.4z"/>
		<path class="st2" d="M179.8,340.6c0-0.8,0.2-1.5,0.7-2c0.5-0.6,1.2-0.9,1.9-1c1.5-0.1,2.9,1.1,3,2.6c0.1,1.6-1.1,2.9-2.7,3.1
			c-0.8,0.1-1.5-0.2-2.1-0.7C180.2,342.1,179.8,341.4,179.8,340.6z"/>
	</g>
	<g>
		<polygon class="st1" points="174.6,337.9 171.8,338 169,337.9 168.9,343.6 171.8,343.7 174.7,343.6 		"/>
		<path class="st2" d="M168.9,340.8c0-1.6,1.3-2.8,2.8-2.8c1.5,0,2.8,1.2,2.8,2.8c0,1.6-1.2,2.9-2.8,2.9
			C170.2,343.6,168.9,342.3,168.9,340.8z"/>
	</g>
	<g>
		<path class="st1" d="M163.9,337.8c-1.9-0.1-3.7-0.3-5.6-0.4l-0.5,5.7c1.9,0.1,3.8,0.3,5.8,0.4L163.9,337.8z"/>
		<path class="st2" d="M158.1,340.2c0.1-1.6,1.5-2.7,3-2.6c0.8,0.1,1.4,0.4,1.9,1c0.5,0.5,0.8,1.2,0.7,2c0,0.8-0.4,1.5-0.9,2
			c-0.5,0.5-1.3,0.7-2.1,0.7C159.2,343.2,158,341.8,158.1,340.2z"/>
	</g>
	<g>
		<polygon class="st1" points="153.3,337 147.8,336.2 146.9,341.9 152.7,342.6 		"/>
		<path class="st2" d="M147.3,339.1c0.2-1.6,1.7-2.7,3.2-2.5c1.5,0.2,2.6,1.6,2.5,3.2c-0.2,1.6-1.6,2.7-3.2,2.5
			C148.2,342,147.1,340.6,147.3,339.1z"/>
	</g>
	<g>
		<path class="st1" d="M142.8,335.4c-1.8-0.4-3.7-0.6-5.5-1l-1.2,5.6c1.9,0.4,3.8,0.7,5.7,1.1L142.8,335.4z"/>
		<path class="st2" d="M136.7,337.2c0.3-1.5,1.8-2.5,3.3-2.2c1.5,0.3,2.5,1.7,2.3,3.3c-0.3,1.5-1.8,2.6-3.3,2.3
			C137.3,340.3,136.4,338.7,136.7,337.2z"/>
	</g>
	<g>
		<path class="st1" d="M132.3,333.2c-1.8-0.4-3.6-0.9-5.4-1.4l-1.5,5.5c1.9,0.5,3.7,1.1,5.6,1.5L132.3,333.2z"/>
		<path class="st2" d="M126.2,334.6c0.4-1.5,2-2.4,3.5-2c1.5,0.4,2.4,1.9,2,3.4c-0.4,1.5-1.9,2.5-3.5,2.1
			C126.6,337.7,125.7,336.1,126.2,334.6z"/>
	</g>
	<g>
		<polygon class="st1" points="122.1,330.4 116.8,328.6 114.9,334 120.4,335.9 		"/>
		<path class="st2" d="M115.8,331.3c0.5-1.5,2.1-2.3,3.6-1.8s2.3,2.1,1.8,3.6c-0.5,1.5-2.1,2.3-3.6,1.8
			C116.1,334.4,115.3,332.8,115.8,331.3z"/>
	</g>
	<g>
		<path class="st1" d="M112,326.9c-1.7-0.7-3.5-1.4-5.2-2.1l-2.2,5.2c1.8,0.7,3.6,1.4,5.4,2.1L112,326.9z"/>
		<path class="st2" d="M105.7,327.4c0.6-1.4,2.3-2.1,3.7-1.6c1.4,0.6,2.1,2.2,1.6,3.7c-0.6,1.5-2.2,2.2-3.7,1.6
			C105.8,330.5,105.1,328.9,105.7,327.4z"/>
	</g>
	<g>
		<polygon class="st1" points="102.2,322.7 99.7,321.6 97.2,320.3 94.6,325.4 97.2,326.7 99.8,327.9 		"/>
		<path class="st2" d="M95.9,322.8c0.7-1.4,2.4-2,3.8-1.3c1.4,0.6,2,2.3,1.4,3.7c-0.7,1.4-2.4,2.1-3.8,1.4
			C95.8,326,95.2,324.2,95.9,322.8z"/>
	</g>
	<g>
		<polygon class="st1" points="92.7,318 87.8,315.2 85,320.1 90,323 		"/>
		<path class="st2" d="M86.4,317.7c0.8-1.4,2.5-1.8,3.9-1.1c1.3,0.8,1.8,2.5,1.1,3.9c-0.7,1.4-2.5,1.9-3.9,1.1
			C86.1,320.8,85.6,319,86.4,317.7z"/>
	</g>
	<g>
		<polygon class="st1" points="83.5,312.6 78.8,309.6 75.6,314.3 80.5,317.4 		"/>
		<path class="st2" d="M77.2,311.9c0.9-1.3,2.7-1.7,3.9-0.8c1.3,0.8,1.7,2.6,0.8,3.9c-0.8,1.3-2.6,1.7-3.9,0.8
			C76.7,315,76.3,313.2,77.2,311.9z"/>
	</g>
	<g>
		<polygon class="st1" points="74.7,306.6 72.4,305 70.2,303.3 66.7,307.8 69,309.6 71.3,311.2 		"/>
		<path class="st2" d="M68.5,305.5c1-1.2,2.7-1.5,3.9-0.5c1.3,0.9,1.5,2.7,0.6,3.9c-0.9,1.3-2.7,1.6-4,0.6
			C67.7,308.6,67.5,306.8,68.5,305.5z"/>
	</g>
	<g>
		<polygon class="st1" points="66.2,300.2 62,296.5 58.2,300.8 62.6,304.5 		"/>
		<path class="st2" d="M60.1,298.6c1-1.2,2.8-1.3,4-0.3c1.2,1,1.3,2.8,0.3,4c-1,1.2-2.8,1.4-4,0.3C59.2,301.6,59.1,299.8,60.1,298.6
			z"/>
	</g>
	<g>
		<polygon class="st1" points="58.2,293.1 54.2,289.2 50.2,293.3 54.4,297.2 		"/>
		<path class="st2" d="M52.2,291.2c1.1-1.1,2.9-1.1,4-0.1c1.1,1.1,1.1,2.9,0.1,4c-1.1,1.1-2.9,1.2-4,0.1
			C51.1,294.1,51.1,292.4,52.2,291.2z"/>
	</g>
	<g>
		<polygon class="st1" points="50.7,285.6 48.8,283.5 46.9,281.4 42.7,285.2 44.6,287.4 46.6,289.5 		"/>
		<path class="st2" d="M44.8,283.3c1.2-1,3-0.9,4,0.2c1.1,1.1,1,2.9-0.1,4c-1.1,1.1-3,1-4.1-0.1C43.5,286.2,43.6,284.3,44.8,283.3z"
			/>
	</g>
	<g>
		<polygon class="st1" points="43.6,277.6 40.2,273.2 35.7,276.7 39.2,281.2 		"/>
		<path class="st2" d="M37.9,275c1.2-1,3-0.7,4,0.5c1,1.2,0.7,3-0.5,4c-1.2,1-3,0.8-4-0.5C36.5,277.7,36.7,275.9,37.9,275z"/>
	</g>
	<g>
		<polygon class="st1" points="37.1,269.2 33.9,264.6 29.2,267.8 32.5,272.5 		"/>
		<path class="st2" d="M31.5,266.2c1.3-0.9,3.1-0.6,4,0.7c0.9,1.3,0.6,3-0.7,3.9c-1.3,0.9-3,0.6-4-0.7
			C29.9,268.8,30.2,267.1,31.5,266.2z"/>
	</g>
	<g>
		<polygon class="st1" points="31.2,260.3 29.7,258 28.3,255.6 23.4,258.4 24.8,260.9 26.4,263.4 		"/>
		<path class="st2" d="M25.8,257c1.4-0.8,3.1-0.3,3.8,1c0.8,1.3,0.4,3-0.9,3.9c-1.3,0.8-3.1,0.4-4-0.9C24,259.5,24.5,257.8,25.8,257
			z"/>
	</g>
	<g>
		<polygon class="st1" points="25.7,251.2 23.2,246.2 18.1,248.7 20.8,253.9 		"/>
		<path class="st2" d="M20.7,247.5c1.4-0.7,3.1-0.2,3.8,1.2c0.7,1.4,0.1,3.1-1.2,3.8c-1.4,0.8-3.1,0.2-3.8-1.2
			C18.7,249.9,19.2,248.2,20.7,247.5z"/>
	</g>
	<g>
		<polygon class="st1" points="21,241.6 18.7,236.5 13.5,238.8 15.8,244 		"/>
		<path class="st2" d="M16.1,237.7c1.4-0.6,3.1,0,3.8,1.4c0.6,1.4,0,3.1-1.4,3.7c-1.4,0.7-3.1,0-3.8-1.4
			C14,239.9,14.6,238.3,16.1,237.7z"/>
	</g>
	<g>
		<path class="st1" d="M16.8,231.8l-1-2.6c-0.3-0.9-0.6-1.8-0.9-2.6l-5.4,1.9c0.3,0.9,0.6,1.8,0.9,2.7l1.1,2.7L16.8,231.8z"/>
		<path class="st2" d="M12.2,227.5c1.5-0.5,3.1,0.3,3.6,1.7c0.6,1.4-0.2,3.1-1.6,3.6c-1.5,0.6-3.1-0.2-3.7-1.7
			C9.9,229.7,10.7,228,12.2,227.5z"/>
	</g>
	<g>
		<path class="st1" d="M13.3,221.8c-0.6-1.8-1-3.6-1.6-5.4L6.2,218c0.5,1.9,1,3.7,1.6,5.6L13.3,221.8z"/>
		<path class="st2" d="M9,217.2c1.5-0.4,3.1,0.4,3.5,1.9c0.4,1.5-0.4,3.1-1.9,3.5c-1.5,0.5-3.1-0.4-3.5-1.9
			C6.6,219.2,7.5,217.6,9,217.2z"/>
	</g>
	<g>
		<polygon class="st1" points="10.4,211.5 9.2,206.1 3.6,207.3 4.9,212.9 		"/>
		<path class="st2" d="M6.4,206.7c1.5-0.3,3.1,0.6,3.4,2.1c0.3,1.5-0.6,3-2.1,3.4c-1.5,0.4-3-0.6-3.4-2.1
			C3.9,208.5,4.9,207,6.4,206.7z"/>
	</g>
	<g>
		<path class="st1" d="M8.2,201.1c-0.3-1.8-0.7-3.7-0.9-5.5l-5.6,0.8c0.2,1.9,0.6,3.8,0.9,5.7L8.2,201.1z"/>
		<path class="st2" d="M4.5,196c1.6-0.2,2.9,0.9,3.2,2.4c0.3,1.5-0.8,3-2.3,3.2c-1.5,0.3-3-0.8-3.3-2.3C1.8,197.7,3,196.2,4.5,196z"
			/>
	</g>
	<g>
		<path class="st1" d="M6.7,190.6c-0.3-1.8-0.4-3.7-0.5-5.6l-5.7,0.4c0.2,1.9,0.2,3.8,0.5,5.8L6.7,190.6z"/>
		<path class="st2" d="M3.4,185.2c1.6-0.1,2.9,1,3,2.6c0.1,1.5-0.9,2.9-2.5,3.1c-1.5,0.2-3-1-3.1-2.6C0.6,186.7,1.8,185.4,3.4,185.2
			z"/>
	</g>
	<g>
		<polygon class="st1" points="5.8,180 5.7,174.4 0,174.5 0.1,180.2 		"/>
		<path class="st2" d="M2.8,174.4c1.6,0,2.9,1.2,2.9,2.8c0,1.5-1.2,2.9-2.8,2.9c-1.6,0.1-2.9-1.2-2.9-2.8
			C0,175.7,1.3,174.4,2.8,174.4z"/>
	</g>
	<g>
		<polygon class="st1" points="5.7,169.3 5.8,163.7 0.1,163.4 0,169.2 		"/>
		<path class="st2" d="M3,163.6c1.6,0.1,2.8,1.4,2.8,2.9c0,1.5-1.3,2.8-2.9,2.8c-1.6,0-2.8-1.3-2.8-2.9C0.1,164.7,1.4,163.5,3,163.6
			z"/>
	</g>
	<g>
		<path class="st1" d="M6.2,158.7c0.2-1.9,0.2-3.7,0.5-5.6l-5.6-0.6c-0.3,1.9-0.4,3.8-0.5,5.8L6.2,158.7z"/>
		<path class="st2" d="M3.9,152.8c1.6,0.2,2.6,1.6,2.5,3.1c-0.1,1.5-1.5,2.7-3,2.6c-1.6-0.1-2.7-1.5-2.6-3.1
			C0.8,153.7,2.3,152.6,3.9,152.8z"/>
	</g>
	<g>
		<path class="st1" d="M7.3,148.1c0.2-1.9,0.6-3.7,0.9-5.5l-5.6-1c-0.3,1.9-0.7,3.8-0.9,5.7L7.3,148.1z"/>
		<path class="st2" d="M5.4,142.1c1.5,0.3,2.6,1.7,2.3,3.2c-0.3,1.5-1.7,2.6-3.2,2.4c-1.5-0.2-2.7-1.7-2.4-3.3
			C2.4,142.8,3.9,141.8,5.4,142.1z"/>
	</g>
	<g>
		<polygon class="st1" points="9.2,137.6 10.4,132.1 4.9,130.8 3.6,136.4 		"/>
		<path class="st2" d="M7.7,131.5c1.5,0.4,2.5,1.9,2.1,3.4c-0.3,1.5-1.9,2.5-3.4,2.1c-1.5-0.3-2.5-1.8-2.1-3.4
			C4.6,132,6.1,131.1,7.7,131.5z"/>
	</g>
	<g>
		<path class="st1" d="M11.7,127.3c0.5-1.8,1-3.6,1.6-5.4l-5.4-1.7c-0.6,1.8-1.1,3.7-1.6,5.6L11.7,127.3z"/>
		<path class="st2" d="M10.6,121c1.5,0.5,2.3,2.1,1.9,3.5c-0.4,1.5-2,2.3-3.5,1.9c-1.5-0.4-2.4-2-1.9-3.5
			C7.5,121.4,9.1,120.5,10.6,121z"/>
	</g>
	<g>
		<path class="st1" d="M14.9,117.1c0.3-0.9,0.6-1.8,0.9-2.6l1-2.6l-5.3-2.1l-1.1,2.7c-0.3,0.9-0.6,1.8-0.9,2.7L14.9,117.1z"/>
		<path class="st2" d="M14.2,110.8c1.5,0.6,2.2,2.2,1.6,3.6c-0.5,1.4-2.1,2.2-3.6,1.7c-1.5-0.5-2.3-2.2-1.7-3.7
			C11.1,111,12.7,110.2,14.2,110.8z"/>
	</g>
	<g>
		<polygon class="st1" points="18.7,107.1 21,102 15.8,99.7 13.5,104.9 		"/>
		<path class="st2" d="M18.4,100.8c1.4,0.7,2.1,2.3,1.4,3.7c-0.6,1.4-2.3,2-3.8,1.4c-1.4-0.6-2.1-2.3-1.4-3.7
			C15.3,100.8,17,100.2,18.4,100.8z"/>
	</g>
	<g>
		<polygon class="st1" points="23.2,97.5 25.7,92.5 20.8,89.8 18.1,94.9 		"/>
		<path class="st2" d="M23.2,91.2c1.4,0.7,1.9,2.5,1.2,3.8c-0.7,1.4-2.4,1.9-3.8,1.2c-1.4-0.7-2-2.4-1.2-3.8
			C20.2,90.9,21.9,90.4,23.2,91.2z"/>
	</g>
	<g>
		<polygon class="st1" points="28.3,88.1 29.7,85.7 31.2,83.3 26.4,80.3 24.8,82.7 23.4,85.3 		"/>
		<path class="st2" d="M28.8,81.8c1.3,0.8,1.7,2.6,0.9,3.9c-0.8,1.3-2.5,1.8-3.8,1c-1.4-0.8-1.8-2.6-1-3.9
			C25.7,81.4,27.4,81,28.8,81.8z"/>
	</g>
	<g>
		<polygon class="st1" points="33.9,79.1 37.1,74.5 32.5,71.2 29.2,75.9 		"/>
		<path class="st2" d="M34.8,72.9c1.3,0.9,1.6,2.7,0.7,3.9c-0.9,1.3-2.7,1.6-4,0.7c-1.3-0.9-1.6-2.6-0.7-3.9
			C31.8,72.2,33.6,71.9,34.8,72.9z"/>
	</g>
	<g>
		<polygon class="st1" points="40.2,70.5 43.6,66.1 39.2,62.5 35.7,67 		"/>
		<path class="st2" d="M41.4,64.3c1.2,1,1.4,2.8,0.5,4c-1,1.2-2.7,1.4-4,0.5c-1.2-1-1.5-2.7-0.5-4C38.4,63.5,40.2,63.3,41.4,64.3z"
			/>
	</g>
	<g>
		<polygon class="st1" points="46.9,62.2 48.8,60.1 50.7,58.1 46.6,54.2 44.6,56.3 42.7,58.5 		"/>
		<path class="st2" d="M48.6,56.2c1.1,1.1,1.2,2.9,0.1,4c-1,1.2-2.8,1.3-4,0.2c-1.2-1-1.3-2.8-0.2-4.1
			C45.7,55.2,47.5,55.1,48.6,56.2z"/>
	</g>
	<g>
		<polygon class="st1" points="54.2,54.4 58.2,50.6 54.4,46.4 50.2,50.4 		"/>
		<path class="st2" d="M56.3,48.5c1.1,1.1,1,2.9-0.1,4c-1.1,1.1-2.9,1-4-0.1c-1.1-1.1-1.1-2.9,0.1-4C53.4,47.3,55.2,47.4,56.3,48.5z
			"/>
	</g>
	<g>
		<polygon class="st1" points="62,47.2 66.2,43.5 62.6,39.1 58.2,42.9 		"/>
		<path class="st2" d="M64.4,41.3c1,1.2,0.9,3-0.3,4c-1.2,1-3,0.9-4-0.3c-1-1.2-0.9-3,0.3-4C61.6,40,63.4,40.1,64.4,41.3z"/>
	</g>
	<g>
		<polygon class="st1" points="70.2,40.4 72.4,38.7 74.7,37.1 71.3,32.4 69,34.1 66.7,35.9 		"/>
		<path class="st2" d="M73,34.7c0.9,1.3,0.6,3-0.6,3.9c-1.2,0.9-3,0.7-3.9-0.5c-1-1.2-0.7-3,0.5-4C70.3,33.2,72.1,33.5,73,34.7z"/>
	</g>
	<g>
		<polygon class="st1" points="78.8,34.1 83.5,31.1 80.5,26.3 75.6,29.4 		"/>
		<path class="st2" d="M82,28.7c0.8,1.3,0.5,3.1-0.8,3.9c-1.3,0.8-3.1,0.4-3.9-0.8c-0.9-1.3-0.5-3.1,0.8-3.9
			C79.4,27,81.2,27.4,82,28.7z"/>
	</g>
	<g>
		<polygon class="st1" points="87.8,28.5 92.7,25.7 90,20.7 85,23.6 		"/>
		<path class="st2" d="M91.3,23.2c0.7,1.4,0.3,3.1-1.1,3.9c-1.3,0.8-3.1,0.3-3.9-1.1c-0.8-1.3-0.3-3.1,1.1-3.9
			C88.8,21.3,90.6,21.8,91.3,23.2z"/>
	</g>
	<g>
		<polygon class="st1" points="97.2,23.4 99.7,22.1 102.2,21 99.8,15.8 97.2,17 94.6,18.3 		"/>
		<path class="st2" d="M101,18.4c0.7,1.4,0,3.1-1.4,3.7c-1.4,0.7-3.1,0.1-3.8-1.3c-0.7-1.4-0.1-3.1,1.3-3.9
			C98.7,16.3,100.4,16.9,101,18.4z"/>
	</g>
	<g>
		<path class="st1" d="M106.8,18.9c1.7-0.7,3.5-1.4,5.2-2.1l-2-5.3c-1.8,0.7-3.6,1.4-5.4,2.1L106.8,18.9z"/>
		<path class="st2" d="M111,14.1c0.6,1.5-0.1,3.1-1.6,3.7c-1.4,0.6-3.1-0.2-3.7-1.6c-0.6-1.5,0.1-3.1,1.6-3.7
			C108.8,12,110.4,12.7,111,14.1z"/>
	</g>
	<g>
		<polygon class="st1" points="116.8,15 122.1,13.3 120.4,7.8 114.9,9.7 		"/>
		<path class="st2" d="M121.2,10.5c0.5,1.5-0.3,3.1-1.8,3.6s-3.1-0.3-3.6-1.8c-0.5-1.5,0.3-3.1,1.8-3.6
			C119.1,8.2,120.8,9,121.2,10.5z"/>
	</g>
	<g>
		<path class="st1" d="M126.9,11.9c1.8-0.5,3.6-1,5.4-1.4L131,4.9c-1.9,0.4-3.7,0.9-5.6,1.5L126.9,11.9z"/>
		<path class="st2" d="M131.7,7.7c0.4,1.5-0.6,3-2,3.4c-1.5,0.4-3-0.5-3.5-2c-0.4-1.5,0.5-3.1,2-3.5C129.7,5.2,131.3,6.2,131.7,7.7z
			"/>
	</g>
	<g>
		<path class="st1" d="M137.3,9.3c1.8-0.4,3.7-0.7,5.5-1l-1-5.6c-1.9,0.4-3.8,0.6-5.7,1.1L137.3,9.3z"/>
		<path class="st2" d="M142.3,5.5c0.3,1.5-0.7,3-2.3,3.3c-1.5,0.2-3-0.7-3.3-2.2c-0.3-1.5,0.7-3.1,2.2-3.3
			C140.5,2.9,142,3.9,142.3,5.5z"/>
	</g>
	<g>
		<polygon class="st1" points="147.8,7.4 153.3,6.7 152.7,1.1 146.9,1.8 		"/>
		<path class="st2" d="M153,3.9c0.2,1.6-0.9,3-2.5,3.2c-1.5,0.2-3-0.9-3.2-2.5c-0.2-1.6,0.9-3,2.5-3.2C151.4,1.2,152.8,2.3,153,3.9z
			"/>
	</g>
	<g>
		<path class="st1" d="M158.3,6.3c1.9-0.1,3.7-0.3,5.6-0.4l-0.3-5.7c-1.9,0.1-3.8,0.3-5.8,0.4L158.3,6.3z"/>
		<path class="st2" d="M163.8,3c0,0.8-0.2,1.5-0.7,2c-0.5,0.6-1.2,0.9-1.9,1c-1.5,0.1-2.9-1.1-3-2.6c-0.1-1.6,1.1-2.9,2.7-3.1
			c0.8-0.1,1.5,0.2,2.1,0.7C163.4,1.6,163.7,2.3,163.8,3z"/>
	</g>
	<g>
		<polygon class="st1" points="169,5.8 171.8,5.7 174.6,5.8 174.7,0.1 171.8,0 168.9,0.1 		"/>
		<path class="st2" d="M174.6,2.9c0,1.6-1.3,2.8-2.8,2.8c-1.5,0-2.8-1.2-2.8-2.8c0-1.6,1.2-2.9,2.8-2.9C173.4,0,174.6,1.3,174.6,2.9
			z"/>
	</g>
	<g>
		<path class="st1" d="M179.6,5.9c1.9,0.1,3.7,0.3,5.6,0.4l0.5-5.7c-1.9-0.1-3.8-0.3-5.8-0.4L179.6,5.9z"/>
		<path class="st2" d="M185.4,3.4c-0.1,1.6-1.5,2.7-3,2.6c-0.8-0.1-1.4-0.4-1.9-1c-0.5-0.5-0.8-1.2-0.7-2c0-0.8,0.4-1.5,0.9-2
			c0.5-0.5,1.3-0.7,2.1-0.7C184.4,0.5,185.6,1.9,185.4,3.4z"/>
	</g>
	<g>
		<polygon class="st1" points="190.3,6.7 195.8,7.4 196.6,1.8 190.9,1.1 		"/>
		<path class="st2" d="M196.2,4.6c-0.2,1.6-1.7,2.7-3.2,2.5s-2.6-1.6-2.5-3.2c0.2-1.6,1.6-2.7,3.2-2.5
			C195.3,1.6,196.4,3.1,196.2,4.6z"/>
	</g>
	<g>
		<path class="st1" d="M200.8,8.3c1.8,0.4,3.7,0.6,5.5,1l1.2-5.6c-1.9-0.4-3.8-0.7-5.7-1.1L200.8,8.3z"/>
		<path class="st2" d="M206.9,6.5c-0.3,1.5-1.8,2.5-3.3,2.2C202,8.5,201,7,201.3,5.5c0.3-1.5,1.8-2.6,3.3-2.3
			C206.2,3.4,207.2,5,206.9,6.5z"/>
	</g>
	<g>
		<path class="st1" d="M211.2,10.4c1.8,0.4,3.6,0.9,5.4,1.4l1.5-5.5c-1.9-0.5-3.7-1.1-5.6-1.5L211.2,10.4z"/>
		<path class="st2" d="M217.4,9.1c-0.4,1.5-2,2.4-3.5,2c-1.5-0.4-2.4-1.9-2-3.4c0.4-1.5,1.9-2.5,3.5-2.1
			C216.9,6,217.8,7.6,217.4,9.1z"/>
	</g>
	<g>
		<polygon class="st1" points="221.5,13.3 226.8,15 228.7,9.7 223.2,7.8 		"/>
		<path class="st2" d="M227.7,12.4c-0.5,1.5-2.1,2.3-3.6,1.8c-1.5-0.5-2.3-2.1-1.8-3.6c0.5-1.5,2.1-2.3,3.6-1.8
			C227.4,9.3,228.2,10.9,227.7,12.4z"/>
	</g>
	<g>
		<path class="st1" d="M231.5,16.8c1.7,0.7,3.5,1.4,5.2,2.1l2.2-5.2c-1.8-0.7-3.6-1.4-5.4-2.1L231.5,16.8z"/>
		<path class="st2" d="M237.8,16.2c-0.6,1.4-2.3,2.1-3.7,1.6c-1.4-0.6-2.1-2.2-1.6-3.7c0.6-1.5,2.2-2.2,3.7-1.6
			C237.8,13.1,238.5,14.8,237.8,16.2z"/>
	</g>
	<g>
		<polygon class="st1" points="241.3,21 243.9,22.1 246.4,23.4 248.9,18.3 246.4,17 243.7,15.8 		"/>
		<path class="st2" d="M247.6,20.8c-0.7,1.4-2.4,2-3.8,1.3c-1.4-0.6-2-2.3-1.4-3.7c0.7-1.4,2.4-2.1,3.8-1.4
			C247.8,17.7,248.4,19.4,247.6,20.8z"/>
	</g>
	<g>
		<polygon class="st1" points="250.9,25.7 255.7,28.5 258.6,23.6 253.6,20.7 		"/>
		<path class="st2" d="M257.2,26c-0.8,1.4-2.5,1.8-3.9,1.1c-1.3-0.8-1.8-2.5-1.1-3.9c0.7-1.4,2.5-1.9,3.9-1.1
			C257.5,22.9,258,24.7,257.2,26z"/>
	</g>
	<g>
		<polygon class="st1" points="260,31.1 264.8,34.1 267.9,29.4 263.1,26.3 		"/>
		<path class="st2" d="M266.3,31.8c-0.9,1.3-2.7,1.7-3.9,0.8c-1.3-0.8-1.7-2.6-0.8-3.9c0.8-1.3,2.6-1.7,3.9-0.8
			C266.9,28.7,267.2,30.5,266.3,31.8z"/>
	</g>
	<g>
		<polygon class="st1" points="268.9,37.1 271.2,38.7 273.4,40.4 276.8,35.9 274.6,34.1 272.2,32.4 		"/>
		<path class="st2" d="M275.1,38.1c-1,1.2-2.7,1.5-3.9,0.5c-1.3-0.9-1.5-2.7-0.6-3.9c0.9-1.3,2.7-1.6,4-0.6
			C275.8,35.1,276.1,36.9,275.1,38.1z"/>
	</g>
	<g>
		<polygon class="st1" points="277.3,43.5 281.6,47.2 285.3,42.9 281,39.1 		"/>
		<path class="st2" d="M283.4,45c-1,1.2-2.8,1.3-4,0.3c-1.2-1-1.3-2.8-0.3-4c1-1.2,2.8-1.4,4-0.3C284.4,42.1,284.5,43.9,283.4,45z"
			/>
	</g>
	<g>
		<polygon class="st1" points="285.3,50.6 289.4,54.4 293.4,50.4 289.2,46.4 		"/>
		<path class="st2" d="M291.4,52.4c-1.1,1.1-2.9,1.1-4,0.1c-1.1-1.1-1.1-2.9-0.1-4c1.1-1.1,2.9-1.2,4-0.1
			C292.4,49.5,292.5,51.3,291.4,52.4z"/>
	</g>
	<g>
		<polygon class="st1" points="292.9,58.1 294.8,60.1 296.6,62.2 300.9,58.5 299,56.3 297,54.2 		"/>
		<path class="st2" d="M298.7,60.4c-1.2,1-3,0.9-4-0.2c-1.1-1.1-1-2.9,0.1-4c1.1-1.1,3-1,4.1,0.1C300,57.5,299.9,59.3,298.7,60.4z"
			/>
	</g>
	<g>
		<polygon class="st1" points="299.9,66.1 303.4,70.5 307.9,67 304.3,62.5 		"/>
		<path class="st2" d="M305.6,68.7c-1.2,1-3,0.7-4-0.5c-1-1.2-0.7-3,0.5-4c1.2-1,3-0.8,4,0.5C307.1,66,306.9,67.8,305.6,68.7z"/>
	</g>
	<g>
		<polygon class="st1" points="306.4,74.5 309.6,79.1 314.4,75.9 311,71.2 		"/>
		<path class="st2" d="M312,77.5c-1.3,0.9-3.1,0.6-4-0.7c-0.9-1.3-0.6-3,0.7-3.9c1.3-0.9,3-0.6,4,0.7
			C313.6,74.9,313.3,76.6,312,77.5z"/>
	</g>
	<g>
		<polygon class="st1" points="312.4,83.3 313.9,85.7 315.3,88.1 320.2,85.3 318.7,82.7 317.2,80.3 		"/>
		<path class="st2" d="M317.7,86.7c-1.4,0.8-3.1,0.3-3.8-1c-0.8-1.3-0.4-3,0.9-3.9c1.3-0.8,3.1-0.4,4,0.9
			C319.5,84.1,319.1,85.9,317.7,86.7z"/>
	</g>
	<g>
		<polygon class="st1" points="317.8,92.5 320.4,97.5 325.4,94.9 322.8,89.8 		"/>
		<path class="st2" d="M322.9,96.2c-1.4,0.7-3.1,0.2-3.8-1.2c-0.7-1.4-0.1-3.1,1.2-3.8c1.4-0.8,3.1-0.2,3.8,1.2
			C324.9,93.8,324.3,95.5,322.9,96.2z"/>
	</g>
	<g>
		<polygon class="st1" points="322.6,102 324.9,107.1 330.1,104.9 327.7,99.7 		"/>
		<path class="st2" d="M327.5,106c-1.4,0.6-3.1,0-3.8-1.4c-0.6-1.4,0-3.1,1.4-3.7c1.4-0.7,3.1,0,3.8,1.4
			C329.6,103.7,328.9,105.4,327.5,106z"/>
	</g>
	<g>
		<path class="st1" d="M326.7,111.8l1,2.6c0.3,0.9,0.6,1.8,0.9,2.6l5.4-1.9c-0.3-0.9-0.6-1.8-0.9-2.7l-1.1-2.7L326.7,111.8z"/>
		<path class="st2" d="M331.3,116.1c-1.5,0.5-3.1-0.3-3.6-1.7c-0.6-1.4,0.2-3.1,1.6-3.6c1.5-0.6,3.1,0.2,3.7,1.7
			C333.6,114,332.8,115.6,331.3,116.1z"/>
	</g>
	<g>
		<path class="st1" d="M330.3,121.9c0.6,1.8,1,3.6,1.6,5.4l5.5-1.5c-0.5-1.9-1-3.7-1.6-5.6L330.3,121.9z"/>
		<path class="st2" d="M334.6,126.5c-1.5,0.4-3.1-0.4-3.5-1.9c-0.4-1.5,0.4-3.1,1.9-3.5c1.5-0.5,3.1,0.4,3.5,1.9
			C337,124.5,336.1,126.1,334.6,126.5z"/>
	</g>
	<g>
		<polygon class="st1" points="333.1,132.1 334.4,137.6 339.9,136.4 338.6,130.8 		"/>
		<path class="st2" d="M337.2,137c-1.5,0.3-3.1-0.6-3.4-2.1c-0.3-1.5,0.6-3,2.1-3.4c1.5-0.4,3,0.6,3.4,2.1S338.7,136.7,337.2,137z"
			/>
	</g>
	<g>
		<path class="st1" d="M335.3,142.6c0.3,1.8,0.7,3.7,0.9,5.5l5.6-0.8c-0.2-1.9-0.6-3.8-0.9-5.7L335.3,142.6z"/>
		<path class="st2" d="M339,147.7c-1.6,0.2-2.9-0.9-3.2-2.4c-0.3-1.5,0.8-3,2.3-3.2c1.5-0.3,3,0.8,3.3,2.3
			C341.7,146,340.6,147.5,339,147.7z"/>
	</g>
	<g>
		<path class="st1" d="M336.9,153.1c0.3,1.8,0.4,3.7,0.5,5.6l5.7-0.4c-0.2-1.9-0.2-3.8-0.5-5.8L336.9,153.1z"/>
		<path class="st2" d="M340.2,158.4c-1.6,0.1-2.9-1-3-2.6c-0.1-1.5,0.9-2.9,2.5-3.1c1.5-0.2,3,1,3.1,2.6
			C342.9,156.9,341.8,158.3,340.2,158.4z"/>
	</g>
	<g>
		<polygon class="st1" points="337.7,163.7 337.9,169.3 343.6,169.2 343.4,163.4 		"/>
		<path class="st2" d="M340.7,169.3c-1.6,0-2.9-1.2-2.9-2.8c0-1.5,1.2-2.9,2.8-2.9c1.6-0.1,2.9,1.2,2.9,2.8
			C343.5,167.9,342.3,169.2,340.7,169.3z"/>
	</g>
</g>
</svg>
