<?xml version="1.0" encoding="utf-8"?>
<!-- Generator: Adobe Illustrator 21.0.0, SVG Export Plug-In . SVG Version: 6.00 Build 0)  -->
<svg version="1.1" id="Calque_1" xmlns="http://www.w3.org/2000/svg" xmlns:xlink="http://www.w3.org/1999/xlink" x="0px" y="0px"
	 viewBox="0 0 783.6 783.7" style="enable-background:new 0 0 783.6 783.7;" xml:space="preserve">
<style type="text/css">
	.st0{opacity:0.2;}
	.st1{fill:none;}
	.st2{fill-rule:evenodd;clip-rule:evenodd;fill:#EFEFEF;}
</style>
<g class="st0">
	<g>
		<polygon class="st1" points="777.9,394.4 777.7,400 783.4,400.1 783.6,394.4 		"/>
		<path class="st2" d="M780.6,400.1c-1.6,0-2.8-1.3-2.8-2.9c0-1.6,1.3-2.8,2.9-2.8c1.6,0,2.8,1.3,2.8,2.9
			C783.4,398.9,782.1,400.1,780.6,400.1z"/>
	</g>
	<g>
		<polygon class="st1" points="777.6,405.1 777.5,410.8 783.1,411 783.3,405.3 		"/>
		<path class="st2" d="M780.3,410.9c-1.6-0.1-2.8-1.4-2.8-3s1.3-2.8,2.9-2.7c1.6,0.1,2.8,1.4,2.8,3
			C783.2,409.8,781.9,411,780.3,410.9z"/>
	</g>
	<g>
		<polygon class="st1" points="777.1,415.8 776.7,421.5 782.4,421.9 782.8,416.2 		"/>
		<path class="st2" d="M779.5,421.7c-1.6-0.1-2.7-1.5-2.6-3c0.1-1.5,1.5-2.7,3.1-2.6c1.6,0.1,2.7,1.4,2.6,3
			C782.5,420.6,781.1,421.8,779.5,421.7z"/>
	</g>
	<g>
		<path class="st1" d="M776.3,426.6c-0.2,1.9-0.2,3.7-0.5,5.6l5.7,0.6c0.2-1.9,0.3-3.8,0.5-5.7L776.3,426.6z"/>
		<path class="st2" d="M778.7,432.5c-0.8-0.1-1.4-0.5-1.9-1c-0.5-0.6-0.7-1.3-0.7-2.1c0.1-1.5,1.5-2.7,3-2.6
			c1.6,0.1,2.7,1.5,2.6,3.1c-0.1,0.8-0.4,1.5-1,1.9C780.2,432.3,779.4,432.5,778.7,432.5z"/>
	</g>
	<g>
		<polygon class="st1" points="775.2,437.2 774.5,442.8 780.1,443.6 780.8,437.9 		"/>
		<path class="st2" d="M777.3,443.2c-1.6-0.2-2.7-1.6-2.5-3.2c0.2-1.5,1.6-2.6,3.2-2.5c1.6,0.2,2.7,1.6,2.5,3.2
			S778.9,443.4,777.3,443.2z"/>
	</g>
	<g>
		<polygon class="st1" points="773.8,447.9 773.5,450.7 773,453.4 778.6,454.3 779.1,451.5 779.5,448.7 		"/>
		<path class="st2" d="M775.8,453.9c-1.5-0.3-2.6-1.7-2.3-3.2c0.2-1.5,1.6-2.6,3.2-2.4c1.6,0.2,2.7,1.7,2.4,3.2
			C778.8,453.1,777.3,454.1,775.8,453.9z"/>
	</g>
	<g>
		<polygon class="st1" points="772.1,458.5 771.1,464 776.7,465.1 777.7,459.4 		"/>
		<path class="st2" d="M773.9,464.5c-1.5-0.3-2.6-1.8-2.3-3.3c0.3-1.5,1.8-2.6,3.3-2.3c1.5,0.3,2.6,1.7,2.3,3.3
			C776.9,463.8,775.4,464.8,773.9,464.5z"/>
	</g>
	<g>
		<path class="st1" d="M770.2,469c-0.4,1.8-0.8,3.7-1.2,5.5l5.6,1.2c0.4-1.9,0.9-3.7,1.3-5.6L770.2,469z"/>
		<path class="st2" d="M771.7,475.1c-1.5-0.3-2.5-1.8-2.1-3.4c0.4-1.5,1.9-2.5,3.4-2.2c1.6,0.3,2.5,1.8,2.2,3.4
			C774.8,474.5,773.3,475.5,771.7,475.1z"/>
	</g>
	<g>
		<polygon class="st1" points="767.8,479.5 766.5,485 772.1,486.4 773.4,480.8 		"/>
		<path class="st2" d="M769.3,485.7c-1.5-0.4-2.5-1.9-2.1-3.4s1.9-2.5,3.4-2.1c1.5,0.4,2.5,1.9,2.1,3.4
			C772.4,485.1,770.8,486.1,769.3,485.7z"/>
	</g>
	<g>
		<polygon class="st1" points="765.3,489.9 763.8,495.4 769.3,496.9 770.8,491.4 		"/>
		<path class="st2" d="M766.5,496.1c-1.5-0.4-2.4-2-2-3.5c0.4-1.5,2-2.4,3.5-2c1.5,0.4,2.4,1.9,2,3.5
			C769.6,495.7,768,496.5,766.5,496.1z"/>
	</g>
	<g>
		<polygon class="st1" points="762.4,500.3 760.9,505.7 766.3,507.4 767.8,501.9 		"/>
		<path class="st2" d="M763.6,506.5c-1.5-0.5-2.4-2.1-1.9-3.5c0.4-1.5,2-2.3,3.5-1.9c1.5,0.4,2.4,2,1.9,3.5S765.1,507,763.6,506.5z"
			/>
	</g>
	<g>
		<polygon class="st1" points="759.3,510.5 757.5,515.9 762.8,517.7 764.7,512.3 		"/>
		<path class="st2" d="M760.2,516.8c-1.5-0.5-2.3-2.1-1.8-3.6c0.5-1.5,2.1-2.3,3.6-1.8c1.5,0.5,2.3,2.1,1.8,3.6
			C763.3,516.5,761.6,517.3,760.2,516.8z"/>
	</g>
	<g>
		<path class="st1" d="M755.8,520.7c-0.6,1.8-1.1,3.6-1.9,5.3l5.3,2c0.7-1.8,1.3-3.6,1.9-5.4L755.8,520.7z"/>
		<path class="st2" d="M756.6,527c-1.5-0.6-2.2-2.1-1.7-3.6c0.5-1.5,2.1-2.2,3.6-1.7c1.5,0.5,2.3,2.2,1.8,3.7
			C759.8,526.8,758.1,527.6,756.6,527z"/>
	</g>
	<g>
		<polygon class="st1" points="752.1,530.8 750,536 755.3,538.1 757.4,532.8 		"/>
		<path class="st2" d="M752.6,537.1c-1.5-0.6-2.2-2.2-1.6-3.7s2.2-2.2,3.7-1.6c1.5,0.6,2.2,2.2,1.6,3.7
			C755.8,536.9,754.1,537.7,752.6,537.1z"/>
	</g>
	<g>
		<path class="st1" d="M748.1,540.8c-0.6,1.8-1.5,3.4-2.3,5.2l5.2,2.3c0.8-1.7,1.6-3.4,2.3-5.2L748.1,540.8z"/>
		<path class="st2" d="M748.5,547.1c-1.4-0.6-2.1-2.3-1.4-3.7c0.7-1.4,2.3-2.1,3.7-1.5c1.4,0.6,2.2,2.3,1.5,3.7
			C751.6,547,749.9,547.7,748.5,547.1z"/>
	</g>
	<g>
		<polygon class="st1" points="743.8,550.6 741.5,555.7 746.6,558.1 749,552.9 		"/>
		<path class="st2" d="M744,556.9c-1.4-0.7-2.1-2.4-1.4-3.8c0.6-1.4,2.3-2,3.8-1.4c1.4,0.6,2.1,2.3,1.4,3.8
			C747.1,557,745.5,557.6,744,556.9z"/>
	</g>
	<g>
		<polygon class="st1" points="739.3,560.3 736.7,565.3 741.8,567.9 744.4,562.8 		"/>
		<path class="st2" d="M739.3,566.6c-1.4-0.7-2-2.4-1.3-3.8c0.7-1.4,2.4-1.9,3.8-1.3c1.4,0.7,2,2.4,1.3,3.8S740.7,567.3,739.3,566.6
			z"/>
	</g>
	<g>
		<polygon class="st1" points="734.4,569.9 731.8,574.9 736.8,577.6 739.5,572.5 		"/>
		<path class="st2" d="M734.3,576.2c-1.4-0.7-1.9-2.5-1.2-3.9s2.4-1.9,3.8-1.2c1.4,0.7,1.9,2.4,1.2,3.9S735.7,577,734.3,576.2z"/>
	</g>
	<g>
		<polygon class="st1" points="729.3,579.3 726.5,584.2 731.5,587.1 734.3,582.1 		"/>
		<path class="st2" d="M729,585.6c-1.4-0.8-1.8-2.5-1.1-3.9c0.8-1.3,2.5-1.8,3.9-1.1c1.4,0.8,1.8,2.5,1.1,3.9
			C732.1,586,730.4,586.4,729,585.6z"/>
	</g>
	<g>
		<path class="st1" d="M724,588.7c-1,1.6-1.8,3.3-2.9,4.8l4.8,3c1.1-1.6,2-3.3,2.9-4.9L724,588.7z"/>
		<path class="st2" d="M723.5,595c-1.4-0.8-1.7-2.5-1-3.9c0.8-1.3,2.5-1.8,3.8-1c1.3,0.8,1.8,2.6,1,3.9
			C726.7,595.4,724.9,595.8,723.5,595z"/>
	</g>
	<g>
		<polygon class="st1" points="718.4,597.8 715.3,602.5 720.1,605.6 723.2,600.8 		"/>
		<path class="st2" d="M717.7,604.1c-1.3-0.9-1.7-2.6-0.9-3.9c0.8-1.3,2.6-1.7,3.9-0.9c1.3,0.8,1.7,2.6,0.9,3.9
			C720.8,604.6,719,604.9,717.7,604.1z"/>
	</g>
	<g>
		<path class="st1" d="M712.6,606.8c-1,1.6-2.2,3.1-3.2,4.6l4.7,3.2c1.1-1.6,2.3-3.1,3.3-4.7L712.6,606.8z"/>
		<path class="st2" d="M711.7,613.1c-1.3-0.9-1.6-2.6-0.7-3.9c0.9-1.3,2.6-1.6,4-0.7c1.3,0.9,1.7,2.7,0.7,3.9
			C714.8,613.6,713,614,711.7,613.1z"/>
	</g>
	<g>
		<polygon class="st1" points="706.4,615.6 703.1,620.2 707.7,623.6 711,618.9 		"/>
		<path class="st2" d="M705.4,621.9c-1.3-0.9-1.6-2.7-0.7-4c0.9-1.3,2.7-1.6,3.9-0.6c1.3,0.9,1.6,2.7,0.7,4
			C708.5,622.5,706.7,622.8,705.4,621.9z"/>
	</g>
	<g>
		<polygon class="st1" points="700.1,624.3 696.6,628.7 701.1,632.2 704.6,627.7 		"/>
		<path class="st2" d="M698.9,630.5c-1.2-1-1.5-2.7-0.5-4s2.8-1.4,4-0.5c1.3,0.9,1.5,2.7,0.5,4C701.9,631.2,700.1,631.4,698.9,630.5
			z"/>
	</g>
	<g>
		<polygon class="st1" points="693.5,632.7 690,637.2 694.4,640.8 697.9,636.3 		"/>
		<path class="st2" d="M692.2,639c-1.2-1-1.4-2.8-0.5-4s2.7-1.4,4-0.4c1.2,1,1.4,2.8,0.5,4C695.2,639.8,693.4,640,692.2,639z"/>
	</g>
	<g>
		<polygon class="st1" points="686.7,641 683,645.3 687.3,649 691,644.7 		"/>
		<path class="st2" d="M685.1,647.2c-1.2-1-1.3-2.8-0.3-4c1-1.2,2.8-1.3,4-0.3c1.2,1,1.3,2.8,0.3,4
			C688.1,648.1,686.3,648.2,685.1,647.2z"/>
	</g>
	<g>
		<path class="st1" d="M679.6,649.2l-1.8,2.1c-0.6,0.7-1.3,1.4-1.9,2l4.2,3.9c0.7-0.7,1.3-1.4,2-2.1l1.9-2.2L679.6,649.2z"/>
		<path class="st2" d="M677.9,655.3c-1.2-1.1-1.2-2.8-0.2-4c1-1.2,2.8-1.3,4-0.2c1.2,1,1.3,2.9,0.2,4.1
			C680.9,656.3,679.1,656.3,677.9,655.3z"/>
	</g>
	<g>
		<polygon class="st1" points="672.3,657 668.4,661.1 672.5,665.1 676.5,660.9 		"/>
		<path class="st2" d="M670.5,663.1c-1.1-1.1-1.2-2.9-0.1-4c1.1-1.1,2.9-1.2,4-0.1c1.1,1.1,1.2,2.9,0.1,4
			C673.4,664.1,671.6,664.2,670.5,663.1z"/>
	</g>
	<g>
		<polygon class="st1" points="664.9,664.8 660.8,668.7 664.8,672.8 668.9,668.8 		"/>
		<path class="st2" d="M662.8,670.7c-1.1-1.1-1.1-2.9,0.1-4c1.1-1.1,2.9-1,4,0.1c1.1,1.1,1.1,2.9-0.1,4
			C665.7,671.9,663.9,671.9,662.8,670.7z"/>
	</g>
	<g>
		<polygon class="st1" points="657.2,672.2 653.1,676.1 656.9,680.3 661.1,676.3 		"/>
		<path class="st2" d="M655,678.2c-1.1-1.2-1-3,0.1-4c1.1-1.1,2.9-1,4,0.1c1.1,1.1,1,2.9-0.1,4C657.9,679.4,656.1,679.3,655,678.2z"
			/>
	</g>
	<g>
		<polygon class="st1" points="649.3,679.5 645,683.2 648.8,687.5 653.1,683.8 		"/>
		<path class="st2" d="M646.9,685.4c-1-1.2-0.9-3,0.3-4c1.2-1,3-0.9,4,0.3c1,1.2,0.9,3-0.3,4S647.9,686.5,646.9,685.4z"/>
	</g>
	<g>
		<path class="st1" d="M641.2,686.6c-1.4,1.2-2.8,2.5-4.3,3.7l3.6,4.4c1.5-1.2,2.9-2.5,4.3-3.7L641.2,686.6z"/>
		<path class="st2" d="M638.7,692.4c-1-1.2-0.8-3,0.3-4c1.2-1,3-0.9,4,0.3c1,1.2,0.9,3-0.3,4C641.5,693.8,639.7,693.6,638.7,692.4z"
			/>
	</g>
	<g>
		<polygon class="st1" points="632.9,693.4 628.5,696.8 631.9,701.3 636.4,697.8 		"/>
		<path class="st2" d="M630.2,699.1c-1-1.2-0.8-3,0.5-4c1.2-1,3-0.7,4,0.5c1,1.2,0.8,3-0.5,4C633,700.5,631.2,700.3,630.2,699.1z"/>
	</g>
	<g>
		<path class="st1" d="M624.4,700c-1.5,1.2-3,2.3-4.5,3.3l3.4,4.6c1.6-1.1,3.1-2.2,4.6-3.4L624.4,700z"/>
		<path class="st2" d="M621.6,705.6c-0.9-1.3-0.7-3,0.6-3.9c1.3-0.9,3-0.7,4,0.6c0.9,1.2,0.7,3.1-0.6,4
			C624.3,707.2,622.5,706.9,621.6,705.6z"/>
	</g>
	<g>
		<polygon class="st1" points="615.8,706.3 611.2,709.6 614.4,714.2 619.1,710.9 		"/>
		<path class="st2" d="M612.8,711.9c-0.9-1.3-0.6-3.1,0.7-4c1.3-0.9,3-0.6,3.9,0.7c0.9,1.3,0.6,3.1-0.7,4
			C615.4,713.5,613.7,713.2,612.8,711.9z"/>
	</g>
	<g>
		<polygon class="st1" points="607,712.5 602.2,715.5 605.3,720.3 610.2,717.2 		"/>
		<path class="st2" d="M603.8,717.9c-0.9-1.3-0.5-3.1,0.8-3.9s3.1-0.5,4,0.8c0.9,1.3,0.5,3-0.8,3.9
			C606.4,719.6,604.6,719.2,603.8,717.9z"/>
	</g>
	<g>
		<polygon class="st1" points="597.9,718.3 593.2,721.3 596.2,726.2 601,723.1 		"/>
		<path class="st2" d="M594.7,723.8c-0.8-1.3-0.4-3.1,0.9-3.9s3.1-0.4,3.9,0.9c0.8,1.3,0.4,3.1-0.9,3.9
			C597.2,725.5,595.5,725.1,594.7,723.8z"/>
	</g>
	<g>
		<polygon class="st1" points="588.8,723.9 583.9,726.7 586.8,731.7 591.7,728.8 		"/>
		<path class="st2" d="M585.3,729.2c-0.8-1.4-0.3-3.1,1-3.9c1.3-0.8,3.1-0.3,3.9,1c0.8,1.3,0.3,3.1-1,3.9
			C587.9,731,586.1,730.6,585.3,729.2z"/>
	</g>
	<g>
		<polygon class="st1" points="579.5,729.3 577.1,730.7 575.8,731.4 574.6,732 577.3,737 578.6,736.4 579.8,735.7 582.3,734.2 		"/>
		<path class="st2" d="M575.9,734.5c-0.7-1.4-0.2-3,1.1-3.8c1.3-0.8,3.1-0.3,3.8,1.1c0.8,1.4,0.3,3.1-1.1,3.9
			C578.4,736.5,576.7,735.9,575.9,734.5z"/>
	</g>
	<g>
		<polygon class="st1" points="570.1,734.4 565,736.9 567.6,742 572.7,739.4 		"/>
		<path class="st2" d="M566.3,739.5c-0.7-1.4-0.2-3.1,1.2-3.8c1.4-0.7,3.1-0.2,3.8,1.2c0.7,1.4,0.2,3.1-1.2,3.8
			C568.7,741.4,567,740.9,566.3,739.5z"/>
	</g>
	<g>
		<path class="st1" d="M560.5,739.3c-1.7,0.9-3.4,1.6-5.1,2.4l2.4,5.1c1.7-0.8,3.5-1.5,5.2-2.4L560.5,739.3z"/>
		<path class="st2" d="M556.6,744.2c-0.7-1.4-0.1-3.1,1.4-3.7c1.4-0.6,3.1-0.1,3.8,1.3c0.7,1.4,0.1,3.2-1.3,3.8
			C559,746.3,557.3,745.6,556.6,744.2z"/>
	</g>
	<g>
		<polygon class="st1" points="550.7,743.7 545.6,746.1 547.9,751.3 553.1,748.9 		"/>
		<path class="st2" d="M546.7,748.7c-0.6-1.4,0-3.1,1.4-3.8c1.4-0.6,3.1,0,3.7,1.4c0.6,1.4,0,3.1-1.4,3.8S547.4,750.1,546.7,748.7z"
			/>
	</g>
	<g>
		<polygon class="st1" points="540.9,748.1 535.7,750.2 537.8,755.4 543.1,753.3 		"/>
		<path class="st2" d="M536.8,752.8c-0.6-1.5,0.1-3.1,1.6-3.7s3.1,0.1,3.7,1.6c0.6,1.4-0.1,3.1-1.6,3.7
			C539,755,537.3,754.3,536.8,752.8z"/>
	</g>
	<g>
		<polygon class="st1" points="530.9,752 525.7,754.1 527.7,759.4 533,757.3 		"/>
		<path class="st2" d="M526.7,756.8c-0.5-1.5,0.2-3.1,1.6-3.7c1.4-0.6,3.1,0.2,3.6,1.6c0.6,1.5-0.2,3.1-1.6,3.7
			C528.9,759,527.2,758.2,526.7,756.8z"/>
	</g>
	<g>
		<polygon class="st1" points="520.9,755.8 515.6,757.6 517.4,763 522.8,761.2 		"/>
		<path class="st2" d="M516.5,760.3c-0.5-1.5,0.3-3.1,1.8-3.6c1.5-0.5,3.1,0.3,3.6,1.8c0.5,1.5-0.3,3.1-1.8,3.6
			C518.6,762.6,517,761.8,516.5,760.3z"/>
	</g>
	<g>
		<path class="st1" d="M510.7,759.2l-2.7,0.9c-0.9,0.3-1.8,0.6-2.7,0.8l1.7,5.4c0.9-0.2,1.8-0.5,2.7-0.9l2.7-0.9L510.7,759.2z"/>
		<path class="st2" d="M506.2,763.7c-0.5-1.5,0.4-3,1.9-3.6c1.5-0.5,3.1,0.3,3.5,1.8c0.5,1.5-0.3,3.1-1.8,3.6
			C508.3,766.1,506.7,765.2,506.2,763.7z"/>
	</g>
	<g>
		<polygon class="st1" points="500.5,762.4 495,763.9 496.6,769.4 502.1,767.8 		"/>
		<path class="st2" d="M495.8,766.7c-0.4-1.5,0.5-3.1,2-3.5s3.1,0.5,3.5,2c0.4,1.5-0.4,3.1-2,3.5C497.8,769,496.2,768.2,495.8,766.7
			z"/>
	</g>
	<g>
		<path class="st1" d="M490.1,765.3c-1.8,0.6-3.6,0.9-5.5,1.4l1.4,5.5c1.9-0.4,3.7-0.8,5.5-1.4L490.1,765.3z"/>
		<path class="st2" d="M485.4,769.4c-0.4-1.5,0.5-3,2.1-3.4c1.5-0.3,3,0.5,3.4,2c0.4,1.5-0.5,3.1-2,3.5
			C487.3,771.9,485.7,771,485.4,769.4z"/>
	</g>
	<g>
		<polygon class="st1" points="479.7,767.8 474.2,769.1 475.4,774.6 481,773.4 		"/>
		<path class="st2" d="M474.8,771.9c-0.3-1.5,0.6-3.1,2.1-3.4s3,0.6,3.4,2.1c0.4,1.5-0.6,3.1-2.1,3.4
			C476.7,774.4,475.1,773.4,474.8,771.9z"/>
	</g>
	<g>
		<polygon class="st1" points="469.2,770.2 463.7,771.2 464.7,776.8 470.4,775.8 		"/>
		<path class="st2" d="M464.2,774c-0.3-1.5,0.7-3,2.2-3.3c1.5-0.3,3,0.8,3.3,2.3c0.3,1.5-0.7,3-2.2,3.3S464.5,775.5,464.2,774z"/>
	</g>
	<g>
		<polygon class="st1" points="458.7,772.1 453.1,773.1 454,778.7 459.6,777.7 		"/>
		<path class="st2" d="M453.6,775.9c-0.2-1.5,0.8-3,2.3-3.3c1.5-0.3,3,0.8,3.3,2.3c0.3,1.5-0.8,3-2.3,3.3
			C455.3,778.5,453.8,777.5,453.6,775.9z"/>
	</g>
	<g>
		<polygon class="st1" points="448.1,773.9 442.5,774.6 443.2,780.2 448.9,779.5 		"/>
		<path class="st2" d="M442.9,777.4c-0.2-1.6,0.9-3,2.4-3.2c1.5-0.2,3,0.9,3.2,2.5c0.2,1.6-0.9,3-2.4,3.2
			C444.5,780.1,443.1,779,442.9,777.4z"/>
	</g>
	<g>
		<polygon class="st1" points="437.4,775.2 431.8,775.9 432.4,781.6 438.1,780.9 		"/>
		<path class="st2" d="M432.1,778.8c-0.2-1.6,1-3,2.5-3.2s2.9,0.9,3.1,2.5c0.2,1.6-0.9,3-2.5,3.2S432.3,780.3,432.1,778.8z"/>
	</g>
	<g>
		<polygon class="st1" points="426.8,776.3 421.1,776.8 421.6,782.4 427.3,782 		"/>
		<path class="st2" d="M421.4,779.6c-0.1-1.6,1-2.9,2.6-3c1.5-0.1,2.9,1.1,3.1,2.6c0.1,1.6-1,2.9-2.6,3S421.5,781.2,421.4,779.6z"/>
	</g>
	<g>
		<path class="st1" d="M416,777.2l-2.8,0.2c-0.9,0.1-1.9,0.1-2.8,0.2l0.3,5.7c1,0,1.9-0.1,2.9-0.2l2.8-0.2L416,777.2z"/>
		<path class="st2" d="M410.6,780.4c-0.1-1.6,1.1-2.8,2.7-3c1.5-0.1,2.9,1.1,3,2.6c0.1,1.6-1.1,2.9-2.7,3.1
			C412,783.2,410.6,781.9,410.6,780.4z"/>
	</g>
	<g>
		<polygon class="st1" points="405.3,777.7 399.7,777.8 399.8,783.5 405.5,783.3 		"/>
		<path class="st2" d="M399.8,780.6c0-1.6,1.2-2.9,2.8-2.9c1.6,0,2.9,1.2,2.9,2.8c0.1,1.6-1.2,2.9-2.8,2.9
			C401.1,783.4,399.8,782.2,399.8,780.6z"/>
	</g>
	<g>
		<polygon class="st1" points="394.6,777.9 391.8,778 389,777.9 388.9,783.6 391.8,783.7 394.6,783.6 		"/>
		<path class="st2" d="M388.9,780.8c0-1.6,1.3-2.8,2.8-2.8c1.6,0,2.8,1.2,2.8,2.8c0,1.6-1.3,2.9-2.8,2.9
			C390.2,783.6,388.9,782.3,388.9,780.8z"/>
	</g>
	<g>
		<polygon class="st1" points="383.9,777.8 378.2,777.7 378,783.3 383.7,783.5 		"/>
		<path class="st2" d="M378.1,780.5c0.1-1.6,1.4-2.8,2.9-2.8c1.6,0,2.8,1.3,2.8,2.9c0,1.6-1.3,2.8-2.9,2.8
			C379.3,783.4,378.1,782.1,378.1,780.5z"/>
	</g>
	<g>
		<path class="st1" d="M373.1,777.5c-0.9,0-1.9-0.1-2.8-0.2l-2.8-0.2l-0.4,5.7l2.8,0.2c0.9,0.1,1.9,0.1,2.9,0.2L373.1,777.5z"/>
		<path class="st2" d="M367.3,780c0.1-1.6,1.4-2.7,3-2.6c1.5,0.1,2.7,1.4,2.7,3c-0.1,1.6-1.4,2.8-3,2.7
			C368.4,782.9,367.2,781.6,367.3,780z"/>
	</g>
	<g>
		<polygon class="st1" points="362.4,776.8 356.8,776.3 356.3,782 362,782.4 		"/>
		<path class="st2" d="M356.5,779.2c0.1-1.6,1.5-2.7,3.1-2.6c1.5,0.1,2.7,1.5,2.6,3c-0.1,1.6-1.5,2.7-3.1,2.6
			S356.4,780.7,356.5,779.2z"/>
	</g>
	<g>
		<polygon class="st1" points="351.7,775.9 346.1,775.2 345.5,780.9 351.1,781.6 		"/>
		<path class="st2" d="M345.8,778c0.2-1.6,1.6-2.7,3.1-2.5s2.7,1.6,2.5,3.2c-0.2,1.6-1.6,2.7-3.1,2.5S345.6,779.6,345.8,778z"/>
	</g>
	<g>
		<polygon class="st1" points="341.1,774.6 335.5,773.9 334.7,779.5 340.3,780.2 		"/>
		<path class="st2" d="M335.1,776.7c0.2-1.6,1.7-2.7,3.2-2.5c1.5,0.2,2.6,1.6,2.4,3.2c-0.2,1.6-1.6,2.7-3.2,2.5
			C335.9,779.7,334.8,778.2,335.1,776.7z"/>
	</g>
	<g>
		<polygon class="st1" points="330.4,773.1 324.9,772.1 323.9,777.7 329.5,778.7 		"/>
		<path class="st2" d="M324.4,774.9c0.3-1.5,1.7-2.6,3.3-2.3c1.5,0.3,2.6,1.8,2.3,3.3c-0.2,1.5-1.7,2.6-3.3,2.3
			C325.2,777.9,324.1,776.4,324.4,774.9z"/>
	</g>
	<g>
		<polygon class="st1" points="319.9,771.2 314.3,770.2 313.2,775.8 318.8,776.8 		"/>
		<path class="st2" d="M313.7,773c0.3-1.5,1.8-2.6,3.3-2.3c1.5,0.3,2.5,1.7,2.2,3.3c-0.3,1.5-1.8,2.6-3.3,2.3
			C314.4,776,313.4,774.5,313.7,773z"/>
	</g>
	<g>
		<polygon class="st1" points="309.3,769.1 303.9,767.8 302.6,773.4 308.1,774.6 		"/>
		<path class="st2" d="M303.2,770.6c0.4-1.5,1.9-2.5,3.4-2.1c1.5,0.3,2.5,1.9,2.1,3.4c-0.3,1.5-1.8,2.5-3.4,2.1
			S302.8,772.1,303.2,770.6z"/>
	</g>
	<g>
		<path class="st1" d="M298.9,766.7c-1.8-0.4-3.7-0.8-5.5-1.4l-1.4,5.5c1.8,0.6,3.7,0.9,5.5,1.4L298.9,766.7z"/>
		<path class="st2" d="M292.7,768.1c0.4-1.5,1.9-2.4,3.4-2c1.5,0.3,2.4,1.9,2.1,3.4c-0.4,1.5-1.9,2.5-3.5,2.1
			C293.2,771.2,292.3,769.6,292.7,768.1z"/>
	</g>
	<g>
		<polygon class="st1" points="288.5,763.9 283.1,762.4 281.5,767.8 287,769.4 		"/>
		<path class="st2" d="M282.3,765.1c0.4-1.5,2-2.4,3.5-2c1.5,0.4,2.4,2,1.9,3.5c-0.4,1.5-2,2.4-3.5,2S281.8,766.6,282.3,765.1z"/>
	</g>
	<g>
		<path class="st1" d="M278.2,761c-0.9-0.2-1.8-0.5-2.7-0.8l-2.7-0.9l-1.7,5.4l2.7,0.9c0.9,0.3,1.8,0.6,2.7,0.9L278.2,761z"/>
		<path class="st2" d="M271.9,761.9c0.5-1.5,2.1-2.3,3.5-1.8c1.5,0.5,2.3,2.1,1.9,3.6c-0.5,1.5-2.1,2.4-3.6,1.9
			C272.3,765.1,271.5,763.4,271.9,761.9z"/>
	</g>
	<g>
		<polygon class="st1" points="268,757.6 262.7,755.8 260.8,761.2 266.2,763 		"/>
		<path class="st2" d="M261.7,758.5c0.5-1.5,2.1-2.3,3.6-1.8s2.3,2.1,1.8,3.6c-0.5,1.5-2.1,2.3-3.6,1.8
			C262,761.6,261.2,760,261.7,758.5z"/>
	</g>
	<g>
		<polygon class="st1" points="257.8,754.1 252.6,752 250.6,757.3 255.9,759.4 		"/>
		<path class="st2" d="M251.6,754.7c0.6-1.5,2.2-2.2,3.6-1.6c1.4,0.6,2.2,2.2,1.6,3.7c-0.5,1.5-2.2,2.2-3.6,1.6
			C251.7,757.8,251,756.2,251.6,754.7z"/>
	</g>
	<g>
		<polygon class="st1" points="247.9,750.2 242.6,748.1 240.4,753.3 245.7,755.4 		"/>
		<path class="st2" d="M241.5,750.7c0.6-1.4,2.3-2.2,3.7-1.6c1.4,0.6,2.1,2.2,1.6,3.7c-0.6,1.5-2.2,2.2-3.7,1.6
			C241.6,753.8,240.9,752.2,241.5,750.7z"/>
	</g>
	<g>
		<polygon class="st1" points="237.9,746.1 232.8,743.7 230.5,748.9 235.7,751.3 		"/>
		<path class="st2" d="M231.6,746.3c0.6-1.4,2.3-2.1,3.7-1.4c1.4,0.6,2.1,2.3,1.4,3.8c-0.6,1.4-2.3,2.1-3.7,1.4
			S231,747.8,231.6,746.3z"/>
	</g>
	<g>
		<path class="st1" d="M228.2,741.6c-1.7-0.8-3.5-1.5-5.1-2.4l-2.5,5.1c1.7,0.9,3.5,1.6,5.2,2.4L228.2,741.6z"/>
		<path class="st2" d="M221.8,741.8c0.7-1.4,2.4-1.9,3.8-1.3c1.4,0.6,2,2.3,1.4,3.7c-0.7,1.4-2.4,2-3.8,1.4
			C221.7,745,221.1,743.2,221.8,741.8z"/>
	</g>
	<g>
		<polygon class="st1" points="218.5,736.9 213.5,734.4 210.9,739.4 216,742 		"/>
		<path class="st2" d="M212.2,736.9c0.7-1.4,2.4-1.9,3.8-1.2c1.4,0.7,1.9,2.4,1.2,3.8c-0.7,1.4-2.4,2-3.8,1.2
			C212,740,211.5,738.3,212.2,736.9z"/>
	</g>
	<g>
		<polygon class="st1" points="209,732 207.7,731.4 206.5,730.7 204,729.3 201.3,734.2 203.8,735.7 205,736.4 206.3,737 		"/>
		<path class="st2" d="M202.7,731.8c0.8-1.4,2.5-1.9,3.8-1.1c1.3,0.8,1.9,2.5,1.1,3.8c-0.7,1.4-2.5,1.9-3.9,1.1
			C202.4,734.9,201.9,733.1,202.7,731.8z"/>
	</g>
	<g>
		<polygon class="st1" points="199.6,726.7 194.7,723.9 191.8,728.8 196.8,731.7 		"/>
		<path class="st2" d="M193.3,726.4c0.8-1.3,2.5-1.8,3.9-1c1.3,0.8,1.8,2.5,1,3.9c-0.8,1.4-2.5,1.8-3.9,1
			C192.9,729.5,192.5,727.7,193.3,726.4z"/>
	</g>
	<g>
		<polygon class="st1" points="190.3,721.3 185.6,718.3 182.6,723.1 187.4,726.2 		"/>
		<path class="st2" d="M184.1,720.7c0.8-1.3,2.6-1.7,3.9-0.9c1.3,0.8,1.7,2.6,0.9,3.9c-0.8,1.3-2.6,1.7-3.9,0.9
			C183.6,723.8,183.2,722,184.1,720.7z"/>
	</g>
	<g>
		<polygon class="st1" points="181.3,715.5 176.6,712.5 173.4,717.2 178.2,720.3 		"/>
		<path class="st2" d="M175,714.9c0.9-1.3,2.7-1.7,4-0.8c1.3,0.8,1.7,2.6,0.8,3.9c-0.9,1.3-2.6,1.7-4,0.8
			C174.5,717.9,174.1,716.2,175,714.9z"/>
	</g>
	<g>
		<polygon class="st1" points="172.4,709.6 167.8,706.3 164.5,710.9 169.2,714.2 		"/>
		<path class="st2" d="M166.1,708.6c0.9-1.3,2.7-1.6,3.9-0.7s1.6,2.7,0.7,4c-0.9,1.3-2.7,1.6-3.9,0.7
			C165.5,711.7,165.2,709.9,166.1,708.6z"/>
	</g>
	<g>
		<path class="st1" d="M163.6,703.3c-1.5-1.1-3.1-2.2-4.5-3.3l-3.4,4.5c1.5,1.2,3,2.3,4.6,3.4L163.6,703.3z"/>
		<path class="st2" d="M157.4,702.3c1-1.3,2.7-1.5,4-0.6c1.3,0.9,1.5,2.7,0.6,3.9c-0.9,1.3-2.7,1.6-4,0.6
			C156.7,705.4,156.5,703.5,157.4,702.3z"/>
	</g>
	<g>
		<polygon class="st1" points="155.1,696.8 150.7,693.4 147.1,697.8 151.6,701.3 		"/>
		<path class="st2" d="M148.9,695.6c1-1.2,2.8-1.4,4-0.5s1.4,2.7,0.5,4c-1,1.2-2.7,1.5-4,0.5C148.1,698.6,147.9,696.8,148.9,695.6z"
			/>
	</g>
	<g>
		<path class="st1" d="M146.7,690.2c-1.5-1.2-2.8-2.4-4.3-3.7l-3.7,4.3c1.4,1.2,2.9,2.5,4.3,3.7L146.7,690.2z"/>
		<path class="st2" d="M140.5,688.7c1-1.2,2.8-1.3,4-0.3c1.2,1,1.3,2.8,0.3,4c-1,1.2-2.8,1.4-4,0.3
			C139.7,691.7,139.5,689.9,140.5,688.7z"/>
	</g>
	<g>
		<polygon class="st1" points="138.5,683.2 134.3,679.5 130.5,683.8 134.8,687.5 		"/>
		<path class="st2" d="M132.4,681.6c1-1.2,2.9-1.3,4-0.3c1.2,1,1.3,2.8,0.3,4c-1,1.2-2.8,1.3-4,0.3S131.3,682.8,132.4,681.6z"/>
	</g>
	<g>
		<polygon class="st1" points="130.5,676.1 126.4,672.2 122.5,676.3 126.6,680.3 		"/>
		<path class="st2" d="M124.4,674.3c1.1-1.1,2.9-1.2,4-0.1c1.1,1.1,1.2,2.9,0.1,4c-1.1,1.2-2.8,1.2-4,0.1S123.4,675.4,124.4,674.3z"
			/>
	</g>
	<g>
		<polygon class="st1" points="122.7,668.7 118.6,664.8 114.6,668.8 118.7,672.8 		"/>
		<path class="st2" d="M116.6,666.8c1.1-1.1,2.9-1.1,4-0.1c1.1,1.1,1.1,2.9,0.1,4c-1.1,1.1-2.9,1.2-4,0.1
			C115.5,669.7,115.5,667.9,116.6,666.8z"/>
	</g>
	<g>
		<polygon class="st1" points="115.1,661.1 111.2,657 107.1,660.9 111,665.1 		"/>
		<path class="st2" d="M109.2,659c1.1-1.1,2.9-1,4,0.1c1.1,1.1,1,2.9-0.1,4c-1.1,1.1-2.9,1.1-4-0.1C108,661.9,108,660.1,109.2,659z"
			/>
	</g>
	<g>
		<path class="st1" d="M107.7,653.3c-0.6-0.7-1.3-1.4-1.9-2l-1.8-2.1l-4.2,3.8l1.9,2.2c0.6,0.7,1.3,1.4,2,2.1L107.7,653.3z"/>
		<path class="st2" d="M101.8,651.1c1.2-1,2.9-0.9,4,0.2c1.1,1.1,1,2.9-0.2,4c-1.1,1.1-3,1-4.1-0.2
			C100.5,653.9,100.6,652.1,101.8,651.1z"/>
	</g>
	<g>
		<polygon class="st1" points="100.6,645.3 96.9,641 92.6,644.7 96.3,649 		"/>
		<path class="st2" d="M94.7,642.9c1.2-1,3-0.9,4,0.3c1,1.2,0.9,3-0.3,4c-1.2,1-3,0.9-4-0.3C93.4,645.7,93.5,643.9,94.7,642.9z"/>
	</g>
	<g>
		<polygon class="st1" points="93.6,637.2 90.1,632.7 85.6,636.3 89.2,640.8 		"/>
		<path class="st2" d="M87.9,634.5c1.2-1,3-0.8,4,0.4s0.8,3-0.5,4c-1.2,1-3,0.8-4-0.4C86.4,637.3,86.6,635.5,87.9,634.5z"/>
	</g>
	<g>
		<polygon class="st1" points="86.9,628.7 83.5,624.3 78.9,627.7 82.4,632.2 		"/>
		<path class="st2" d="M81.2,626c1.3-0.9,3.1-0.7,4,0.5s0.7,3-0.5,4c-1.2,1-3,0.7-4-0.5C79.7,628.7,79.9,627,81.2,626z"/>
	</g>
	<g>
		<polygon class="st1" points="80.4,620.2 77.2,615.6 72.5,618.9 75.8,623.6 		"/>
		<path class="st2" d="M74.8,617.3c1.3-0.9,3-0.6,3.9,0.6c0.9,1.3,0.6,3-0.7,4c-1.3,0.9-3,0.6-3.9-0.6
			C73.3,619.9,73.6,618.2,74.8,617.3z"/>
	</g>
	<g>
		<path class="st1" d="M74.2,611.4c-1.1-1.5-2.2-3-3.2-4.6l-4.7,3.2c1,1.6,2.2,3.1,3.3,4.7L74.2,611.4z"/>
		<path class="st2" d="M68.6,608.4c1.3-0.9,3-0.5,4,0.7c0.9,1.3,0.6,3-0.7,3.9c-1.3,0.9-3.1,0.6-4-0.7
			C66.9,611.1,67.3,609.3,68.6,608.4z"/>
	</g>
	<g>
		<polygon class="st1" points="68.2,602.5 65.2,597.8 60.4,600.8 63.5,605.6 		"/>
		<path class="st2" d="M62.8,599.3c1.3-0.8,3.1-0.5,3.9,0.9s0.5,3.1-0.9,3.9c-1.3,0.9-3.1,0.5-3.9-0.9
			C61.1,601.9,61.5,600.1,62.8,599.3z"/>
	</g>
	<g>
		<path class="st1" d="M62.4,593.5c-1.1-1.6-1.9-3.2-2.9-4.8l-4.9,2.9c1,1.6,1.9,3.3,2.9,4.9L62.4,593.5z"/>
		<path class="st2" d="M57.1,590.1c1.3-0.8,3.1-0.4,3.8,1c0.7,1.4,0.4,3.1-1,3.9c-1.3,0.8-3.2,0.4-3.9-0.9
			C55.3,592.7,55.8,590.9,57.1,590.1z"/>
	</g>
	<g>
		<polygon class="st1" points="57,584.2 54.2,579.3 49.2,582.1 52.1,587.1 		"/>
		<path class="st2" d="M51.7,580.7c1.4-0.8,3.1-0.3,3.9,1.1c0.8,1.3,0.3,3.1-1.1,3.9c-1.4,0.8-3.1,0.3-3.9-1.1
			S50.3,581.5,51.7,580.7z"/>
	</g>
	<g>
		<polygon class="st1" points="51.7,574.9 49.1,569.9 44.1,572.5 46.7,577.6 		"/>
		<path class="st2" d="M46.6,571.2c1.4-0.7,3.1-0.2,3.8,1.2c0.7,1.4,0.2,3.1-1.2,3.9c-1.4,0.7-3.1,0.2-3.8-1.2
			C44.7,573.6,45.2,571.9,46.6,571.2z"/>
	</g>
	<g>
		<polygon class="st1" points="46.8,565.3 44.2,560.3 39.1,562.8 41.7,567.9 		"/>
		<path class="st2" d="M41.7,561.6c1.4-0.7,3.1-0.1,3.8,1.3c0.7,1.4,0.1,3.1-1.3,3.8c-1.4,0.7-3.1,0.1-3.8-1.3
			S40.3,562.2,41.7,561.6z"/>
	</g>
	<g>
		<polygon class="st1" points="42.1,555.7 39.8,550.6 34.6,552.9 36.9,558.1 		"/>
		<path class="st2" d="M37.2,551.7c1.4-0.6,3.1,0,3.8,1.4c0.6,1.4,0,3.1-1.4,3.8c-1.4,0.7-3.1,0-3.7-1.4
			C35.1,554.1,35.7,552.4,37.2,551.7z"/>
	</g>
	<g>
		<path class="st1" d="M37.7,545.9c-0.7-1.7-1.6-3.4-2.3-5.2l-5.2,2.2c0.7,1.8,1.5,3.5,2.3,5.2L37.7,545.9z"/>
		<path class="st2" d="M32.8,541.9c1.5-0.6,3,0.1,3.7,1.5c0.6,1.4,0,3.1-1.4,3.7c-1.4,0.6-3.1,0-3.8-1.5
			C30.6,544.2,31.4,542.5,32.8,541.9z"/>
	</g>
	<g>
		<polygon class="st1" points="33.5,536 31.5,530.8 26.2,532.8 28.3,538.1 		"/>
		<path class="st2" d="M28.8,531.8c1.5-0.6,3.1,0.2,3.7,1.6c0.6,1.4-0.2,3.1-1.6,3.7c-1.5,0.6-3.1-0.1-3.7-1.6
			C26.6,534,27.4,532.4,28.8,531.8z"/>
	</g>
	<g>
		<path class="st1" d="M29.6,526c-0.7-1.7-1.2-3.5-1.9-5.3l-5.4,1.9c0.6,1.8,1.2,3.6,1.9,5.4L29.6,526z"/>
		<path class="st2" d="M25,521.7c1.5-0.5,3.1,0.2,3.6,1.7c0.5,1.5-0.2,3.1-1.7,3.6c-1.5,0.5-3.2-0.2-3.7-1.7
			C22.8,523.8,23.6,522.2,25,521.7z"/>
	</g>
	<g>
		<polygon class="st1" points="26.1,515.9 24.3,510.5 18.9,512.3 20.7,517.7 		"/>
		<path class="st2" d="M21.6,511.4c1.5-0.5,3.1,0.3,3.6,1.8s-0.3,3.1-1.8,3.6c-1.5,0.5-3.1-0.3-3.6-1.8S20.1,511.9,21.6,511.4z"/>
	</g>
	<g>
		<polygon class="st1" points="22.7,505.7 21.2,500.3 15.7,501.9 17.3,507.4 		"/>
		<path class="st2" d="M18.4,501.1c1.5-0.4,3.1,0.4,3.5,1.9s-0.5,3.1-1.9,3.5c-1.5,0.5-3.1-0.4-3.5-1.9
			C16.1,503.1,16.9,501.5,18.4,501.1z"/>
	</g>
	<g>
		<polygon class="st1" points="19.8,495.4 18.2,489.9 12.7,491.4 14.3,496.9 		"/>
		<path class="st2" d="M15.5,490.7c1.5-0.4,3.1,0.5,3.5,2s-0.5,3-2,3.5c-1.5,0.4-3.1-0.5-3.5-2C13.1,492.6,14,491.1,15.5,490.7z"/>
	</g>
	<g>
		<polygon class="st1" points="17,485 15.7,479.5 10.2,480.8 11.5,486.4 		"/>
		<path class="st2" d="M13,480.2c1.5-0.4,3.1,0.6,3.4,2.1s-0.6,3-2.1,3.4c-1.5,0.4-3-0.6-3.4-2.1C10.5,482,11.4,480.5,13,480.2z"/>
	</g>
	<g>
		<path class="st1" d="M14.6,474.5c-0.4-1.8-0.9-3.7-1.2-5.5l-5.6,1.1c0.4,1.9,0.8,3.7,1.3,5.6L14.6,474.5z"/>
		<path class="st2" d="M10.6,469.6c1.5-0.3,3,0.7,3.4,2.2c0.3,1.5-0.6,3-2.1,3.4c-1.5,0.3-3.1-0.6-3.4-2.2
			C8,471.4,9,469.9,10.6,469.6z"/>
	</g>
	<g>
		<polygon class="st1" points="12.5,464 11.5,458.5 5.9,459.4 6.9,465.1 		"/>
		<path class="st2" d="M8.7,459c1.5-0.3,3,0.8,3.3,2.3s-0.8,3-2.3,3.3c-1.5,0.3-3-0.7-3.3-2.3C6.1,460.7,7.1,459.2,8.7,459z"/>
	</g>
	<g>
		<polygon class="st1" points="10.6,453.4 10.1,450.7 9.7,447.9 4.1,448.7 4.5,451.5 5,454.3 		"/>
		<path class="st2" d="M6.9,448.3c1.6-0.2,3,0.8,3.2,2.4c0.3,1.5-0.8,3-2.3,3.2c-1.5,0.2-3-0.8-3.3-2.4C4.3,450,5.4,448.5,6.9,448.3
			z"/>
	</g>
	<g>
		<polygon class="st1" points="9.1,442.8 8.4,437.2 2.7,437.9 3.4,443.6 		"/>
		<path class="st2" d="M5.5,437.6c1.6-0.2,3,0.9,3.2,2.5c0.2,1.5-0.9,3-2.5,3.2c-1.6,0.2-3-0.9-3.2-2.5C2.9,439.2,4,437.7,5.5,437.6
			z"/>
	</g>
	<g>
		<path class="st1" d="M7.7,432.2c-0.2-1.9-0.3-3.7-0.5-5.6l-5.7,0.5c0.2,1.9,0.2,3.8,0.5,5.7L7.7,432.2z"/>
		<path class="st2" d="M4.4,426.8c1.6-0.1,2.9,1,3,2.6c0.1,0.8-0.2,1.5-0.7,2.1c-0.4,0.6-1.1,0.9-1.9,1c-0.8,0.1-1.5-0.2-2.1-0.6
			c-0.6-0.5-0.9-1.1-1-1.9C1.7,428.3,2.9,426.9,4.4,426.8z"/>
	</g>
	<g>
		<polygon class="st1" points="6.9,421.5 6.4,415.8 0.8,416.2 1.2,421.9 		"/>
		<path class="st2" d="M3.6,416c1.6-0.1,2.9,1.1,3.1,2.6c0.1,1.5-1.1,2.9-2.6,3c-1.6,0.1-2.9-1.1-3-2.6C0.9,417.5,2,416.1,3.6,416z"
			/>
	</g>
	<g>
		<polygon class="st1" points="6.1,410.8 6,405.1 0.3,405.3 0.4,411 		"/>
		<path class="st2" d="M3.1,405.2c1.6-0.1,2.9,1.2,2.9,2.7s-1.2,2.9-2.8,3c-1.6,0.1-2.9-1.1-2.9-2.7S1.5,405.3,3.1,405.2z"/>
	</g>
	<g>
		<polygon class="st1" points="5.8,400 5.7,394.4 0,394.4 0.1,400.1 		"/>
		<path class="st2" d="M2.8,394.4c1.6,0,2.9,1.2,2.9,2.8S4.6,400,3,400.1c-1.6,0-2.9-1.2-2.9-2.8C0,395.7,1.3,394.4,2.8,394.4z"/>
	</g>
	<g>
		<polygon class="st1" points="5.7,389.3 5.8,383.7 0.1,383.5 0,389.3 		"/>
		<path class="st2" d="M3,383.6c1.6,0,2.8,1.3,2.8,2.9c0,1.6-1.3,2.8-2.9,2.8c-1.6,0-2.8-1.3-2.8-2.9S1.4,383.6,3,383.6z"/>
	</g>
	<g>
		<polygon class="st1" points="6,378.6 6.1,372.9 0.4,372.6 0.3,378.4 		"/>
		<path class="st2" d="M3.3,372.8c1.6,0.1,2.8,1.4,2.8,3c0,1.6-1.3,2.8-2.9,2.7c-1.6-0.1-2.8-1.4-2.8-3
			C0.4,373.9,1.7,372.7,3.3,372.8z"/>
	</g>
	<g>
		<polygon class="st1" points="6.4,367.8 6.9,362.2 1.2,361.8 0.8,367.5 		"/>
		<path class="st2" d="M4,362c1.6,0.1,2.7,1.5,2.6,3c-0.1,1.5-1.5,2.7-3.1,2.6c-1.6-0.1-2.7-1.4-2.6-3S2.5,361.9,4,362z"/>
	</g>
	<g>
		<path class="st1" d="M7.3,357.1c0.2-1.9,0.2-3.7,0.5-5.6l-5.7-0.6c-0.2,1.9-0.3,3.8-0.5,5.7L7.3,357.1z"/>
		<path class="st2" d="M4.9,351.2c0.8,0.1,1.4,0.5,1.9,1c0.5,0.6,0.7,1.3,0.7,2.1c-0.1,1.5-1.5,2.7-3,2.6c-1.6-0.1-2.7-1.5-2.6-3.1
			c0.1-0.8,0.4-1.5,1-1.9C3.4,351.4,4.1,351.1,4.9,351.2z"/>
	</g>
	<g>
		<polygon class="st1" points="8.4,346.5 9.1,340.9 3.4,340.1 2.7,345.8 		"/>
		<path class="st2" d="M6.3,340.5c1.6,0.2,2.7,1.6,2.5,3.2c-0.2,1.5-1.6,2.6-3.2,2.5c-1.6-0.2-2.7-1.6-2.5-3.2
			C3.3,341.4,4.7,340.3,6.3,340.5z"/>
	</g>
	<g>
		<polygon class="st1" points="9.7,335.8 10.1,333 10.6,330.2 5,329.3 4.5,332.1 4.1,335 		"/>
		<path class="st2" d="M7.8,329.8c1.5,0.3,2.6,1.7,2.3,3.2c-0.2,1.5-1.6,2.6-3.2,2.4c-1.6-0.2-2.7-1.7-2.4-3.2
			C4.7,330.6,6.2,329.5,7.8,329.8z"/>
	</g>
	<g>
		<polygon class="st1" points="11.5,325.2 12.5,319.7 6.9,318.6 5.9,324.2 		"/>
		<path class="st2" d="M9.7,319.1c1.5,0.3,2.6,1.8,2.3,3.3s-1.8,2.6-3.3,2.3c-1.5-0.3-2.6-1.7-2.3-3.3
			C6.6,319.9,8.1,318.8,9.7,319.1z"/>
	</g>
	<g>
		<path class="st1" d="M13.4,314.6c0.4-1.8,0.8-3.7,1.2-5.5L9,307.9c-0.4,1.9-0.9,3.7-1.3,5.6L13.4,314.6z"/>
		<path class="st2" d="M11.8,308.5c1.5,0.3,2.5,1.8,2.1,3.4c-0.4,1.5-1.9,2.5-3.4,2.2c-1.6-0.3-2.5-1.8-2.2-3.4
			C8.7,309.2,10.3,308.2,11.8,308.5z"/>
	</g>
	<g>
		<polygon class="st1" points="15.7,304.2 17,298.7 11.5,297.3 10.2,302.9 		"/>
		<path class="st2" d="M14.2,298c1.5,0.4,2.5,1.9,2.1,3.4s-1.9,2.5-3.4,2.1c-1.5-0.4-2.5-1.9-2.1-3.4
			C11.2,298.6,12.7,297.6,14.2,298z"/>
	</g>
	<g>
		<polygon class="st1" points="18.2,293.7 19.8,288.3 14.3,286.8 12.7,292.3 		"/>
		<path class="st2" d="M17,287.6c1.5,0.4,2.4,2,2,3.5c-0.4,1.5-2,2.4-3.5,2c-1.5-0.4-2.4-1.9-2-3.5C13.9,288,15.5,287.1,17,287.6z"
			/>
	</g>
	<g>
		<polygon class="st1" points="21.2,283.4 22.7,278 17.3,276.3 15.7,281.8 		"/>
		<path class="st2" d="M20,277.2c1.5,0.5,2.4,2.1,1.9,3.5c-0.4,1.5-2,2.3-3.5,1.9c-1.5-0.4-2.4-2-1.9-3.5S18.5,276.7,20,277.2z"/>
	</g>
	<g>
		<polygon class="st1" points="24.3,273.1 26.1,267.8 20.7,266 18.9,271.4 		"/>
		<path class="st2" d="M23.4,266.9c1.5,0.5,2.3,2.1,1.8,3.6s-2.1,2.3-3.6,1.8c-1.5-0.5-2.3-2.1-1.8-3.6
			C20.3,267.2,21.9,266.4,23.4,266.9z"/>
	</g>
	<g>
		<path class="st1" d="M27.7,263c0.6-1.8,1.1-3.6,1.9-5.3l-5.3-2c-0.7,1.8-1.3,3.6-1.9,5.4L27.7,263z"/>
		<path class="st2" d="M26.9,256.7c1.5,0.6,2.2,2.1,1.7,3.6c-0.5,1.5-2.1,2.2-3.6,1.7c-1.5-0.5-2.3-2.2-1.8-3.7
			C23.8,256.9,25.5,256.1,26.9,256.7z"/>
	</g>
	<g>
		<polygon class="st1" points="31.5,252.9 33.5,247.7 28.3,245.5 26.2,250.9 		"/>
		<path class="st2" d="M30.9,246.6c1.5,0.6,2.2,2.2,1.6,3.7c-0.6,1.4-2.2,2.2-3.7,1.6c-1.5-0.6-2.2-2.2-1.6-3.7
			C27.8,246.7,29.5,246,30.9,246.6z"/>
	</g>
	<g>
		<path class="st1" d="M35.4,242.9c0.6-1.8,1.5-3.4,2.3-5.2l-5.2-2.3c-0.8,1.7-1.6,3.4-2.3,5.2L35.4,242.9z"/>
		<path class="st2" d="M35.1,236.6c1.4,0.6,2.1,2.3,1.4,3.7c-0.7,1.4-2.3,2.1-3.7,1.5c-1.4-0.6-2.2-2.3-1.5-3.7
			C31.9,236.7,33.6,236,35.1,236.6z"/>
	</g>
	<g>
		<polygon class="st1" points="39.8,233.1 42.1,228 36.9,225.6 34.6,230.8 		"/>
		<path class="st2" d="M39.5,226.8c1.4,0.7,2.1,2.4,1.4,3.8c-0.6,1.4-2.3,2-3.8,1.4c-1.4-0.6-2.1-2.3-1.4-3.8S38.1,226.1,39.5,226.8
			z"/>
	</g>
	<g>
		<polygon class="st1" points="44.2,223.4 46.8,218.3 41.7,215.8 39.1,220.9 		"/>
		<path class="st2" d="M44.3,217.1c1.4,0.7,2,2.4,1.3,3.8c-0.7,1.4-2.4,1.9-3.8,1.3c-1.4-0.7-2-2.4-1.3-3.8
			C41.2,216.9,42.9,216.4,44.3,217.1z"/>
	</g>
	<g>
		<polygon class="st1" points="49.1,213.8 51.7,208.8 46.7,206.1 44.1,211.2 		"/>
		<path class="st2" d="M49.2,207.4c1.4,0.7,1.9,2.5,1.2,3.9s-2.4,1.9-3.8,1.2c-1.4-0.7-1.9-2.4-1.2-3.9
			C46.1,207.2,47.8,206.7,49.2,207.4z"/>
	</g>
	<g>
		<polygon class="st1" points="54.2,204.3 57,199.5 52.1,196.6 49.2,201.6 		"/>
		<path class="st2" d="M54.5,198c1.4,0.8,1.8,2.5,1.1,3.9c-0.8,1.3-2.5,1.8-3.9,1.1c-1.4-0.8-1.8-2.5-1.1-3.9
			C51.4,197.7,53.2,197.3,54.5,198z"/>
	</g>
	<g>
		<path class="st1" d="M59.6,195c1-1.6,1.8-3.3,2.9-4.8l-4.8-3c-1.1,1.6-2,3.3-2.9,4.9L59.6,195z"/>
		<path class="st2" d="M60,188.7c1.4,0.8,1.7,2.5,1,3.9c-0.8,1.3-2.5,1.8-3.8,1c-1.3-0.8-1.8-2.6-1-3.9
			C56.9,188.3,58.7,187.9,60,188.7z"/>
	</g>
	<g>
		<polygon class="st1" points="65.2,185.9 68.2,181.2 63.5,178 60.4,182.9 		"/>
		<path class="st2" d="M65.8,179.6c1.3,0.9,1.7,2.6,0.9,3.9s-2.6,1.7-3.9,0.9c-1.3-0.8-1.7-2.6-0.9-3.9
			C62.8,179.1,64.5,178.7,65.8,179.6z"/>
	</g>
	<g>
		<path class="st1" d="M71,176.9c1-1.6,2.2-3.1,3.2-4.6l-4.7-3.2c-1.1,1.6-2.3,3.1-3.3,4.7L71,176.9z"/>
		<path class="st2" d="M71.9,170.6c1.3,0.9,1.6,2.6,0.7,3.9c-0.9,1.3-2.6,1.6-4,0.7c-1.3-0.9-1.7-2.7-0.7-3.9
			C68.8,170,70.6,169.7,71.9,170.6z"/>
	</g>
	<g>
		<polygon class="st1" points="77.2,168.1 80.4,163.5 75.8,160.1 72.5,164.8 		"/>
		<path class="st2" d="M78.1,161.8c1.3,0.9,1.6,2.7,0.7,4c-0.9,1.3-2.7,1.6-3.9,0.6c-1.3-0.9-1.6-2.7-0.7-4S76.9,160.9,78.1,161.8z"
			/>
	</g>
	<g>
		<polygon class="st1" points="83.5,159.4 86.9,154.9 82.4,151.5 78.9,156 		"/>
		<path class="st2" d="M84.7,153.2c1.2,1,1.5,2.7,0.5,4s-2.8,1.4-4,0.5c-1.3-0.9-1.5-2.7-0.5-4C81.7,152.5,83.5,152.2,84.7,153.2z"
			/>
	</g>
	<g>
		<polygon class="st1" points="90.1,150.9 93.6,146.5 89.2,142.9 85.6,147.4 		"/>
		<path class="st2" d="M91.4,144.7c1.2,1,1.4,2.8,0.5,4s-2.7,1.4-4,0.4c-1.2-1-1.4-2.8-0.5-4C88.4,143.9,90.2,143.7,91.4,144.7z"/>
	</g>
	<g>
		<polygon class="st1" points="96.9,142.6 100.6,138.4 96.3,134.6 92.6,139 		"/>
		<path class="st2" d="M98.4,136.5c1.2,1,1.3,2.8,0.3,4s-2.8,1.3-4,0.3c-1.2-1-1.3-2.8-0.3-4C95.5,135.6,97.3,135.5,98.4,136.5z"/>
	</g>
	<g>
		<path class="st1" d="M103.9,134.5l1.8-2.1c0.6-0.7,1.3-1.4,1.9-2l-4.2-3.9c-0.7,0.7-1.3,1.4-2,2.1l-1.9,2.2L103.9,134.5z"/>
		<path class="st2" d="M105.6,128.4c1.2,1.1,1.2,2.8,0.2,4c-1,1.2-2.8,1.3-4,0.2c-1.2-1-1.3-2.9-0.2-4.1
			C102.6,127.4,104.5,127.4,105.6,128.4z"/>
	</g>
	<g>
		<polygon class="st1" points="111.2,126.7 115.1,122.6 111,118.6 107.1,122.7 		"/>
		<path class="st2" d="M113.1,120.6c1.1,1.1,1.2,2.9,0.1,4c-1.1,1.1-2.9,1.2-4,0.1c-1.1-1.1-1.2-2.9-0.1-4
			C110.2,119.5,112,119.5,113.1,120.6z"/>
	</g>
	<g>
		<polygon class="st1" points="118.6,118.9 122.7,115 118.7,110.9 114.6,114.9 		"/>
		<path class="st2" d="M120.7,113c1.1,1.1,1.1,2.9-0.1,4c-1.1,1.1-2.9,1-4-0.1c-1.1-1.1-1.1-2.9,0.1-4
			C117.8,111.8,119.6,111.8,120.7,113z"/>
	</g>
	<g>
		<polygon class="st1" points="126.4,111.5 130.5,107.6 126.6,103.4 122.5,107.3 		"/>
		<path class="st2" d="M128.5,105.5c1.1,1.2,1,3-0.1,4c-1.1,1.1-2.9,1-4-0.1c-1.1-1.1-1-2.9,0.1-4S127.5,104.3,128.5,105.5z"/>
	</g>
	<g>
		<polygon class="st1" points="134.3,104.2 138.5,100.5 134.8,96.2 130.5,99.9 		"/>
		<path class="st2" d="M136.7,98.3c1,1.2,0.9,3-0.3,4c-1.2,1-3,0.9-4-0.3c-1-1.2-0.9-3,0.3-4C133.8,97,135.6,97.1,136.7,98.3z"/>
	</g>
	<g>
		<path class="st1" d="M142.4,97.1c1.4-1.2,2.8-2.5,4.3-3.7l-3.6-4.4c-1.5,1.2-2.9,2.5-4.3,3.7L142.4,97.1z"/>
		<path class="st2" d="M144.8,91.3c1,1.2,0.8,3-0.3,4c-1.2,1-3,0.9-4-0.3c-1-1.2-0.9-3,0.3-4C142,89.9,143.8,90,144.8,91.3z"/>
	</g>
	<g>
		<polygon class="st1" points="150.7,90.3 155.1,86.8 151.6,82.3 147.1,85.9 		"/>
		<path class="st2" d="M153.3,84.6c1,1.2,0.8,3-0.5,4c-1.2,1-3,0.7-4-0.5c-1-1.2-0.8-3,0.5-4C150.6,83.1,152.4,83.3,153.3,84.6z"/>
	</g>
	<g>
		<path class="st1" d="M159.1,83.7c1.5-1.2,3-2.3,4.5-3.3l-3.4-4.6c-1.6,1.1-3.1,2.2-4.6,3.4L159.1,83.7z"/>
		<path class="st2" d="M162,78c0.9,1.3,0.7,3-0.6,3.9c-1.3,0.9-3,0.7-4-0.6c-0.9-1.2-0.7-3.1,0.6-4C159.2,76.5,161,76.8,162,78z"/>
	</g>
	<g>
		<polygon class="st1" points="167.8,77.4 172.4,74.1 169.2,69.4 164.5,72.8 		"/>
		<path class="st2" d="M170.8,71.8c0.9,1.3,0.6,3.1-0.7,4c-1.3,0.9-3,0.6-3.9-0.7c-0.9-1.3-0.6-3.1,0.7-4
			C168.1,70.2,169.9,70.5,170.8,71.8z"/>
	</g>
	<g>
		<polygon class="st1" points="176.6,71.2 181.3,68.1 178.2,63.4 173.4,66.5 		"/>
		<path class="st2" d="M179.8,65.8c0.9,1.3,0.5,3.1-0.8,3.9c-1.3,0.8-3.1,0.5-4-0.8c-0.9-1.3-0.5-3,0.8-3.9
			C177.1,64.1,178.9,64.5,179.8,65.8z"/>
	</g>
	<g>
		<polygon class="st1" points="185.6,65.4 190.3,62.4 187.4,57.5 182.6,60.6 		"/>
		<path class="st2" d="M188.9,59.9c0.8,1.3,0.4,3.1-0.9,3.9c-1.3,0.8-3.1,0.4-3.9-0.9c-0.8-1.3-0.4-3.1,0.9-3.9
			C186.3,58.2,188,58.6,188.9,59.9z"/>
	</g>
	<g>
		<polygon class="st1" points="194.7,59.8 199.6,56.9 196.8,52 191.8,54.9 		"/>
		<path class="st2" d="M198.2,54.5c0.8,1.4,0.3,3.1-1,3.9c-1.3,0.8-3.1,0.3-3.9-1c-0.8-1.3-0.3-3.1,1-3.9
			C195.7,52.7,197.4,53.1,198.2,54.5z"/>
	</g>
	<g>
		<polygon class="st1" points="204,54.4 206.5,53 207.7,52.3 209,51.7 206.3,46.6 205,47.3 203.8,48 201.3,49.4 		"/>
		<path class="st2" d="M207.6,49.1c0.7,1.4,0.2,3.1-1.1,3.8c-1.3,0.8-3.1,0.3-3.8-1.1c-0.8-1.4-0.3-3.1,1.1-3.9
			C205.1,47.2,206.9,47.8,207.6,49.1z"/>
	</g>
	<g>
		<polygon class="st1" points="213.5,49.3 218.5,46.8 216,41.7 210.9,44.3 		"/>
		<path class="st2" d="M217.2,44.2c0.7,1.4,0.2,3.1-1.2,3.8s-3.1,0.2-3.8-1.2c-0.7-1.4-0.2-3.1,1.2-3.8
			C214.8,42.3,216.5,42.8,217.2,44.2z"/>
	</g>
	<g>
		<path class="st1" d="M223.1,44.4c1.7-0.9,3.4-1.6,5.1-2.4l-2.4-5.1c-1.7,0.8-3.5,1.5-5.2,2.4L223.1,44.4z"/>
		<path class="st2" d="M227,39.5c0.7,1.4,0.1,3.1-1.4,3.7c-1.4,0.6-3.1,0.1-3.8-1.3c-0.7-1.4-0.1-3.2,1.3-3.8
			C224.6,37.4,226.3,38.1,227,39.5z"/>
	</g>
	<g>
		<polygon class="st1" points="232.8,39.9 237.9,37.6 235.7,32.4 230.5,34.8 		"/>
		<path class="st2" d="M236.8,35c0.6,1.4,0,3.1-1.4,3.8c-1.4,0.6-3.1,0-3.7-1.4c-0.6-1.4,0-3.1,1.4-3.8
			C234.5,32.9,236.2,33.6,236.8,35z"/>
	</g>
	<g>
		<polygon class="st1" points="242.6,35.6 247.9,33.5 245.7,28.2 240.4,30.3 		"/>
		<path class="st2" d="M246.8,30.9c0.6,1.5-0.1,3.1-1.6,3.7s-3.1-0.1-3.7-1.6c-0.6-1.4,0.1-3.1,1.6-3.7
			C244.5,28.7,246.2,29.4,246.8,30.9z"/>
	</g>
	<g>
		<polygon class="st1" points="252.6,31.6 257.8,29.6 255.9,24.2 250.6,26.3 		"/>
		<path class="st2" d="M256.9,26.9c0.5,1.5-0.2,3.1-1.6,3.7c-1.4,0.6-3.1-0.2-3.6-1.6c-0.6-1.5,0.2-3.1,1.6-3.7
			S256.3,25.4,256.9,26.9z"/>
	</g>
	<g>
		<polygon class="st1" points="262.7,27.9 268,26.1 266.2,20.7 260.8,22.5 		"/>
		<path class="st2" d="M267.1,23.4c0.5,1.5-0.3,3.1-1.8,3.6c-1.5,0.5-3.1-0.3-3.6-1.8c-0.5-1.5,0.3-3.1,1.8-3.6
			C265,21.1,266.6,21.9,267.1,23.4z"/>
	</g>
	<g>
		<path class="st1" d="M272.8,24.4l2.7-0.9c0.9-0.3,1.8-0.6,2.7-0.8l-1.7-5.4c-0.9,0.2-1.8,0.5-2.7,0.9l-2.7,0.9L272.8,24.4z"/>
		<path class="st2" d="M277.3,20c0.5,1.5-0.4,3-1.9,3.6c-1.5,0.5-3.1-0.3-3.5-1.8c-0.5-1.5,0.3-3.1,1.8-3.6
			C275.3,17.6,276.9,18.5,277.3,20z"/>
	</g>
	<g>
		<polygon class="st1" points="283.1,21.3 288.5,19.8 287,14.3 281.5,15.8 		"/>
		<path class="st2" d="M287.7,17c0.4,1.5-0.5,3.1-2,3.5c-1.5,0.4-3.1-0.5-3.5-2c-0.4-1.5,0.4-3.1,2-3.5
			C285.8,14.6,287.3,15.5,287.7,17z"/>
	</g>
	<g>
		<path class="st1" d="M293.4,18.4c1.8-0.6,3.6-0.9,5.5-1.4l-1.4-5.5c-1.9,0.4-3.7,0.8-5.5,1.4L293.4,18.4z"/>
		<path class="st2" d="M298.2,14.2c0.4,1.5-0.5,3-2.1,3.4c-1.5,0.3-3-0.5-3.4-2c-0.4-1.5,0.5-3.1,2-3.5
			C296.3,11.8,297.8,12.7,298.2,14.2z"/>
	</g>
	<g>
		<polygon class="st1" points="303.9,15.9 309.3,14.6 308.1,9 302.6,10.3 		"/>
		<path class="st2" d="M308.7,11.8c0.3,1.5-0.6,3.1-2.1,3.4c-1.5,0.3-3-0.6-3.4-2.1c-0.4-1.5,0.6-3.1,2.1-3.4S308.4,10.3,308.7,11.8
			z"/>
	</g>
	<g>
		<polygon class="st1" points="314.3,13.5 319.9,12.5 318.8,6.9 313.2,7.9 		"/>
		<path class="st2" d="M319.3,9.7c0.3,1.5-0.7,3-2.2,3.3s-3-0.8-3.3-2.3c-0.3-1.5,0.7-3,2.2-3.3S319,8.1,319.3,9.7z"/>
	</g>
	<g>
		<polygon class="st1" points="324.9,11.6 330.4,10.6 329.5,5 323.9,6 		"/>
		<path class="st2" d="M330,7.8c0.2,1.5-0.8,3-2.3,3.3c-1.5,0.3-3-0.8-3.3-2.3c-0.3-1.5,0.8-3,2.3-3.3C328.3,5.2,329.7,6.2,330,7.8z
			"/>
	</g>
	<g>
		<polygon class="st1" points="335.5,9.8 341.1,9.1 340.3,3.5 334.7,4.2 		"/>
		<path class="st2" d="M340.7,6.3c0.2,1.6-0.9,3-2.4,3.2c-1.5,0.2-3-0.9-3.2-2.5c-0.2-1.6,0.9-3,2.4-3.2
			C339.1,3.6,340.5,4.7,340.7,6.3z"/>
	</g>
	<g>
		<polygon class="st1" points="346.1,8.5 351.7,7.8 351.1,2.1 345.5,2.8 		"/>
		<path class="st2" d="M351.4,4.9c0.2,1.6-1,3-2.5,3.2s-2.9-0.9-3.1-2.5c-0.2-1.6,0.9-3,2.5-3.2C349.9,2.3,351.3,3.4,351.4,4.9z"/>
	</g>
	<g>
		<polygon class="st1" points="356.8,7.3 362.4,6.9 362,1.2 356.3,1.7 		"/>
		<path class="st2" d="M362.2,4.1c0.1,1.6-1,2.9-2.6,3c-1.5,0.1-2.9-1.1-3.1-2.6c-0.1-1.6,1-2.9,2.6-3
			C360.7,1.3,362.1,2.5,362.2,4.1z"/>
	</g>
	<g>
		<path class="st1" d="M367.5,6.5l2.8-0.2c0.9-0.1,1.9-0.1,2.8-0.2l-0.3-5.7c-1,0-1.9,0.1-2.9,0.2l-2.8,0.2L367.5,6.5z"/>
		<path class="st2" d="M373,3.3c0.1,1.6-1.1,2.8-2.7,3c-1.5,0.1-2.9-1.1-3-2.6c-0.1-1.6,1.1-2.9,2.7-3.1
			C371.6,0.5,372.9,1.8,373,3.3z"/>
	</g>
	<g>
		<polygon class="st1" points="378.2,6 383.9,5.9 383.7,0.2 378,0.3 		"/>
		<path class="st2" d="M383.8,3c0,1.6-1.2,2.9-2.8,2.9c-1.6,0-2.9-1.2-2.9-2.8c-0.1-1.6,1.2-2.9,2.8-2.9
			C382.5,0.2,383.8,1.5,383.8,3z"/>
	</g>
	<g>
		<polygon class="st1" points="389,5.8 391.8,5.7 394.6,5.8 394.6,0.1 391.8,0 388.9,0.1 		"/>
		<path class="st2" d="M394.6,2.9c0,1.6-1.3,2.8-2.8,2.8c-1.6,0-2.8-1.2-2.8-2.8c0-1.6,1.3-2.9,2.8-2.9C393.4,0,394.6,1.3,394.6,2.9
			z"/>
	</g>
	<g>
		<polygon class="st1" points="399.7,5.9 405.3,6 405.5,0.3 399.8,0.2 		"/>
		<path class="st2" d="M405.4,3.2c-0.1,1.6-1.4,2.8-2.9,2.8s-2.8-1.3-2.8-2.9c0-1.6,1.3-2.8,2.9-2.8C404.2,0.3,405.5,1.6,405.4,3.2z
			"/>
	</g>
	<g>
		<path class="st1" d="M410.4,6.2c0.9,0,1.9,0.1,2.8,0.2l2.8,0.2l0.4-5.7l-2.8-0.2c-0.9-0.1-1.9-0.1-2.9-0.2L410.4,6.2z"/>
		<path class="st2" d="M416.2,3.7c-0.1,1.6-1.4,2.7-3,2.6c-1.5-0.1-2.7-1.4-2.7-3c0.1-1.6,1.4-2.8,3-2.7
			C415.1,0.8,416.3,2.1,416.2,3.7z"/>
	</g>
	<g>
		<polygon class="st1" points="421.1,6.9 426.8,7.3 427.3,1.7 421.6,1.2 		"/>
		<path class="st2" d="M427,4.5c-0.1,1.6-1.5,2.7-3.1,2.6c-1.5-0.1-2.7-1.5-2.6-3c0.1-1.6,1.5-2.7,3.1-2.6
			C426,1.6,427.2,2.9,427,4.5z"/>
	</g>
	<g>
		<polygon class="st1" points="431.8,7.8 437.4,8.5 438.1,2.8 432.4,2.1 		"/>
		<path class="st2" d="M437.8,5.6c-0.2,1.6-1.6,2.7-3.1,2.5s-2.7-1.6-2.5-3.2c0.2-1.6,1.6-2.7,3.1-2.5
			C436.8,2.7,437.9,4.1,437.8,5.6z"/>
	</g>
	<g>
		<polygon class="st1" points="442.5,9.1 448.1,9.8 448.9,4.2 443.2,3.5 		"/>
		<path class="st2" d="M448.5,7c-0.2,1.6-1.7,2.7-3.2,2.5c-1.5-0.2-2.6-1.6-2.4-3.2c0.2-1.6,1.6-2.7,3.2-2.5
			C447.6,4,448.7,5.5,448.5,7z"/>
	</g>
	<g>
		<polygon class="st1" points="453.1,10.6 458.7,11.6 459.6,6 454,5 		"/>
		<path class="st2" d="M459.2,8.8c-0.3,1.5-1.7,2.6-3.3,2.3c-1.5-0.3-2.6-1.8-2.3-3.3c0.2-1.5,1.7-2.6,3.3-2.3
			C458.4,5.8,459.4,7.2,459.2,8.8z"/>
	</g>
	<g>
		<polygon class="st1" points="463.7,12.5 469.2,13.5 470.4,7.9 464.7,6.9 		"/>
		<path class="st2" d="M469.8,10.7c-0.3,1.5-1.8,2.6-3.3,2.3c-1.5-0.3-2.5-1.7-2.2-3.3c0.3-1.5,1.8-2.6,3.3-2.3
			S470.1,9.1,469.8,10.7z"/>
	</g>
	<g>
		<polygon class="st1" points="474.2,14.6 479.7,15.9 481,10.3 475.4,9 		"/>
		<path class="st2" d="M480.3,13.1c-0.4,1.5-1.9,2.5-3.4,2.1c-1.5-0.3-2.5-1.9-2.1-3.4c0.3-1.5,1.8-2.5,3.4-2.1
			C479.7,10,480.7,11.6,480.3,13.1z"/>
	</g>
	<g>
		<path class="st1" d="M484.7,17c1.8,0.4,3.7,0.8,5.5,1.4l1.4-5.5c-1.8-0.6-3.7-0.9-5.5-1.4L484.7,17z"/>
		<path class="st2" d="M490.9,15.6c-0.4,1.5-1.9,2.4-3.4,2c-1.5-0.3-2.4-1.9-2.1-3.4c0.4-1.5,1.9-2.5,3.5-2.1
			C490.4,12.5,491.3,14.1,490.9,15.6z"/>
	</g>
	<g>
		<polygon class="st1" points="495,19.8 500.5,21.3 502.1,15.8 496.6,14.3 		"/>
		<path class="st2" d="M501.3,18.6c-0.4,1.5-2,2.4-3.5,2s-2.4-2-1.9-3.5c0.4-1.5,2-2.4,3.5-2C500.8,15.5,501.7,17.1,501.3,18.6z"/>
	</g>
	<g>
		<path class="st1" d="M505.4,22.7c0.9,0.2,1.8,0.5,2.7,0.8l2.7,0.9l1.7-5.4l-2.7-0.9c-0.9-0.3-1.8-0.6-2.7-0.9L505.4,22.7z"/>
		<path class="st2" d="M511.6,21.7c-0.5,1.5-2.1,2.3-3.5,1.8c-1.5-0.5-2.3-2.1-1.9-3.6c0.5-1.5,2.1-2.4,3.6-1.9
			C511.3,18.6,512.1,20.2,511.6,21.7z"/>
	</g>
	<g>
		<polygon class="st1" points="515.6,26.1 520.9,27.9 522.8,22.5 517.4,20.7 		"/>
		<path class="st2" d="M521.8,25.2c-0.5,1.5-2.1,2.3-3.6,1.8c-1.5-0.5-2.3-2.1-1.8-3.6c0.5-1.5,2.1-2.3,3.6-1.8
			C521.6,22.1,522.4,23.7,521.8,25.2z"/>
	</g>
	<g>
		<polygon class="st1" points="525.7,29.6 530.9,31.6 533,26.3 527.7,24.2 		"/>
		<path class="st2" d="M532,29c-0.6,1.5-2.2,2.2-3.6,1.6c-1.4-0.6-2.2-2.2-1.6-3.7c0.5-1.5,2.2-2.2,3.6-1.6S532.5,27.5,532,29z"/>
	</g>
	<g>
		<polygon class="st1" points="535.7,33.5 540.9,35.6 543.1,30.3 537.8,28.2 		"/>
		<path class="st2" d="M542,33c-0.6,1.4-2.3,2.2-3.7,1.6c-1.4-0.6-2.1-2.2-1.6-3.7c0.6-1.5,2.2-2.2,3.7-1.6S542.6,31.5,542,33z"/>
	</g>
	<g>
		<polygon class="st1" points="545.6,37.6 550.7,39.9 553.1,34.8 547.9,32.4 		"/>
		<path class="st2" d="M551.9,37.4c-0.6,1.4-2.3,2.1-3.7,1.4c-1.4-0.6-2.1-2.3-1.4-3.8c0.6-1.4,2.3-2.1,3.7-1.4
			C551.9,34.2,552.6,35.9,551.9,37.4z"/>
	</g>
	<g>
		<path class="st1" d="M555.4,42c1.7,0.8,3.5,1.5,5.1,2.4l2.5-5.1c-1.7-0.9-3.5-1.6-5.2-2.4L555.4,42z"/>
		<path class="st2" d="M561.7,41.9c-0.7,1.4-2.4,1.9-3.8,1.3c-1.4-0.6-2-2.3-1.4-3.7c0.7-1.4,2.4-2,3.8-1.4
			C561.9,38.7,562.4,40.5,561.7,41.9z"/>
	</g>
	<g>
		<polygon class="st1" points="565,46.8 570.1,49.3 572.7,44.3 567.6,41.7 		"/>
		<path class="st2" d="M571.4,46.8c-0.7,1.4-2.4,1.9-3.8,1.2c-1.4-0.7-1.9-2.4-1.2-3.8c0.7-1.4,2.4-2,3.8-1.2S572.1,45.4,571.4,46.8
			z"/>
	</g>
	<g>
		<polygon class="st1" points="574.6,51.7 575.8,52.3 577.1,53 579.5,54.4 582.3,49.4 579.8,48 578.6,47.3 577.3,46.6 		"/>
		<path class="st2" d="M580.9,51.9c-0.8,1.4-2.5,1.9-3.8,1.1c-1.3-0.8-1.9-2.5-1.1-3.8c0.7-1.4,2.5-1.9,3.9-1.1
			C581.2,48.8,581.7,50.5,580.9,51.9z"/>
	</g>
	<g>
		<polygon class="st1" points="583.9,56.9 588.8,59.8 591.7,54.9 586.8,52 		"/>
		<path class="st2" d="M590.3,57.3c-0.8,1.3-2.5,1.8-3.9,1c-1.3-0.8-1.8-2.5-1-3.9c0.8-1.4,2.5-1.8,3.9-1
			C590.6,54.2,591.1,56,590.3,57.3z"/>
	</g>
	<g>
		<polygon class="st1" points="593.2,62.4 597.9,65.4 601,60.6 596.2,57.5 		"/>
		<path class="st2" d="M599.5,63c-0.8,1.3-2.6,1.7-3.9,0.9s-1.7-2.6-0.9-3.9c0.8-1.3,2.6-1.7,3.9-0.9
			C599.9,59.9,600.3,61.7,599.5,63z"/>
	</g>
	<g>
		<polygon class="st1" points="602.2,68.1 607,71.2 610.2,66.5 605.3,63.4 		"/>
		<path class="st2" d="M608.6,68.8c-0.9,1.3-2.7,1.7-4,0.8s-1.7-2.6-0.8-3.9c0.9-1.3,2.6-1.7,4-0.8
			C609.1,65.8,609.4,67.5,608.6,68.8z"/>
	</g>
	<g>
		<polygon class="st1" points="611.2,74.1 615.8,77.4 619.1,72.8 614.4,69.4 		"/>
		<path class="st2" d="M617.4,75.1c-0.9,1.3-2.7,1.6-3.9,0.7c-1.3-0.9-1.6-2.7-0.7-4c0.9-1.3,2.7-1.6,3.9-0.7
			C618,72,618.3,73.8,617.4,75.1z"/>
	</g>
	<g>
		<path class="st1" d="M619.9,80.3c1.5,1.1,3.1,2.2,4.5,3.3l3.4-4.5c-1.5-1.2-3-2.3-4.6-3.4L619.9,80.3z"/>
		<path class="st2" d="M626.2,81.4c-1,1.3-2.7,1.5-4,0.6c-1.3-0.9-1.5-2.7-0.6-3.9c0.9-1.3,2.7-1.6,4-0.6
			C626.9,78.3,627.1,80.2,626.2,81.4z"/>
	</g>
	<g>
		<polygon class="st1" points="628.5,86.8 632.9,90.3 636.4,85.9 631.9,82.3 		"/>
		<path class="st2" d="M634.7,88.1c-1,1.2-2.8,1.4-4,0.5c-1.2-1-1.4-2.7-0.5-4c1-1.2,2.7-1.5,4-0.5S635.6,86.9,634.7,88.1z"/>
	</g>
	<g>
		<path class="st1" d="M636.9,93.5c1.5,1.2,2.8,2.4,4.3,3.7l3.7-4.3c-1.4-1.2-2.9-2.5-4.3-3.7L636.9,93.5z"/>
		<path class="st2" d="M643,95c-1,1.2-2.8,1.3-4,0.3c-1.2-1-1.3-2.8-0.3-4c1-1.2,2.8-1.4,4-0.3C643.9,92,644,93.8,643,95z"/>
	</g>
	<g>
		<polygon class="st1" points="645,100.5 649.3,104.2 653.1,99.9 648.8,96.2 		"/>
		<path class="st2" d="M651.2,102c-1,1.2-2.9,1.3-4,0.3c-1.2-1-1.3-2.8-0.3-4c1-1.2,2.8-1.3,4-0.3C652.1,99.1,652.2,100.9,651.2,102
			z"/>
	</g>
	<g>
		<polygon class="st1" points="653.1,107.6 657.2,111.5 661.1,107.3 656.9,103.4 		"/>
		<path class="st2" d="M659.1,109.4c-1.1,1.1-2.9,1.2-4,0.1s-1.2-2.9-0.1-4c1.1-1.2,2.8-1.2,4-0.1
			C660.1,106.5,660.2,108.3,659.1,109.4z"/>
	</g>
	<g>
		<polygon class="st1" points="660.8,115 664.9,118.9 668.9,114.9 664.8,110.9 		"/>
		<path class="st2" d="M666.9,116.9c-1.1,1.1-2.9,1.1-4,0.1c-1.1-1.1-1.1-2.9-0.1-4c1.1-1.1,2.9-1.2,4-0.1
			C668,114,668.1,115.8,666.9,116.9z"/>
	</g>
	<g>
		<polygon class="st1" points="668.4,122.6 672.3,126.7 676.5,122.7 672.5,118.6 		"/>
		<path class="st2" d="M674.4,124.7c-1.1,1.1-2.9,1-4-0.1c-1.1-1.1-1-2.9,0.1-4c1.1-1.1,2.9-1.1,4,0.1
			C675.6,121.8,675.5,123.6,674.4,124.7z"/>
	</g>
	<g>
		<path class="st1" d="M675.9,130.3c0.6,0.7,1.3,1.4,1.9,2l1.8,2.1l4.2-3.8l-1.9-2.2c-0.6-0.7-1.3-1.4-2-2.1L675.9,130.3z"/>
		<path class="st2" d="M681.8,132.6c-1.2,1-2.9,0.9-4-0.2c-1.1-1.1-1-2.9,0.2-4c1.1-1.1,3-1,4.1,0.2
			C683,129.8,682.9,131.6,681.8,132.6z"/>
	</g>
	<g>
		<polygon class="st1" points="683,138.4 686.7,142.6 691,139 687.3,134.6 		"/>
		<path class="st2" d="M688.8,140.8c-1.2,1-3,0.9-4-0.3c-1-1.2-0.9-3,0.3-4c1.2-1,3-0.9,4,0.3C690.2,138,690,139.8,688.8,140.8z"/>
	</g>
	<g>
		<polygon class="st1" points="690,146.5 693.5,150.9 697.9,147.4 694.4,142.9 		"/>
		<path class="st2" d="M695.7,149.2c-1.2,1-3,0.8-4-0.4c-1-1.2-0.8-3,0.5-4c1.2-1,3-0.8,4,0.4C697.1,146.4,696.9,148.2,695.7,149.2z
			"/>
	</g>
	<g>
		<polygon class="st1" points="696.6,154.9 700.1,159.4 704.6,156 701.1,151.5 		"/>
		<path class="st2" d="M702.4,157.7c-1.3,0.9-3.1,0.7-4-0.5s-0.7-3,0.5-4c1.2-1,3-0.7,4,0.5C703.8,154.9,703.6,156.7,702.4,157.7z"
			/>
	</g>
	<g>
		<polygon class="st1" points="703.1,163.5 706.4,168.1 711,164.8 707.7,160.1 		"/>
		<path class="st2" d="M708.7,166.4c-1.3,0.9-3,0.6-3.9-0.6c-0.9-1.3-0.6-3,0.7-4c1.3-0.9,3-0.6,3.9,0.6
			C710.3,163.7,710,165.5,708.7,166.4z"/>
	</g>
	<g>
		<path class="st1" d="M709.4,172.2c1.1,1.5,2.2,3,3.2,4.6l4.7-3.2c-1-1.6-2.2-3.1-3.3-4.7L709.4,172.2z"/>
		<path class="st2" d="M714.9,175.3c-1.3,0.9-3,0.5-4-0.7c-0.9-1.3-0.6-3,0.7-3.9c1.3-0.9,3.1-0.6,4,0.7
			C716.6,172.6,716.2,174.4,714.9,175.3z"/>
	</g>
	<g>
		<polygon class="st1" points="715.3,181.2 718.4,185.9 723.2,182.9 720.1,178 		"/>
		<path class="st2" d="M720.8,184.4c-1.3,0.8-3.1,0.5-3.9-0.9c-0.8-1.3-0.5-3.1,0.9-3.9c1.3-0.9,3.1-0.5,3.9,0.9
			C722.5,181.8,722.1,183.5,720.8,184.4z"/>
	</g>
	<g>
		<path class="st1" d="M721.1,190.2c1.1,1.6,1.9,3.2,2.9,4.8l4.9-2.9c-1-1.6-1.9-3.3-2.9-4.9L721.1,190.2z"/>
		<path class="st2" d="M726.4,193.6c-1.3,0.8-3.1,0.4-3.8-1c-0.7-1.4-0.4-3.1,1-3.9c1.3-0.8,3.2-0.4,3.9,0.9
			C728.2,191,727.8,192.8,726.4,193.6z"/>
	</g>
	<g>
		<polygon class="st1" points="726.5,199.5 729.3,204.3 734.3,201.6 731.5,196.6 		"/>
		<path class="st2" d="M731.8,203c-1.4,0.8-3.1,0.3-3.9-1.1c-0.8-1.3-0.3-3.1,1.1-3.9c1.4-0.8,3.1-0.3,3.9,1.1
			C733.7,200.5,733.2,202.2,731.8,203z"/>
	</g>
	<g>
		<polygon class="st1" points="731.8,208.8 734.4,213.8 739.5,211.2 736.8,206.1 		"/>
		<path class="st2" d="M736.9,212.5c-1.4,0.7-3.1,0.2-3.8-1.2s-0.2-3.1,1.2-3.9c1.4-0.7,3.1-0.2,3.8,1.2
			C738.9,210,738.3,211.8,736.9,212.5z"/>
	</g>
	<g>
		<polygon class="st1" points="736.7,218.3 739.3,223.4 744.4,220.9 741.8,215.8 		"/>
		<path class="st2" d="M741.9,222.1c-1.4,0.7-3.1,0.1-3.8-1.3c-0.7-1.4-0.1-3.1,1.3-3.8c1.4-0.7,3.1-0.1,3.8,1.3
			C743.8,219.7,743.3,221.4,741.9,222.1z"/>
	</g>
	<g>
		<polygon class="st1" points="741.5,228 743.8,233.1 749,230.8 746.6,225.6 		"/>
		<path class="st2" d="M746.4,231.9c-1.4,0.6-3.1,0-3.8-1.4c-0.6-1.4,0-3.1,1.4-3.8c1.4-0.7,3.1,0,3.7,1.4
			C748.4,229.6,747.8,231.3,746.4,231.9z"/>
	</g>
	<g>
		<path class="st1" d="M745.9,237.8c0.7,1.7,1.6,3.4,2.3,5.2l5.2-2.2c-0.7-1.8-1.5-3.5-2.3-5.2L745.9,237.8z"/>
		<path class="st2" d="M750.8,241.8c-1.5,0.6-3-0.1-3.7-1.5c-0.6-1.4,0-3.1,1.4-3.7c1.4-0.6,3.1,0,3.8,1.5
			C752.9,239.5,752.2,241.2,750.8,241.8z"/>
	</g>
	<g>
		<polygon class="st1" points="750,247.7 752.1,252.9 757.4,250.9 755.3,245.5 		"/>
		<path class="st2" d="M754.7,251.9c-1.5,0.6-3.1-0.2-3.7-1.6c-0.6-1.4,0.2-3.1,1.6-3.7c1.5-0.6,3.1,0.1,3.7,1.6
			C756.9,249.7,756.2,251.3,754.7,251.9z"/>
	</g>
	<g>
		<path class="st1" d="M753.9,257.7c0.7,1.7,1.2,3.5,1.9,5.3l5.4-1.9c-0.6-1.8-1.2-3.6-1.9-5.4L753.9,257.7z"/>
		<path class="st2" d="M758.5,262c-1.5,0.5-3.1-0.2-3.6-1.7c-0.5-1.5,0.2-3.1,1.7-3.6c1.5-0.5,3.2,0.2,3.7,1.7
			C760.8,259.9,760,261.5,758.5,262z"/>
	</g>
	<g>
		<polygon class="st1" points="757.5,267.8 759.3,273.1 764.7,271.4 762.8,266 		"/>
		<path class="st2" d="M762,272.3c-1.5,0.5-3.1-0.3-3.6-1.8s0.3-3.1,1.8-3.6c1.5-0.5,3.1,0.3,3.6,1.8
			C764.3,270.2,763.5,271.8,762,272.3z"/>
	</g>
	<g>
		<polygon class="st1" points="760.9,278 762.4,283.4 767.8,281.8 766.3,276.3 		"/>
		<path class="st2" d="M765.1,282.6c-1.5,0.4-3.1-0.4-3.5-1.9s0.5-3.1,1.9-3.5c1.5-0.5,3.1,0.4,3.5,1.9
			C767.5,280.6,766.6,282.2,765.1,282.6z"/>
	</g>
	<g>
		<polygon class="st1" points="763.8,288.3 765.3,293.7 770.8,292.3 769.3,286.8 		"/>
		<path class="st2" d="M768.1,293c-1.5,0.4-3.1-0.5-3.5-2c-0.4-1.5,0.5-3,2-3.5c1.5-0.4,3.1,0.5,3.5,2
			C770.5,291.1,769.6,292.6,768.1,293z"/>
	</g>
	<g>
		<polygon class="st1" points="766.5,298.7 767.8,304.2 773.4,302.9 772.1,297.3 		"/>
		<path class="st2" d="M770.6,303.5c-1.5,0.4-3.1-0.6-3.4-2.1s0.6-3,2.1-3.4c1.5-0.4,3,0.6,3.4,2.1
			C773.1,301.6,772.1,303.2,770.6,303.5z"/>
	</g>
	<g>
		<path class="st1" d="M769,309.1c0.4,1.8,0.9,3.7,1.2,5.5l5.6-1.1c-0.4-1.9-0.8-3.7-1.3-5.6L769,309.1z"/>
		<path class="st2" d="M773,314.1c-1.5,0.3-3-0.7-3.4-2.2c-0.3-1.5,0.6-3,2.1-3.4c1.5-0.3,3.1,0.6,3.4,2.2
			C775.5,312.3,774.5,313.8,773,314.1z"/>
	</g>
	<g>
		<polygon class="st1" points="771.1,319.7 772.1,325.2 777.7,324.2 776.7,318.6 		"/>
		<path class="st2" d="M774.9,324.7c-1.5,0.3-3-0.8-3.3-2.3s0.8-3,2.3-3.3c1.5-0.3,3,0.7,3.3,2.3C777.5,323,776.4,324.5,774.9,324.7
			z"/>
	</g>
	<g>
		<polygon class="st1" points="773,330.2 773.5,333 773.8,335.8 779.5,335 779.1,332.1 778.6,329.3 		"/>
		<path class="st2" d="M776.6,335.4c-1.6,0.2-3-0.8-3.2-2.4c-0.3-1.5,0.8-3,2.3-3.2c1.5-0.3,3,0.8,3.3,2.4
			C779.3,333.7,778.2,335.2,776.6,335.4z"/>
	</g>
	<g>
		<polygon class="st1" points="774.5,340.9 775.2,346.5 780.8,345.8 780.1,340.1 		"/>
		<path class="st2" d="M778,346.1c-1.6,0.2-3-0.9-3.2-2.5c-0.2-1.5,0.9-3,2.5-3.2c1.6-0.2,3,0.9,3.2,2.5
			C780.7,344.5,779.6,345.9,778,346.1z"/>
	</g>
	<g>
		<path class="st1" d="M775.8,351.5c0.2,1.9,0.3,3.7,0.5,5.6l5.7-0.5c-0.2-1.9-0.2-3.8-0.5-5.7L775.8,351.5z"/>
		<path class="st2" d="M779.1,356.9c-1.6,0.1-2.9-1-3-2.6c-0.1-0.8,0.2-1.5,0.7-2.1c0.4-0.6,1.1-0.9,1.9-1c0.8-0.1,1.5,0.2,2.1,0.6
			c0.6,0.5,0.9,1.1,1,1.9C781.9,355.3,780.7,356.7,779.1,356.9z"/>
	</g>
	<g>
		<polygon class="st1" points="776.7,362.2 777.1,367.8 782.8,367.5 782.4,361.8 		"/>
		<path class="st2" d="M780,367.7c-1.6,0.1-2.9-1.1-3.1-2.6c-0.1-1.5,1.1-2.9,2.6-3c1.6-0.1,2.9,1.1,3,2.6S781.5,367.6,780,367.7z"
			/>
	</g>
	<g>
		<polygon class="st1" points="777.5,372.9 777.6,378.6 783.3,378.4 783.1,372.6 		"/>
		<path class="st2" d="M780.4,378.5c-1.6,0.1-2.9-1.2-2.9-2.7c0-1.6,1.2-2.9,2.8-3c1.6-0.1,2.9,1.1,2.9,2.7
			C783.2,377.1,782,378.4,780.4,378.5z"/>
	</g>
	<g>
		<polygon class="st1" points="777.7,383.7 777.9,389.3 783.6,389.3 783.4,383.5 		"/>
		<path class="st2" d="M780.7,389.3c-1.6,0-2.9-1.2-2.9-2.8c0-1.6,1.2-2.8,2.8-2.9c1.6,0,2.9,1.2,2.9,2.8S782.3,389.3,780.7,389.3z"
			/>
	</g>
</g>
</svg>
