<?xml version="1.0" encoding="utf-8"?>
<!-- Generator: Adobe Illustrator 21.0.0, SVG Export Plug-In . SVG Version: 6.00 Build 0)  -->
<svg version="1.1" id="Calque_1" xmlns="http://www.w3.org/2000/svg" xmlns:xlink="http://www.w3.org/1999/xlink" x="0px" y="0px"
	 viewBox="0 0 78.4 78.5" style="enable-background:new 0 0 78.4 78.5;" xml:space="preserve">
<style type="text/css">
	.st0{opacity:0.12;}
	.st1{fill:none;}
	.st2{fill-rule:evenodd;clip-rule:evenodd;fill:#423F3D;}
</style>
<g class="st0">
	<g>
		<path class="st1" d="M73.9,41.2c-0.1,0.7,0,1.4-0.2,2.1l-0.3,2.1l4.5,0.8l0.4-2.4c0.1-0.8,0.1-1.6,0.2-2.4L73.9,41.2z"/>
		<path class="st2" d="M75.7,45.8c-1.2-0.2-2.1-1.4-1.9-2.5c0.2-1.1,1.1-2,2.4-2c1.2,0.1,2.3,1.2,2.1,2.5
			C78.1,45.1,76.9,46,75.7,45.8z"/>
	</g>
	<g>
		<path class="st1" d="M72.6,49.1c-0.1,0.7-0.5,1.3-0.7,2c-0.3,0.7-0.4,1.3-0.8,2l4.2,1.8c0.3-0.7,0.6-1.5,0.9-2.2
			c0.3-0.8,0.6-1.5,0.8-2.3L72.6,49.1z"/>
		<path class="st2" d="M73.2,54c-1.1-0.5-1.7-1.8-1.3-2.9c0.2-0.5,0.6-1,1.2-1.2c0.5-0.2,1.1-0.3,1.7-0.2c0.6,0.2,1.1,0.6,1.4,1.1
			c0.2,0.5,0.3,1.2,0.1,1.8C75.7,53.9,74.4,54.5,73.2,54z"/>
	</g>
	<g>
		<path class="st1" d="M69.4,56.5l-1.1,1.8c-0.4,0.6-0.8,1.1-1.2,1.7l3.6,2.7c0.5-0.7,1-1.3,1.4-1.9l1.2-2L69.4,56.5z"/>
		<path class="st2" d="M68.9,61.4c-1-0.8-1.2-2.1-0.6-3.1c0.6-1,2-1.3,3.1-0.7c1.1,0.6,1.4,2,0.7,3.2C71.3,62,69.8,62.2,68.9,61.4z"
			/>
	</g>
	<g>
		<polygon class="st1" points="64.6,63 63.9,63.8 63.1,64.5 61.5,65.9 64.4,69.4 66.2,67.8 67.1,67 67.9,66.1 		"/>
		<path class="st2" d="M63,67.7c-0.8-1-0.7-2.4,0.1-3.2c0.9-0.7,2.2-0.8,3.2,0.1c0.9,0.8,1,2.4,0,3.3C65.2,68.7,63.8,68.6,63,67.7z"
			/>
	</g>
	<g>
		<path class="st1" d="M58.4,68.2l-1.8,1.1c-0.3,0.2-0.6,0.4-0.9,0.5l-1,0.5l2,4.1l1.1-0.5c0.4-0.2,0.7-0.4,1-0.6l2-1.2L58.4,68.2z"
			/>
		<path class="st2" d="M55.8,72.4c-0.6-1.2-0.1-2.4,0.8-3c1-0.6,2.4-0.2,3.1,0.8c0.7,1,0.4,2.4-0.8,3.1C57.8,74,56.3,73.5,55.8,72.4
			z"/>
	</g>
	<g>
		<path class="st1" d="M51.2,71.8c-0.7,0.2-1.3,0.5-2,0.7l-2.1,0.5l1,4.4l2.3-0.6c0.8-0.2,1.5-0.5,2.3-0.8L51.2,71.8z"/>
		<path class="st2" d="M47.7,75.3c-0.3-1.2,0.4-2.5,1.5-2.7c1.1-0.3,2.3,0.3,2.8,1.4c0.4,1.2-0.2,2.5-1.5,2.9
			C49.2,77.2,48,76.5,47.7,75.3z"/>
	</g>
	<g>
		<path class="st1" d="M43.4,73.7c-0.7,0.1-1.4,0.1-2.1,0.2c-0.7,0-1.4,0.1-2.1,0.1l0,4.5c0.8,0,1.6-0.1,2.4-0.1
			c0.8-0.1,1.6,0,2.4-0.2L43.4,73.7z"/>
		<path class="st2" d="M39.2,76.3c0-1.2,1-2.3,2.1-2.4c0.6,0,1.1,0.2,1.6,0.6c0.4,0.4,0.7,0.9,0.8,1.5c0.1,0.6-0.1,1.2-0.5,1.7
			c-0.4,0.4-1,0.7-1.6,0.8C40.2,78.5,39.1,77.5,39.2,76.3z"/>
	</g>
	<g>
		<path class="st1" d="M35.3,73.8l-2.1-0.3c-0.3-0.1-0.7-0.1-1-0.2l-1-0.3l-1.1,4.4l1.2,0.3c0.4,0.1,0.8,0.1,1.2,0.2l2.4,0.4
			L35.3,73.8z"/>
		<path class="st2" d="M30.6,75.2c0.3-1.2,1.4-1.9,2.6-1.8c1.1,0.2,2,1.3,1.8,2.6c-0.1,1.2-1.3,2.1-2.6,1.9
			C31.1,77.8,30.3,76.4,30.6,75.2z"/>
	</g>
	<g>
		<path class="st1" d="M27.5,71.9c-0.7-0.3-1.3-0.5-2-0.7l-1.9-0.9l-2.1,4.1l2.2,1c0.7,0.3,1.5,0.6,2.2,0.9L27.5,71.9z"/>
		<path class="st2" d="M22.6,72.3c0.6-1.1,1.9-1.6,2.9-1.1c1.1,0.4,1.6,1.7,1.2,2.9c-0.4,1.2-1.8,1.8-3,1.3
			C22.5,74.7,22,73.4,22.6,72.3z"/>
	</g>
	<g>
		<path class="st1" d="M20.3,68.3c-0.6-0.3-1.1-0.8-1.7-1.2c-0.6-0.4-1.2-0.8-1.7-1.3L14,69.3c0.6,0.5,1.3,1,1.9,1.5
			c0.7,0.5,1.3,1,2,1.4L20.3,68.3z"/>
		<path class="st2" d="M15.4,67.5c0.8-0.9,2.2-1.1,3.1-0.4c0.5,0.4,0.7,0.9,0.8,1.5c0.1,0.6,0,1.2-0.3,1.7c-0.3,0.5-0.9,0.9-1.5,1
			c-0.6,0.1-1.2-0.1-1.7-0.5C14.8,69.9,14.6,68.5,15.4,67.5z"/>
	</g>
	<g>
		<path class="st1" d="M14.1,63.1l-1.4-1.6c-0.5-0.5-0.9-1.1-1.3-1.7l-3.7,2.7c0.5,0.6,0.9,1.3,1.5,1.9l1.6,1.8L14.1,63.1z"/>
		<path class="st2" d="M9.6,61.3c1-0.7,2.4-0.6,3.1,0.3c0.8,0.9,0.7,2.3-0.2,3.1c-0.9,0.9-2.4,0.8-3.3-0.2C8.3,63.5,8.6,62,9.6,61.3
			z"/>
	</g>
	<g>
		<polygon class="st1" points="9.3,56.7 8.7,55.8 8.3,54.8 7.3,52.9 3.2,54.7 4.2,56.9 4.7,58 5.3,59 		"/>
		<path class="st2" d="M5.3,53.8c1.2-0.5,2.5,0,3,1c0.5,1.1,0.1,2.4-1,3c-1.1,0.6-2.6,0.3-3.1-1C3.6,55.7,4.1,54.3,5.3,53.8z"/>
	</g>
	<g>
		<polygon class="st1" points="6,49.3 5.5,47.3 5.2,46.2 5.1,45.2 0.6,46 0.8,47.2 1.1,48.3 1.7,50.6 		"/>
		<path class="st2" d="M2.8,45.6c1.3-0.2,2.3,0.6,2.7,1.7c0.3,1.1-0.5,2.3-1.7,2.7c-1.2,0.4-2.4-0.4-2.8-1.7
			C0.7,47,1.6,45.8,2.8,45.6z"/>
	</g>
	<g>
		<polygon class="st1" points="4.7,41.4 4.5,39.3 4.7,37.1 0.1,36.9 0,39.3 0.1,41.7 		"/>
		<path class="st2" d="M2.4,37c1.3,0.1,2.2,1.1,2.2,2.3c0.1,1.2-0.9,2.2-2.2,2.3c-1.3,0.1-2.3-0.9-2.4-2.3C0.1,37.9,1.1,36.9,2.4,37
			z"/>
	</g>
	<g>
		<polygon class="st1" points="5.1,33.3 5.2,32.3 5.5,31.3 6,29.2 1.7,27.9 1.1,30.2 0.8,31.4 0.6,32.6 		"/>
		<path class="st2" d="M3.9,28.6c1.2,0.4,1.9,1.6,1.7,2.7c-0.3,1.1-1.4,1.9-2.7,1.7c-1.2-0.2-2.1-1.4-1.8-2.7
			C1.4,28.9,2.7,28.2,3.9,28.6z"/>
	</g>
	<g>
		<polygon class="st1" points="7.3,25.6 8.3,23.7 8.7,22.7 9.3,21.8 5.3,19.5 4.7,20.6 4.2,21.7 3.2,23.8 		"/>
		<path class="st2" d="M7.3,20.7c1.1,0.6,1.4,1.9,1,3c-0.5,1-1.9,1.5-3,1c-1.2-0.5-1.6-1.9-1.1-3.1C4.7,20.4,6.2,20.1,7.3,20.7z"/>
	</g>
	<g>
		<path class="st1" d="M11.4,18.6c0.4-0.6,0.8-1.2,1.3-1.7l1.4-1.6l-3.3-3.1L9.2,14c-0.5,0.6-1,1.3-1.5,1.9L11.4,18.6z"/>
		<path class="st2" d="M12.5,13.8c0.9,0.9,1,2.3,0.2,3.1c-0.7,0.9-2.1,1.1-3.1,0.3c-1-0.7-1.2-2.2-0.4-3.3
			C10.1,13,11.6,12.9,12.5,13.8z"/>
	</g>
	<g>
		<path class="st1" d="M16.9,12.7c0.5-0.5,1.1-0.9,1.7-1.3c0.6-0.4,1.1-0.9,1.7-1.2l-2.5-3.8c-0.7,0.4-1.3,0.9-2,1.4
			c-0.6,0.5-1.3,0.9-1.9,1.5L16.9,12.7z"/>
		<path class="st2" d="M19,8.3c0.3,0.5,0.4,1.1,0.3,1.7c-0.1,0.6-0.4,1.1-0.8,1.5c-0.9,0.7-2.3,0.5-3.1-0.4c-0.8-1-0.7-2.4,0.4-3.2
			c0.5-0.4,1.2-0.5,1.7-0.5C18.2,7.4,18.7,7.8,19,8.3z"/>
	</g>
	<g>
		<path class="st1" d="M23.6,8.3l1.9-0.9c0.6-0.3,1.3-0.5,2-0.7L26,2.4c-0.7,0.3-1.5,0.5-2.2,0.9l-2.2,1L23.6,8.3z"/>
		<path class="st2" d="M26.7,4.5c0.4,1.2-0.1,2.4-1.2,2.9c-1,0.5-2.4,0-2.9-1.1c-0.6-1.1-0.1-2.5,1.1-3.1C25,2.7,26.3,3.3,26.7,4.5z
			"/>
	</g>
	<g>
		<path class="st1" d="M31.2,5.5l1-0.3c0.3-0.1,0.7-0.1,1-0.2l2.1-0.3l-0.5-4.5l-2.4,0.4c-0.4,0.1-0.8,0.1-1.2,0.2l-1.2,0.3
			L31.2,5.5z"/>
		<path class="st2" d="M35.1,2.5c0.1,1.2-0.7,2.4-1.8,2.6c-1.2,0.1-2.3-0.5-2.6-1.8c-0.3-1.2,0.5-2.5,1.8-2.7
			C33.8,0.4,35,1.3,35.1,2.5z"/>
	</g>
	<g>
		<path class="st1" d="M39.2,4.5c0.7,0,1.4,0.1,2.1,0.1c0.7,0.1,1.4,0,2.1,0.2l0.5-4.5c-0.8-0.2-1.6-0.1-2.4-0.2
			C40.8,0.1,40,0,39.2,0L39.2,4.5z"/>
		<path class="st2" d="M43.7,2.6c-0.1,0.6-0.4,1.1-0.8,1.5c-0.4,0.4-1,0.6-1.6,0.6c-1.2-0.1-2.1-1.1-2.1-2.4c0-1.3,1.1-2.2,2.4-2.2
			c0.7,0,1.2,0.3,1.6,0.8C43.6,1.3,43.7,1.9,43.7,2.6z"/>
	</g>
	<g>
		<path class="st1" d="M47.2,5.5L49.2,6c0.7,0.2,1.3,0.5,2,0.7l1.6-4.3c-0.8-0.3-1.5-0.6-2.3-0.8l-2.3-0.6L47.2,5.5z"/>
		<path class="st2" d="M52,4.6c-0.5,1.2-1.7,1.8-2.8,1.4c-1.1-0.3-1.8-1.5-1.5-2.7c0.3-1.2,1.5-2,2.8-1.6C51.8,2,52.5,3.4,52,4.6z"
			/>
	</g>
	<g>
		<path class="st1" d="M54.8,8.2l1,0.5C56,8.8,56.3,9,56.6,9.2l1.8,1.1l2.5-3.8l-2-1.2c-0.3-0.2-0.7-0.4-1-0.6l-1.1-0.5L54.8,8.2z"
			/>
		<path class="st2" d="M59.7,8.4c-0.7,1-2.1,1.4-3.1,0.8c-1-0.6-1.4-1.9-0.8-3c0.5-1.1,2-1.6,3.1-0.9C60,6,60.4,7.4,59.7,8.4z"/>
	</g>
	<g>
		<polygon class="st1" points="61.5,12.6 63.1,14 63.9,14.8 64.6,15.5 67.9,12.4 67.1,11.5 66.2,10.7 64.4,9.1 		"/>
		<path class="st2" d="M66.2,14c-0.9,0.9-2.3,0.8-3.2,0.1c-0.9-0.8-0.9-2.2-0.1-3.2c0.8-1,2.2-1,3.2-0.1
			C67.2,11.6,67.1,13.1,66.2,14z"/>
	</g>
	<g>
		<path class="st1" d="M67,18.5c0.4,0.6,0.9,1.1,1.2,1.7l1.1,1.8l3.9-2.3l-1.2-2c-0.4-0.7-0.9-1.3-1.4-1.9L67,18.5z"/>
		<path class="st2" d="M71.3,20.9c-1.1,0.6-2.5,0.3-3.1-0.7c-0.6-1-0.4-2.3,0.6-3.1c1-0.8,2.5-0.5,3.2,0.6
			C72.8,18.8,72.4,20.3,71.3,20.9z"/>
	</g>
	<g>
		<path class="st1" d="M71.1,25.4c0.3,0.6,0.5,1.3,0.8,2c0.2,0.7,0.5,1.3,0.7,2l4.4-1.3c-0.2-0.8-0.5-1.5-0.8-2.3
			c-0.3-0.7-0.5-1.5-0.9-2.2L71.1,25.4z"/>
		<path class="st2" d="M74.7,28.8c-0.6,0.2-1.2,0.1-1.7-0.2c-0.5-0.2-1-0.7-1.2-1.2c-0.4-1.1,0.2-2.4,1.3-2.9
			c1.2-0.5,2.5,0.1,2.9,1.3c0.2,0.6,0.2,1.3-0.1,1.8C75.8,28.2,75.3,28.6,74.7,28.8z"/>
	</g>
	<g>
		<path class="st1" d="M73.4,33.1l0.3,2.1c0.1,0.7,0.1,1.4,0.2,2.1l4.5-0.2c-0.1-0.8,0-1.6-0.2-2.4l-0.4-2.4L73.4,33.1z"/>
		<path class="st2" d="M76.2,37.2c-1.3,0.1-2.3-0.8-2.4-2c-0.2-1.1,0.7-2.3,1.9-2.5c1.2-0.2,2.4,0.6,2.6,2
			C78.4,36,77.4,37.2,76.2,37.2z"/>
	</g>
</g>
</svg>
