<?xml version="1.0" encoding="utf-8"?>
<!-- Generator: Adobe Illustrator 21.0.0, SVG Export Plug-In . SVG Version: 6.00 Build 0)  -->
<svg version="1.1" id="Calque_1" xmlns="http://www.w3.org/2000/svg" xmlns:xlink="http://www.w3.org/1999/xlink" x="0px" y="0px"
	 viewBox="0 0 372.6 372.7" style="enable-background:new 0 0 372.6 372.7;" xml:space="preserve">
<style type="text/css">
	.st0{opacity:0.12;}
	.st1{fill:none;}
	.st2{fill-rule:evenodd;clip-rule:evenodd;fill:#423F3D;}
</style>
<g class="st0">
	<g>
		<polygon class="st1" points="366.9,188.9 366.7,194.5 372.4,194.8 372.6,189 		"/>
		<path class="st2" d="M369.6,194.6c-1.6-0.1-2.8-1.4-2.8-2.9c0-1.5,1.3-2.8,2.9-2.8c1.6,0,2.8,1.3,2.8,2.9
			C372.4,193.5,371.1,194.7,369.6,194.6z"/>
	</g>
	<g>
		<path class="st1" d="M366.4,199.6c-0.2,1.9-0.3,3.7-0.4,5.6l5.7,0.6c0.2-1.9,0.3-3.9,0.5-5.8L366.4,199.6z"/>
		<path class="st2" d="M368.8,205.5c-1.5-0.2-2.7-1.6-2.6-3.1c0.1-1.5,1.5-2.7,3-2.6c1.6,0.1,2.7,1.5,2.6,3.1
			C371.7,204.5,370.4,205.6,368.8,205.5z"/>
	</g>
	<g>
		<path class="st1" d="M365.3,210.2c-0.2,1.9-0.4,3.7-0.8,5.6l5.6,0.9c0.4-1.9,0.6-3.8,0.8-5.7L365.3,210.2z"/>
		<path class="st2" d="M367.3,216.3c-1.6-0.3-2.5-1.7-2.4-3.2c0.2-1.5,1.6-2.6,3.2-2.4c1.6,0.2,2.7,1.7,2.5,3.2
			C370.4,215.4,368.8,216.5,367.3,216.3z"/>
	</g>
	<g>
		<path class="st1" d="M363.6,220.8c-0.3,1.9-0.8,3.7-1.2,5.5l5.5,1.3c0.4-1.9,0.9-3.8,1.2-5.7L363.6,220.8z"/>
		<path class="st2" d="M365.2,226.9c-1.5-0.3-2.5-1.9-2.1-3.4c0.4-1.5,1.8-2.5,3.3-2.2c1.5,0.3,2.6,1.8,2.2,3.4
			C368.3,226.3,366.7,227.3,365.2,226.9z"/>
	</g>
	<g>
		<polygon class="st1" points="361.3,231.3 359.8,236.7 365.2,238.2 366.8,232.7 		"/>
		<path class="st2" d="M362.5,237.5c-1.5-0.4-2.4-2-2-3.5c0.4-1.5,2-2.4,3.5-2c1.5,0.4,2.4,1.9,2,3.5
			C365.6,237,364,237.9,362.5,237.5z"/>
	</g>
	<g>
		<polygon class="st1" points="358.3,241.5 356.5,246.9 361.9,248.8 363.7,243.3 		"/>
		<path class="st2" d="M359.2,247.8c-1.5-0.5-2.3-2.1-1.8-3.6c0.5-1.5,2.1-2.3,3.6-1.8c1.5,0.5,2.3,2.1,1.8,3.6
			C362.3,247.5,360.7,248.3,359.2,247.8z"/>
	</g>
	<g>
		<polygon class="st1" points="354.7,251.6 352.7,256.8 357.9,259.1 360,253.7 		"/>
		<path class="st2" d="M355.3,258c-1.4-0.6-2.2-2.3-1.6-3.7c0.6-1.4,2.2-2.1,3.7-1.6c1.5,0.6,2.2,2.2,1.6,3.7
			C358.4,257.9,356.7,258.6,355.3,258z"/>
	</g>
	<g>
		<path class="st1" d="M350.6,261.5c-0.8,1.7-1.5,3.4-2.4,5.1l5.1,2.5c0.9-1.7,1.7-3.5,2.5-5.2L350.6,261.5z"/>
		<path class="st2" d="M350.7,267.8c-1.4-0.7-1.9-2.4-1.3-3.8c0.6-1.4,2.3-2,3.7-1.4c1.4,0.6,2,2.4,1.4,3.8
			C353.9,267.9,352.1,268.5,350.7,267.8z"/>
	</g>
	<g>
		<path class="st1" d="M345.8,271.1c-0.8,1.7-1.8,3.3-2.7,4.9l4.9,2.8c0.9-1.7,2-3.3,2.8-5.1L345.8,271.1z"/>
		<path class="st2" d="M345.6,277.4c-1.4-0.8-1.8-2.5-1.1-3.8c0.8-1.3,2.4-1.9,3.8-1.1c1.4,0.7,2,2.5,1.1,3.9
			C348.7,277.7,346.9,278.2,345.6,277.4z"/>
	</g>
	<g>
		<polygon class="st1" points="340.5,280.4 337.5,285.1 342.3,288.2 345.4,283.4 		"/>
		<path class="st2" d="M339.9,286.7c-1.3-0.9-1.7-2.6-0.9-3.9c0.8-1.3,2.6-1.7,3.9-0.9c1.3,0.8,1.7,2.6,0.9,3.9
			C343,287.1,341.2,287.5,339.9,286.7z"/>
	</g>
	<g>
		<polygon class="st1" points="334.7,289.3 331.4,293.9 336,297.3 339.3,292.6 		"/>
		<path class="st2" d="M333.7,295.6c-1.3-0.9-1.6-2.7-0.7-4c0.9-1.3,2.7-1.6,4-0.7c1.3,0.9,1.6,2.7,0.7,4
			C336.7,296.3,334.9,296.6,333.7,295.6z"/>
	</g>
	<g>
		<polygon class="st1" points="328.3,297.9 326.5,300.2 325.7,301.3 324.8,302.3 329.1,306 330.1,304.9 331,303.7 332.7,301.5 		"/>
		<path class="st2" d="M326.9,304.1c-1.2-1-1.3-2.8-0.4-4c1-1.2,2.7-1.4,4-0.4c1.2,1,1.4,2.8,0.4,4C330,305,328.1,305.2,326.9,304.1
			z"/>
	</g>
	<g>
		<path class="st1" d="M321.4,306.2c-1.2,1.4-2.5,2.8-3.8,4.1l4.1,3.9c1.3-1.4,2.7-2.8,3.9-4.3L321.4,306.2z"/>
		<path class="st2" d="M319.7,312.3c-1.1-1.1-1.2-2.9-0.1-4c1.1-1.1,2.8-1.3,4-0.2c1.2,1,1.3,2.9,0.2,4.1
			C322.6,313.3,320.8,313.3,319.7,312.3z"/>
	</g>
	<g>
		<polygon class="st1" points="314.1,314 310,317.9 313.9,322 318.1,318 		"/>
		<path class="st2" d="M312,319.9c-1.1-1.1-1-2.9,0.1-4c1.1-1.1,2.9-1,4,0.1c1.1,1.1,1.1,2.9-0.1,4
			C314.9,321.1,313.1,321.1,312,319.9z"/>
	</g>
	<g>
		<polygon class="st1" points="306.3,321.3 302.1,325 305.7,329.4 310.1,325.6 		"/>
		<path class="st2" d="M303.9,327.2c-1-1.2-0.9-3,0.3-4c1.2-1,3-0.9,4,0.3c1,1.2,0.9,3-0.3,4C306.7,328.5,304.9,328.4,303.9,327.2z"
			/>
	</g>
	<g>
		<path class="st1" d="M298.1,328.2c-1.5,1.1-2.9,2.3-4.4,3.4l3.4,4.6c1.6-1.1,3.1-2.4,4.6-3.5L298.1,328.2z"/>
		<path class="st2" d="M295.3,333.9c-0.5-0.6-0.6-1.4-0.5-2.1c0.1-0.7,0.5-1.4,1.1-1.9c1.2-1,3-0.7,4,0.5c1,1.2,0.7,3-0.5,4
			c-0.6,0.5-1.4,0.7-2.1,0.6C296.5,334.9,295.8,334.5,295.3,333.9z"/>
	</g>
	<g>
		<polygon class="st1" points="289.5,334.6 287.2,336.2 284.8,337.7 287.9,342.5 290.4,340.9 292.7,339.2 		"/>
		<path class="st2" d="M286.4,340.1c-0.9-1.3-0.5-3.1,0.8-3.9c1.3-0.9,3-0.6,3.9,0.7c0.9,1.3,0.6,3.1-0.7,4
			C289,341.8,287.2,341.4,286.4,340.1z"/>
	</g>
	<g>
		<path class="st1" d="M280.6,340.5c-1.6,1-3.2,1.9-4.9,2.8l2.8,4.9c1.7-1,3.4-1.9,5-2.9L280.6,340.5z"/>
		<path class="st2" d="M277.1,345.8c-0.8-1.4-0.3-3.1,1-3.9c0.7-0.4,1.4-0.5,2.2-0.3c0.7,0.2,1.3,0.6,1.7,1.3
			c0.4,0.7,0.5,1.5,0.3,2.2c-0.2,0.7-0.7,1.3-1.3,1.7C279.6,347.6,277.9,347.1,277.1,345.8z"/>
	</g>
	<g>
		<polygon class="st1" points="271.3,345.8 266.3,348.3 268.8,353.4 273.9,350.8 		"/>
		<path class="st2" d="M267.5,350.9c-0.7-1.4-0.1-3.1,1.2-3.8c1.4-0.7,3.1-0.2,3.8,1.2c0.7,1.4,0.2,3.1-1.2,3.8
			C269.9,352.8,268.2,352.3,267.5,350.9z"/>
	</g>
	<g>
		<polygon class="st1" points="261.7,350.5 256.5,352.8 258.8,358.1 264,355.7 		"/>
		<path class="st2" d="M257.6,355.4c-0.6-1.4,0-3.1,1.5-3.8c1.4-0.6,3.1,0,3.7,1.4c0.7,1.4,0,3.1-1.5,3.8
			C259.9,357.5,258.3,356.9,257.6,355.4z"/>
	</g>
	<g>
		<path class="st1" d="M251.8,354.7c-1.7,0.7-3.5,1.4-5.3,2l1.9,5.4c1.8-0.6,3.6-1.3,5.4-2L251.8,354.7z"/>
		<path class="st2" d="M247.5,359.3c-0.5-1.5,0.3-3,1.7-3.6c1.4-0.6,3.1,0.2,3.6,1.6c0.6,1.5-0.2,3.1-1.7,3.7
			C249.7,361.6,248,360.8,247.5,359.3z"/>
	</g>
	<g>
		<path class="st1" d="M241.7,358.3c-1.8,0.6-3.6,1.1-5.4,1.6l1.6,5.5c1.9-0.5,3.7-1,5.5-1.7L241.7,358.3z"/>
		<path class="st2" d="M237.1,362.6c-0.4-1.5,0.4-3.1,1.9-3.5c1.5-0.4,3.1,0.3,3.5,1.9c0.5,1.5-0.3,3.2-1.9,3.6
			C239.2,365,237.6,364.2,237.1,362.6z"/>
	</g>
	<g>
		<polygon class="st1" points="231.4,361.3 226,362.6 227.2,368.1 232.9,366.8 		"/>
		<path class="st2" d="M226.6,365.3c-0.3-1.5,0.6-3.1,2.1-3.4c1.5-0.3,3.1,0.6,3.4,2.1c0.4,1.5-0.6,3-2.1,3.4
			C228.5,367.8,226.9,366.9,226.6,365.3z"/>
	</g>
	<g>
		<polygon class="st1" points="221,363.6 215.5,364.6 216.4,370.2 222.1,369.2 		"/>
		<path class="st2" d="M215.9,367.4c-0.2-1.5,0.8-3,2.3-3.3c1.5-0.3,3,0.8,3.3,2.3c0.3,1.5-0.7,3-2.3,3.3
			C217.7,370,216.2,369,215.9,367.4z"/>
	</g>
	<g>
		<polygon class="st1" points="210.4,365.3 204.9,366.1 205.4,371.7 211.2,371 		"/>
		<path class="st2" d="M205.1,368.9c-0.2-1.6,1-3,2.5-3.2c1.5-0.2,3,0.9,3.2,2.5c0.2,1.6-0.9,3-2.5,3.2
			C206.7,371.5,205.3,370.4,205.1,368.9z"/>
	</g>
	<g>
		<polygon class="st1" points="199.8,366.4 197,366.7 195.6,366.8 194.2,366.8 194.4,372.5 195.9,372.4 197.3,372.3 200.2,372.1 		
			"/>
		<path class="st2" d="M194.3,369.6c-0.1-1.6,1.1-2.8,2.7-3c1.5-0.1,2.9,1.1,3,2.6c0.1,1.6-1.1,2.9-2.7,3.1
			C195.7,372.5,194.4,371.2,194.3,369.6z"/>
	</g>
	<g>
		<polygon class="st1" points="189.1,366.9 186.3,367 183.5,366.9 183.4,372.6 186.3,372.7 189.2,372.6 		"/>
		<path class="st2" d="M183.4,369.8c0-1.6,1.3-2.8,2.9-2.8c1.5,0,2.8,1.2,2.9,2.8c0,1.6-1.2,2.9-2.9,2.9
			C184.7,372.6,183.4,371.3,183.4,369.8z"/>
	</g>
	<g>
		<polygon class="st1" points="178.4,366.8 177,366.8 175.6,366.7 172.8,366.4 172.4,372.1 175.2,372.3 176.7,372.4 178.1,372.5 		
			"/>
		<path class="st2" d="M172.6,369.3c0.1-1.6,1.5-2.7,3-2.6c1.5,0.1,2.7,1.4,2.7,3c-0.1,1.6-1.4,2.8-3,2.7
			C173.6,372.2,172.4,370.8,172.6,369.3z"/>
	</g>
	<g>
		<polygon class="st1" points="167.7,366.1 162.1,365.3 161.4,371 167.1,371.7 		"/>
		<path class="st2" d="M161.7,368.2c0.2-1.6,1.6-2.7,3.2-2.5c1.5,0.2,2.7,1.6,2.5,3.2c-0.2,1.6-1.6,2.7-3.2,2.5
			S161.5,369.7,161.7,368.2z"/>
	</g>
	<g>
		<polygon class="st1" points="157.1,364.6 151.6,363.6 150.5,369.2 156.2,370.2 		"/>
		<path class="st2" d="M151,366.4c0.3-1.5,1.8-2.6,3.3-2.3c1.5,0.3,2.6,1.8,2.3,3.3c-0.2,1.5-1.7,2.6-3.3,2.3
			C151.7,369.4,150.7,368,151,366.4z"/>
	</g>
	<g>
		<polygon class="st1" points="146.6,362.6 141.1,361.3 139.7,366.8 145.3,368.1 		"/>
		<path class="st2" d="M140.4,364.1c0.4-1.5,1.9-2.5,3.4-2.1c1.5,0.3,2.5,1.9,2.1,3.4c-0.3,1.5-1.9,2.5-3.4,2.1
			C140.9,367.1,140,365.6,140.4,364.1z"/>
	</g>
	<g>
		<path class="st1" d="M136.2,359.9c-1.8-0.5-3.6-1-5.4-1.6l-1.7,5.4c1.8,0.7,3.7,1.1,5.5,1.7L136.2,359.9z"/>
		<path class="st2" d="M130,361c0.5-1.5,2.1-2.3,3.5-1.9c1.5,0.4,2.3,2,1.9,3.5c-0.4,1.5-2,2.4-3.6,1.9
			C130.3,364.2,129.5,362.5,130,361z"/>
	</g>
	<g>
		<path class="st1" d="M126,356.7c-1.8-0.6-3.5-1.3-5.3-2l-2.1,5.3c1.8,0.7,3.6,1.5,5.4,2L126,356.7z"/>
		<path class="st2" d="M119.7,357.3c0.6-1.5,2.2-2.2,3.6-1.6c1.4,0.6,2.2,2.1,1.7,3.6c-0.5,1.5-2.2,2.3-3.7,1.7
			C119.9,360.5,119.1,358.8,119.7,357.3z"/>
	</g>
	<g>
		<polygon class="st1" points="116,352.8 110.9,350.5 108.5,355.7 113.8,358.1 		"/>
		<path class="st2" d="M109.7,353.1c0.7-1.4,2.3-2.1,3.7-1.4c1.4,0.6,2.1,2.3,1.5,3.8c-0.6,1.5-2.3,2.1-3.7,1.4
			C109.7,356.2,109,354.5,109.7,353.1z"/>
	</g>
	<g>
		<polygon class="st1" points="106.3,348.3 101.3,345.8 98.6,350.8 103.8,353.4 		"/>
		<path class="st2" d="M100,348.3c0.7-1.4,2.5-1.9,3.8-1.2c1.4,0.7,1.9,2.4,1.2,3.8c-0.7,1.4-2.4,2-3.8,1.2S99.2,349.7,100,348.3z"
			/>
	</g>
	<g>
		<path class="st1" d="M96.9,343.3c-1.6-0.9-3.3-1.8-4.9-2.8l-3,4.8c1.6,1,3.3,1.9,5,2.9L96.9,343.3z"/>
		<path class="st2" d="M90.5,342.9c0.4-0.7,1-1.1,1.7-1.3c0.7-0.2,1.5-0.1,2.2,0.3c1.3,0.8,1.8,2.5,1,3.9c-0.8,1.4-2.5,1.8-3.9,1
			c-0.7-0.4-1.2-1-1.3-1.7C90,344.3,90.1,343.5,90.5,342.9z"/>
	</g>
	<g>
		<polygon class="st1" points="87.7,337.7 85.3,336.2 83.1,334.6 79.8,339.2 82.2,340.9 84.6,342.5 		"/>
		<path class="st2" d="M81.4,336.9c0.9-1.3,2.7-1.6,3.9-0.7c1.3,0.8,1.7,2.6,0.8,3.9c-0.9,1.3-2.6,1.7-4,0.8
			C80.9,340,80.5,338.2,81.4,336.9z"/>
	</g>
	<g>
		<path class="st1" d="M78.9,331.6c-1.5-1.1-3-2.3-4.4-3.4l-3.5,4.5c1.5,1.2,3,2.4,4.6,3.5L78.9,331.6z"/>
		<path class="st2" d="M72.7,330.4c1-1.2,2.8-1.5,4-0.5c0.6,0.5,1,1.2,1.1,1.9c0.1,0.7-0.1,1.5-0.5,2.1c-0.5,0.6-1.1,1-1.9,1.1
			c-0.7,0.1-1.5-0.1-2.1-0.6C72,333.4,71.7,331.6,72.7,330.4z"/>
	</g>
	<g>
		<polygon class="st1" points="70.5,325 66.2,321.3 62.5,325.6 66.9,329.4 		"/>
		<path class="st2" d="M64.4,323.4c1-1.2,2.8-1.3,4-0.3s1.3,2.8,0.3,4c-1,1.2-2.8,1.3-4,0.3C63.4,326.4,63.3,324.6,64.4,323.4z"/>
	</g>
	<g>
		<polygon class="st1" points="62.5,317.9 58.4,314 54.4,318 58.6,322 		"/>
		<path class="st2" d="M56.4,316c1.1-1.1,2.9-1.1,4-0.1c1.1,1.1,1.2,2.9,0.1,4c-1.1,1.1-2.9,1.2-4,0.1
			C55.4,318.9,55.3,317.1,56.4,316z"/>
	</g>
	<g>
		<path class="st1" d="M54.9,310.3c-1.3-1.4-2.6-2.7-3.8-4.1l-4.3,3.8c1.2,1.5,2.6,2.9,3.9,4.3L54.9,310.3z"/>
		<path class="st2" d="M49,308.1c1.2-1,2.9-0.9,4,0.2c1.1,1.1,1,2.9-0.1,4c-1.1,1.1-3,1-4.1-0.1C47.7,310.9,47.8,309.1,49,308.1z"/>
	</g>
	<g>
		<polygon class="st1" points="47.8,302.3 46.9,301.3 46,300.2 44.3,297.9 39.8,301.5 41.6,303.7 42.5,304.9 43.4,306 		"/>
		<path class="st2" d="M42,299.7c1.2-1,3-0.8,4,0.5c0.9,1.2,0.8,3-0.4,4c-1.2,1-3,0.9-4-0.4C40.6,302.5,40.8,300.7,42,299.7z"/>
	</g>
	<g>
		<polygon class="st1" points="41.1,293.9 37.9,289.3 33.2,292.6 36.6,297.3 		"/>
		<path class="st2" d="M35.6,291c1.3-0.9,3.1-0.6,4,0.7c0.9,1.3,0.6,3-0.7,4c-1.3,0.9-3,0.6-4-0.7C34,293.6,34.3,291.9,35.6,291z"/>
	</g>
	<g>
		<polygon class="st1" points="35,285.1 32,280.4 27.2,283.4 30.3,288.2 		"/>
		<path class="st2" d="M29.6,281.9c1.3-0.8,3.1-0.4,3.9,0.9s0.4,3.1-0.9,3.9c-1.3,0.9-3.1,0.5-3.9-0.9
			C27.9,284.4,28.2,282.7,29.6,281.9z"/>
	</g>
	<g>
		<path class="st1" d="M29.5,276c-0.9-1.6-1.9-3.2-2.7-4.9l-5,2.7c0.8,1.7,1.9,3.4,2.8,5.1L29.5,276z"/>
		<path class="st2" d="M24.2,272.4c1.4-0.7,3-0.2,3.8,1.1c0.8,1.3,0.3,3.1-1.1,3.8c-1.4,0.8-3.1,0.3-3.9-1.1
			C22.3,274.9,22.8,273.1,24.2,272.4z"/>
	</g>
	<g>
		<path class="st1" d="M24.4,266.6c-0.9-1.7-1.6-3.4-2.4-5.1l-5.2,2.4c0.8,1.8,1.6,3.5,2.5,5.2L24.4,266.6z"/>
		<path class="st2" d="M19.4,262.7c1.4-0.6,3.1,0,3.7,1.4c0.6,1.4,0.1,3.1-1.3,3.8c-1.4,0.7-3.2,0.1-3.8-1.3
			C17.4,265,18,263.3,19.4,262.7z"/>
	</g>
	<g>
		<polygon class="st1" points="19.9,256.8 17.8,251.6 12.5,253.7 14.7,259.1 		"/>
		<path class="st2" d="M15.2,252.7c1.5-0.6,3.1,0.1,3.7,1.6c0.6,1.4-0.2,3.1-1.6,3.7c-1.5,0.6-3.1-0.1-3.7-1.6
			C13,254.9,13.7,253.2,15.2,252.7z"/>
	</g>
	<g>
		<polygon class="st1" points="16,246.9 14.2,241.5 8.8,243.3 10.7,248.8 		"/>
		<path class="st2" d="M11.5,242.4c1.5-0.5,3.1,0.3,3.6,1.8c0.5,1.5-0.3,3.1-1.8,3.6c-1.5,0.5-3.1-0.3-3.6-1.8
			C9.2,244.5,10,242.9,11.5,242.4z"/>
	</g>
	<g>
		<polygon class="st1" points="12.8,236.7 11.3,231.3 5.7,232.7 7.3,238.2 		"/>
		<path class="st2" d="M8.5,232c1.5-0.4,3.1,0.5,3.5,2c0.4,1.5-0.5,3.1-2,3.5c-1.5,0.4-3.1-0.5-3.5-2C6.1,233.9,7,232.4,8.5,232z"/>
	</g>
	<g>
		<path class="st1" d="M10.1,226.3c-0.4-1.8-0.9-3.6-1.2-5.5l-5.6,1.1c0.3,1.9,0.8,3.8,1.2,5.7L10.1,226.3z"/>
		<path class="st2" d="M6.1,221.3c1.6-0.3,3,0.7,3.3,2.2c0.3,1.5-0.6,3-2.1,3.4c-1.5,0.3-3.1-0.6-3.4-2.2
			C3.5,223.2,4.6,221.6,6.1,221.3z"/>
	</g>
	<g>
		<path class="st1" d="M8,215.8c-0.4-1.8-0.6-3.7-0.8-5.6L1.6,211c0.2,1.9,0.5,3.8,0.8,5.7L8,215.8z"/>
		<path class="st2" d="M4.4,210.6c1.6-0.2,3,0.9,3.2,2.4c0.2,1.5-0.8,3-2.4,3.2c-1.5,0.3-3.1-0.8-3.3-2.4
			C1.8,212.3,2.9,210.8,4.4,210.6z"/>
	</g>
	<g>
		<path class="st1" d="M6.6,205.2c-0.2-1.9-0.3-3.7-0.4-5.6L0.5,200c0.2,1.9,0.3,3.9,0.5,5.8L6.6,205.2z"/>
		<path class="st2" d="M3.3,199.8c1.6-0.1,2.9,1.1,3,2.6c0.1,1.5-1.1,2.9-2.6,3.1c-1.6,0.2-2.9-1-3.1-2.6
			C0.6,201.3,1.8,199.9,3.3,199.8z"/>
	</g>
	<g>
		<polygon class="st1" points="5.8,194.5 5.7,188.9 0,189 0.1,194.8 		"/>
		<path class="st2" d="M2.8,188.9c1.6,0,2.9,1.2,2.9,2.8c0,1.5-1.2,2.9-2.8,2.9c-1.6,0.1-2.9-1.2-2.9-2.8
			C0,190.3,1.3,188.9,2.8,188.9z"/>
	</g>
	<g>
		<polygon class="st1" points="5.7,183.8 5.8,178.2 0.1,177.9 0,183.7 		"/>
		<path class="st2" d="M3,178.1c1.6,0.1,2.8,1.4,2.8,2.9c0,1.5-1.3,2.8-2.9,2.8c-1.6,0-2.8-1.3-2.8-2.9C0.1,179.2,1.4,178,3,178.1z"
			/>
	</g>
	<g>
		<path class="st1" d="M6.2,173.1c0.2-1.9,0.3-3.7,0.4-5.6l-5.7-0.6c-0.2,1.9-0.3,3.9-0.5,5.8L6.2,173.1z"/>
		<path class="st2" d="M3.8,167.2c1.5,0.2,2.7,1.6,2.6,3.1c-0.1,1.5-1.5,2.7-3,2.6c-1.6-0.1-2.7-1.5-2.6-3.1
			C0.8,168.2,2.2,167,3.8,167.2z"/>
	</g>
	<g>
		<path class="st1" d="M7.2,162.4c0.2-1.9,0.4-3.7,0.8-5.6L2.4,156c-0.4,1.9-0.6,3.8-0.8,5.7L7.2,162.4z"/>
		<path class="st2" d="M5.2,156.4c1.6,0.3,2.5,1.7,2.4,3.2c-0.2,1.5-1.6,2.6-3.2,2.4c-1.6-0.2-2.7-1.7-2.5-3.2
			C2.2,157.2,3.7,156.2,5.2,156.4z"/>
	</g>
	<g>
		<path class="st1" d="M8.9,151.9c0.3-1.9,0.8-3.7,1.2-5.5l-5.5-1.3c-0.4,1.9-0.9,3.8-1.2,5.7L8.9,151.9z"/>
		<path class="st2" d="M7.3,145.8c1.5,0.3,2.5,1.9,2.1,3.4c-0.4,1.5-1.8,2.5-3.3,2.2c-1.5-0.3-2.6-1.8-2.2-3.4
			C4.3,146.4,5.8,145.4,7.3,145.8z"/>
	</g>
	<g>
		<polygon class="st1" points="11.3,141.4 12.8,136 7.3,134.4 5.7,140 		"/>
		<path class="st2" d="M10,135.2c1.5,0.4,2.4,2,2,3.5c-0.4,1.5-2,2.4-3.5,2c-1.5-0.4-2.4-1.9-2-3.5C7,135.7,8.5,134.8,10,135.2z"/>
	</g>
	<g>
		<polygon class="st1" points="14.2,131.1 16,125.8 10.7,123.9 8.8,129.4 		"/>
		<path class="st2" d="M13.4,124.9c1.5,0.5,2.3,2.1,1.8,3.6c-0.5,1.5-2.1,2.3-3.6,1.8c-1.5-0.5-2.3-2.1-1.8-3.6
			C10.3,125.1,11.9,124.3,13.4,124.9z"/>
	</g>
	<g>
		<polygon class="st1" points="17.8,121.1 19.9,115.8 14.7,113.6 12.5,119 		"/>
		<path class="st2" d="M17.3,114.7c1.4,0.6,2.2,2.3,1.6,3.7c-0.6,1.4-2.2,2.1-3.7,1.6c-1.5-0.6-2.2-2.2-1.6-3.7
			C14.2,114.8,15.8,114.1,17.3,114.7z"/>
	</g>
	<g>
		<path class="st1" d="M22,111.2c0.8-1.7,1.5-3.4,2.4-5.1l-5.1-2.5c-0.9,1.7-1.7,3.5-2.5,5.2L22,111.2z"/>
		<path class="st2" d="M21.9,104.9c1.4,0.7,1.9,2.4,1.3,3.8c-0.6,1.4-2.3,2-3.7,1.4c-1.4-0.6-2-2.4-1.4-3.8
			C18.7,104.7,20.5,104.2,21.9,104.9z"/>
	</g>
	<g>
		<path class="st1" d="M26.7,101.6c0.8-1.7,1.8-3.3,2.7-4.9l-4.9-2.8c-0.9,1.7-2,3.3-2.8,5.1L26.7,101.6z"/>
		<path class="st2" d="M27,95.3c1.4,0.8,1.8,2.5,1.1,3.8c-0.8,1.3-2.4,1.9-3.8,1.1c-1.4-0.7-2-2.5-1.1-3.9
			C23.9,95,25.6,94.5,27,95.3z"/>
	</g>
	<g>
		<polygon class="st1" points="32,92.3 35,87.6 30.3,84.4 27.2,89.3 		"/>
		<path class="st2" d="M32.7,86c1.3,0.9,1.7,2.6,0.9,3.9c-0.8,1.3-2.6,1.7-3.9,0.9c-1.3-0.8-1.7-2.6-0.9-3.9S31.4,85.1,32.7,86z"/>
	</g>
	<g>
		<polygon class="st1" points="37.9,83.3 41.1,78.8 36.6,75.4 33.2,80.1 		"/>
		<path class="st2" d="M38.9,77.1c1.3,0.9,1.6,2.7,0.7,4c-0.9,1.3-2.7,1.6-4,0.7c-1.3-0.9-1.6-2.7-0.7-4
			C35.8,76.4,37.6,76.1,38.9,77.1z"/>
	</g>
	<g>
		<polygon class="st1" points="44.3,74.7 46,72.5 46.9,71.4 47.8,70.4 43.4,66.7 42.5,67.8 41.6,68.9 39.8,71.2 		"/>
		<path class="st2" d="M45.6,68.5c1.2,1,1.3,2.8,0.4,4c-1,1.2-2.7,1.4-4,0.4c-1.2-1-1.4-2.8-0.4-4C42.6,67.7,44.4,67.5,45.6,68.5z"
			/>
	</g>
	<g>
		<path class="st1" d="M51.1,66.5c1.2-1.4,2.5-2.8,3.8-4.1l-4.1-3.9c-1.3,1.4-2.7,2.8-3.9,4.3L51.1,66.5z"/>
		<path class="st2" d="M52.9,60.4c1.1,1.1,1.2,2.9,0.1,4c-1.1,1.1-2.8,1.3-4,0.2c-1.2-1-1.3-2.9-0.2-4.1
			C49.9,59.4,51.7,59.3,52.9,60.4z"/>
	</g>
	<g>
		<polygon class="st1" points="58.4,58.7 62.5,54.8 58.6,50.7 54.4,54.7 		"/>
		<path class="st2" d="M60.6,52.7c1.1,1.1,1,2.9-0.1,4c-1.1,1.1-2.9,1-4-0.1c-1.1-1.1-1.1-2.9,0.1-4C57.7,51.6,59.5,51.6,60.6,52.7z
			"/>
	</g>
	<g>
		<polygon class="st1" points="66.2,51.4 70.5,47.7 66.9,43.3 62.5,47.1 		"/>
		<path class="st2" d="M68.7,45.5c1,1.2,0.9,3-0.3,4c-1.2,1-3,0.9-4-0.3c-1-1.2-0.9-3,0.3-4C65.9,44.2,67.7,44.3,68.7,45.5z"/>
	</g>
	<g>
		<path class="st1" d="M74.5,44.5c1.5-1.1,2.9-2.3,4.4-3.4l-3.4-4.6c-1.6,1.1-3.1,2.4-4.6,3.5L74.5,44.5z"/>
		<path class="st2" d="M77.2,38.8c0.5,0.6,0.6,1.4,0.5,2.1c-0.1,0.7-0.5,1.4-1.1,1.9c-1.2,1-3,0.7-4-0.5c-1-1.2-0.7-3,0.5-4
			c0.6-0.5,1.4-0.7,2.1-0.6C76.1,37.8,76.7,38.1,77.2,38.8z"/>
	</g>
	<g>
		<polygon class="st1" points="83.1,38.1 85.3,36.5 87.7,35 84.6,30.2 82.2,31.8 79.8,33.4 		"/>
		<path class="st2" d="M86.2,32.6c0.9,1.3,0.5,3.1-0.8,3.9c-1.3,0.9-3,0.6-3.9-0.7c-0.9-1.3-0.6-3.1,0.7-4
			C83.5,30.9,85.3,31.3,86.2,32.6z"/>
	</g>
	<g>
		<path class="st1" d="M92,32.2c1.6-1,3.2-1.9,4.9-2.8L94,24.5c-1.7,1-3.4,1.9-5,2.9L92,32.2z"/>
		<path class="st2" d="M95.4,26.9c0.8,1.4,0.3,3.1-1,3.9c-0.7,0.4-1.4,0.5-2.2,0.3c-0.7-0.2-1.3-0.6-1.7-1.3
			c-0.4-0.7-0.5-1.5-0.3-2.2c0.2-0.7,0.7-1.3,1.3-1.7C92.9,25.1,94.7,25.6,95.4,26.9z"/>
	</g>
	<g>
		<polygon class="st1" points="101.3,26.9 106.3,24.3 103.8,19.3 98.6,21.9 		"/>
		<path class="st2" d="M105,21.8c0.7,1.4,0.1,3.1-1.2,3.8c-1.4,0.7-3.1,0.2-3.8-1.2c-0.7-1.4-0.2-3.1,1.2-3.8
			C102.6,19.8,104.3,20.4,105,21.8z"/>
	</g>
	<g>
		<polygon class="st1" points="110.9,22.2 116,19.9 113.8,14.6 108.5,17 		"/>
		<path class="st2" d="M114.9,17.2c0.6,1.4,0,3.1-1.5,3.8c-1.4,0.6-3.1,0-3.7-1.4c-0.7-1.4,0-3.1,1.5-3.8
			C112.6,15.2,114.3,15.8,114.9,17.2z"/>
	</g>
	<g>
		<path class="st1" d="M120.7,18c1.7-0.7,3.5-1.4,5.3-2l-1.9-5.4c-1.8,0.6-3.6,1.3-5.4,2L120.7,18z"/>
		<path class="st2" d="M125.1,13.3c0.5,1.5-0.3,3-1.7,3.6c-1.4,0.6-3.1-0.2-3.6-1.6c-0.6-1.5,0.2-3.1,1.7-3.7
			C122.9,11,124.5,11.9,125.1,13.3z"/>
	</g>
	<g>
		<path class="st1" d="M130.8,14.4c1.8-0.6,3.6-1.1,5.4-1.6l-1.6-5.5c-1.9,0.5-3.7,1-5.5,1.7L130.8,14.4z"/>
		<path class="st2" d="M135.4,10c0.4,1.5-0.4,3.1-1.9,3.5c-1.5,0.4-3.1-0.3-3.5-1.9c-0.5-1.5,0.3-3.2,1.9-3.6
			C133.4,7.7,135,8.5,135.4,10z"/>
	</g>
	<g>
		<polygon class="st1" points="141.1,11.4 146.6,10.1 145.3,4.6 139.7,5.9 		"/>
		<path class="st2" d="M146,7.3c0.3,1.5-0.6,3.1-2.1,3.4c-1.5,0.3-3.1-0.6-3.4-2.1c-0.4-1.5,0.6-3,2.1-3.4
			C144.1,4.9,145.6,5.8,146,7.3z"/>
	</g>
	<g>
		<polygon class="st1" points="151.6,9.1 157.1,8.1 156.2,2.5 150.5,3.5 		"/>
		<path class="st2" d="M156.6,5.3c0.2,1.5-0.8,3-2.3,3.3c-1.5,0.3-3-0.8-3.3-2.3c-0.3-1.5,0.7-3,2.3-3.3
			C154.9,2.7,156.4,3.7,156.6,5.3z"/>
	</g>
	<g>
		<polygon class="st1" points="162.1,7.3 167.7,6.6 167.1,1 161.4,1.7 		"/>
		<path class="st2" d="M167.4,3.8c0.2,1.6-1,3-2.5,3.2c-1.5,0.2-3-0.9-3.2-2.5c-0.2-1.6,0.9-3,2.5-3.2
			C165.8,1.1,167.3,2.2,167.4,3.8z"/>
	</g>
	<g>
		<polygon class="st1" points="172.8,6.2 175.6,6 177,5.9 178.4,5.9 178.1,0.2 176.7,0.2 175.2,0.4 172.4,0.6 		"/>
		<path class="st2" d="M178.3,3c0.1,1.6-1.1,2.8-2.7,3c-1.5,0.1-2.9-1.1-3-2.6c-0.1-1.6,1.1-2.9,2.7-3.1
			C176.8,0.2,178.2,1.5,178.3,3z"/>
	</g>
	<g>
		<polygon class="st1" points="183.5,5.8 186.3,5.7 189.1,5.8 189.2,0.1 186.3,0 183.4,0.1 		"/>
		<path class="st2" d="M189.1,2.9c0,1.6-1.3,2.8-2.9,2.8c-1.5,0-2.8-1.2-2.9-2.8c0-1.6,1.2-2.9,2.9-2.9C187.9,0,189.2,1.3,189.1,2.9
			z"/>
	</g>
	<g>
		<polygon class="st1" points="194.2,5.9 195.6,5.9 197,6 199.8,6.2 200.2,0.6 197.3,0.4 195.9,0.2 194.4,0.2 		"/>
		<path class="st2" d="M200,3.4c-0.1,1.6-1.5,2.7-3,2.6c-1.5-0.1-2.7-1.4-2.7-3c0.1-1.6,1.4-2.8,3-2.7C198.9,0.5,200.1,1.8,200,3.4z
			"/>
	</g>
	<g>
		<polygon class="st1" points="204.9,6.6 210.4,7.3 211.2,1.7 205.4,1 		"/>
		<path class="st2" d="M210.8,4.5c-0.2,1.6-1.6,2.7-3.2,2.5c-1.5-0.2-2.7-1.6-2.5-3.2c0.2-1.6,1.6-2.7,3.2-2.5
			C209.9,1.5,211,3,210.8,4.5z"/>
	</g>
	<g>
		<polygon class="st1" points="215.5,8.1 221,9.1 222.1,3.5 216.4,2.5 		"/>
		<path class="st2" d="M221.5,6.3c-0.3,1.5-1.8,2.6-3.3,2.3s-2.6-1.8-2.3-3.3c0.2-1.5,1.7-2.6,3.3-2.3
			C220.8,3.2,221.8,4.7,221.5,6.3z"/>
	</g>
	<g>
		<polygon class="st1" points="226,10.1 231.4,11.4 232.9,5.9 227.2,4.6 		"/>
		<path class="st2" d="M232.2,8.6c-0.4,1.5-1.9,2.5-3.4,2.1c-1.5-0.3-2.5-1.9-2.1-3.4c0.3-1.5,1.9-2.5,3.4-2.1
			C231.6,5.6,232.6,7.1,232.2,8.6z"/>
	</g>
	<g>
		<path class="st1" d="M236.3,12.8c1.8,0.5,3.6,1,5.4,1.6l1.7-5.4c-1.8-0.7-3.7-1.1-5.5-1.7L236.3,12.8z"/>
		<path class="st2" d="M242.6,11.7c-0.5,1.5-2.1,2.3-3.5,1.9c-1.5-0.4-2.3-2-1.9-3.5c0.4-1.5,2-2.4,3.6-1.9
			C242.3,8.5,243.1,10.2,242.6,11.7z"/>
	</g>
	<g>
		<path class="st1" d="M246.5,16c1.8,0.6,3.5,1.3,5.3,2l2.1-5.3c-1.8-0.7-3.6-1.5-5.4-2L246.5,16z"/>
		<path class="st2" d="M252.8,15.3c-0.6,1.5-2.2,2.2-3.6,1.6c-1.4-0.6-2.2-2.1-1.7-3.6c0.5-1.5,2.2-2.3,3.7-1.7
			C252.7,12.2,253.4,13.9,252.8,15.3z"/>
	</g>
	<g>
		<polygon class="st1" points="256.5,19.9 261.7,22.2 264,17 258.8,14.6 		"/>
		<path class="st2" d="M262.8,19.6c-0.7,1.4-2.3,2.1-3.7,1.4c-1.4-0.6-2.1-2.3-1.5-3.8c0.6-1.5,2.3-2.1,3.7-1.4
			C262.9,16.5,263.5,18.2,262.8,19.6z"/>
	</g>
	<g>
		<polygon class="st1" points="266.3,24.3 271.3,26.9 273.9,21.9 268.8,19.3 		"/>
		<path class="st2" d="M272.6,24.4c-0.7,1.4-2.5,1.9-3.8,1.2c-1.4-0.7-1.9-2.4-1.2-3.8c0.7-1.4,2.4-2,3.8-1.2S273.3,23,272.6,24.4z"
			/>
	</g>
	<g>
		<path class="st1" d="M275.7,29.4c1.6,0.9,3.3,1.8,4.9,2.8l3-4.8c-1.6-1-3.3-1.9-5-2.9L275.7,29.4z"/>
		<path class="st2" d="M282,29.8c-0.4,0.7-1,1.1-1.7,1.3c-0.7,0.2-1.5,0.1-2.2-0.3c-1.3-0.8-1.8-2.5-1-3.9c0.8-1.4,2.5-1.8,3.9-1
			c0.7,0.4,1.2,1,1.3,1.7C282.6,28.3,282.4,29.1,282,29.8z"/>
	</g>
	<g>
		<polygon class="st1" points="284.8,35 287.2,36.5 289.5,38.1 292.7,33.4 290.4,31.8 287.9,30.2 		"/>
		<path class="st2" d="M291.1,35.8c-0.9,1.3-2.7,1.6-3.9,0.7c-1.3-0.8-1.7-2.6-0.8-3.9c0.9-1.3,2.6-1.7,4-0.8
			C291.7,32.7,292,34.5,291.1,35.8z"/>
	</g>
	<g>
		<path class="st1" d="M293.6,41.1c1.5,1.1,3,2.3,4.4,3.4l3.5-4.5c-1.5-1.2-3-2.4-4.6-3.5L293.6,41.1z"/>
		<path class="st2" d="M299.8,42.3c-1,1.2-2.8,1.5-4,0.5c-0.6-0.5-1-1.2-1.1-1.9c-0.1-0.7,0.1-1.5,0.5-2.1c0.5-0.6,1.1-1,1.9-1.1
			c0.7-0.1,1.5,0.1,2.1,0.6C300.6,39.2,300.8,41,299.8,42.3z"/>
	</g>
	<g>
		<polygon class="st1" points="302.1,47.7 306.3,51.4 310.1,47.1 305.7,43.3 		"/>
		<path class="st2" d="M308.2,49.2c-1,1.2-2.8,1.3-4,0.3s-1.3-2.8-0.3-4c1-1.2,2.8-1.3,4-0.3C309.1,46.3,309.2,48.1,308.2,49.2z"/>
	</g>
	<g>
		<polygon class="st1" points="310,54.8 314.1,58.7 318.1,54.7 313.9,50.7 		"/>
		<path class="st2" d="M316.1,56.7c-1.1,1.1-2.9,1.1-4,0.1c-1.1-1.1-1.2-2.9-0.1-4c1.1-1.1,2.9-1.2,4-0.1
			C317.2,53.8,317.2,55.6,316.1,56.7z"/>
	</g>
	<g>
		<path class="st1" d="M317.6,62.4c1.3,1.4,2.6,2.7,3.8,4.1l4.3-3.8c-1.2-1.5-2.6-2.9-3.9-4.3L317.6,62.4z"/>
		<path class="st2" d="M323.6,64.6c-1.2,1-2.9,0.9-4-0.2c-1.1-1.1-1-2.9,0.1-4c1.1-1.1,3-1,4.1,0.1
			C324.9,61.7,324.7,63.6,323.6,64.6z"/>
	</g>
	<g>
		<polygon class="st1" points="324.8,70.4 325.7,71.4 326.5,72.5 328.3,74.7 332.7,71.2 331,68.9 330.1,67.8 329.1,66.7 		"/>
		<path class="st2" d="M330.5,73c-1.2,1-3,0.8-4-0.5c-0.9-1.2-0.8-3,0.4-4c1.2-1,3-0.9,4,0.4C331.9,70.2,331.7,72,330.5,73z"/>
	</g>
	<g>
		<polygon class="st1" points="331.4,78.8 334.7,83.3 339.3,80.1 336,75.4 		"/>
		<path class="st2" d="M337,81.7c-1.3,0.9-3.1,0.6-4-0.7c-0.9-1.3-0.6-3,0.7-4c1.3-0.9,3-0.6,4,0.7C338.6,79,338.3,80.8,337,81.7z"
			/>
	</g>
	<g>
		<polygon class="st1" points="337.5,87.6 340.5,92.3 345.4,89.3 342.3,84.4 		"/>
		<path class="st2" d="M343,90.8c-1.3,0.8-3.1,0.4-3.9-0.9c-0.8-1.3-0.4-3.1,0.9-3.9c1.3-0.9,3.1-0.5,3.9,0.9
			C344.7,88.2,344.3,90,343,90.8z"/>
	</g>
	<g>
		<path class="st1" d="M343.1,96.7c0.9,1.6,1.9,3.2,2.7,4.9l5-2.7c-0.8-1.7-1.9-3.4-2.8-5.1L343.1,96.7z"/>
		<path class="st2" d="M348.3,100.3c-1.4,0.7-3,0.2-3.8-1.1c-0.8-1.3-0.3-3.1,1.1-3.8c1.4-0.8,3.1-0.3,3.9,1.1
			C350.3,97.8,349.7,99.5,348.3,100.3z"/>
	</g>
	<g>
		<path class="st1" d="M348.1,106.1c0.9,1.7,1.6,3.4,2.4,5.1l5.2-2.4c-0.8-1.8-1.6-3.5-2.5-5.2L348.1,106.1z"/>
		<path class="st2" d="M353.1,110c-1.4,0.6-3.1,0-3.7-1.4c-0.6-1.4-0.1-3.1,1.3-3.8c1.4-0.7,3.2-0.1,3.8,1.3
			C355.2,107.7,354.6,109.4,353.1,110z"/>
	</g>
	<g>
		<polygon class="st1" points="352.7,115.8 354.7,121.1 360,119 357.9,113.6 		"/>
		<path class="st2" d="M357.4,120c-1.5,0.6-3.1-0.1-3.7-1.6c-0.6-1.4,0.2-3.1,1.6-3.7c1.5-0.6,3.1,0.1,3.7,1.6
			C359.5,117.8,358.8,119.5,357.4,120z"/>
	</g>
	<g>
		<polygon class="st1" points="356.5,125.8 358.3,131.1 363.7,129.4 361.9,123.9 		"/>
		<path class="st2" d="M361,130.3c-1.5,0.5-3.1-0.3-3.6-1.8c-0.5-1.5,0.3-3.1,1.8-3.6c1.5-0.5,3.1,0.3,3.6,1.8
			C363.3,128.2,362.5,129.8,361,130.3z"/>
	</g>
	<g>
		<polygon class="st1" points="359.8,136 361.3,141.4 366.8,140 365.2,134.4 		"/>
		<path class="st2" d="M364.1,140.7c-1.5,0.4-3.1-0.5-3.5-2c-0.4-1.5,0.5-3.1,2-3.5c1.5-0.4,3.1,0.5,3.5,2
			C366.5,138.8,365.6,140.3,364.1,140.7z"/>
	</g>
	<g>
		<path class="st1" d="M362.4,146.4c0.4,1.8,0.9,3.6,1.2,5.5l5.6-1.1c-0.3-1.9-0.8-3.8-1.2-5.7L362.4,146.4z"/>
		<path class="st2" d="M366.4,151.3c-1.6,0.3-3-0.7-3.3-2.2c-0.3-1.5,0.6-3,2.1-3.4c1.5-0.3,3.1,0.6,3.4,2.2
			C369,149.5,367.9,151,366.4,151.3z"/>
	</g>
	<g>
		<path class="st1" d="M364.5,156.9c0.4,1.8,0.6,3.7,0.8,5.6l5.6-0.7c-0.2-1.9-0.5-3.8-0.8-5.7L364.5,156.9z"/>
		<path class="st2" d="M368.1,162.1c-1.6,0.2-3-0.9-3.2-2.4c-0.2-1.5,0.8-3,2.4-3.2c1.5-0.3,3.1,0.8,3.3,2.4
			C370.8,160.4,369.7,161.9,368.1,162.1z"/>
	</g>
	<g>
		<path class="st1" d="M366,167.5c0.2,1.9,0.3,3.7,0.4,5.6l5.7-0.4c-0.2-1.9-0.3-3.9-0.5-5.8L366,167.5z"/>
		<path class="st2" d="M369.2,172.9c-1.6,0.1-2.9-1.1-3-2.6c-0.1-1.5,1.1-2.9,2.6-3.1c1.6-0.2,2.9,1,3.1,2.6
			C372,171.4,370.8,172.8,369.2,172.9z"/>
	</g>
	<g>
		<polygon class="st1" points="366.7,178.2 366.9,183.8 372.6,183.7 372.4,177.9 		"/>
		<path class="st2" d="M369.7,183.8c-1.6,0-2.9-1.2-2.9-2.8c0-1.5,1.2-2.9,2.8-2.9c1.6-0.1,2.9,1.2,2.9,2.8
			C372.5,182.4,371.3,183.7,369.7,183.8z"/>
	</g>
</g>
</svg>
