<?xml version="1.0" encoding="utf-8"?>
<!-- Generator: Adobe Illustrator 21.0.0, SVG Export Plug-In . SVG Version: 6.00 Build 0)  -->
<svg version="1.1" id="Calque_1" xmlns="http://www.w3.org/2000/svg" xmlns:xlink="http://www.w3.org/1999/xlink" x="0px" y="0px"
	 viewBox="0 0 373.6 373.7" style="enable-background:new 0 0 373.6 373.7;" xml:space="preserve">
<style type="text/css">
	.st0{opacity:0.2;}
	.st1{fill:none;}
	.st2{fill-rule:evenodd;clip-rule:evenodd;fill:#EFEFEF;}
</style>
<g class="st0">
	<g>
		<polygon class="st1" points="367.9,189.4 367.8,194.9 373.5,195.2 373.6,189.4 		"/>
		<path class="st2" d="M370.6,195.1c-1.6-0.1-2.8-1.4-2.8-2.9c0-1.5,1.3-2.8,2.9-2.8c1.6,0,2.8,1.3,2.8,2.9
			C373.5,193.9,372.2,195.1,370.6,195.1z"/>
	</g>
	<g>
		<polygon class="st1" points="367.5,200 367,205.6 372.7,206.1 373.1,200.4 		"/>
		<path class="st2" d="M369.9,205.8c-1.5-0.2-2.7-1.5-2.6-3.1c0.1-1.5,1.5-2.7,3-2.6c1.6,0.1,2.7,1.5,2.6,3.1
			C372.8,204.9,371.4,206,369.9,205.8z"/>
	</g>
	<g>
		<path class="st1" d="M366.4,210.6c-0.3,1.8-0.4,3.7-0.8,5.5l5.6,0.9c0.4-1.9,0.6-3.8,0.8-5.7L366.4,210.6z"/>
		<path class="st2" d="M368.4,216.6c-1.6-0.3-2.5-1.7-2.4-3.2c0.2-1.5,1.6-2.6,3.2-2.4c1.6,0.2,2.7,1.6,2.5,3.2
			C371.5,215.8,369.9,216.8,368.4,216.6z"/>
	</g>
	<g>
		<path class="st1" d="M364.7,221.1c-0.2,0.9-0.3,1.8-0.5,2.7l-0.6,2.7l5.5,1.2l0.6-2.8c0.2-0.9,0.4-1.9,0.5-2.8L364.7,221.1z"/>
		<path class="st2" d="M366.4,227.2c-1.5-0.3-2.5-1.8-2.1-3.3c0.3-1.5,1.8-2.5,3.3-2.2c1.5,0.3,2.6,1.8,2.3,3.4
			C369.4,226.5,367.9,227.5,366.4,227.2z"/>
	</g>
	<g>
		<path class="st1" d="M362.4,231.5c-0.4,1.8-1,3.6-1.5,5.4l5.5,1.6c0.5-1.9,1.1-3.7,1.5-5.5L362.4,231.5z"/>
		<path class="st2" d="M363.7,237.6c-1.5-0.4-2.4-2-2-3.5c0.4-1.5,2-2.4,3.5-2c1.5,0.4,2.5,1.9,2,3.5
			C366.8,237.2,365.2,238.1,363.7,237.6z"/>
	</g>
	<g>
		<polygon class="st1" points="359.5,241.7 357.7,247 363.1,248.9 364.9,243.4 		"/>
		<path class="st2" d="M360.4,247.9c-1.5-0.5-2.3-2.1-1.8-3.6c0.5-1.5,2.1-2.3,3.6-1.8c1.5,0.5,2.3,2.1,1.8,3.6
			C363.5,247.6,361.9,248.4,360.4,247.9z"/>
	</g>
	<g>
		<polygon class="st1" points="356,251.7 353.9,256.9 359.2,259.1 361.3,253.8 		"/>
		<path class="st2" d="M356.6,258c-1.4-0.6-2.2-2.3-1.6-3.7c0.6-1.4,2.2-2.1,3.7-1.6c1.5,0.6,2.2,2.2,1.6,3.7
			C359.6,257.9,358,258.6,356.6,258z"/>
	</g>
	<g>
		<polygon class="st1" points="351.9,261.5 350.7,264.1 350.2,265.3 349.5,266.6 354.6,269.1 355.3,267.8 355.9,266.5 357.1,263.9 
					"/>
		<path class="st2" d="M352.1,267.8c-1.4-0.7-2-2.4-1.3-3.8c0.6-1.4,2.3-2,3.7-1.4c1.4,0.6,2.1,2.3,1.4,3.8
			C355.2,268,353.5,268.5,352.1,267.8z"/>
	</g>
	<g>
		<path class="st1" d="M347.2,271.1c-0.4,0.8-0.8,1.7-1.3,2.5l-1.4,2.4l4.9,2.8l1.4-2.5c0.5-0.8,0.9-1.7,1.3-2.6L347.2,271.1z"/>
		<path class="st2" d="M347,277.4c-1.4-0.8-1.8-2.5-1.1-3.8c0.7-1.3,2.4-1.9,3.8-1.1c1.4,0.7,1.9,2.5,1.2,3.9
			C350.1,277.7,348.4,278.2,347,277.4z"/>
	</g>
	<g>
		<path class="st1" d="M342,280.4c-1,1.6-2,3.1-3,4.7l4.8,3.1c1-1.6,2.1-3.2,3.1-4.9L342,280.4z"/>
		<path class="st2" d="M341.4,286.6c-1.3-0.9-1.7-2.6-0.9-3.9c0.8-1.3,2.6-1.7,3.9-0.9c1.4,0.8,1.8,2.6,0.9,3.9
			C344.5,287.1,342.7,287.5,341.4,286.6z"/>
	</g>
	<g>
		<polygon class="st1" points="336.2,289.3 333,293.8 337.6,297.2 340.9,292.5 		"/>
		<path class="st2" d="M335.3,295.5c-1.3-0.9-1.6-2.7-0.7-4s2.7-1.5,4-0.7c1.3,0.9,1.6,2.7,0.7,4
			C338.3,296.2,336.5,296.5,335.3,295.5z"/>
	</g>
	<g>
		<polygon class="st1" points="329.9,297.9 326.5,302.2 330.9,305.9 334.4,301.4 		"/>
		<path class="st2" d="M328.7,304.1c-1.2-1-1.4-2.8-0.5-4c0.9-1.2,2.7-1.4,4-0.4c1.2,1,1.4,2.8,0.5,4
			C331.7,304.9,329.9,305.1,328.7,304.1z"/>
	</g>
	<g>
		<path class="st1" d="M323.2,306.1c-1.2,1.4-2.4,2.8-3.7,4.1l4.2,3.9c1.4-1.4,2.6-2.8,3.8-4.3L323.2,306.1z"/>
		<path class="st2" d="M321.5,312.2c-1.2-1.1-1.2-2.8-0.2-4c1-1.2,2.8-1.3,4-0.2c1.2,1,1.3,2.8,0.3,4
			C324.5,313.2,322.7,313.2,321.5,312.2z"/>
	</g>
	<g>
		<path class="st1" d="M315.9,313.9c-1.3,1.4-2.7,2.6-4,3.9l3.9,4.1c1.4-1.3,2.8-2.6,4.1-4L315.9,313.9z"/>
		<path class="st2" d="M313.9,319.8c-1.1-1.1-1.1-2.9,0.1-4c1.1-1,2.9-1.1,4,0c1.1,1.1,1.2,2.9,0,4C316.8,321,315,321,313.9,319.8z"
			/>
	</g>
	<g>
		<polygon class="st1" points="308.3,321.3 304.1,324.9 307.7,329.2 312.1,325.5 		"/>
		<path class="st2" d="M305.9,327.1c-1-1.2-0.9-3,0.3-4c1.2-1,3-0.9,4,0.3c1.1,1.2,0.9,2.9-0.3,4
			C308.7,328.4,306.9,328.3,305.9,327.1z"/>
	</g>
	<g>
		<polygon class="st1" points="300.2,328.1 295.8,331.6 299.2,336.1 303.7,332.6 		"/>
		<path class="st2" d="M297.5,333.8c-0.9-1.3-0.7-3,0.5-4c1.2-0.9,3-0.7,4,0.5c1,1.2,0.8,3-0.5,4
			C300.2,335.3,298.4,335.1,297.5,333.8z"/>
	</g>
	<g>
		<path class="st1" d="M291.7,334.5c-1.5,1.1-3,2.2-4.6,3.2l3.2,4.7c1.6-1,3.1-2.2,4.7-3.3L291.7,334.5z"/>
		<path class="st2" d="M288.7,340.1c-0.9-1.3-0.5-3,0.7-3.9c1.3-0.9,3-0.6,3.9,0.7c0.9,1.3,0.6,3.1-0.7,4
			C291.3,341.8,289.5,341.4,288.7,340.1z"/>
	</g>
	<g>
		<path class="st1" d="M282.8,340.4c-0.8,0.5-1.6,1-2.4,1.5l-2.4,1.4l2.9,4.9l2.5-1.4c0.8-0.5,1.6-1,2.4-1.5L282.8,340.4z"/>
		<path class="st2" d="M279.5,345.8c-0.8-1.4-0.3-3.1,1-3.8c1.3-0.8,3-0.4,3.9,0.9c0.8,1.3,0.4,3.1-0.9,3.9
			C282,347.6,280.3,347.1,279.5,345.8z"/>
	</g>
	<g>
		<path class="st1" d="M273.7,345.9c-1.6,0.9-3.3,1.7-5,2.6l2.6,5.1c1.7-0.9,3.4-1.7,5.1-2.6L273.7,345.9z"/>
		<path class="st2" d="M270,351c-0.7-1.4-0.2-3.1,1.2-3.8c1.4-0.7,3.1-0.2,3.8,1.2c0.8,1.4,0.2,3.1-1.2,3.8
			C272.4,352.9,270.7,352.4,270,351z"/>
	</g>
	<g>
		<polygon class="st1" points="264.2,350.7 259.1,353 261.4,358.2 266.6,355.8 		"/>
		<path class="st2" d="M260.2,355.6c-0.6-1.4,0-3.1,1.4-3.8c1.4-0.6,3.1,0,3.8,1.4c0.7,1.4,0,3.1-1.4,3.8S260.9,357,260.2,355.6z"/>
	</g>
	<g>
		<polygon class="st1" points="254.4,354.9 249.2,357 251.2,362.3 256.6,360.2 		"/>
		<path class="st2" d="M250.2,359.6c-0.5-1.5,0.2-3.1,1.6-3.7c1.4-0.6,3.1,0.2,3.7,1.6c0.6,1.5-0.1,3.1-1.6,3.7
			C252.4,361.8,250.8,361.1,250.2,359.6z"/>
	</g>
	<g>
		<path class="st1" d="M244.5,358.6c-1.8,0.6-3.5,1.2-5.3,1.7l1.6,5.4c1.9-0.5,3.7-1.2,5.5-1.8L244.5,358.6z"/>
		<path class="st2" d="M240,363c-0.5-1.5,0.4-3,1.8-3.5c1.5-0.5,3,0.3,3.5,1.8c0.5,1.5-0.3,3.1-1.8,3.6
			C242,365.4,240.4,364.5,240,363z"/>
	</g>
	<g>
		<path class="st1" d="M234.3,361.7c-1.8,0.5-3.6,1-5.4,1.4l1.3,5.5c1.9-0.4,3.7-0.8,5.6-1.4L234.3,361.7z"/>
		<path class="st2" d="M229.5,365.8c-0.4-1.5,0.6-3,2.1-3.4c1.5-0.4,3,0.5,3.4,2c0.4,1.5-0.5,3.1-2,3.5
			C231.4,368.3,229.9,367.3,229.5,365.8z"/>
	</g>
	<g>
		<path class="st1" d="M223.9,364.2c-1.8,0.4-3.7,0.7-5.5,1l1,5.6c1.9-0.4,3.8-0.6,5.7-1L223.9,364.2z"/>
		<path class="st2" d="M219,368c-0.3-1.5,0.7-3,2.3-3.3c1.5-0.3,3,0.7,3.3,2.3c0.3,1.6-0.7,3.1-2.2,3.3
			C220.7,370.6,219.2,369.5,219,368z"/>
	</g>
	<g>
		<polygon class="st1" points="213.5,366 207.9,366.7 208.6,372.4 214.3,371.7 		"/>
		<path class="st2" d="M208.3,369.6c-0.2-1.6,0.9-3,2.4-3.2s2.9,0.9,3.2,2.5c0.2,1.5-0.9,3-2.4,3.2
			C209.9,372.2,208.4,371.1,208.3,369.6z"/>
	</g>
	<g>
		<polygon class="st1" points="202.9,367.2 197.3,367.7 197.7,373.3 203.4,372.9 		"/>
		<path class="st2" d="M197.5,370.5c-0.1-1.6,1.1-2.9,2.6-3.1c1.5-0.1,2.9,1.1,3,2.6c0.1,1.6-1,2.9-2.6,3
			C198.9,373.2,197.6,372.1,197.5,370.5z"/>
	</g>
	<g>
		<polygon class="st1" points="192.3,367.9 186.7,368 186.7,373.7 192.5,373.5 		"/>
		<path class="st2" d="M186.7,370.8c0-1.6,1.3-2.9,2.8-2.9c1.5,0,2.8,1.2,2.9,2.8c0.1,1.6-1.2,2.9-2.8,2.9
			C188,373.6,186.7,372.4,186.7,370.8z"/>
	</g>
	<g>
		<polygon class="st1" points="181.7,367.9 178.9,367.8 177.5,367.8 176.1,367.6 175.7,373.3 177.2,373.4 178.6,373.5 181.5,373.5 
					"/>
		<path class="st2" d="M175.9,370.5c0.1-1.6,1.4-2.7,3-2.7c1.5,0,2.8,1.3,2.7,2.9c0,1.6-1.4,2.8-3,2.8
			C177,373.5,175.8,372,175.9,370.5z"/>
	</g>
	<g>
		<polygon class="st1" points="171,367.3 168.3,367.1 165.5,366.7 164.8,372.3 167.7,372.7 170.5,372.9 		"/>
		<path class="st2" d="M165.2,369.5c0.2-1.6,1.6-2.7,3.1-2.5c1.5,0.1,2.7,1.5,2.5,3c-0.1,1.6-1.5,2.7-3.1,2.6
			C166.1,372.5,165,371.1,165.2,369.5z"/>
	</g>
	<g>
		<path class="st1" d="M160.5,366.1c-0.9-0.1-1.8-0.3-2.8-0.4l-2.7-0.5l-1,5.6l2.8,0.5c0.9,0.2,1.9,0.3,2.8,0.4L160.5,366.1z"/>
		<path class="st2" d="M154.5,367.9c0.3-1.5,1.7-2.6,3.2-2.3c1.5,0.3,2.6,1.7,2.3,3.2c-0.2,1.5-1.7,2.7-3.3,2.4
			C155.2,371,154.2,369.5,154.5,367.9z"/>
	</g>
	<g>
		<polygon class="st1" points="150,364.2 144.6,363 143.2,368.5 148.8,369.8 		"/>
		<path class="st2" d="M143.9,365.7c0.4-1.5,1.9-2.5,3.4-2.1c1.5,0.3,2.5,1.9,2.1,3.4c-0.3,1.5-1.8,2.5-3.4,2.1
			C144.5,368.8,143.5,367.3,143.9,365.7z"/>
	</g>
	<g>
		<polygon class="st1" points="139.6,361.7 134.3,360.2 132.6,365.7 138.2,367.2 		"/>
		<path class="st2" d="M133.5,362.9c0.5-1.5,2-2.4,3.5-2c1.5,0.4,2.3,2,1.9,3.5c-0.4,1.5-2,2.4-3.5,2S133,364.4,133.5,362.9z"/>
	</g>
	<g>
		<path class="st1" d="M129.5,358.7c-1.8-0.6-3.5-1.2-5.3-1.8l-2,5.3c1.8,0.7,3.6,1.2,5.4,1.9L129.5,358.7z"/>
		<path class="st2" d="M123.2,359.5c0.5-1.5,2.2-2.2,3.6-1.8c1.5,0.5,2.2,2.1,1.7,3.6c-0.5,1.5-2.1,2.3-3.6,1.8
			C123.4,362.6,122.7,361,123.2,359.5z"/>
	</g>
	<g>
		<path class="st1" d="M119.5,355c-1.7-0.7-3.5-1.3-5.2-2.1l-2.3,5.2c1.7,0.8,3.5,1.5,5.3,2.2L119.5,355z"/>
		<path class="st2" d="M113.2,355.5c0.6-1.4,2.3-2.1,3.7-1.5c1.4,0.6,2.1,2.2,1.5,3.7c-0.6,1.5-2.3,2.2-3.7,1.6
			C113.2,358.6,112.6,356.9,113.2,355.5z"/>
	</g>
	<g>
		<path class="st1" d="M109.7,350.8c-1.7-0.7-3.3-1.6-5-2.5l-2.6,5.1c1.7,0.9,3.4,1.8,5.2,2.6L109.7,350.8z"/>
		<path class="st2" d="M103.4,350.8c0.7-1.4,2.4-2,3.8-1.3c1.4,0.7,2,2.3,1.3,3.8c-0.7,1.4-2.4,2.1-3.8,1.3
			C103.3,354,102.7,352.2,103.4,350.8z"/>
	</g>
	<g>
		<polygon class="st1" points="100.2,346 95.4,343.2 92.5,348.1 97.5,351 		"/>
		<path class="st2" d="M94,345.7c0.8-1.4,2.5-1.8,3.9-1.1c1.3,0.8,1.8,2.5,1.1,3.9c-0.7,1.4-2.5,1.9-3.9,1.1
			C93.6,348.7,93.2,347,94,345.7z"/>
	</g>
	<g>
		<polygon class="st1" points="91.1,340.6 86.4,337.6 83.2,342.3 88.1,345.4 		"/>
		<path class="st2" d="M84.8,339.9c0.9-1.3,2.6-1.7,3.9-0.9c1.3,0.8,1.7,2.6,0.8,3.9c-0.8,1.3-2.6,1.7-3.9,0.9
			C84.3,343,83.9,341.2,84.8,339.9z"/>
	</g>
	<g>
		<path class="st1" d="M82.2,334.7c-1.5-1.1-3.1-2.1-4.5-3.3l-3.4,4.5c1.5,1.2,3.1,2.2,4.7,3.4L82.2,334.7z"/>
		<path class="st2" d="M76,333.7c0.9-1.2,2.7-1.5,4-0.6c1.3,0.9,1.5,2.7,0.6,3.9c-0.9,1.3-2.7,1.6-4,0.6
			C75.3,336.7,75,334.9,76,333.7z"/>
	</g>
	<g>
		<polygon class="st1" points="73.7,328.3 71.5,326.6 69.4,324.7 65.7,329.1 67.9,330.9 70.2,332.7 		"/>
		<path class="st2" d="M67.6,326.9c1-1.2,2.8-1.3,4-0.3c1.2,1,1.4,2.7,0.4,3.9c-1,1.2-2.8,1.4-4,0.4
			C66.7,329.9,66.6,328.1,67.6,326.9z"/>
	</g>
	<g>
		<path class="st1" d="M65.6,321.4c-1.4-1.2-2.7-2.6-4.1-3.8l-3.9,4.1c1.4,1.3,2.8,2.7,4.2,3.9L65.6,321.4z"/>
		<path class="st2" d="M59.6,319.6c1.1-1.1,2.9-1.2,4-0.1c0.6,0.5,0.8,1.2,0.9,2c0,0.7-0.2,1.4-0.7,2c-0.5,0.6-1.2,0.9-2,0.9
			c-0.7,0-1.5-0.2-2-0.8C58.5,322.6,58.5,320.8,59.6,319.6z"/>
	</g>
	<g>
		<polygon class="st1" points="57.9,314.1 54.1,310 49.9,313.9 53.9,318.1 		"/>
		<path class="st2" d="M52,312c1.2-1.1,3-1,4,0.1s1,2.9-0.1,4c-1.1,1.1-2.9,1.1-4-0.1C50.8,314.8,50.8,313,52,312z"/>
	</g>
	<g>
		<polygon class="st1" points="50.7,306.3 47,302 42.6,305.7 46.4,310 		"/>
		<path class="st2" d="M44.8,303.9c1.2-1,3-0.9,4,0.3c1,1.2,0.9,2.9-0.3,4c-1.2,1-3,0.9-4-0.3C43.5,306.6,43.6,304.9,44.8,303.9z"/>
	</g>
	<g>
		<path class="st1" d="M43.9,298.1c-1.1-1.5-2.3-2.9-3.4-4.4l-4.6,3.4c1.1,1.6,2.3,3.1,3.5,4.6L43.9,298.1z"/>
		<path class="st2" d="M38.2,295.3c1.3-0.9,3-0.6,3.9,0.6c1,1.2,0.7,3-0.5,3.9c-1.2,1-3,0.7-4-0.5C36.7,298.1,37,296.2,38.2,295.3z"
			/>
	</g>
	<g>
		<path class="st1" d="M37.6,289.5c-1.1-1.5-2.1-3.1-3.1-4.7l-4.8,3.1c1.1,1.6,2,3.3,3.2,4.8L37.6,289.5z"/>
		<path class="st2" d="M32.1,286.4c1.3-0.8,3.1-0.5,3.9,0.8c0.8,1.3,0.5,3-0.8,3.9c-1.3,0.9-3.1,0.6-4-0.8
			C30.4,289,30.8,287.2,32.1,286.4z"/>
	</g>
	<g>
		<polygon class="st1" points="31.8,280.6 29,275.7 24.1,278.5 26.9,283.5 		"/>
		<path class="st2" d="M26.5,277.1c1.4-0.8,3.1-0.3,3.9,1c0.8,1.3,0.3,3.1-1,3.9c-1.3,0.8-3.1,0.4-3.9-1
			C24.7,279.7,25.2,277.9,26.5,277.1z"/>
	</g>
	<g>
		<polygon class="st1" points="26.6,271.3 24,266.3 18.9,268.8 21.6,274 		"/>
		<path class="st2" d="M21.5,267.6c1.4-0.7,3.1-0.1,3.8,1.2s0.1,3.1-1.2,3.8c-1.4,0.7-3.1,0.2-3.8-1.2
			C19.5,270,20.1,268.3,21.5,267.6z"/>
	</g>
	<g>
		<path class="st1" d="M21.9,261.8c-0.8-1.7-1.6-3.4-2.3-5.1l-5.2,2.2c0.7,1.8,1.6,3.5,2.3,5.3L21.9,261.8z"/>
		<path class="st2" d="M17,257.8c0.7-0.3,1.5-0.3,2.2,0c0.7,0.3,1.3,0.8,1.6,1.5c0.6,1.4,0,3.1-1.4,3.7c-1.4,0.7-3.1,0-3.8-1.4
			c-0.3-0.7-0.3-1.5-0.1-2.2C15.8,258.6,16.3,258.1,17,257.8z"/>
	</g>
	<g>
		<path class="st1" d="M17.8,252l-1-2.6c-0.3-0.9-0.6-1.8-0.9-2.6l-5.4,1.9c0.3,0.9,0.6,1.8,0.9,2.7l1.1,2.7L17.8,252z"/>
		<path class="st2" d="M13.2,247.7c1.5-0.5,3.1,0.3,3.6,1.7c0.6,1.4-0.2,3.1-1.6,3.6c-1.5,0.6-3.1-0.2-3.7-1.7
			C10.9,249.8,11.7,248.2,13.2,247.7z"/>
	</g>
	<g>
		<path class="st1" d="M14.2,241.9c-0.3-0.9-0.6-1.8-0.8-2.7l-0.8-2.7l-5.5,1.6l0.8,2.8c0.3,0.9,0.5,1.8,0.8,2.7L14.2,241.9z"/>
		<path class="st2" d="M9.9,237.4c1.5-0.4,3.1,0.4,3.5,1.9c0.4,1.5-0.4,3-1.9,3.5c-1.5,0.5-3.1-0.3-3.6-1.9
			C7.5,239.4,8.4,237.8,9.9,237.4z"/>
	</g>
	<g>
		<polygon class="st1" points="11.3,231.7 10,226.3 4.5,227.5 5.8,233.1 		"/>
		<path class="st2" d="M7.3,226.9c1.5-0.3,3.1,0.6,3.4,2.1c0.3,1.5-0.6,3-2.1,3.4c-1.5,0.4-3-0.5-3.4-2.1S5.7,227.2,7.3,226.9z"/>
	</g>
	<g>
		<polygon class="st1" points="9,221.3 8,215.8 2.4,216.7 3.4,222.4 		"/>
		<path class="st2" d="M5.2,216.3c1.5-0.2,3,0.8,3.3,2.3c0.3,1.5-0.8,3-2.3,3.3c-1.5,0.3-3-0.7-3.3-2.3C2.6,218,3.7,216.5,5.2,216.3
			z"/>
	</g>
	<g>
		<polygon class="st1" points="7.3,210.8 6.6,205.3 1,205.9 1.7,211.6 		"/>
		<path class="st2" d="M3.8,205.6c1.6-0.2,3,1,3.2,2.5c0.2,1.5-0.9,2.9-2.5,3.1c-1.6,0.2-3-0.9-3.2-2.5
			C1.1,207.1,2.2,205.7,3.8,205.6z"/>
	</g>
	<g>
		<path class="st1" d="M6.2,200.3c-0.1-1.9-0.3-3.7-0.3-5.6l-5.7,0.2c0,1.9,0.2,3.8,0.4,5.7L6.2,200.3z"/>
		<path class="st2" d="M3,194.8c1.6-0.1,2.8,1.1,3,2.7c0.1,1.5-1.1,2.9-2.6,3c-1.6,0.1-2.9-1.1-3.1-2.7C0.2,196.2,1.5,194.9,3,194.8
			z"/>
	</g>
	<g>
		<polygon class="st1" points="5.8,189.6 5.7,186.8 5.8,184 0.1,184 0,186.8 0.1,189.7 		"/>
		<path class="st2" d="M2.9,184c1.6,0,2.8,1.3,2.8,2.8c0,1.5-1.2,2.8-2.8,2.8c-1.6,0-2.9-1.2-2.9-2.8C0,185.2,1.3,184,2.9,184z"/>
	</g>
	<g>
		<path class="st1" d="M5.9,179c0-1.9,0.2-3.7,0.3-5.6L0.6,173c-0.1,1.9-0.4,3.8-0.4,5.7L5.9,179z"/>
		<path class="st2" d="M3.4,173.2c1.6,0.1,2.7,1.5,2.6,3c-0.1,1.5-1.4,2.7-3,2.7c-1.6-0.1-2.8-1.4-2.7-3
			C0.5,174.3,1.8,173.1,3.4,173.2z"/>
	</g>
	<g>
		<polygon class="st1" points="6.6,168.4 7.3,162.8 1.7,162.1 1,167.8 		"/>
		<path class="st2" d="M4.5,162.5c1.6,0.2,2.7,1.6,2.5,3.1c-0.2,1.5-1.6,2.6-3.2,2.5c-1.6-0.2-2.7-1.6-2.5-3.1
			C1.5,163.4,2.9,162.3,4.5,162.5z"/>
	</g>
	<g>
		<polygon class="st1" points="8,157.8 9,152.3 3.4,151.3 2.4,156.9 		"/>
		<path class="st2" d="M6.2,151.8c1.5,0.3,2.6,1.8,2.3,3.3c-0.3,1.5-1.7,2.5-3.3,2.3c-1.5-0.2-2.6-1.7-2.3-3.3S4.7,151.5,6.2,151.8z
			"/>
	</g>
	<g>
		<polygon class="st1" points="10,147.4 11.3,142 5.8,140.6 4.5,146.2 		"/>
		<path class="st2" d="M8.5,141.3c1.5,0.4,2.5,1.9,2.1,3.4c-0.3,1.5-1.9,2.4-3.4,2.1c-1.5-0.3-2.5-1.9-2.1-3.4
			C5.5,141.8,7,140.9,8.5,141.3z"/>
	</g>
	<g>
		<path class="st1" d="M12.7,137.1l0.8-2.7c0.2-0.9,0.5-1.8,0.8-2.7L8.8,130c-0.3,0.9-0.6,1.8-0.8,2.7l-0.8,2.8L12.7,137.1z"/>
		<path class="st2" d="M11.5,130.9c1.5,0.5,2.3,2,1.9,3.5c-0.4,1.5-2,2.3-3.5,1.9c-1.5-0.4-2.4-2-1.9-3.5
			C8.4,131.2,10,130.4,11.5,130.9z"/>
	</g>
	<g>
		<path class="st1" d="M15.9,126.9c0.3-0.9,0.6-1.8,0.9-2.6l1-2.6l-5.3-2l-1.1,2.7c-0.3,0.9-0.6,1.8-0.9,2.7L15.9,126.9z"/>
		<path class="st2" d="M15.1,120.7c1.5,0.6,2.2,2.2,1.6,3.6c-0.5,1.4-2.1,2.2-3.6,1.7c-1.5-0.5-2.3-2.2-1.7-3.7
			C12,120.9,13.7,120.1,15.1,120.7z"/>
	</g>
	<g>
		<path class="st1" d="M19.6,117c0.7-1.7,1.5-3.4,2.3-5.1l-5.2-2.4c-0.8,1.8-1.6,3.5-2.3,5.3L19.6,117z"/>
		<path class="st2" d="M19.3,110.7c1.4,0.7,2.1,2.3,1.4,3.7c-0.3,0.7-0.9,1.2-1.6,1.5c-0.7,0.3-1.4,0.3-2.2,0
			c-0.7-0.3-1.3-0.9-1.5-1.6c-0.3-0.7-0.3-1.5,0.1-2.2C16.2,110.7,17.9,110.1,19.3,110.7z"/>
	</g>
	<g>
		<polygon class="st1" points="24,107.3 26.6,102.4 21.6,99.7 18.9,104.8 		"/>
		<path class="st2" d="M24.1,101c1.4,0.7,1.9,2.4,1.2,3.8c-0.7,1.4-2.4,1.9-3.8,1.2c-1.4-0.7-2-2.4-1.2-3.8
			C21,100.8,22.7,100.3,24.1,101z"/>
	</g>
	<g>
		<polygon class="st1" points="29,97.9 31.8,93.1 26.9,90.1 24.1,95.1 		"/>
		<path class="st2" d="M29.4,91.6c1.3,0.8,1.8,2.6,1,3.9c-0.8,1.3-2.5,1.8-3.9,1c-1.4-0.8-1.8-2.5-1-3.9
			C26.3,91.3,28,90.8,29.4,91.6z"/>
	</g>
	<g>
		<path class="st1" d="M34.5,88.8c1-1.6,2-3.2,3.1-4.7l-4.7-3.2c-1.1,1.5-2.1,3.2-3.2,4.8L34.5,88.8z"/>
		<path class="st2" d="M35.3,82.6c1.3,0.9,1.6,2.6,0.8,3.9c-0.8,1.3-2.6,1.7-3.9,0.8c-1.3-0.8-1.7-2.6-0.8-4
			C32.1,82,34,81.7,35.3,82.6z"/>
	</g>
	<g>
		<path class="st1" d="M40.5,80.1c1-1.5,2.2-3,3.4-4.4l-4.5-3.5c-1.2,1.5-2.4,3-3.5,4.6L40.5,80.1z"/>
		<path class="st2" d="M41.7,73.9c1.2,1,1.5,2.7,0.5,3.9c-1,1.2-2.7,1.5-3.9,0.6c-1.3-0.9-1.6-2.7-0.6-4
			C38.6,73.1,40.4,72.9,41.7,73.9z"/>
	</g>
	<g>
		<polygon class="st1" points="47,71.6 50.7,67.4 46.4,63.7 42.6,68 		"/>
		<path class="st2" d="M48.5,65.5c1.2,1,1.3,2.8,0.3,4c-1,1.2-2.8,1.3-4,0.3c-1.2-1-1.4-2.8-0.3-4C45.6,64.6,47.4,64.5,48.5,65.5z"
			/>
	</g>
	<g>
		<polygon class="st1" points="54.1,63.6 57.9,59.6 53.9,55.6 49.9,59.8 		"/>
		<path class="st2" d="M55.9,57.6c1.1,1.1,1.2,2.9,0.1,4c-1.1,1.1-2.9,1.1-4,0.1c-1.2-1.1-1.2-2.9-0.1-4
			C53,56.5,54.8,56.5,55.9,57.6z"/>
	</g>
	<g>
		<path class="st1" d="M61.5,56.1c1.4-1.3,2.7-2.6,4.1-3.8L61.8,48c-1.4,1.3-2.8,2.6-4.2,3.9L61.5,56.1z"/>
		<path class="st2" d="M63.7,50.1c0.5,0.6,0.8,1.3,0.7,2c0,0.7-0.3,1.4-0.9,2c-1.1,1.1-2.9,1-4-0.1c-1.1-1.1-1-2.9,0.1-4
			c0.6-0.5,1.3-0.8,2-0.8C62.5,49.2,63.2,49.6,63.7,50.1z"/>
	</g>
	<g>
		<polygon class="st1" points="69.4,48.9 71.5,47.1 73.7,45.4 70.2,40.9 67.9,42.7 65.7,44.6 		"/>
		<path class="st2" d="M71.9,43.2c1,1.2,0.8,3-0.4,3.9c-1.2,1-2.9,0.9-4-0.3c-1-1.2-0.9-3,0.3-4C69.2,41.7,71,41.9,71.9,43.2z"/>
	</g>
	<g>
		<path class="st1" d="M77.7,42.3c1.5-1.2,3-2.2,4.5-3.3l-3.3-4.6c-1.6,1.1-3.2,2.2-4.7,3.4L77.7,42.3z"/>
		<path class="st2" d="M80.6,36.7c0.9,1.3,0.6,3-0.6,3.9c-1.3,0.9-3,0.6-4-0.6c-1-1.3-0.7-3.1,0.6-4C77.9,35.1,79.7,35.4,80.6,36.7z
			"/>
	</g>
	<g>
		<polygon class="st1" points="86.4,36.1 91.1,33.1 88.1,28.3 83.2,31.4 		"/>
		<path class="st2" d="M89.6,30.7c0.8,1.3,0.5,3.1-0.8,3.9c-1.3,0.8-3.1,0.4-3.9-0.9c-0.9-1.3-0.5-3.1,0.8-3.9
			C87,29,88.7,29.3,89.6,30.7z"/>
	</g>
	<g>
		<polygon class="st1" points="95.4,30.5 100.2,27.7 97.5,22.7 92.5,25.6 		"/>
		<path class="st2" d="M98.9,25.2c0.7,1.4,0.3,3.1-1.1,3.9c-1.3,0.8-3.1,0.3-3.9-1.1c-0.8-1.3-0.3-3.1,1.1-3.9
			C96.4,23.3,98.1,23.8,98.9,25.2z"/>
	</g>
	<g>
		<path class="st1" d="M104.7,25.4c1.7-0.8,3.3-1.7,5-2.5l-2.4-5.1c-1.8,0.8-3.4,1.7-5.2,2.6L104.7,25.4z"/>
		<path class="st2" d="M108.5,20.3c0.7,1.4,0,3-1.3,3.8c-1.4,0.7-3.1,0.1-3.8-1.3c-0.7-1.4-0.1-3.1,1.3-3.8
			C106.1,18.2,107.9,18.9,108.5,20.3z"/>
	</g>
	<g>
		<path class="st1" d="M114.3,20.8c1.7-0.8,3.4-1.5,5.2-2.1l-2.1-5.3c-1.8,0.7-3.6,1.4-5.3,2.2L114.3,20.8z"/>
		<path class="st2" d="M118.4,16c0.6,1.5-0.1,3.1-1.5,3.7c-1.4,0.6-3.1,0-3.7-1.5c-0.6-1.4,0-3.2,1.5-3.8
			C116.2,13.9,117.9,14.6,118.4,16z"/>
	</g>
	<g>
		<path class="st1" d="M124.2,16.8c1.7-0.6,3.5-1.2,5.3-1.8l-1.8-5.4c-1.8,0.6-3.6,1.2-5.4,1.9L124.2,16.8z"/>
		<path class="st2" d="M128.6,12.3c0.5,1.5-0.3,3.1-1.7,3.6c-1.5,0.5-3.1-0.3-3.6-1.8c-0.6-1.5,0.2-3.1,1.7-3.6
			C126.5,10,128.1,10.8,128.6,12.3z"/>
	</g>
	<g>
		<polygon class="st1" points="134.3,13.5 139.6,11.9 138.2,6.4 132.6,8 		"/>
		<path class="st2" d="M138.9,9.2c0.4,1.5-0.5,3.1-1.9,3.5c-1.5,0.4-3-0.5-3.5-2c-0.5-1.5,0.4-3.1,1.9-3.5S138.5,7.7,138.9,9.2z"/>
	</g>
	<g>
		<polygon class="st1" points="144.6,10.7 150,9.4 148.8,3.9 143.2,5.2 		"/>
		<path class="st2" d="M149.4,6.7c0.3,1.5-0.6,3.1-2.1,3.4s-3-0.6-3.4-2.1c-0.4-1.5,0.6-3.1,2.1-3.4C147.6,4.2,149.1,5.1,149.4,6.7z
			"/>
	</g>
	<g>
		<path class="st1" d="M155,8.5l2.7-0.5c0.9-0.2,1.8-0.3,2.8-0.4L159.6,2c-1,0.1-1.9,0.3-2.8,0.4L154,2.9L155,8.5z"/>
		<path class="st2" d="M160.1,4.8c0.2,1.6-0.8,2.9-2.3,3.2c-1.5,0.3-3-0.8-3.2-2.3c-0.3-1.5,0.8-3,2.3-3.3
			C158.4,2.1,159.8,3.3,160.1,4.8z"/>
	</g>
	<g>
		<polygon class="st1" points="165.5,7 168.3,6.6 171,6.4 170.5,0.7 167.7,1 164.8,1.3 		"/>
		<path class="st2" d="M170.8,3.6c0.1,1.6-1,2.9-2.5,3c-1.5,0.2-2.9-0.9-3.1-2.5c-0.2-1.6,0.9-3,2.5-3.2
			C169.3,0.8,170.7,2,170.8,3.6z"/>
	</g>
	<g>
		<polygon class="st1" points="176.1,6 177.5,5.9 178.9,5.9 181.7,5.8 181.5,0.1 178.6,0.2 177.2,0.2 175.7,0.4 		"/>
		<path class="st2" d="M181.6,3c0,1.6-1.2,2.9-2.7,2.9c-1.5,0-2.9-1.1-3-2.7c-0.1-1.6,1.1-3,2.7-3C180.2,0.2,181.5,1.4,181.6,3z"/>
	</g>
	<g>
		<polygon class="st1" points="186.7,5.7 192.3,5.8 192.5,0.1 186.7,0 		"/>
		<path class="st2" d="M192.4,3c-0.1,1.6-1.3,2.8-2.9,2.8c-1.5,0-2.8-1.4-2.8-2.9c0-1.6,1.3-2.8,2.9-2.8
			C191.2,0.1,192.4,1.4,192.4,3z"/>
	</g>
	<g>
		<polygon class="st1" points="197.3,6 202.9,6.4 203.4,0.8 197.7,0.3 		"/>
		<path class="st2" d="M203.2,3.6c-0.1,1.6-1.5,2.7-3,2.6s-2.7-1.5-2.6-3.1c0.1-1.6,1.4-2.7,3-2.6C202.1,0.7,203.3,2,203.2,3.6z"/>
	</g>
	<g>
		<polygon class="st1" points="207.9,6.9 213.5,7.6 214.3,2 208.6,1.3 		"/>
		<path class="st2" d="M213.9,4.8c-0.2,1.6-1.7,2.7-3.2,2.5c-1.5-0.2-2.6-1.6-2.4-3.2c0.2-1.6,1.6-2.7,3.2-2.5S214.1,3.3,213.9,4.8z
			"/>
	</g>
	<g>
		<path class="st1" d="M218.5,8.5c1.8,0.3,3.7,0.6,5.5,1l1.2-5.6c-1.9-0.4-3.8-0.7-5.7-1L218.5,8.5z"/>
		<path class="st2" d="M224.5,6.7c-0.3,1.5-1.8,2.5-3.3,2.3c-1.5-0.3-2.5-1.7-2.3-3.3c0.3-1.5,1.8-2.6,3.3-2.3
			C223.9,3.7,224.9,5.2,224.5,6.7z"/>
	</g>
	<g>
		<path class="st1" d="M228.9,10.6c1.8,0.4,3.6,0.8,5.4,1.4l1.5-5.5c-1.8-0.6-3.7-1-5.6-1.4L228.9,10.6z"/>
		<path class="st2" d="M235,9.3c-0.4,1.5-1.9,2.4-3.4,2c-1.5-0.3-2.4-1.9-2.1-3.4c0.4-1.5,1.9-2.5,3.5-2.1
			C234.5,6.1,235.4,7.8,235,9.3z"/>
	</g>
	<g>
		<path class="st1" d="M239.1,13.4c1.8,0.5,3.5,1.1,5.3,1.7l1.8-5.4c-1.8-0.6-3.6-1.3-5.5-1.8L239.1,13.4z"/>
		<path class="st2" d="M245.4,12.4c-0.5,1.5-2.1,2.3-3.5,1.8c-1.4-0.5-2.3-2-1.8-3.5c0.4-1.5,2.1-2.4,3.6-1.9
			C245.1,9.3,245.9,10.9,245.4,12.4z"/>
	</g>
	<g>
		<polygon class="st1" points="249.2,16.7 254.4,18.8 256.6,13.5 251.2,11.4 		"/>
		<path class="st2" d="M255.5,16.1c-0.6,1.5-2.2,2.2-3.7,1.6c-1.4-0.6-2.2-2.2-1.6-3.7c0.5-1.5,2.2-2.2,3.7-1.6
			C255.4,13,256.1,14.7,255.5,16.1z"/>
	</g>
	<g>
		<polygon class="st1" points="259.1,20.7 264.2,23 266.6,17.9 261.4,15.5 		"/>
		<path class="st2" d="M265.4,20.4c-0.7,1.4-2.4,2.1-3.8,1.4c-1.4-0.6-2-2.3-1.4-3.8c0.6-1.4,2.3-2.1,3.8-1.4
			C265.5,17.3,266.1,19,265.4,20.4z"/>
	</g>
	<g>
		<path class="st1" d="M268.7,25.3c1.7,0.9,3.3,1.7,5,2.6l2.7-5c-1.7-0.9-3.4-1.8-5.1-2.6L268.7,25.3z"/>
		<path class="st2" d="M275,25.3c-0.7,1.4-2.5,1.9-3.8,1.2c-1.4-0.7-1.9-2.4-1.2-3.8c0.7-1.4,2.4-1.9,3.8-1.2
			C275.3,22.2,275.8,23.9,275,25.3z"/>
	</g>
	<g>
		<path class="st1" d="M278.1,30.3l2.4,1.4c0.8,0.5,1.6,1,2.4,1.5l3-4.8c-0.8-0.5-1.6-1-2.4-1.5l-2.5-1.4L278.1,30.3z"/>
		<path class="st2" d="M284.3,30.8c-0.8,1.3-2.6,1.7-3.9,0.9c-1.3-0.8-1.8-2.5-1-3.8c0.8-1.4,2.5-1.8,3.9-1
			C284.8,27.7,285.2,29.5,284.3,30.8z"/>
	</g>
	<g>
		<path class="st1" d="M287.1,36c1.6,1,3.1,2.1,4.6,3.2l3.3-4.6c-1.6-1.1-3.1-2.3-4.7-3.3L287.1,36z"/>
		<path class="st2" d="M293.3,36.8c-0.9,1.3-2.7,1.6-3.9,0.7c-1.2-0.9-1.6-2.6-0.7-3.9c0.9-1.3,2.7-1.7,4-0.7
			C293.9,33.8,294.2,35.6,293.3,36.8z"/>
	</g>
	<g>
		<polygon class="st1" points="295.8,42.1 300.2,45.5 303.7,41.1 299.2,37.6 		"/>
		<path class="st2" d="M301.9,43.3c-1,1.2-2.8,1.4-4,0.5c-1.2-0.9-1.4-2.7-0.5-4c0.9-1.3,2.7-1.5,4-0.5
			C302.7,40.3,302.9,42.1,301.9,43.3z"/>
	</g>
	<g>
		<polygon class="st1" points="304.1,48.8 308.3,52.4 312.1,48.2 307.7,44.4 		"/>
		<path class="st2" d="M310.2,50.3c-1.1,1.2-2.9,1.3-4,0.3c-1.2-1-1.3-2.8-0.3-4c1-1.2,2.8-1.3,4-0.3
			C311.1,47.4,311.2,49.2,310.2,50.3z"/>
	</g>
	<g>
		<path class="st1" d="M312,55.9c1.3,1.3,2.7,2.5,4,3.9l4.1-4c-1.3-1.4-2.7-2.7-4.1-4L312,55.9z"/>
		<path class="st2" d="M318,57.8c-1.1,1.1-2.9,1.1-4,0c-1.1-1.1-1.1-2.8-0.1-4c1.1-1.1,2.9-1.2,4-0.1
			C319.1,54.9,319.1,56.7,318,57.8z"/>
	</g>
	<g>
		<path class="st1" d="M319.4,63.5c1.3,1.3,2.5,2.7,3.7,4.2l4.3-3.7c-1.3-1.5-2.5-2.9-3.8-4.3L319.4,63.5z"/>
		<path class="st2" d="M325.3,65.7c-1.2,1-3,0.9-4-0.2c-1-1.2-1-2.9,0.2-4c1.1-1.1,3-1,4,0.2C326.6,62.9,326.5,64.7,325.3,65.7z"/>
	</g>
	<g>
		<polygon class="st1" points="326.5,71.4 329.9,75.8 334.4,72.3 330.9,67.8 		"/>
		<path class="st2" d="M332.2,74.1c-1.2,1-3,0.8-4-0.5c-1-1.2-0.7-3,0.5-4c1.2-1,3-0.8,4,0.4C333.6,71.3,333.4,73.1,332.2,74.1z"/>
	</g>
	<g>
		<polygon class="st1" points="333,79.8 336.2,84.4 340.9,81.2 337.6,76.5 		"/>
		<path class="st2" d="M338.6,82.8c-1.3,0.9-3.1,0.6-4-0.7c-0.9-1.3-0.6-3,0.7-4c1.3-0.9,3-0.6,4,0.7
			C340.2,80.1,339.9,81.9,338.6,82.8z"/>
	</g>
	<g>
		<path class="st1" d="M339,88.6c1,1.6,2,3.1,3,4.7l4.9-2.9c-1-1.6-2.1-3.2-3.1-4.9L339,88.6z"/>
		<path class="st2" d="M344.4,91.8c-1.3,0.8-3.1,0.4-3.9-0.9c-0.8-1.3-0.4-3,0.9-3.9c1.3-0.9,3.1-0.5,3.9,0.9
			C346.2,89.3,345.8,91,344.4,91.8z"/>
	</g>
	<g>
		<path class="st1" d="M344.5,97.7l1.4,2.4c0.5,0.8,0.9,1.7,1.3,2.5l5-2.6c-0.4-0.8-0.9-1.7-1.3-2.6l-1.4-2.5L344.5,97.7z"/>
		<path class="st2" d="M349.7,101.3c-1.4,0.7-3.1,0.2-3.8-1.2c-0.8-1.3-0.3-3,1.1-3.8c1.4-0.8,3.1-0.3,3.9,1.1
			C351.7,98.8,351.1,100.5,349.7,101.3z"/>
	</g>
	<g>
		<polygon class="st1" points="349.5,107.1 350.2,108.3 350.7,109.6 351.9,112.2 357.1,109.8 355.9,107.2 355.3,105.9 354.6,104.6 
					"/>
		<path class="st2" d="M354.5,111c-1.4,0.6-3.1,0-3.7-1.4c-0.6-1.4-0.1-3.1,1.3-3.8c1.4-0.7,3.2-0.1,3.8,1.3
			C356.5,108.6,355.9,110.3,354.5,111z"/>
	</g>
	<g>
		<polygon class="st1" points="353.9,116.8 356,122 361.3,119.9 359.2,114.6 		"/>
		<path class="st2" d="M358.6,120.9c-1.5,0.6-3.1-0.1-3.7-1.6c-0.6-1.4,0.2-3.1,1.6-3.7c1.4-0.6,3.1,0.1,3.7,1.6
			C360.8,118.7,360.1,120.4,358.6,120.9z"/>
	</g>
	<g>
		<polygon class="st1" points="357.7,126.7 359.5,132 364.9,130.3 363.1,124.8 		"/>
		<path class="st2" d="M362.2,131.1c-1.5,0.5-3.1-0.3-3.6-1.8c-0.5-1.5,0.3-3.1,1.8-3.6c1.5-0.5,3.1,0.3,3.6,1.8
			C364.5,129,363.7,130.7,362.2,131.1z"/>
	</g>
	<g>
		<path class="st1" d="M361,136.8c0.5,1.8,1,3.6,1.5,5.4l5.5-1.4c-0.5-1.9-1-3.7-1.5-5.5L361,136.8z"/>
		<path class="st2" d="M365.2,141.5c-1.5,0.4-3.1-0.5-3.5-2c-0.4-1.5,0.5-3,2-3.5c1.5-0.4,3.1,0.5,3.5,2
			C367.7,139.6,366.7,141.1,365.2,141.5z"/>
	</g>
	<g>
		<path class="st1" d="M363.6,147.1l0.6,2.7c0.2,0.9,0.3,1.8,0.5,2.7l5.6-1.1c-0.2-0.9-0.3-1.9-0.5-2.8l-0.6-2.8L363.6,147.1z"/>
		<path class="st2" d="M367.5,152.1c-1.6,0.3-3-0.7-3.3-2.2c-0.3-1.5,0.6-3,2.1-3.3c1.5-0.3,3.1,0.6,3.4,2.2
			C370.1,150.3,369,151.8,367.5,152.1z"/>
	</g>
	<g>
		<path class="st1" d="M365.6,157.6c0.4,1.8,0.5,3.7,0.8,5.5l5.6-0.7c-0.3-1.9-0.4-3.8-0.8-5.7L365.6,157.6z"/>
		<path class="st2" d="M369.2,162.7c-1.6,0.2-3-0.9-3.2-2.4c-0.2-1.5,0.8-3,2.4-3.2c1.5-0.3,3.1,0.8,3.3,2.4
			C371.9,161.1,370.8,162.5,369.2,162.7z"/>
	</g>
	<g>
		<polygon class="st1" points="367,168.1 367.5,173.7 373.1,173.3 372.7,167.5 		"/>
		<path class="st2" d="M370.3,173.5c-1.6,0.1-2.9-1-3-2.6c-0.1-1.5,1.1-2.9,2.6-3.1c1.6-0.2,2.9,1,3.1,2.6
			C373,172,371.9,173.4,370.3,173.5z"/>
	</g>
	<g>
		<polygon class="st1" points="367.8,178.7 367.9,184.3 373.6,184.2 373.5,178.5 		"/>
		<path class="st2" d="M370.8,184.3c-1.6,0-2.9-1.2-2.9-2.8s1.2-2.8,2.8-2.9c1.6-0.1,2.9,1.2,2.9,2.8
			C373.6,182.9,372.3,184.3,370.8,184.3z"/>
	</g>
</g>
</svg>
