<?xml version="1.0" encoding="utf-8"?>
<!-- Generator: Adobe Illustrator 21.0.0, SVG Export Plug-In . SVG Version: 6.00 Build 0)  -->
<svg version="1.1" id="Calque_1" xmlns="http://www.w3.org/2000/svg" xmlns:xlink="http://www.w3.org/1999/xlink" x="0px" y="0px"
	 viewBox="0 0 133.6 133.7" style="enable-background:new 0 0 133.6 133.7;" xml:space="preserve">
<style type="text/css">
	.st0{opacity:0.2;}
	.st1{fill:none;}
	.st2{fill-rule:evenodd;clip-rule:evenodd;fill:#EFEFEF;}
</style>
<g class="st0">
	<g>
		<path class="st1" d="M127.9,69.3c0,0.9-0.1,1.8-0.2,2.7c0,0.9-0.2,1.8-0.3,2.7l5.6,0.7c0.1-1,0.3-2,0.3-3c0.1-1,0.2-2,0.2-3
			L127.9,69.3z"/>
		<path class="st2" d="M130.3,75.1c-1.6-0.2-2.6-1.6-2.5-3.1c0.1-0.7,0.4-1.4,1-1.9c0.5-0.5,1.2-0.8,2-0.7c0.8,0,1.5,0.4,2,0.9
			c0.5,0.6,0.7,1.3,0.7,2.1C133.3,74.2,131.8,75.3,130.3,75.1z"/>
	</g>
	<g>
		<polygon class="st1" points="126.7,79.6 126,82.3 125.3,84.9 130.7,86.5 131.5,83.7 132.2,80.8 		"/>
		<path class="st2" d="M128,85.7c-1.5-0.5-2.4-2-2-3.5c0.3-1.5,1.9-2.4,3.4-2.1c1.5,0.3,2.5,1.9,2.1,3.5
			C131.1,85.3,129.5,86.2,128,85.7z"/>
	</g>
	<g>
		<path class="st1" d="M123.6,89.5c-0.3,0.9-0.7,1.7-1.1,2.5c-0.4,0.8-0.7,1.7-1.2,2.5l5.1,2.6c0.5-0.9,0.9-1.8,1.3-2.7
			c0.4-0.9,0.8-1.8,1.2-2.7L123.6,89.5z"/>
		<path class="st2" d="M123.9,95.8c-1.4-0.7-1.9-2.4-1.4-3.7c0.6-1.3,2.2-2,3.7-1.4c1.5,0.6,2.2,2.3,1.5,3.8
			C127.1,95.9,125.3,96.5,123.9,95.8z"/>
	</g>
	<g>
		<polygon class="st1" points="119,98.8 117.5,101.1 115.9,103.3 120.5,106.7 122.2,104.3 123.8,101.8 		"/>
		<path class="st2" d="M118.2,105c-1.3-0.9-1.6-2.7-0.7-3.9c0.8-1.3,2.6-1.6,3.9-0.8c1.3,0.8,1.7,2.6,0.8,4
			C121.3,105.6,119.5,105.9,118.2,105z"/>
	</g>
	<g>
		<path class="st1" d="M112.8,107.1c-0.6,0.7-1.2,1.4-1.8,2c-0.6,0.7-1.3,1.3-1.9,1.9l3.9,4.1c0.7-0.7,1.4-1.4,2.1-2.1
			c0.7-0.7,1.4-1.4,2-2.2L112.8,107.1z"/>
		<path class="st2" d="M111,113.1c-1.1-1.2-1-2.9,0-4c1-1.1,2.8-1.2,4-0.1c1.2,1,1.3,2.9,0.1,4.1C114,114.3,112.1,114.3,111,113.1z"
			/>
	</g>
	<g>
		<path class="st1" d="M105.4,114.3c-0.7,0.6-1.4,1.1-2.2,1.7l-2.2,1.6l3.2,4.7l2.4-1.7c0.8-0.6,1.6-1.2,2.4-1.8L105.4,114.3z"/>
		<path class="st2" d="M102.6,119.9c-0.9-1.3-0.6-3.1,0.6-3.9c1.2-0.9,2.9-0.7,3.9,0.5c1,1.2,0.8,3-0.6,4
			C105.2,121.5,103.4,121.3,102.6,119.9z"/>
	</g>
	<g>
		<path class="st1" d="M96.8,120.2c-0.8,0.5-1.6,0.9-2.4,1.3c-0.8,0.4-1.6,0.8-2.5,1.2l2.3,5.2c0.9-0.4,1.8-0.8,2.7-1.3
			c0.9-0.5,1.8-0.9,2.6-1.4L96.8,120.2z"/>
		<path class="st2" d="M93.1,125.2c-0.6-1.5,0-3.1,1.3-3.8c0.7-0.3,1.4-0.4,2.1-0.1c0.7,0.2,1.3,0.7,1.7,1.3
			c0.4,0.7,0.5,1.5,0.2,2.2c-0.2,0.7-0.7,1.3-1.5,1.7C95.5,127.3,93.7,126.6,93.1,125.2z"/>
	</g>
	<g>
		<path class="st1" d="M87.3,124.5c-0.9,0.3-1.7,0.6-2.6,0.9l-2.6,0.7l1.4,5.5l2.9-0.8c0.9-0.3,1.9-0.6,2.8-0.9L87.3,124.5z"/>
		<path class="st2" d="M82.8,128.8c-0.4-1.5,0.5-3.1,1.9-3.5c1.4-0.5,3,0.3,3.5,1.8c0.5,1.5-0.3,3.1-1.9,3.6
			C84.8,131.2,83.2,130.3,82.8,128.8z"/>
	</g>
	<g>
		<path class="st1" d="M77.3,127.1c-0.9,0.2-1.8,0.3-2.7,0.4c-0.9,0.1-1.8,0.2-2.7,0.3l0.5,5.7c1-0.1,2-0.2,3-0.3
			c1-0.1,2-0.2,2.9-0.4L77.3,127.1z"/>
		<path class="st2" d="M72.1,130.6c-0.1-1.6,1-2.9,2.5-3.1c1.5-0.2,2.9,0.9,3.2,2.4c0.3,1.5-0.8,3.1-2.5,3.2
			C73.7,133.4,72.2,132.2,72.1,130.6z"/>
	</g>
	<g>
		<path class="st1" d="M67,128c-1.8,0-3.6-0.1-5.4-0.2l-0.5,5.7c2,0.2,4,0.2,5.9,0.3L67,128z"/>
		<path class="st2" d="M61.3,130.6c0.1-1.6,1.5-2.7,3-2.7c1.5,0,2.7,1.4,2.7,2.9c0,1.6-1.3,2.8-3,2.8
			C62.4,133.5,61.1,132.1,61.3,130.6z"/>
	</g>
	<g>
		<path class="st1" d="M56.6,127.1c-1.8-0.3-3.6-0.7-5.3-1.1l-1.4,5.5c1.9,0.5,3.9,0.9,5.8,1.2L56.6,127.1z"/>
		<path class="st2" d="M50.6,128.7c0.4-1.5,1.9-2.5,3.4-2.1c1.5,0.3,2.5,1.7,2.2,3.3c-0.2,1.5-1.8,2.6-3.4,2.2
			C51.1,131.8,50.2,130.3,50.6,128.7z"/>
	</g>
	<g>
		<path class="st1" d="M46.6,124.5c-0.9-0.3-1.7-0.6-2.5-1c-0.9-0.3-1.7-0.7-2.5-1.1l-2.4,5.2c0.9,0.4,1.8,0.8,2.7,1.2
			c0.9,0.4,1.8,0.8,2.8,1.1L46.6,124.5z"/>
		<path class="st2" d="M40.4,125.1c0.7-1.4,2.3-2,3.7-1.5c0.7,0.3,1.2,0.8,1.5,1.5c0.3,0.6,0.4,1.4,0.1,2.2
			c-0.3,0.7-0.8,1.3-1.5,1.6c-0.7,0.3-1.5,0.3-2.2,0C40.4,128.3,39.7,126.5,40.4,125.1z"/>
	</g>
	<g>
		<path class="st1" d="M37.1,120.3c-0.8-0.5-1.6-0.9-2.4-1.4l-2.3-1.5l-3.2,4.7c0.8,0.6,1.7,1.1,2.5,1.6c0.8,0.5,1.7,1,2.6,1.5
			L37.1,120.3z"/>
		<path class="st2" d="M30.9,119.8c0.9-1.3,2.6-1.7,3.9-0.9c1.3,0.8,1.7,2.5,1,3.9c-0.7,1.4-2.5,1.8-4,1
			C30.4,122.9,30,121.1,30.9,119.8z"/>
	</g>
	<g>
		<path class="st1" d="M28.5,114.5c-1.4-1.1-2.8-2.3-4.1-3.6l-3.9,4.1c1.4,1.4,2.9,2.7,4.5,3.9L28.5,114.5z"/>
		<path class="st2" d="M22.5,112.9c1.1-1.1,2.8-1.2,4-0.2c0.6,0.5,0.9,1.2,0.9,1.9c0.1,0.7-0.1,1.5-0.6,2.1c-0.5,0.6-1.2,1-1.9,1
			c-0.7,0-1.5-0.2-2.1-0.7C21.4,115.9,21.4,114,22.5,112.9z"/>
	</g>
	<g>
		<path class="st1" d="M21,107.3c-1.2-1.4-2.3-2.8-3.4-4.2l-4.6,3.4c1.2,1.6,2.4,3.1,3.7,4.6L21,107.3z"/>
		<path class="st2" d="M15.3,104.8c1.3-0.9,3-0.7,4,0.5c0.9,1.2,0.8,2.9-0.4,4c-1.2,1-3,0.9-4.1-0.4C13.8,107.5,14,105.7,15.3,104.8
			z"/>
	</g>
	<g>
		<path class="st1" d="M14.8,99c-0.9-1.5-1.9-3.1-2.7-4.8l-5.1,2.6C8,98.6,9,100.3,10,102L14.8,99z"/>
		<path class="st2" d="M9.6,95.5c1.4-0.7,3.1-0.2,3.8,1.1c0.7,1.3,0.3,3-1,3.8c-1.3,0.8-3.1,0.4-3.9-1.1C7.7,98,8.2,96.2,9.6,95.5z"
			/>
	</g>
	<g>
		<path class="st1" d="M10.1,89.8c-0.7-1.7-1.3-3.4-1.8-5.1l-5.4,1.7c0.6,1.9,1.2,3.8,2,5.6L10.1,89.8z"/>
		<path class="st2" d="M5.6,85.5c1.5-0.4,3.1,0.3,3.6,1.8c0.5,1.4-0.2,3-1.7,3.6c-1.4,0.6-3.2-0.2-3.7-1.7
			C3.3,87.5,4.1,85.9,5.6,85.5z"/>
	</g>
	<g>
		<path class="st1" d="M7.1,79.9c-0.4-1.8-0.7-3.6-0.9-5.4l-5.6,0.7c0.2,2,0.6,3.9,1,5.9L7.1,79.9z"/>
		<path class="st2" d="M3.4,74.8c1.6-0.2,2.9,0.9,3.2,2.3c0.1,0.7-0.1,1.5-0.5,2.1c-0.4,0.6-1,1-1.8,1.2c-0.8,0.2-1.5,0-2.2-0.4
			c-0.6-0.4-1-1.1-1.2-1.9C0.6,76.5,1.8,75,3.4,74.8z"/>
	</g>
	<g>
		<polygon class="st1" points="5.8,69.6 5.7,66.8 5.8,64.1 0.1,63.9 0,66.8 0.1,69.8 		"/>
		<path class="st2" d="M2.9,64c1.6,0.1,2.8,1.4,2.8,2.9c0,1.5-1.2,2.8-2.8,2.9C1.3,69.8,0,68.5,0,66.8C0,65.2,1.3,63.9,2.9,64z"/>
	</g>
	<g>
		<path class="st1" d="M6.2,59.2c0.2-1.8,0.5-3.6,0.9-5.4l-5.6-1.2c-0.4,1.9-0.8,3.9-1,5.9L6.2,59.2z"/>
		<path class="st2" d="M4.3,53.2c0.8,0.2,1.4,0.6,1.8,1.2c0.4,0.6,0.6,1.3,0.5,2.1C6.3,58,4.9,59,3.4,58.8c-1.5-0.2-2.7-1.7-2.4-3.3
			c0.1-0.8,0.6-1.5,1.2-1.9C2.8,53.2,3.5,53.1,4.3,53.2z"/>
	</g>
	<g>
		<path class="st1" d="M8.3,49c0.5-1.7,1.1-3.5,1.8-5.1l-5.3-2.1c-0.8,1.8-1.4,3.7-2,5.6L8.3,49z"/>
		<path class="st2" d="M7.5,42.9c1.5,0.6,2.2,2.2,1.7,3.6c-0.5,1.4-2.1,2.2-3.6,1.8c-1.5-0.4-2.3-2.1-1.8-3.7
			C4.4,43,6.1,42.3,7.5,42.9z"/>
	</g>
	<g>
		<path class="st1" d="M12.2,39.4c0.8-1.6,1.7-3.2,2.7-4.8l-4.8-3c-1,1.7-2,3.4-2.9,5.2L12.2,39.4z"/>
		<path class="st2" d="M12.4,33.2c1.3,0.8,1.8,2.5,1,3.8c-0.7,1.3-2.4,1.8-3.8,1.1c-1.4-0.7-2-2.5-1.1-3.9
			C9.3,32.8,11.1,32.3,12.4,33.2z"/>
	</g>
	<g>
		<path class="st1" d="M17.6,30.6c1.1-1.5,2.2-2.9,3.4-4.2l-4.3-3.8c-1.3,1.5-2.6,3-3.7,4.6L17.6,30.6z"/>
		<path class="st2" d="M18.9,24.5c1.2,1.1,1.3,2.8,0.4,4c-0.9,1.2-2.7,1.4-4,0.5c-1.3-0.9-1.5-2.7-0.5-4
			C15.9,23.6,17.7,23.4,18.9,24.5z"/>
	</g>
	<g>
		<path class="st1" d="M24.4,22.8c1.3-1.3,2.7-2.5,4.1-3.6L25,14.8c-1.5,1.2-3,2.5-4.5,3.9L24.4,22.8z"/>
		<path class="st2" d="M26.7,17c0.5,0.6,0.7,1.4,0.6,2.1c-0.1,0.7-0.4,1.4-0.9,1.9c-1.1,1-2.9,0.9-4-0.2c-1.1-1.1-1-3,0.2-4.1
			c0.6-0.5,1.4-0.8,2.1-0.7C25.6,16,26.3,16.4,26.7,17z"/>
	</g>
	<g>
		<path class="st1" d="M32.5,16.2l2.3-1.5c0.8-0.5,1.6-0.9,2.4-1.4l-2.8-5c-0.9,0.5-1.7,1-2.6,1.5c-0.8,0.5-1.7,1.1-2.5,1.6
			L32.5,16.2z"/>
		<path class="st2" d="M35.7,10.9c0.8,1.4,0.3,3.1-1,3.9c-1.3,0.8-3,0.4-3.9-0.9c-0.9-1.3-0.5-3.1,0.9-4C33.2,9.1,35,9.5,35.7,10.9z
			"/>
	</g>
	<g>
		<path class="st1" d="M41.5,11.2c0.8-0.4,1.7-0.8,2.5-1.1c0.8-0.3,1.7-0.7,2.5-1l-1.9-5.4c-0.9,0.3-1.9,0.7-2.8,1.1
			C41,5.2,40.1,5.6,39.2,6L41.5,11.2z"/>
		<path class="st2" d="M45.6,6.4c0.3,0.7,0.2,1.5-0.1,2.2c-0.3,0.7-0.8,1.2-1.5,1.5c-1.4,0.5-3-0.1-3.7-1.5c-0.7-1.4,0-3.2,1.6-3.8
			c0.8-0.3,1.6-0.3,2.2,0C44.8,5.1,45.4,5.7,45.6,6.4z"/>
	</g>
	<g>
		<path class="st1" d="M51.3,7.7c1.8-0.4,3.5-0.8,5.3-1.1l-0.9-5.6c-2,0.3-3.9,0.8-5.8,1.2L51.3,7.7z"/>
		<path class="st2" d="M56.2,3.7c0.3,1.6-0.7,3-2.2,3.3c-1.5,0.3-3-0.6-3.4-2.1c-0.4-1.5,0.6-3.1,2.2-3.4
			C54.4,1.1,55.9,2.2,56.2,3.7z"/>
	</g>
	<g>
		<path class="st1" d="M61.5,5.9c1.8-0.2,3.6-0.2,5.4-0.2L67,0c-2,0-4,0.1-5.9,0.3L61.5,5.9z"/>
		<path class="st2" d="M67,2.8c0,1.6-1.2,2.9-2.7,2.9c-1.5,0.1-2.8-1.1-3-2.7c-0.1-1.5,1.1-3,2.7-3C65.7,0,67,1.3,67,2.8z"/>
	</g>
	<g>
		<path class="st1" d="M71.9,5.9c0.9,0.1,1.8,0.2,2.7,0.3c0.9,0.1,1.8,0.2,2.7,0.4l1-5.6c-1-0.2-2-0.3-2.9-0.4c-1-0.1-2-0.3-3-0.3
			L71.9,5.9z"/>
		<path class="st2" d="M77.8,3.8c-0.3,1.5-1.7,2.6-3.2,2.4C73.1,6,72,4.6,72.1,3.1c0.1-1.6,1.6-2.8,3.2-2.5
			C77,0.7,78.1,2.2,77.8,3.8z"/>
	</g>
	<g>
		<path class="st1" d="M82.1,7.6l2.6,0.7c0.9,0.3,1.7,0.6,2.6,0.9l1.9-5.4c-0.9-0.3-1.9-0.7-2.8-0.9l-2.9-0.8L82.1,7.6z"/>
		<path class="st2" d="M88.3,6.5c-0.5,1.5-2.1,2.3-3.5,1.8c-1.4-0.4-2.3-2-1.9-3.5c0.4-1.5,2-2.4,3.6-1.9C88,3.4,88.8,5.1,88.3,6.5z
			"/>
	</g>
	<g>
		<path class="st1" d="M91.9,11.1c0.8,0.4,1.7,0.7,2.5,1.2c0.8,0.4,1.6,0.8,2.4,1.3l2.8-5c-0.9-0.5-1.7-0.9-2.6-1.4
			c-0.9-0.5-1.8-0.9-2.7-1.3L91.9,11.1z"/>
		<path class="st2" d="M98.2,11c-0.4,0.7-1,1.1-1.7,1.3c-0.7,0.2-1.4,0.2-2.1-0.2c-1.3-0.7-1.9-2.3-1.3-3.8c0.6-1.4,2.4-2.1,3.9-1.3
			c0.7,0.4,1.3,1,1.5,1.7C98.6,9.6,98.6,10.4,98.2,11z"/>
	</g>
	<g>
		<path class="st1" d="M101,16.1l2.2,1.6c0.7,0.5,1.4,1.1,2.2,1.7l3.6-4.4c-0.8-0.6-1.6-1.2-2.4-1.8l-2.4-1.7L101,16.1z"/>
		<path class="st2" d="M107.1,17.1c-1,1.2-2.8,1.4-3.9,0.5c-1.2-0.9-1.5-2.6-0.6-3.9c0.9-1.3,2.7-1.6,4-0.6
			C107.9,14.1,108.1,15.9,107.1,17.1z"/>
	</g>
	<g>
		<path class="st1" d="M109.1,22.6c0.7,0.6,1.3,1.3,1.9,1.9c0.6,0.7,1.3,1.3,1.8,2l4.3-3.7c-0.6-0.8-1.3-1.5-2-2.2
			c-0.7-0.7-1.4-1.4-2.1-2.1L109.1,22.6z"/>
		<path class="st2" d="M115,24.7c-1.2,1-2.9,0.9-4-0.1c-1-1.1-1-2.8,0-4c1.1-1.1,2.9-1.2,4.1,0C116.2,21.8,116.1,23.6,115,24.7z"/>
	</g>
	<g>
		<polygon class="st1" points="115.9,30.4 117.5,32.6 119,34.9 123.8,31.9 122.2,29.4 120.5,27 		"/>
		<path class="st2" d="M121.4,33.4c-1.3,0.8-3.1,0.4-3.9-0.8c-0.9-1.2-0.5-3,0.7-3.9c1.2-0.9,3-0.6,4,0.7
			C123.1,30.8,122.8,32.6,121.4,33.4z"/>
	</g>
	<g>
		<path class="st1" d="M121.4,39.2c0.4,0.8,0.8,1.6,1.2,2.5c0.4,0.8,0.8,1.7,1.1,2.5l5.3-2.1c-0.3-0.9-0.8-1.8-1.2-2.7
			c-0.4-0.9-0.8-1.8-1.3-2.7L121.4,39.2z"/>
		<path class="st2" d="M126.3,43.1c-1.5,0.6-3.1-0.1-3.7-1.4c-0.6-1.4,0-3,1.4-3.7c1.4-0.7,3.2-0.1,3.8,1.4
			C128.5,40.8,127.7,42.5,126.3,43.1z"/>
	</g>
	<g>
		<polygon class="st1" points="125.3,48.8 126,51.4 126.7,54.1 132.2,52.9 131.5,50 130.7,47.1 		"/>
		<path class="st2" d="M129.4,53.5c-1.5,0.3-3.1-0.6-3.4-2.1c-0.4-1.4,0.5-3,2-3.5c1.5-0.5,3.1,0.4,3.5,2
			C131.9,51.6,131,53.2,129.4,53.5z"/>
	</g>
	<g>
		<path class="st1" d="M127.5,58.9c0.1,0.9,0.2,1.8,0.3,2.7c0.1,0.9,0.2,1.8,0.2,2.7l5.7-0.2c0-1-0.1-2-0.2-3c-0.1-1-0.2-2-0.3-3
			L127.5,58.9z"/>
		<path class="st2" d="M130.8,64.3c-0.8,0-1.5-0.3-2-0.7c-0.6-0.5-0.9-1.1-1-1.9c-0.1-1.5,1-2.9,2.5-3.1c1.5-0.2,3,0.9,3.1,2.6
			c0.1,0.8-0.2,1.6-0.7,2.1C132.3,63.9,131.6,64.2,130.8,64.3z"/>
	</g>
</g>
</svg>
