<?xml version="1.0" encoding="utf-8"?>
<!-- Generator: Adobe Illustrator 21.0.0, SVG Export Plug-In . SVG Version: 6.00 Build 0)  -->
<svg version="1.1" id="Calque_1" xmlns="http://www.w3.org/2000/svg" xmlns:xlink="http://www.w3.org/1999/xlink" x="0px" y="0px"
	 viewBox="0 0 69.7 69.7" style="enable-background:new 0 0 69.7 69.7;" xml:space="preserve">
<style type="text/css">
	.st0{opacity:0.2;}
	.st1{fill:none;}
	.st2{fill-rule:evenodd;clip-rule:evenodd;fill:#EFEFEF;}
</style>
<g class="st0">
	<g>
		<path class="st1" d="M65.8,36.5c0,0.6,0,1.2-0.1,1.8l-0.3,1.8l3.8,0.7l0.3-2c0.1-0.7,0.1-1.4,0.1-2L65.8,36.5z"/>
		<path class="st2" d="M67.3,40.5c-1-0.2-1.8-1.1-1.6-2.1c0.1-1,1-1.8,2.1-1.7c1.1,0,1.9,1,1.8,2.2C69.4,39.9,68.4,40.6,67.3,40.5z"
			/>
	</g>
	<g>
		<path class="st1" d="M64.7,43.4c-0.1,0.6-0.3,1.2-0.6,1.7l-0.6,1.7l3.6,1.5l0.7-1.9c0.2-0.6,0.5-1.3,0.6-2L64.7,43.4z"/>
		<path class="st2" d="M65.3,47.6c-1-0.4-1.5-1.5-1.2-2.5c0.4-0.9,1.4-1.5,2.4-1.2c1,0.3,1.7,1.4,1.2,2.5
			C67.4,47.4,66.3,48,65.3,47.6z"/>
	</g>
	<g>
		<path class="st1" d="M62.1,49.8l-1,1.6l-0.5,0.8c-0.2,0.3-0.4,0.5-0.5,0.7l3.1,2.2c0.2-0.3,0.4-0.5,0.6-0.8l0.5-0.9l1.1-1.8
			L62.1,49.8z"/>
		<path class="st2" d="M61.7,54c-0.9-0.6-1-1.8-0.6-2.6c0.5-0.9,1.7-1.1,2.6-0.6c0.9,0.5,1.2,1.7,0.6,2.7
			C63.8,54.4,62.5,54.6,61.7,54z"/>
	</g>
	<g>
		<polygon class="st1" points="58,55.5 56.8,56.8 55.5,58 58,60.9 59.5,59.5 60.9,58 		"/>
		<path class="st2" d="M56.7,59.5c-0.7-0.8-0.7-2,0.1-2.7c0.7-0.7,1.9-0.8,2.7-0.1c0.8,0.7,0.8,2,0.1,2.8
			C58.7,60.3,57.4,60.3,56.7,59.5z"/>
	</g>
	<g>
		<path class="st1" d="M52.9,60.1c-0.2,0.2-0.5,0.4-0.7,0.5l-0.8,0.5l-1.6,1l1.9,3.4l1.8-1.1l0.9-0.5c0.3-0.2,0.6-0.4,0.8-0.6
			L52.9,60.1z"/>
		<path class="st2" d="M50.7,63.8c-0.5-0.9-0.2-2.1,0.6-2.6c0.9-0.5,2-0.3,2.6,0.6c0.6,0.9,0.4,2.1-0.6,2.7
			C52.4,65,51.2,64.7,50.7,63.8z"/>
	</g>
	<g>
		<path class="st1" d="M46.8,63.5l-1.7,0.6c-0.6,0.2-1.1,0.4-1.7,0.6l1.1,3.7c0.7-0.1,1.3-0.4,2-0.6l1.9-0.7L46.8,63.5z"/>
		<path class="st2" d="M43.9,66.6c-0.3-1,0.3-2,1.2-2.4c0.9-0.3,2,0.2,2.5,1.2c0.4,1-0.1,2.1-1.2,2.5C45.3,68.2,44.2,67.6,43.9,66.6
			z"/>
	</g>
	<g>
		<path class="st1" d="M40.1,65.4l-1.8,0.3c-0.6,0.1-1.2,0.1-1.8,0.1l0.2,3.9c0.7,0,1.4,0,2-0.1l2-0.3L40.1,65.4z"/>
		<path class="st2" d="M36.6,67.8c0-1.1,0.7-1.9,1.7-2.1c1-0.2,1.9,0.6,2.1,1.6c0.2,1-0.6,2-1.7,2.2C37.6,69.7,36.6,68.8,36.6,67.8z
			"/>
	</g>
	<g>
		<path class="st1" d="M33.2,65.8c-0.6,0-1.2,0-1.8-0.1l-1.8-0.3l-0.7,3.8l2,0.3c0.7,0.1,1.4,0.1,2,0.1L33.2,65.8z"/>
		<path class="st2" d="M29.2,67.3c0.2-1,1.1-1.8,2.1-1.6c1,0.1,1.8,1,1.7,2.1c0,1.1-1,1.9-2.2,1.8C29.8,69.4,29,68.4,29.2,67.3z"/>
	</g>
	<g>
		<path class="st1" d="M26.3,64.7c-0.6-0.1-1.2-0.3-1.7-0.6l-1.7-0.6l-1.5,3.6l1.9,0.7c0.6,0.2,1.3,0.5,2,0.6L26.3,64.7z"/>
		<path class="st2" d="M22.1,65.3c0.4-1,1.5-1.5,2.5-1.2c0.9,0.4,1.5,1.4,1.2,2.4c-0.3,1-1.4,1.7-2.5,1.2
			C22.2,67.4,21.7,66.3,22.1,65.3z"/>
	</g>
	<g>
		<path class="st1" d="M19.9,62.1l-1.6-1l-0.8-0.5c-0.3-0.2-0.5-0.4-0.7-0.5l-2.2,3.1c0.3,0.2,0.5,0.4,0.8,0.6l0.9,0.5l1.8,1.1
			L19.9,62.1z"/>
		<path class="st2" d="M15.7,61.7c0.6-0.9,1.8-1,2.6-0.6c0.9,0.5,1.1,1.7,0.6,2.6c-0.5,0.9-1.7,1.2-2.7,0.6
			C15.3,63.8,15.1,62.5,15.7,61.7z"/>
	</g>
	<g>
		<polygon class="st1" points="14.2,58 12.9,56.8 11.6,55.5 8.8,58 10.1,59.5 11.7,60.9 		"/>
		<path class="st2" d="M10.2,56.7c0.8-0.7,2-0.7,2.7,0.1c0.7,0.7,0.8,1.9,0.1,2.7c-0.7,0.8-2,0.8-2.8,0.1
			C9.4,58.7,9.4,57.4,10.2,56.7z"/>
	</g>
	<g>
		<path class="st1" d="M9.6,52.9c-0.2-0.2-0.4-0.5-0.5-0.7l-0.5-0.8l-1-1.6l-3.4,1.9l1.1,1.8l0.5,0.9c0.2,0.3,0.4,0.6,0.6,0.8
			L9.6,52.9z"/>
		<path class="st2" d="M5.9,50.7c0.9-0.5,2.1-0.2,2.6,0.6C9,52.2,8.9,53.4,8,54c-0.9,0.6-2.1,0.4-2.7-0.6C4.7,52.4,5,51.2,5.9,50.7z
			"/>
	</g>
	<g>
		<path class="st1" d="M6.2,46.8l-0.6-1.7C5.3,44.5,5.1,44,5,43.4l-3.7,1.1c0.1,0.7,0.4,1.3,0.6,2l0.7,1.9L6.2,46.8z"/>
		<path class="st2" d="M3.1,43.9c1-0.3,2,0.3,2.4,1.2c0.3,0.9-0.2,2-1.2,2.5c-1,0.4-2.1-0.1-2.5-1.2C1.5,45.3,2.1,44.2,3.1,43.9z"/>
	</g>
	<g>
		<path class="st1" d="M4.3,40.1L4,38.3c-0.1-0.6-0.1-1.2-0.1-1.8L0,36.7c0,0.7,0,1.4,0.1,2l0.3,2L4.3,40.1z"/>
		<path class="st2" d="M1.9,36.6c1.1,0,1.9,0.7,2.1,1.7c0.2,1-0.6,1.9-1.6,2.1c-1,0.2-2-0.6-2.2-1.7C0,37.6,0.9,36.6,1.9,36.6z"/>
	</g>
	<g>
		<path class="st1" d="M3.9,33.2c0-0.6,0-1.2,0.1-1.8l0.3-1.8l-3.8-0.7l-0.3,2C0,31.6,0,32.3,0,33L3.9,33.2z"/>
		<path class="st2" d="M2.4,29.2c1,0.2,1.8,1.1,1.6,2.1c-0.1,1-1,1.8-2.1,1.7c-1.1,0-1.9-1-1.8-2.2C0.3,29.8,1.3,29,2.4,29.2z"/>
	</g>
	<g>
		<path class="st1" d="M5,26.3c0.1-0.6,0.3-1.2,0.6-1.7l0.6-1.7l-3.6-1.5l-0.7,1.9c-0.2,0.6-0.5,1.3-0.6,2L5,26.3z"/>
		<path class="st2" d="M4.4,22.1c1,0.4,1.5,1.5,1.2,2.5c-0.4,0.9-1.4,1.5-2.4,1.2c-1-0.3-1.7-1.4-1.2-2.5
			C2.3,22.2,3.4,21.7,4.4,22.1z"/>
	</g>
	<g>
		<path class="st1" d="M7.6,19.9l1-1.6L9,17.5c0.2-0.3,0.4-0.5,0.5-0.7l-3.1-2.2c-0.2,0.3-0.4,0.5-0.6,0.8l-0.5,0.9L4.2,18L7.6,19.9
			z"/>
		<path class="st2" d="M8,15.7c0.9,0.6,1,1.8,0.6,2.6C8,19.2,6.9,19.5,5.9,19c-0.9-0.5-1.2-1.7-0.6-2.7C5.9,15.3,7.1,15.1,8,15.7z"
			/>
	</g>
	<g>
		<polygon class="st1" points="11.6,14.2 12.9,12.9 14.2,11.6 11.7,8.8 10.1,10.1 8.8,11.7 		"/>
		<path class="st2" d="M12.9,10.2c0.7,0.8,0.7,2-0.1,2.7c-0.7,0.7-1.9,0.8-2.7,0.1c-0.8-0.7-0.8-2-0.1-2.8
			C11,9.4,12.2,9.4,12.9,10.2z"/>
	</g>
	<g>
		<path class="st1" d="M16.8,9.6c0.2-0.2,0.5-0.4,0.7-0.5l0.8-0.5l1.6-1L18,4.2l-1.8,1.1l-0.9,0.5c-0.3,0.2-0.6,0.4-0.8,0.6
			L16.8,9.6z"/>
		<path class="st2" d="M19,5.9c0.5,0.9,0.2,2.1-0.6,2.6c-0.9,0.5-2,0.3-2.6-0.6c-0.6-0.9-0.4-2.1,0.6-2.7C17.2,4.7,18.5,5,19,5.9z"
			/>
	</g>
	<g>
		<path class="st1" d="M22.9,6.2l1.7-0.6c0.6-0.2,1.1-0.4,1.7-0.6l-1.1-3.7c-0.7,0.1-1.3,0.4-2,0.6l-1.9,0.7L22.9,6.2z"/>
		<path class="st2" d="M25.8,3.1c0.3,1-0.3,2-1.2,2.4c-0.9,0.3-2-0.2-2.5-1.2c-0.4-1,0.1-2.1,1.2-2.5C24.4,1.5,25.5,2.1,25.8,3.1z"
			/>
	</g>
	<g>
		<path class="st1" d="M29.6,4.3L31.4,4c0.6-0.1,1.2-0.1,1.8-0.1L33,0c-0.7,0-1.4,0-2,0.1l-2,0.3L29.6,4.3z"/>
		<path class="st2" d="M33.1,1.9c0,1.1-0.7,1.9-1.7,2.1c-1,0.2-1.9-0.6-2.1-1.6c-0.2-1,0.6-2,1.7-2.2C32.1,0,33,0.9,33.1,1.9z"/>
	</g>
	<g>
		<path class="st1" d="M36.5,3.9c0.6,0,1.2,0,1.8,0.1l1.8,0.3l0.7-3.8l-2-0.3C38.1,0,37.4,0,36.7,0L36.5,3.9z"/>
		<path class="st2" d="M40.5,2.4c-0.2,1-1.1,1.8-2.1,1.6c-1-0.1-1.8-1-1.7-2.1c0-1.1,1-1.9,2.2-1.8C39.9,0.3,40.6,1.3,40.5,2.4z"/>
	</g>
	<g>
		<path class="st1" d="M43.4,5c0.6,0.1,1.2,0.3,1.7,0.6l1.7,0.6l1.5-3.6l-1.9-0.7c-0.6-0.2-1.3-0.5-2-0.6L43.4,5z"/>
		<path class="st2" d="M47.6,4.4c-0.4,1-1.5,1.5-2.5,1.2c-0.9-0.4-1.5-1.4-1.2-2.4c0.3-1,1.4-1.7,2.5-1.2C47.4,2.3,48,3.4,47.6,4.4z
			"/>
	</g>
	<g>
		<path class="st1" d="M49.8,7.6l1.6,1L52.1,9c0.3,0.2,0.5,0.4,0.7,0.5l2.2-3.1c-0.3-0.2-0.5-0.4-0.8-0.6l-0.9-0.5l-1.8-1.1
			L49.8,7.6z"/>
		<path class="st2" d="M54,8c-0.6,0.9-1.8,1-2.6,0.6c-0.9-0.5-1.1-1.7-0.6-2.6c0.5-0.9,1.7-1.2,2.7-0.6C54.4,5.9,54.6,7.1,54,8z"/>
	</g>
	<g>
		<polygon class="st1" points="55.5,11.6 56.8,12.9 58,14.2 60.9,11.7 59.5,10.1 58,8.8 		"/>
		<path class="st2" d="M59.5,12.9c-0.8,0.7-2,0.7-2.7-0.1c-0.7-0.7-0.8-1.9-0.1-2.7c0.7-0.8,2-0.8,2.8-0.1
			C60.3,11,60.3,12.2,59.5,12.9z"/>
	</g>
	<g>
		<path class="st1" d="M60.1,16.8c0.2,0.2,0.4,0.5,0.5,0.7l0.5,0.8l1,1.6l3.4-1.9l-1.1-1.8l-0.5-0.9c-0.2-0.3-0.4-0.6-0.6-0.8
			L60.1,16.8z"/>
		<path class="st2" d="M63.8,19c-0.9,0.5-2.1,0.2-2.6-0.6c-0.5-0.9-0.3-2,0.6-2.6c0.9-0.6,2.1-0.4,2.7,0.6
			C65,17.2,64.7,18.5,63.8,19z"/>
	</g>
	<g>
		<path class="st1" d="M63.5,22.9l0.6,1.7c0.2,0.6,0.4,1.1,0.6,1.7l3.7-1.1c-0.1-0.7-0.4-1.3-0.6-2l-0.7-1.9L63.5,22.9z"/>
		<path class="st2" d="M66.6,25.8c-1,0.3-2-0.3-2.4-1.2c-0.3-0.9,0.2-2,1.2-2.5c1-0.4,2.1,0.1,2.5,1.2
			C68.2,24.4,67.6,25.5,66.6,25.8z"/>
	</g>
	<g>
		<path class="st1" d="M65.4,29.6l0.3,1.8c0.1,0.6,0.1,1.2,0.1,1.8l3.9-0.2c0-0.7,0-1.4-0.1-2l-0.3-2L65.4,29.6z"/>
		<path class="st2" d="M67.8,33.1c-1.1,0-1.9-0.7-2.1-1.7c-0.2-1,0.6-1.9,1.6-2.1c1-0.2,2,0.6,2.2,1.7C69.7,32.1,68.8,33,67.8,33.1z
			"/>
	</g>
</g>
</svg>
