<?xml version="1.0" encoding="utf-8"?>
<!-- Generator: Adobe Illustrator 21.0.0, SVG Export Plug-In . SVG Version: 6.00 Build 0)  -->
<svg version="1.1" id="Calque_1" xmlns="http://www.w3.org/2000/svg" xmlns:xlink="http://www.w3.org/1999/xlink" x="0px" y="0px"
	 viewBox="0 0 233.6 233.7" style="enable-background:new 0 0 233.6 233.7;" xml:space="preserve">
<style type="text/css">
	.st0{opacity:0.2;}
	.st1{fill:none;}
	.st2{fill-rule:evenodd;clip-rule:evenodd;fill:#EFEFEF;}
</style>
<g class="st0">
	<g>
		<path class="st1" d="M227.9,119.4l-0.1,2.8c0,0.9-0.1,1.8-0.2,2.8l5.7,0.4c0.1-1,0.2-1.9,0.2-2.9l0.1-2.9L227.9,119.4z"/>
		<path class="st2" d="M230.4,125.1c-1.6-0.1-2.7-1.4-2.6-3c0-1.5,1.3-2.7,2.9-2.7c1.6,0,2.8,1.4,2.8,3
			C233.4,124,232,125.2,230.4,125.1z"/>
	</g>
	<g>
		<path class="st1" d="M227.1,129.9c-0.3,1.8-0.4,3.7-0.8,5.5l5.6,0.9c0.4-1.9,0.6-3.8,0.8-5.8L227.1,129.9z"/>
		<path class="st2" d="M229.2,135.9c-1.6-0.3-2.5-1.7-2.4-3.2c0.2-1.5,1.6-2.6,3.2-2.4c1.6,0.2,2.7,1.6,2.5,3.2
			C232.2,135.1,230.7,136.1,229.2,135.9z"/>
	</g>
	<g>
		<path class="st1" d="M225.4,140.3c-0.4,1.8-0.8,3.6-1.3,5.4l5.5,1.5c0.6-1.9,0.9-3.8,1.4-5.7L225.4,140.3z"/>
		<path class="st2" d="M226.9,146.5c-1.5-0.4-2.4-1.9-2.1-3.4c0.3-1.5,1.9-2.4,3.4-2.1c1.5,0.3,2.5,1.9,2.1,3.4
			C230,146,228.4,146.9,226.9,146.5z"/>
	</g>
	<g>
		<path class="st1" d="M222.7,150.6c-0.6,1.7-1.1,3.5-1.8,5.2l5.3,2c0.7-1.8,1.3-3.7,1.9-5.5L222.7,150.6z"/>
		<path class="st2" d="M223.6,156.8c-0.7-0.3-1.3-0.8-1.6-1.5c-0.3-0.7-0.4-1.4-0.2-2.1c0.5-1.4,2.1-2.2,3.6-1.8
			c1.5,0.5,2.3,2.1,1.8,3.6c-0.3,0.8-0.8,1.3-1.4,1.7C225.1,157,224.3,157.1,223.6,156.8z"/>
	</g>
	<g>
		<path class="st1" d="M219,160.5c-0.8,1.7-1.5,3.4-2.3,5l5.1,2.5c0.9-1.7,1.6-3.5,2.4-5.3L219,160.5z"/>
		<path class="st2" d="M219.3,166.8c-1.4-0.7-2-2.4-1.4-3.8c0.6-1.4,2.3-2,3.8-1.4c1.4,0.6,2.1,2.3,1.4,3.8
			C222.4,166.9,220.7,167.5,219.3,166.8z"/>
	</g>
	<g>
		<path class="st1" d="M214.4,170c-0.9,1.6-1.8,3.2-2.8,4.8l4.8,3c1-1.7,2-3.4,2.9-5L214.4,170z"/>
		<path class="st2" d="M214.1,176.3c-1.3-0.8-1.8-2.6-1-3.9c0.8-1.3,2.5-1.8,3.9-1c1.4,0.7,1.8,2.5,1,3.9
			C217.1,176.7,215.4,177.1,214.1,176.3z"/>
	</g>
	<g>
		<path class="st1" d="M208.9,179l-3.2,4.5l4.5,3.4c1.1-1.6,2.3-3.2,3.4-4.7L208.9,179z"/>
		<path class="st2" d="M208,185.3c-1.2-0.9-1.5-2.7-0.7-4c0.9-1.2,2.7-1.5,4-0.7c1.3,0.9,1.6,2.7,0.7,4
			C211,185.9,209.2,186.2,208,185.3z"/>
	</g>
	<g>
		<polygon class="st1" points="202.6,187.5 198.9,191.7 203.1,195.5 207,191.1 		"/>
		<path class="st2" d="M201,193.6c-1.1-1.1-1.3-2.9-0.3-4c1-1.2,2.8-1.3,4-0.3c1.2,1,1.3,2.8,0.3,4C204,194.6,202.2,194.7,201,193.6
			z"/>
	</g>
	<g>
		<polygon class="st1" points="195.5,195.3 191.4,199.2 195.3,203.4 199.5,199.4 		"/>
		<path class="st2" d="M193.4,201.3c-1-1.2-1-3,0.1-4c1.1-1.1,2.9-1,4,0.1c1.1,1.1,1.1,2.9-0.1,4
			C196.2,202.5,194.4,202.5,193.4,201.3z"/>
	</g>
	<g>
		<polygon class="st1" points="187.6,202.5 183.3,205.9 186.7,210.5 191.3,206.9 		"/>
		<path class="st2" d="M185,208.2c-0.9-1.3-0.7-3.1,0.5-4c1.2-0.9,3-0.7,4,0.5c1,1.2,0.8,3-0.5,4C187.7,209.7,185.9,209.4,185,208.2
			z"/>
	</g>
	<g>
		<path class="st1" d="M179.2,208.8c-1.5,1-3.1,2-4.7,3l3,4.9c1.6-1.1,3.3-2.1,4.9-3.2L179.2,208.8z"/>
		<path class="st2" d="M176,214.3c-0.8-1.3-0.4-3.1,0.9-3.9c1.3-0.8,3.1-0.4,3.9,0.8c0.9,1.3,0.5,3.1-0.8,3.9
			C178.6,216,176.8,215.6,176,214.3z"/>
	</g>
	<g>
		<path class="st1" d="M170.2,214.3c-1.6,0.9-3.3,1.7-4.9,2.6l2.5,5.1c1.7-0.9,3.5-1.8,5.2-2.7L170.2,214.3z"/>
		<path class="st2" d="M166.5,219.5c-0.7-1.4-0.1-3.1,1.2-3.8c1.4-0.7,3.1-0.1,3.8,1.2c0.8,1.4,0.2,3.1-1.2,3.8
			C168.9,221.4,167.2,220.9,166.5,219.5z"/>
	</g>
	<g>
		<path class="st1" d="M160.7,219c-1.7,0.7-3.4,1.4-5.2,2.1l2,5.3c1.8-0.7,3.6-1.4,5.4-2.2L160.7,219z"/>
		<path class="st2" d="M156.5,223.7c-0.5-1.5,0.2-3.1,1.6-3.7c1.4-0.5,3.1,0.1,3.7,1.6c0.6,1.5-0.1,3.1-1.6,3.7
			C158.7,225.9,157,225.2,156.5,223.7z"/>
	</g>
	<g>
		<path class="st1" d="M150.7,222.7c-1.8,0.6-3.6,1-5.3,1.6l1.5,5.5c1.9-0.6,3.8-1,5.6-1.6L150.7,222.7z"/>
		<path class="st2" d="M146.2,227c-0.4-1.5,0.5-3.1,1.9-3.5c1.5-0.4,3,0.4,3.5,1.9c0.5,1.5-0.4,3.1-1.9,3.6
			C148.1,229.4,146.6,228.5,146.2,227z"/>
	</g>
	<g>
		<polygon class="st1" points="140.5,225.4 139.2,225.7 137.8,226 135.1,226.5 136,232.1 138.9,231.6 140.3,231.3 141.7,231 		"/>
		<path class="st2" d="M135.5,229.3c-0.2-1.5,0.8-3,2.3-3.3c1.5-0.2,3,0.7,3.3,2.2c0.3,1.5-0.7,3.1-2.3,3.4
			C137.3,231.9,135.8,230.8,135.5,229.3z"/>
	</g>
	<g>
		<path class="st1" d="M130.1,227.2c-1.8,0.3-3.7,0.4-5.5,0.5l0.4,5.7c1.9-0.2,3.9-0.3,5.8-0.5L130.1,227.2z"/>
		<path class="st2" d="M124.8,230.5c-0.1-1.6,1.1-2.9,2.6-3c1.5-0.1,2.9,0.9,3.1,2.5c0.2,1.5-0.9,3-2.6,3.1
			C126.3,233.3,124.9,232.1,124.8,230.5z"/>
	</g>
	<g>
		<polygon class="st1" points="119.6,227.9 116.8,228 114,227.9 113.9,233.6 116.8,233.7 119.7,233.6 		"/>
		<path class="st2" d="M113.9,230.8c0-1.6,1.3-2.8,2.8-2.8c1.5,0,2.8,1.2,2.8,2.8c0,1.6-1.2,2.9-2.8,2.9
			C115.2,233.6,113.9,232.3,113.9,230.8z"/>
	</g>
	<g>
		<path class="st1" d="M109,227.7c-1.8-0.1-3.7-0.2-5.5-0.5l-0.7,5.6c1.9,0.3,3.9,0.4,5.8,0.5L109,227.7z"/>
		<path class="st2" d="M103.1,230c0.2-1.6,1.6-2.6,3.1-2.5c1.5,0.1,2.7,1.5,2.6,3c-0.1,1.6-1.5,2.7-3.1,2.6
			C104.1,233,102.9,231.5,103.1,230z"/>
	</g>
	<g>
		<polygon class="st1" points="98.5,226.5 95.7,226 94.4,225.7 93,225.4 91.8,231 93.2,231.3 94.7,231.6 97.5,232.1 		"/>
		<path class="st2" d="M92.4,228.2c0.3-1.5,1.8-2.5,3.3-2.2c1.5,0.3,2.5,1.7,2.3,3.3c-0.2,1.5-1.7,2.6-3.3,2.3
			C93.1,231.3,92.1,229.7,92.4,228.2z"/>
	</g>
	<g>
		<path class="st1" d="M88.1,224.3c-1.8-0.5-3.6-1-5.3-1.6l-1.7,5.4c1.8,0.6,3.7,1.1,5.6,1.6L88.1,224.3z"/>
		<path class="st2" d="M81.9,225.4c0.5-1.5,2.1-2.3,3.5-1.9c1.5,0.4,2.3,2,1.9,3.5c-0.4,1.5-2,2.4-3.5,1.9
			C82.3,228.5,81.4,226.9,81.9,225.4z"/>
	</g>
	<g>
		<path class="st1" d="M78,221.1c-1.7-0.7-3.5-1.3-5.2-2.1l-2.2,5.2c1.8,0.8,3.6,1.4,5.4,2.2L78,221.1z"/>
		<path class="st2" d="M71.8,221.6c0.6-1.4,2.3-2.1,3.7-1.6c1.4,0.6,2.1,2.2,1.6,3.7c-0.5,1.5-2.2,2.2-3.7,1.6
			C71.8,224.7,71.1,223.1,71.8,221.6z"/>
	</g>
	<g>
		<path class="st1" d="M68.3,216.9c-1.6-0.9-3.3-1.7-4.9-2.6l-2.7,5c1.7,0.9,3.5,1.8,5.2,2.7L68.3,216.9z"/>
		<path class="st2" d="M62,216.8c0.8-1.4,2.5-1.9,3.8-1.2c1.4,0.7,1.9,2.4,1.2,3.8c-0.7,1.4-2.4,2-3.8,1.2
			C61.8,220,61.3,218.2,62,216.8z"/>
	</g>
	<g>
		<path class="st1" d="M59,211.8c-1.6-1-3.1-2-4.7-3l-3.2,4.7c1.6,1.1,3.3,2.1,4.9,3.2L59,211.8z"/>
		<path class="st2" d="M52.8,211.2c0.9-1.3,2.6-1.7,3.9-0.8c1.3,0.8,1.7,2.6,0.9,3.9c-0.8,1.3-2.6,1.7-3.9,0.9
			C52.3,214.2,51.9,212.5,52.8,211.2z"/>
	</g>
	<g>
		<polygon class="st1" points="50.3,205.9 45.9,202.5 42.3,206.9 46.9,210.5 		"/>
		<path class="st2" d="M44.1,204.7c1-1.2,2.8-1.4,4-0.5c1.2,0.9,1.4,2.7,0.5,4c-0.9,1.3-2.7,1.5-4,0.5
			C43.3,207.7,43.1,205.9,44.1,204.7z"/>
	</g>
	<g>
		<polygon class="st1" points="42.1,199.2 38.1,195.3 34.1,199.4 38.3,203.4 		"/>
		<path class="st2" d="M36.1,197.4c1.1-1.1,2.9-1.1,4-0.1c1.1,1.1,1.1,2.9,0.1,4c-1.1,1.2-2.9,1.2-4,0.1
			C35,200.3,34.9,198.5,36.1,197.4z"/>
	</g>
	<g>
		<polygon class="st1" points="34.6,191.7 31,187.5 26.6,191.1 30.4,195.5 		"/>
		<path class="st2" d="M28.8,189.3c1.2-1,3-0.9,4,0.3c1,1.2,0.9,3-0.3,4c-1.2,1.1-3,0.9-4-0.3C27.4,192.1,27.6,190.3,28.8,189.3z"/>
	</g>
	<g>
		<path class="st1" d="M27.9,183.6l-3.2-4.5l-4.7,3.2c1.1,1.6,2.2,3.2,3.4,4.7L27.9,183.6z"/>
		<path class="st2" d="M22.3,180.6c1.3-0.9,3.1-0.6,4,0.7c0.9,1.2,0.6,3-0.7,4c-1.3,1-3,0.7-4-0.7C20.7,183.3,21,181.5,22.3,180.6z"
			/>
	</g>
	<g>
		<path class="st1" d="M21.9,174.8c-1-1.6-1.9-3.2-2.8-4.8l-5,2.7c1,1.7,1.9,3.4,2.9,5L21.9,174.8z"/>
		<path class="st2" d="M16.6,171.4c1.4-0.7,3.1-0.3,3.9,1c0.8,1.3,0.3,3.1-1,3.9c-1.3,0.8-3.1,0.4-3.9-1
			C14.8,173.9,15.3,172.1,16.6,171.4z"/>
	</g>
	<g>
		<path class="st1" d="M16.8,165.5c-0.8-1.7-1.5-3.4-2.3-5l-5.2,2.2c0.8,1.8,1.6,3.6,2.4,5.3L16.8,165.5z"/>
		<path class="st2" d="M11.9,161.6c1.4-0.6,3.1,0,3.8,1.4c0.6,1.4,0,3.1-1.4,3.8c-1.4,0.7-3.1,0.1-3.8-1.4
			C9.8,163.9,10.5,162.2,11.9,161.6z"/>
	</g>
	<g>
		<path class="st1" d="M12.7,155.8c-0.7-1.7-1.2-3.5-1.8-5.2l-5.4,1.7c0.6,1.8,1.2,3.7,1.9,5.5L12.7,155.8z"/>
		<path class="st2" d="M8.1,151.4c1.5-0.5,3.1,0.3,3.6,1.8c0.2,0.7,0.2,1.5-0.2,2.1c-0.3,0.6-0.8,1.2-1.6,1.5
			c-0.7,0.3-1.5,0.2-2.2-0.1c-0.7-0.3-1.2-0.9-1.4-1.7C5.8,153.5,6.6,151.9,8.1,151.4z"/>
	</g>
	<g>
		<path class="st1" d="M9.4,145.7c-0.5-1.8-0.9-3.6-1.3-5.4l-5.6,1.2c0.5,1.9,0.8,3.8,1.4,5.7L9.4,145.7z"/>
		<path class="st2" d="M5.4,140.9c1.5-0.3,3.1,0.6,3.4,2.1c0.3,1.5-0.6,3-2.1,3.4c-1.5,0.4-3.1-0.5-3.5-2.1
			C2.9,142.8,3.8,141.3,5.4,140.9z"/>
	</g>
	<g>
		<path class="st1" d="M7.2,135.4c-0.4-1.8-0.5-3.7-0.8-5.5l-5.6,0.7c0.3,1.9,0.4,3.9,0.8,5.8L7.2,135.4z"/>
		<path class="st2" d="M3.6,130.2c1.6-0.2,3,0.9,3.2,2.4c0.2,1.5-0.8,2.9-2.4,3.2c-1.5,0.3-3.1-0.8-3.3-2.4
			C0.9,131.9,2,130.4,3.6,130.2z"/>
	</g>
	<g>
		<path class="st1" d="M5.9,124.9c-0.1-0.9-0.2-1.8-0.2-2.8l-0.1-2.8L0,119.5l0.1,2.9c0,1,0.1,1.9,0.2,2.9L5.9,124.9z"/>
		<path class="st2" d="M2.8,119.4c1.6,0,2.9,1.2,2.9,2.7c0.1,1.5-1.1,2.9-2.6,3c-1.6,0.1-3-1.1-3-2.7C0,120.8,1.3,119.4,2.8,119.4z"
			/>
	</g>
	<g>
		<path class="st1" d="M5.7,114.3l0.1-2.8c0-0.9,0.1-1.8,0.2-2.8l-5.7-0.4c-0.1,1-0.2,1.9-0.2,2.9L0,114.2L5.7,114.3z"/>
		<path class="st2" d="M3.1,108.6c1.6,0.1,2.7,1.4,2.6,3c0,1.5-1.3,2.7-2.9,2.7c-1.6,0-2.8-1.4-2.8-3C0.2,109.7,1.6,108.5,3.1,108.6
			z"/>
	</g>
	<g>
		<path class="st1" d="M6.4,103.8c0.3-1.8,0.4-3.7,0.8-5.5l-5.6-0.9c-0.4,1.9-0.6,3.8-0.8,5.8L6.4,103.8z"/>
		<path class="st2" d="M4.4,97.8c1.6,0.3,2.5,1.7,2.4,3.2c-0.2,1.5-1.6,2.6-3.2,2.4c-1.6-0.2-2.7-1.6-2.5-3.2
			C1.3,98.6,2.9,97.5,4.4,97.8z"/>
	</g>
	<g>
		<path class="st1" d="M8.1,93.3c0.4-1.8,0.8-3.6,1.3-5.4l-5.5-1.5c-0.6,1.9-0.9,3.8-1.4,5.7L8.1,93.3z"/>
		<path class="st2" d="M6.7,87.2c1.5,0.4,2.4,1.9,2.1,3.4c-0.3,1.5-1.9,2.4-3.4,2.1c-1.5-0.3-2.5-1.9-2.1-3.4
			C3.6,87.7,5.2,86.8,6.7,87.2z"/>
	</g>
	<g>
		<path class="st1" d="M10.8,83.1c0.6-1.7,1.1-3.5,1.8-5.2l-5.3-2c-0.7,1.8-1.3,3.7-1.9,5.5L10.8,83.1z"/>
		<path class="st2" d="M10,76.9c0.7,0.3,1.3,0.8,1.6,1.5c0.3,0.7,0.4,1.4,0.2,2.1c-0.5,1.4-2.1,2.2-3.6,1.8
			c-1.5-0.5-2.3-2.1-1.8-3.6c0.3-0.8,0.8-1.3,1.4-1.7C8.5,76.6,9.3,76.6,10,76.9z"/>
	</g>
	<g>
		<path class="st1" d="M14.5,73.2c0.8-1.7,1.5-3.4,2.3-5l-5.1-2.5c-0.9,1.7-1.6,3.5-2.4,5.3L14.5,73.2z"/>
		<path class="st2" d="M14.3,66.9c1.4,0.7,2,2.4,1.4,3.8c-0.6,1.4-2.3,2-3.8,1.4c-1.4-0.6-2.1-2.3-1.4-3.8
			C11.2,66.8,12.9,66.2,14.3,66.9z"/>
	</g>
	<g>
		<path class="st1" d="M19.1,63.7c0.9-1.6,1.8-3.2,2.8-4.8l-4.8-3c-1,1.7-2,3.4-2.9,5L19.1,63.7z"/>
		<path class="st2" d="M19.5,57.4c1.3,0.8,1.8,2.6,1,3.9c-0.8,1.3-2.5,1.8-3.9,1c-1.4-0.7-1.8-2.5-1-3.9
			C16.4,57,18.1,56.6,19.5,57.4z"/>
	</g>
	<g>
		<path class="st1" d="M24.6,54.6l3.2-4.5l-4.5-3.4c-1.1,1.6-2.3,3.2-3.4,4.7L24.6,54.6z"/>
		<path class="st2" d="M25.6,48.4c1.2,0.9,1.5,2.7,0.7,4c-0.9,1.2-2.7,1.5-4,0.7c-1.3-0.9-1.6-2.7-0.7-4
			C22.6,47.8,24.3,47.5,25.6,48.4z"/>
	</g>
	<g>
		<polygon class="st1" points="31,46.2 34.6,42 30.4,38.1 26.6,42.6 		"/>
		<path class="st2" d="M32.5,40.1c1.1,1.1,1.3,2.9,0.3,4c-1,1.2-2.8,1.3-4,0.3c-1.2-1-1.3-2.8-0.3-4C29.6,39.1,31.3,39,32.5,40.1z"
			/>
	</g>
	<g>
		<polygon class="st1" points="38.1,38.3 42.1,34.5 38.3,30.3 34.1,34.3 		"/>
		<path class="st2" d="M40.2,32.4c1,1.2,1,3-0.1,4c-1.1,1.1-2.9,1-4-0.1c-1.1-1.1-1.1-2.9,0.1-4C37.3,31.2,39.1,31.2,40.2,32.4z"/>
	</g>
	<g>
		<polygon class="st1" points="45.9,31.2 50.3,27.8 46.9,23.2 42.3,26.8 		"/>
		<path class="st2" d="M48.6,25.5c0.9,1.3,0.7,3.1-0.5,4c-1.2,0.9-3,0.7-4-0.5c-1-1.2-0.8-3,0.5-4C45.8,24,47.6,24.2,48.6,25.5z"/>
	</g>
	<g>
		<path class="st1" d="M54.4,24.9c1.5-1,3.1-2,4.7-3l-3-4.9c-1.6,1.1-3.3,2.1-4.9,3.2L54.4,24.9z"/>
		<path class="st2" d="M57.6,19.4c0.8,1.3,0.4,3.1-0.9,3.9c-1.3,0.8-3.1,0.4-3.9-0.8c-0.9-1.3-0.5-3.1,0.8-3.9
			C55,17.7,56.7,18.1,57.6,19.4z"/>
	</g>
	<g>
		<path class="st1" d="M63.4,19.3c1.6-0.9,3.3-1.7,4.9-2.6l-2.5-5.1c-1.7,0.9-3.5,1.8-5.2,2.7L63.4,19.3z"/>
		<path class="st2" d="M67.1,14.2c0.7,1.4,0.1,3.1-1.2,3.8c-1.4,0.7-3.1,0.1-3.8-1.2c-0.8-1.4-0.2-3.1,1.2-3.8
			C64.7,12.3,66.4,12.8,67.1,14.2z"/>
	</g>
	<g>
		<path class="st1" d="M72.9,14.7c1.7-0.7,3.4-1.4,5.2-2.1l-2-5.3c-1.8,0.7-3.6,1.4-5.4,2.2L72.9,14.7z"/>
		<path class="st2" d="M77.1,10c0.5,1.5-0.2,3.1-1.6,3.7c-1.4,0.5-3.1-0.1-3.7-1.6c-0.6-1.5,0.1-3.1,1.6-3.7
			C74.9,7.8,76.5,8.5,77.1,10z"/>
	</g>
	<g>
		<path class="st1" d="M82.8,11c1.8-0.6,3.6-1,5.3-1.6l-1.5-5.5c-1.9,0.6-3.8,1-5.6,1.6L82.8,11z"/>
		<path class="st2" d="M87.4,6.7c0.4,1.5-0.5,3.1-1.9,3.5c-1.5,0.4-3-0.4-3.5-1.9c-0.5-1.5,0.4-3.1,1.9-3.6
			C85.4,4.3,87,5.2,87.4,6.7z"/>
	</g>
	<g>
		<polygon class="st1" points="93,8.3 94.4,7.9 95.7,7.7 98.5,7.2 97.5,1.6 94.7,2.1 93.2,2.4 91.8,2.7 		"/>
		<path class="st2" d="M98,4.4c0.2,1.5-0.8,3-2.3,3.3c-1.5,0.2-3-0.7-3.3-2.2c-0.3-1.5,0.7-3.1,2.3-3.4C96.3,1.8,97.8,2.9,98,4.4z"
			/>
	</g>
	<g>
		<path class="st1" d="M103.4,6.5c1.8-0.3,3.7-0.4,5.5-0.5l-0.4-5.7c-1.9,0.2-3.9,0.3-5.8,0.5L103.4,6.5z"/>
		<path class="st2" d="M108.8,3.2c0.1,1.6-1.1,2.9-2.6,3c-1.5,0.1-2.9-0.9-3.1-2.5c-0.2-1.5,0.9-3,2.6-3.1
			C107.3,0.4,108.7,1.6,108.8,3.2z"/>
	</g>
	<g>
		<polygon class="st1" points="114,5.8 116.8,5.7 119.6,5.8 119.7,0.1 116.8,0 113.9,0.1 		"/>
		<path class="st2" d="M119.6,2.9c0,1.6-1.3,2.8-2.8,2.8c-1.5,0-2.8-1.2-2.8-2.8c0-1.6,1.2-2.9,2.8-2.9C118.4,0,119.7,1.3,119.6,2.9
			z"/>
	</g>
	<g>
		<path class="st1" d="M124.6,6c1.8,0.1,3.7,0.2,5.5,0.5l0.7-5.6c-1.9-0.3-3.9-0.4-5.8-0.5L124.6,6z"/>
		<path class="st2" d="M130.4,3.7c-0.2,1.6-1.6,2.6-3.1,2.5c-1.5-0.1-2.7-1.5-2.6-3c0.1-1.6,1.5-2.7,3.1-2.6
			C129.5,0.7,130.6,2.1,130.4,3.7z"/>
	</g>
	<g>
		<polygon class="st1" points="135.1,7.2 137.8,7.7 139.2,7.9 140.5,8.3 141.7,2.7 140.3,2.4 138.9,2.1 136,1.6 		"/>
		<path class="st2" d="M141.1,5.5c-0.3,1.5-1.8,2.5-3.3,2.2c-1.5-0.3-2.5-1.7-2.3-3.3c0.2-1.5,1.7-2.6,3.3-2.3
			C140.5,2.4,141.5,4,141.1,5.5z"/>
	</g>
	<g>
		<path class="st1" d="M145.4,9.4c1.8,0.5,3.6,1,5.3,1.6l1.7-5.4c-1.8-0.6-3.7-1.1-5.6-1.6L145.4,9.4z"/>
		<path class="st2" d="M151.6,8.3c-0.5,1.5-2.1,2.3-3.5,1.9c-1.5-0.4-2.3-2-1.9-3.5c0.4-1.5,2-2.4,3.5-1.9
			C151.3,5.2,152.1,6.8,151.6,8.3z"/>
	</g>
	<g>
		<path class="st1" d="M155.5,12.6c1.7,0.7,3.5,1.3,5.2,2.1l2.2-5.2c-1.8-0.8-3.6-1.4-5.4-2.2L155.5,12.6z"/>
		<path class="st2" d="M161.8,12.1c-0.6,1.4-2.3,2.1-3.7,1.6c-1.4-0.6-2.1-2.2-1.6-3.7c0.5-1.5,2.2-2.2,3.7-1.6
			C161.7,9,162.4,10.6,161.8,12.1z"/>
	</g>
	<g>
		<path class="st1" d="M165.2,16.8c1.6,0.9,3.3,1.7,4.9,2.6l2.7-5c-1.7-0.9-3.5-1.8-5.2-2.7L165.2,16.8z"/>
		<path class="st2" d="M171.5,16.8c-0.8,1.4-2.5,1.9-3.8,1.2c-1.4-0.7-1.9-2.4-1.2-3.8c0.7-1.4,2.4-2,3.8-1.2
			C171.8,13.7,172.3,15.5,171.5,16.8z"/>
	</g>
	<g>
		<path class="st1" d="M174.5,21.8c1.6,1,3.1,2,4.7,3l3.2-4.7c-1.6-1.1-3.3-2.1-4.9-3.2L174.5,21.8z"/>
		<path class="st2" d="M180.8,22.5c-0.9,1.3-2.6,1.7-3.9,0.8c-1.3-0.8-1.7-2.6-0.9-3.9c0.8-1.3,2.6-1.7,3.9-0.9
			C181.3,19.4,181.7,21.2,180.8,22.5z"/>
	</g>
	<g>
		<polygon class="st1" points="183.3,27.8 187.6,31.2 191.3,26.8 186.7,23.2 		"/>
		<path class="st2" d="M189.5,29c-1,1.2-2.8,1.4-4,0.5c-1.2-0.9-1.4-2.7-0.5-4c0.9-1.3,2.7-1.5,4-0.5C190.3,26,190.5,27.8,189.5,29z
			"/>
	</g>
	<g>
		<polygon class="st1" points="191.4,34.5 195.5,38.3 199.5,34.3 195.3,30.3 		"/>
		<path class="st2" d="M197.5,36.3c-1.1,1.1-2.9,1.1-4,0.1c-1.1-1.1-1.1-2.9-0.1-4c1.1-1.2,2.9-1.2,4-0.1
			C198.6,33.4,198.6,35.2,197.5,36.3z"/>
	</g>
	<g>
		<polygon class="st1" points="198.9,42 202.6,46.2 207,42.6 203.1,38.1 		"/>
		<path class="st2" d="M204.8,44.4c-1.2,1-3,0.9-4-0.3c-1-1.2-0.9-3,0.3-4c1.2-1.1,3-0.9,4,0.3C206.1,41.6,206,43.4,204.8,44.4z"/>
	</g>
	<g>
		<path class="st1" d="M205.7,50.1l3.2,4.5l4.7-3.2c-1.1-1.6-2.2-3.2-3.4-4.7L205.7,50.1z"/>
		<path class="st2" d="M211.3,53.1c-1.3,0.9-3.1,0.6-4-0.7c-0.9-1.2-0.6-3,0.7-4c1.3-1,3-0.7,4,0.7
			C212.9,50.4,212.6,52.2,211.3,53.1z"/>
	</g>
	<g>
		<path class="st1" d="M211.6,58.9c1,1.6,1.9,3.2,2.8,4.8l5-2.7c-1-1.7-1.9-3.4-2.9-5L211.6,58.9z"/>
		<path class="st2" d="M216.9,62.3c-1.4,0.7-3.1,0.3-3.9-1c-0.8-1.3-0.3-3.1,1-3.9c1.3-0.8,3.1-0.4,3.9,1
			C218.8,59.8,218.3,61.6,216.9,62.3z"/>
	</g>
	<g>
		<path class="st1" d="M216.7,68.2c0.8,1.7,1.5,3.4,2.3,5l5.2-2.2c-0.8-1.8-1.6-3.6-2.4-5.3L216.7,68.2z"/>
		<path class="st2" d="M221.6,72.1c-1.4,0.6-3.1,0-3.8-1.4c-0.6-1.4,0-3.1,1.4-3.8c1.4-0.7,3.1-0.1,3.8,1.4
			C223.7,69.8,223.1,71.5,221.6,72.1z"/>
	</g>
	<g>
		<path class="st1" d="M220.9,77.9c0.7,1.7,1.2,3.5,1.8,5.2l5.4-1.7c-0.6-1.8-1.2-3.7-1.9-5.5L220.9,77.9z"/>
		<path class="st2" d="M225.4,82.3c-1.5,0.5-3.1-0.3-3.6-1.8c-0.2-0.7-0.2-1.5,0.2-2.1c0.3-0.6,0.8-1.2,1.6-1.5
			c0.7-0.3,1.5-0.2,2.2,0.1c0.7,0.3,1.2,0.9,1.4,1.7C227.7,80.2,226.9,81.8,225.4,82.3z"/>
	</g>
	<g>
		<path class="st1" d="M224.1,87.9c0.5,1.8,0.9,3.6,1.3,5.4l5.6-1.2c-0.5-1.9-0.8-3.8-1.4-5.7L224.1,87.9z"/>
		<path class="st2" d="M228.2,92.7c-1.5,0.3-3.1-0.6-3.4-2.1c-0.3-1.5,0.6-3,2.1-3.4c1.5-0.4,3.1,0.5,3.5,2.1
			C230.7,90.9,229.7,92.4,228.2,92.7z"/>
	</g>
	<g>
		<path class="st1" d="M226.4,98.3c0.4,1.8,0.5,3.7,0.8,5.5l5.6-0.7c-0.3-1.9-0.4-3.9-0.8-5.8L226.4,98.3z"/>
		<path class="st2" d="M230,103.4c-1.6,0.2-3-0.9-3.2-2.4c-0.2-1.5,0.8-2.9,2.4-3.2c1.5-0.3,3.1,0.8,3.3,2.4
			C232.6,101.8,231.5,103.3,230,103.4z"/>
	</g>
	<g>
		<path class="st1" d="M227.6,108.8c0.1,0.9,0.2,1.8,0.2,2.8l0.1,2.8l5.7-0.1l-0.1-2.9c0-1-0.1-1.9-0.2-2.9L227.6,108.8z"/>
		<path class="st2" d="M230.7,114.3c-1.6,0-2.9-1.2-2.9-2.7c-0.1-1.5,1.1-2.9,2.6-3c1.6-0.1,3,1.1,3,2.7
			C233.5,112.9,232.3,114.2,230.7,114.3z"/>
	</g>
</g>
</svg>
