<?xml version="1.0" encoding="utf-8"?>
<!-- Generator: Adobe Illustrator 21.0.0, SVG Export Plug-In . SVG Version: 6.00 Build 0)  -->
<svg version="1.1" id="Calque_1" xmlns="http://www.w3.org/2000/svg" xmlns:xlink="http://www.w3.org/1999/xlink" x="0px" y="0px"
	 viewBox="0 0 293.6 293.6" style="enable-background:new 0 0 293.6 293.6;" xml:space="preserve">
<style type="text/css">
	.st0{opacity:0.2;}
	.st1{fill:none;}
	.st2{fill-rule:evenodd;clip-rule:evenodd;fill:#EFEFEF;}
</style>
<g class="st0">
	<g>
		<path class="st1" d="M287.9,149.3c-0.1,1.8-0.1,3.7-0.2,5.5l5.7,0.3c0.1-1.9,0.1-3.8,0.2-5.8L287.9,149.3z"/>
		<path class="st2" d="M290.5,155c-0.8,0-1.5-0.4-1.9-0.9c-0.5-0.5-0.8-1.2-0.8-2c0-1.5,1.3-2.7,2.9-2.7c1.6,0,2.8,1.3,2.8,2.9
			c0,0.8-0.4,1.5-0.9,2C292,154.8,291.3,155,290.5,155z"/>
	</g>
	<g>
		<polygon class="st1" points="287.3,159.8 287.2,161.2 287,162.6 286.7,165.3 292.3,166.1 292.7,163.2 292.9,161.8 293,160.3 		"/>
		<path class="st2" d="M289.5,165.7c-1.6-0.2-2.7-1.6-2.5-3.1c0.2-1.5,1.5-2.6,3.1-2.5c1.6,0.1,2.8,1.5,2.5,3.1
			C292.5,164.8,291.1,165.9,289.5,165.7z"/>
	</g>
	<g>
		<path class="st1" d="M285.9,170.3c-0.3,1.8-0.6,3.6-1,5.4l5.6,1.2c0.4-1.9,0.7-3.8,1-5.7L285.9,170.3z"/>
		<path class="st2" d="M287.7,176.3c-1.5-0.3-2.5-1.8-2.3-3.3c0.3-1.5,1.7-2.5,3.3-2.3c1.5,0.3,2.6,1.7,2.3,3.3
			C290.8,175.6,289.3,176.7,287.7,176.3z"/>
	</g>
	<g>
		<path class="st1" d="M283.8,180.6c-0.4,1.8-1,3.6-1.4,5.3l5.5,1.6c0.5-1.9,1.1-3.7,1.5-5.6L283.8,180.6z"/>
		<path class="st2" d="M285.1,186.8c-1.5-0.4-2.4-2-2-3.5c0.4-1.5,1.9-2.4,3.4-2c1.5,0.4,2.5,1.9,2,3.5
			C288.2,186.3,286.6,187.2,285.1,186.8z"/>
	</g>
	<g>
		<path class="st1" d="M280.9,190.8c-0.6,1.7-1.1,3.5-1.8,5.2l5.3,2c0.7-1.8,1.3-3.6,1.9-5.4L280.9,190.8z"/>
		<path class="st2" d="M281.8,197c-0.7-0.3-1.3-0.8-1.6-1.5c-0.3-0.7-0.4-1.4-0.2-2.1c0.5-1.4,2.1-2.2,3.6-1.7
			c1.5,0.5,2.3,2.1,1.8,3.6c-0.3,0.8-0.8,1.3-1.4,1.6C283.3,197.2,282.5,197.3,281.8,197z"/>
	</g>
	<g>
		<path class="st1" d="M277.3,200.7c-0.7,1.7-1.5,3.4-2.2,5.1l5.2,2.4c0.8-1.8,1.6-3.5,2.3-5.3L277.3,200.7z"/>
		<path class="st2" d="M277.6,206.9c-1.4-0.7-2.1-2.3-1.4-3.7c0.7-1.4,2.3-2.1,3.7-1.5c1.5,0.6,2.2,2.3,1.5,3.7
			C280.7,207,279,207.6,277.6,206.9z"/>
	</g>
	<g>
		<path class="st1" d="M272.8,210.3l-1.3,2.5c-0.4,0.8-0.8,1.6-1.3,2.4l5,2.8c0.5-0.8,0.9-1.7,1.4-2.5l1.3-2.6L272.8,210.3z"/>
		<path class="st2" d="M272.7,216.5c-1.4-0.8-1.8-2.4-1.2-3.8c0.7-1.4,2.4-1.9,3.8-1.2c1.4,0.7,2,2.4,1.2,3.8
			C275.9,216.8,274.1,217.3,272.7,216.5z"/>
	</g>
	<g>
		<path class="st1" d="M267.8,219.5c-1,1.6-2,3.1-3,4.7l4.8,3.1c1-1.6,2.1-3.2,3.1-4.9L267.8,219.5z"/>
		<path class="st2" d="M267.2,225.8c-1.3-0.9-1.7-2.6-0.9-3.9c0.8-1.3,2.6-1.7,3.9-0.9c1.4,0.8,1.8,2.6,0.9,3.9
			C270.2,226.2,268.5,226.6,267.2,225.8z"/>
	</g>
	<g>
		<path class="st1" d="M262,228.3c-1.1,1.5-2.1,3-3.3,4.5l4.5,3.5c1.2-1.5,2.3-3.1,3.4-4.6L262,228.3z"/>
		<path class="st2" d="M260.9,234.5c-1.3-1-1.5-2.7-0.6-3.9c0.9-1.2,2.6-1.5,3.9-0.6c1.3,0.9,1.6,2.7,0.6,4
			C264,235.3,262.1,235.5,260.9,234.5z"/>
	</g>
	<g>
		<polygon class="st1" points="255.6,236.7 251.9,240.9 256.2,244.7 259.9,240.4 		"/>
		<path class="st2" d="M254,242.8c-1.2-1.1-1.3-2.8-0.3-4c1-1.2,2.8-1.3,4-0.3c1.2,1,1.3,2.8,0.3,4C257,243.7,255.2,243.9,254,242.8
			z"/>
	</g>
	<g>
		<polygon class="st1" points="248.5,244.6 246.6,246.6 244.6,248.5 248.5,252.6 250.6,250.6 252.6,248.5 		"/>
		<path class="st2" d="M246.6,250.5c-1.1-1.1-1.1-2.9,0-4c1.1-1.1,2.8-1.1,4,0c1.1,1.1,1.2,2.9,0.1,4.1
			C249.5,251.7,247.6,251.7,246.6,250.5z"/>
	</g>
	<g>
		<polygon class="st1" points="240.9,251.9 236.7,255.6 240.4,259.9 244.7,256.2 		"/>
		<path class="st2" d="M238.5,257.7c-1-1.2-0.9-3,0.3-4c1.2-1,2.9-0.9,4,0.3c1,1.2,0.9,3-0.3,4C241.3,259.1,239.5,259,238.5,257.7z"
			/>
	</g>
	<g>
		<path class="st1" d="M232.8,258.7c-1.4,1.2-3,2.2-4.5,3.3l3.3,4.6c1.6-1.1,3.2-2.2,4.6-3.4L232.8,258.7z"/>
		<path class="st2" d="M230,264.3c-0.9-1.3-0.6-3,0.6-3.9c1.2-0.9,3-0.7,3.9,0.6c1,1.2,0.7,3.1-0.6,4
			C232.7,265.8,230.9,265.6,230,264.3z"/>
	</g>
	<g>
		<path class="st1" d="M224.2,264.8c-1.6,1-3.1,2-4.7,3l2.9,4.9c1.6-1,3.2-2.1,4.9-3.1L224.2,264.8z"/>
		<path class="st2" d="M221,270.2c-0.8-1.3-0.4-3.1,0.9-3.9c1.3-0.8,3-0.4,3.9,0.9c0.9,1.3,0.5,3.1-0.9,3.9
			C223.6,272,221.8,271.6,221,270.2z"/>
	</g>
	<g>
		<path class="st1" d="M215.2,270.3c-0.8,0.5-1.6,0.9-2.4,1.3l-2.5,1.3l2.6,5.1l2.6-1.3c0.9-0.4,1.7-0.9,2.5-1.4L215.2,270.3z"/>
		<path class="st2" d="M211.5,275.4c-0.7-1.4-0.2-3.1,1.2-3.8c1.4-0.7,3-0.2,3.8,1.2c0.8,1.4,0.3,3.1-1.2,3.9
			C214,277.3,212.2,276.8,211.5,275.4z"/>
	</g>
	<g>
		<path class="st1" d="M205.7,275c-1.7,0.7-3.3,1.6-5.1,2.2l2.2,5.3c1.8-0.7,3.5-1.6,5.3-2.3L205.7,275z"/>
		<path class="st2" d="M201.8,279.9c-0.6-1.5,0.1-3.1,1.5-3.7c1.4-0.6,3.1,0,3.7,1.4c0.7,1.4,0,3.1-1.4,3.8
			C204.1,282.1,202.4,281.3,201.8,279.9z"/>
	</g>
	<g>
		<path class="st1" d="M196,279.1c-1.7,0.7-3.5,1.2-5.2,1.8l1.8,5.4c1.8-0.6,3.7-1.2,5.4-1.9L196,279.1z"/>
		<path class="st2" d="M191.7,283.6c-0.5-1.5,0.3-3.1,1.7-3.6c0.7-0.2,1.5-0.2,2.1,0.2c0.6,0.3,1.2,0.9,1.5,1.6
			c0.3,0.7,0.2,1.5-0.1,2.2c-0.3,0.6-0.9,1.2-1.6,1.4C193.8,285.9,192.1,285.1,191.7,283.6z"/>
	</g>
	<g>
		<path class="st1" d="M186,282.4c-1.8,0.5-3.5,1.1-5.3,1.4l1.4,5.5c1.9-0.4,3.7-1,5.6-1.5L186,282.4z"/>
		<path class="st2" d="M181.3,286.6c-0.4-1.5,0.5-3,2-3.4c1.5-0.4,3,0.5,3.5,2c0.4,1.5-0.4,3.1-2,3.5
			C183.3,289.1,181.7,288.1,181.3,286.6z"/>
	</g>
	<g>
		<path class="st1" d="M175.7,284.9c-1.8,0.4-3.6,0.7-5.4,1l0.9,5.6c1.9-0.3,3.8-0.6,5.7-1L175.7,284.9z"/>
		<path class="st2" d="M170.8,288.7c-0.3-1.5,0.8-3,2.3-3.3c1.5-0.3,3,0.8,3.3,2.3c0.3,1.6-0.7,3-2.3,3.3
			C172.5,291.3,171,290.3,170.8,288.7z"/>
	</g>
	<g>
		<polygon class="st1" points="165.3,286.7 162.6,287 161.2,287.2 159.8,287.3 160.3,293 161.8,292.9 163.2,292.7 166.1,292.3 		"/>
		<path class="st2" d="M160.1,290.1c-0.1-1.6,1-2.9,2.5-3.1c1.5-0.2,2.9,0.9,3.1,2.5c0.2,1.6-0.9,3-2.5,3.2
			C161.6,292.9,160.2,291.7,160.1,290.1z"/>
	</g>
	<g>
		<path class="st1" d="M154.8,287.7c-1.8,0.1-3.7,0.1-5.5,0.2l0.1,5.7c1.9-0.1,3.8-0.1,5.8-0.2L154.8,287.7z"/>
		<path class="st2" d="M149.3,290.7c0-1.6,1.2-2.9,2.7-2.9c0.8,0,1.5,0.3,2,0.8c0.5,0.5,0.9,1.2,0.9,1.9c0,0.8-0.2,1.5-0.7,2.1
			c-0.5,0.5-1.2,0.9-2,0.9C150.7,293.5,149.4,292.3,149.3,290.7z"/>
	</g>
	<g>
		<path class="st1" d="M144.3,287.9c-1.8-0.1-3.7-0.1-5.5-0.2l-0.3,5.7c1.9,0.1,3.8,0.1,5.8,0.2L144.3,287.9z"/>
		<path class="st2" d="M138.6,290.5c0-0.8,0.4-1.5,0.9-1.9c0.5-0.5,1.2-0.8,2-0.8c1.5,0,2.7,1.3,2.7,2.9c0,1.6-1.3,2.8-2.9,2.8
			c-0.8,0-1.5-0.4-2-0.9C138.8,292,138.5,291.3,138.6,290.5z"/>
	</g>
	<g>
		<polygon class="st1" points="133.7,287.3 132.3,287.2 131,287 128.2,286.7 127.5,292.3 130.3,292.7 131.8,292.9 133.2,293 		"/>
		<path class="st2" d="M127.8,289.5c0.2-1.6,1.6-2.7,3.1-2.5c1.5,0.2,2.6,1.5,2.5,3.1c-0.1,1.6-1.5,2.8-3.1,2.5
			C128.8,292.5,127.6,291.1,127.8,289.5z"/>
	</g>
	<g>
		<path class="st1" d="M123.3,285.9c-1.8-0.3-3.6-0.6-5.4-1l-1.2,5.6c1.9,0.4,3.8,0.7,5.7,1L123.3,285.9z"/>
		<path class="st2" d="M117.2,287.7c0.3-1.5,1.8-2.5,3.3-2.3c1.5,0.3,2.5,1.7,2.3,3.3c-0.3,1.5-1.7,2.6-3.3,2.3
			C117.9,290.8,116.9,289.3,117.2,287.7z"/>
	</g>
	<g>
		<path class="st1" d="M112.9,283.8c-1.8-0.4-3.6-1-5.3-1.4l-1.6,5.5c1.9,0.5,3.7,1.1,5.6,1.5L112.9,283.8z"/>
		<path class="st2" d="M106.8,285.1c0.4-1.5,2-2.4,3.5-2c1.5,0.4,2.4,1.9,2,3.4c-0.4,1.5-1.9,2.5-3.5,2
			C107.2,288.2,106.3,286.6,106.8,285.1z"/>
	</g>
	<g>
		<path class="st1" d="M102.8,280.9c-1.7-0.6-3.5-1.1-5.2-1.8l-2,5.3c1.8,0.7,3.6,1.3,5.4,1.9L102.8,280.9z"/>
		<path class="st2" d="M96.6,281.8c0.3-0.7,0.8-1.3,1.5-1.6c0.7-0.3,1.4-0.4,2.1-0.2c1.4,0.5,2.2,2.1,1.7,3.6
			c-0.5,1.5-2.1,2.3-3.6,1.8c-0.8-0.3-1.3-0.8-1.6-1.4C96.3,283.3,96.3,282.5,96.6,281.8z"/>
	</g>
	<g>
		<path class="st1" d="M92.9,277.3c-1.7-0.7-3.4-1.5-5.1-2.2l-2.4,5.2c1.8,0.8,3.5,1.6,5.3,2.3L92.9,277.3z"/>
		<path class="st2" d="M86.6,277.6c0.7-1.4,2.3-2.1,3.7-1.4c1.4,0.7,2.1,2.3,1.5,3.7c-0.6,1.5-2.3,2.2-3.7,1.5
			C86.6,280.7,86,279,86.6,277.6z"/>
	</g>
	<g>
		<path class="st1" d="M83.3,272.8l-2.5-1.3c-0.8-0.4-1.6-0.8-2.4-1.3l-2.8,5c0.8,0.5,1.7,0.9,2.5,1.4l2.6,1.3L83.3,272.8z"/>
		<path class="st2" d="M77,272.7c0.8-1.4,2.4-1.8,3.8-1.2c1.4,0.7,1.9,2.4,1.2,3.8c-0.7,1.4-2.4,2-3.8,1.2
			C76.7,275.9,76.2,274.1,77,272.7z"/>
	</g>
	<g>
		<path class="st1" d="M74,267.8c-1.6-1-3.1-2-4.7-3l-3.1,4.8c1.6,1,3.2,2.1,4.9,3.1L74,267.8z"/>
		<path class="st2" d="M67.8,267.2c0.9-1.3,2.6-1.7,3.9-0.9c1.3,0.8,1.7,2.6,0.9,3.9c-0.8,1.4-2.6,1.8-3.9,0.9
			C67.3,270.2,66.9,268.5,67.8,267.2z"/>
	</g>
	<g>
		<path class="st1" d="M65.2,262c-1.5-1.1-3-2.1-4.5-3.3l-3.5,4.5c1.5,1.2,3.1,2.3,4.6,3.4L65.2,262z"/>
		<path class="st2" d="M59,260.9c1-1.3,2.7-1.5,3.9-0.6c1.2,0.9,1.5,2.6,0.6,3.9c-0.9,1.3-2.7,1.6-4,0.6
			C58.3,264,58.1,262.1,59,260.9z"/>
	</g>
	<g>
		<polygon class="st1" points="56.8,255.6 52.6,251.9 48.8,256.2 53.2,259.9 		"/>
		<path class="st2" d="M50.7,254c1.1-1.2,2.8-1.3,4-0.3c1.2,1,1.3,2.8,0.3,4c-1,1.2-2.8,1.3-4,0.3C49.8,257,49.7,255.2,50.7,254z"/>
	</g>
	<g>
		<polygon class="st1" points="49,248.5 47,246.6 45.1,244.6 41,248.5 42.9,250.6 45,252.6 		"/>
		<path class="st2" d="M43,246.6c1.1-1.1,2.9-1.1,4,0c1.1,1.1,1.1,2.8,0,4c-1.1,1.1-2.9,1.2-4.1,0.1C41.8,249.5,41.9,247.6,43,246.6
			z"/>
	</g>
	<g>
		<polygon class="st1" points="41.6,240.9 38,236.7 33.6,240.4 37.4,244.7 		"/>
		<path class="st2" d="M35.8,238.5c1.2-1,3-0.9,4,0.3c1,1.2,0.9,2.9-0.3,4c-1.2,1-3,0.9-4-0.3C34.5,241.3,34.6,239.5,35.8,238.5z"/>
	</g>
	<g>
		<path class="st1" d="M34.9,232.8c-1.2-1.4-2.2-3-3.3-4.5l-4.6,3.3c1.1,1.6,2.2,3.2,3.4,4.6L34.9,232.8z"/>
		<path class="st2" d="M29.3,230c1.3-0.9,3-0.6,3.9,0.6c0.9,1.2,0.7,3-0.6,3.9c-1.2,1-3.1,0.7-4-0.6C27.7,232.7,28,230.9,29.3,230z"
			/>
	</g>
	<g>
		<path class="st1" d="M28.8,224.2c-1-1.6-2-3.1-3-4.7l-4.9,2.9c1,1.6,2.1,3.2,3.1,4.9L28.8,224.2z"/>
		<path class="st2" d="M23.4,221c1.3-0.8,3.1-0.4,3.9,0.9c0.8,1.3,0.4,3-0.9,3.9c-1.3,0.9-3.1,0.5-3.9-0.9
			C21.6,223.6,22,221.8,23.4,221z"/>
	</g>
	<g>
		<path class="st1" d="M23.3,215.2c-0.5-0.8-0.9-1.6-1.3-2.4l-1.3-2.5l-5.1,2.6l1.3,2.6c0.4,0.9,0.9,1.7,1.4,2.5L23.3,215.2z"/>
		<path class="st2" d="M18.2,211.5c1.4-0.7,3.1-0.2,3.8,1.2c0.7,1.4,0.2,3-1.2,3.8c-1.4,0.8-3.1,0.3-3.9-1.2
			C16.2,214,16.8,212.2,18.2,211.5z"/>
	</g>
	<g>
		<path class="st1" d="M18.5,205.7c-0.7-1.7-1.6-3.3-2.2-5.1l-5.3,2.2c0.7,1.8,1.6,3.5,2.3,5.3L18.5,205.7z"/>
		<path class="st2" d="M13.7,201.8c1.5-0.6,3.1,0.1,3.7,1.5c0.6,1.4,0,3.1-1.4,3.7c-1.4,0.7-3.1,0-3.8-1.4
			C11.5,204.1,12.2,202.4,13.7,201.8z"/>
	</g>
	<g>
		<path class="st1" d="M14.5,196c-0.7-1.7-1.2-3.5-1.8-5.2l-5.4,1.8c0.6,1.8,1.2,3.7,1.9,5.4L14.5,196z"/>
		<path class="st2" d="M9.9,191.7c1.5-0.5,3.1,0.3,3.6,1.7c0.2,0.7,0.2,1.5-0.2,2.1c-0.3,0.6-0.9,1.2-1.6,1.5
			c-0.7,0.3-1.5,0.2-2.2-0.1c-0.6-0.3-1.2-0.9-1.4-1.6C7.7,193.8,8.5,192.1,9.9,191.7z"/>
	</g>
	<g>
		<path class="st1" d="M11.2,186c-0.5-1.8-1.1-3.5-1.4-5.3L4.2,182c0.4,1.9,1,3.7,1.5,5.6L11.2,186z"/>
		<path class="st2" d="M7,181.3c1.5-0.4,3,0.5,3.4,2c0.4,1.5-0.5,3-2,3.5c-1.5,0.4-3.1-0.4-3.5-2C4.5,183.3,5.5,181.7,7,181.3z"/>
	</g>
	<g>
		<path class="st1" d="M8.6,175.7c-0.4-1.8-0.7-3.6-1-5.4L2,171.2c0.3,1.9,0.6,3.8,1,5.7L8.6,175.7z"/>
		<path class="st2" d="M4.8,170.8c1.5-0.3,3,0.8,3.3,2.3c0.3,1.5-0.8,3-2.3,3.3c-1.6,0.3-3-0.7-3.3-2.3C2.2,172.5,3.3,171,4.8,170.8
			z"/>
	</g>
	<g>
		<polygon class="st1" points="6.9,165.3 6.5,162.6 6.3,161.2 6.2,159.8 0.6,160.3 0.7,161.8 0.9,163.2 1.2,166.1 		"/>
		<path class="st2" d="M3.4,160.1c1.6-0.1,2.9,1,3.1,2.5c0.2,1.5-0.9,2.9-2.5,3.1c-1.6,0.2-3-0.9-3.2-2.5
			C0.6,161.6,1.9,160.2,3.4,160.1z"/>
	</g>
	<g>
		<path class="st1" d="M5.9,154.8c-0.1-1.8-0.1-3.7-0.2-5.5L0,149.4c0.1,1.9,0.1,3.8,0.2,5.8L5.9,154.8z"/>
		<path class="st2" d="M2.8,149.3c1.6,0,2.9,1.2,2.9,2.7c0,0.8-0.3,1.5-0.8,2c-0.5,0.5-1.2,0.9-1.9,0.9c-0.8,0-1.5-0.2-2.1-0.7
			c-0.5-0.5-0.9-1.2-0.9-2C0,150.7,1.3,149.4,2.8,149.3z"/>
	</g>
	<g>
		<path class="st1" d="M5.7,144.3c0.1-1.8,0.1-3.7,0.2-5.5l-5.7-0.3c-0.1,1.9-0.1,3.8-0.2,5.8L5.7,144.3z"/>
		<path class="st2" d="M3,138.6c0.8,0,1.5,0.4,1.9,0.9c0.5,0.5,0.8,1.2,0.8,2c0,1.5-1.3,2.7-2.9,2.7c-1.6,0-2.8-1.3-2.8-2.9
			c0-0.8,0.4-1.5,0.9-2C1.5,138.8,2.2,138.5,3,138.6z"/>
	</g>
	<g>
		<polygon class="st1" points="6.2,133.7 6.3,132.3 6.5,131 6.9,128.2 1.2,127.5 0.9,130.3 0.7,131.8 0.6,133.2 		"/>
		<path class="st2" d="M4.1,127.8c1.6,0.2,2.7,1.6,2.5,3.1c-0.2,1.5-1.5,2.6-3.1,2.5c-1.6-0.1-2.8-1.5-2.5-3.1
			C1.1,128.8,2.5,127.6,4.1,127.8z"/>
	</g>
	<g>
		<path class="st1" d="M7.6,123.3c0.3-1.8,0.6-3.6,1-5.4L3,116.6c-0.4,1.9-0.7,3.8-1,5.7L7.6,123.3z"/>
		<path class="st2" d="M5.8,117.2c1.5,0.3,2.5,1.8,2.3,3.3c-0.3,1.5-1.7,2.5-3.3,2.3c-1.5-0.3-2.6-1.7-2.3-3.3
			C2.8,117.9,4.3,116.9,5.8,117.2z"/>
	</g>
	<g>
		<path class="st1" d="M9.7,112.9c0.4-1.8,1-3.6,1.4-5.3L5.7,106c-0.5,1.9-1.1,3.7-1.5,5.6L9.7,112.9z"/>
		<path class="st2" d="M8.4,106.8c1.5,0.4,2.4,2,2,3.5c-0.4,1.5-1.9,2.4-3.4,2c-1.5-0.4-2.5-1.9-2-3.5
			C5.4,107.2,6.9,106.3,8.4,106.8z"/>
	</g>
	<g>
		<path class="st1" d="M12.7,102.8c0.6-1.7,1.1-3.5,1.8-5.2l-5.3-2c-0.7,1.8-1.3,3.6-1.9,5.4L12.7,102.8z"/>
		<path class="st2" d="M11.8,96.6c0.7,0.3,1.3,0.8,1.6,1.5c0.3,0.7,0.4,1.4,0.2,2.1c-0.5,1.4-2.1,2.2-3.6,1.7
			c-1.5-0.5-2.3-2.1-1.8-3.6c0.3-0.8,0.8-1.3,1.4-1.6C10.3,96.3,11.1,96.3,11.8,96.6z"/>
	</g>
	<g>
		<path class="st1" d="M16.3,92.9c0.7-1.7,1.5-3.4,2.2-5.1l-5.2-2.4c-0.8,1.8-1.6,3.5-2.3,5.3L16.3,92.9z"/>
		<path class="st2" d="M15.9,86.6c1.4,0.7,2.1,2.3,1.4,3.7c-0.7,1.4-2.3,2.1-3.7,1.5c-1.5-0.6-2.2-2.3-1.5-3.7
			C12.8,86.6,14.5,86,15.9,86.6z"/>
	</g>
	<g>
		<path class="st1" d="M20.7,83.3l1.3-2.5c0.4-0.8,0.8-1.6,1.3-2.4l-5-2.8c-0.5,0.8-0.9,1.7-1.4,2.5l-1.3,2.6L20.7,83.3z"/>
		<path class="st2" d="M20.8,77c1.4,0.8,1.8,2.4,1.2,3.8c-0.7,1.4-2.4,1.9-3.8,1.2c-1.4-0.7-2-2.4-1.2-3.8
			C17.7,76.7,19.4,76.2,20.8,77z"/>
	</g>
	<g>
		<path class="st1" d="M25.8,74c1-1.6,2-3.1,3-4.7L24,66.2c-1,1.6-2.1,3.2-3.1,4.9L25.8,74z"/>
		<path class="st2" d="M26.4,67.8c1.3,0.9,1.7,2.6,0.9,3.9c-0.8,1.3-2.6,1.7-3.9,0.9c-1.4-0.8-1.8-2.6-0.9-3.9
			C23.3,67.3,25.1,66.9,26.4,67.8z"/>
	</g>
	<g>
		<path class="st1" d="M31.6,65.2c1.1-1.5,2.1-3,3.3-4.5l-4.5-3.5c-1.2,1.5-2.3,3.1-3.4,4.6L31.6,65.2z"/>
		<path class="st2" d="M32.6,59c1.3,1,1.5,2.7,0.6,3.9c-0.9,1.2-2.6,1.5-3.9,0.6c-1.3-0.9-1.6-2.7-0.6-4
			C29.6,58.3,31.4,58.1,32.6,59z"/>
	</g>
	<g>
		<polygon class="st1" points="38,56.8 41.6,52.6 37.4,48.8 33.6,53.2 		"/>
		<path class="st2" d="M39.5,50.7c1.2,1.1,1.3,2.8,0.3,4c-1,1.2-2.8,1.3-4,0.3c-1.2-1-1.3-2.8-0.3-4C36.5,49.8,38.3,49.7,39.5,50.7z
			"/>
	</g>
	<g>
		<polygon class="st1" points="45.1,49 47,47 49,45.1 45,41 42.9,42.9 41,45 		"/>
		<path class="st2" d="M47,43c1.1,1.1,1.1,2.9,0,4c-1.1,1.1-2.8,1.1-4,0c-1.1-1.1-1.2-2.9-0.1-4.1C44.1,41.8,45.9,41.9,47,43z"/>
	</g>
	<g>
		<polygon class="st1" points="52.6,41.6 56.8,38 53.2,33.6 48.8,37.4 		"/>
		<path class="st2" d="M55,35.8c1,1.2,0.9,3-0.3,4c-1.2,1-2.9,0.9-4-0.3c-1-1.2-0.9-3,0.3-4C52.2,34.5,54,34.6,55,35.8z"/>
	</g>
	<g>
		<path class="st1" d="M60.8,34.9c1.4-1.2,3-2.2,4.5-3.3L61.9,27c-1.6,1.1-3.2,2.2-4.6,3.4L60.8,34.9z"/>
		<path class="st2" d="M63.6,29.3c0.9,1.3,0.6,3-0.6,3.9c-1.2,0.9-3,0.7-3.9-0.6c-1-1.2-0.7-3.1,0.6-4C60.9,27.7,62.7,28,63.6,29.3z
			"/>
	</g>
	<g>
		<path class="st1" d="M69.4,28.8c1.6-1,3.1-2,4.7-3l-2.9-4.9c-1.6,1-3.2,2.1-4.9,3.1L69.4,28.8z"/>
		<path class="st2" d="M72.6,23.4c0.8,1.3,0.4,3.1-0.9,3.9c-1.3,0.8-3,0.4-3.9-0.9c-0.9-1.3-0.5-3.1,0.9-3.9
			C70,21.6,71.8,22,72.6,23.4z"/>
	</g>
	<g>
		<path class="st1" d="M78.4,23.3c0.8-0.5,1.6-0.9,2.4-1.3l2.5-1.3l-2.6-5.1L78.2,17c-0.9,0.4-1.7,0.9-2.5,1.4L78.4,23.3z"/>
		<path class="st2" d="M82,18.2c0.7,1.4,0.2,3.1-1.2,3.8c-1.4,0.7-3,0.2-3.8-1.2c-0.8-1.4-0.3-3.1,1.2-3.9
			C79.6,16.2,81.3,16.8,82,18.2z"/>
	</g>
	<g>
		<path class="st1" d="M87.8,18.5c1.7-0.7,3.3-1.6,5.1-2.2L90.7,11c-1.8,0.7-3.5,1.6-5.3,2.3L87.8,18.5z"/>
		<path class="st2" d="M91.8,13.7c0.6,1.5-0.1,3.1-1.5,3.7c-1.4,0.6-3.1,0-3.7-1.4c-0.7-1.4,0-3.1,1.4-3.8
			C89.5,11.5,91.2,12.2,91.8,13.7z"/>
	</g>
	<g>
		<path class="st1" d="M97.5,14.5c1.7-0.7,3.5-1.2,5.2-1.8L101,7.2c-1.8,0.6-3.7,1.2-5.4,1.9L97.5,14.5z"/>
		<path class="st2" d="M101.9,9.9c0.5,1.5-0.3,3.1-1.7,3.6c-0.7,0.2-1.5,0.2-2.1-0.2c-0.6-0.3-1.2-0.9-1.5-1.6
			c-0.3-0.7-0.2-1.5,0.1-2.2c0.3-0.6,0.9-1.2,1.6-1.4C99.8,7.7,101.4,8.5,101.9,9.9z"/>
	</g>
	<g>
		<path class="st1" d="M107.6,11.2c1.8-0.5,3.5-1.1,5.3-1.4l-1.4-5.5c-1.9,0.4-3.7,1-5.6,1.5L107.6,11.2z"/>
		<path class="st2" d="M112.2,7c0.4,1.5-0.5,3-2,3.4c-1.5,0.4-3-0.5-3.5-2c-0.4-1.5,0.4-3.1,2-3.5C110.3,4.5,111.9,5.5,112.2,7z"/>
	</g>
	<g>
		<path class="st1" d="M117.8,8.6c1.8-0.4,3.6-0.7,5.4-1L122.3,2c-1.9,0.3-3.8,0.6-5.7,1L117.8,8.6z"/>
		<path class="st2" d="M122.8,4.8c0.3,1.5-0.8,3-2.3,3.3c-1.5,0.3-3-0.8-3.3-2.3c-0.3-1.6,0.7-3,2.3-3.3
			C121.1,2.2,122.5,3.3,122.8,4.8z"/>
	</g>
	<g>
		<polygon class="st1" points="128.2,6.9 131,6.5 132.3,6.3 133.7,6.2 133.2,0.6 131.8,0.7 130.3,0.9 127.5,1.2 		"/>
		<path class="st2" d="M133.5,3.4c0.1,1.6-1,2.9-2.5,3.1c-1.5,0.2-2.9-0.9-3.1-2.5c-0.2-1.6,0.9-3,2.5-3.2
			C131.9,0.6,133.3,1.9,133.5,3.4z"/>
	</g>
	<g>
		<path class="st1" d="M138.7,5.9c1.8-0.1,3.7-0.1,5.5-0.2L144.2,0c-1.9,0.1-3.8,0.1-5.8,0.2L138.7,5.9z"/>
		<path class="st2" d="M144.2,2.8c0,1.6-1.2,2.9-2.7,2.9c-0.8,0-1.5-0.3-2-0.8c-0.5-0.5-0.9-1.2-0.9-1.9c0-0.8,0.2-1.5,0.7-2.1
			c0.5-0.5,1.2-0.9,2-0.9C142.9,0,144.2,1.3,144.2,2.8z"/>
	</g>
	<g>
		<path class="st1" d="M149.3,5.7c1.8,0.1,3.7,0.1,5.5,0.2l0.3-5.7c-1.9-0.1-3.8-0.1-5.8-0.2L149.3,5.7z"/>
		<path class="st2" d="M155,3c0,0.8-0.4,1.5-0.9,1.9c-0.5,0.5-1.2,0.8-2,0.8c-1.5,0-2.7-1.3-2.7-2.9c0-1.6,1.3-2.8,2.9-2.8
			c0.8,0,1.5,0.4,2,0.9C154.8,1.5,155,2.2,155,3z"/>
	</g>
	<g>
		<polygon class="st1" points="159.8,6.2 161.2,6.3 162.6,6.5 165.3,6.9 166.1,1.2 163.2,0.9 161.8,0.7 160.3,0.6 		"/>
		<path class="st2" d="M165.7,4.1c-0.2,1.6-1.6,2.7-3.1,2.5c-1.5-0.2-2.6-1.5-2.5-3.1c0.1-1.6,1.5-2.8,3.1-2.5
			C164.8,1.1,165.9,2.5,165.7,4.1z"/>
	</g>
	<g>
		<path class="st1" d="M170.3,7.6c1.8,0.3,3.6,0.6,5.4,1l1.2-5.6c-1.9-0.4-3.8-0.7-5.7-1L170.3,7.6z"/>
		<path class="st2" d="M176.3,5.8c-0.3,1.5-1.8,2.5-3.3,2.3c-1.5-0.3-2.5-1.7-2.3-3.3c0.3-1.5,1.7-2.6,3.3-2.3
			C175.6,2.8,176.7,4.3,176.3,5.8z"/>
	</g>
	<g>
		<path class="st1" d="M180.6,9.7c1.8,0.4,3.6,1,5.3,1.4l1.6-5.5c-1.9-0.5-3.7-1.1-5.6-1.5L180.6,9.7z"/>
		<path class="st2" d="M186.8,8.4c-0.4,1.5-2,2.4-3.5,2c-1.5-0.4-2.4-1.9-2-3.4c0.4-1.5,1.9-2.5,3.5-2
			C186.3,5.4,187.2,6.9,186.8,8.4z"/>
	</g>
	<g>
		<path class="st1" d="M190.8,12.7c1.7,0.6,3.5,1.1,5.2,1.8l2-5.3c-1.8-0.7-3.6-1.3-5.4-1.9L190.8,12.7z"/>
		<path class="st2" d="M197,11.8c-0.3,0.7-0.8,1.3-1.5,1.6c-0.7,0.3-1.4,0.4-2.1,0.2c-1.4-0.5-2.2-2.1-1.7-3.6
			c0.5-1.5,2.1-2.3,3.6-1.8c0.8,0.3,1.3,0.8,1.6,1.4C197.2,10.3,197.3,11.1,197,11.8z"/>
	</g>
	<g>
		<path class="st1" d="M200.7,16.3c1.7,0.7,3.4,1.5,5.1,2.2l2.4-5.2c-1.8-0.8-3.5-1.6-5.3-2.3L200.7,16.3z"/>
		<path class="st2" d="M206.9,15.9c-0.7,1.4-2.3,2.1-3.7,1.4c-1.4-0.7-2.1-2.3-1.5-3.7c0.6-1.5,2.3-2.2,3.7-1.5
			C207,12.8,207.6,14.5,206.9,15.9z"/>
	</g>
	<g>
		<path class="st1" d="M210.3,20.7l2.5,1.3c0.8,0.4,1.6,0.8,2.4,1.3l2.8-5c-0.8-0.5-1.7-0.9-2.5-1.4l-2.6-1.3L210.3,20.7z"/>
		<path class="st2" d="M216.5,20.8c-0.8,1.4-2.4,1.8-3.8,1.2c-1.4-0.7-1.9-2.4-1.2-3.8c0.7-1.4,2.4-2,3.8-1.2
			C216.8,17.7,217.3,19.4,216.5,20.8z"/>
	</g>
	<g>
		<path class="st1" d="M219.5,25.8c1.6,1,3.1,2,4.7,3l3.1-4.8c-1.6-1-3.2-2.1-4.9-3.1L219.5,25.8z"/>
		<path class="st2" d="M225.8,26.4c-0.9,1.3-2.6,1.7-3.9,0.9c-1.3-0.8-1.7-2.6-0.9-3.9c0.8-1.4,2.6-1.8,3.9-0.9
			C226.2,23.3,226.6,25.1,225.8,26.4z"/>
	</g>
	<g>
		<path class="st1" d="M228.3,31.6c1.5,1.1,3,2.1,4.5,3.3l3.5-4.5c-1.5-1.2-3.1-2.3-4.6-3.4L228.3,31.6z"/>
		<path class="st2" d="M234.5,32.6c-1,1.3-2.7,1.5-3.9,0.6c-1.2-0.9-1.5-2.6-0.6-3.9c0.9-1.3,2.7-1.6,4-0.6
			C235.3,29.6,235.5,31.4,234.5,32.6z"/>
	</g>
	<g>
		<polygon class="st1" points="236.7,38 240.9,41.6 244.7,37.4 240.4,33.6 		"/>
		<path class="st2" d="M242.8,39.5c-1.1,1.2-2.8,1.3-4,0.3c-1.2-1-1.3-2.8-0.3-4c1-1.2,2.8-1.3,4-0.3
			C243.7,36.5,243.9,38.3,242.8,39.5z"/>
	</g>
	<g>
		<polygon class="st1" points="244.6,45.1 246.6,47 248.5,49 252.6,45 250.6,42.9 248.5,41 		"/>
		<path class="st2" d="M250.5,47c-1.1,1.1-2.9,1.1-4,0c-1.1-1.1-1.1-2.8,0-4c1.1-1.1,2.9-1.2,4.1-0.1
			C251.7,44.1,251.7,45.9,250.5,47z"/>
	</g>
	<g>
		<polygon class="st1" points="251.9,52.6 255.6,56.8 259.9,53.2 256.2,48.8 		"/>
		<path class="st2" d="M257.7,55c-1.2,1-3,0.9-4-0.3c-1-1.2-0.9-2.9,0.3-4c1.2-1,3-0.9,4,0.3C259.1,52.2,259,54,257.7,55z"/>
	</g>
	<g>
		<path class="st1" d="M258.7,60.8c1.2,1.4,2.2,3,3.3,4.5l4.6-3.3c-1.1-1.6-2.2-3.2-3.4-4.6L258.7,60.8z"/>
		<path class="st2" d="M264.3,63.6c-1.3,0.9-3,0.6-3.9-0.6c-0.9-1.2-0.7-3,0.6-3.9c1.2-1,3.1-0.7,4,0.6
			C265.8,60.9,265.6,62.7,264.3,63.6z"/>
	</g>
	<g>
		<path class="st1" d="M264.8,69.4c1,1.6,2,3.1,3,4.7l4.9-2.9c-1-1.6-2.1-3.2-3.1-4.9L264.8,69.4z"/>
		<path class="st2" d="M270.2,72.6c-1.3,0.8-3.1,0.4-3.9-0.9c-0.8-1.3-0.4-3,0.9-3.9c1.3-0.9,3.1-0.5,3.9,0.9
			C272,70,271.6,71.8,270.2,72.6z"/>
	</g>
	<g>
		<path class="st1" d="M270.3,78.4c0.5,0.8,0.9,1.6,1.3,2.4l1.3,2.5l5.1-2.6l-1.3-2.6c-0.4-0.9-0.9-1.7-1.4-2.5L270.3,78.4z"/>
		<path class="st2" d="M275.4,82c-1.4,0.7-3.1,0.2-3.8-1.2c-0.7-1.4-0.2-3,1.2-3.8c1.4-0.8,3.1-0.3,3.9,1.2
			C277.3,79.6,276.8,81.3,275.4,82z"/>
	</g>
	<g>
		<path class="st1" d="M275,87.8c0.7,1.7,1.6,3.3,2.2,5.1l5.3-2.2c-0.7-1.8-1.6-3.5-2.3-5.3L275,87.8z"/>
		<path class="st2" d="M279.9,91.8c-1.5,0.6-3.1-0.1-3.7-1.5c-0.6-1.4,0-3.1,1.4-3.7c1.4-0.7,3.1,0,3.8,1.4
			C282.1,89.5,281.3,91.2,279.9,91.8z"/>
	</g>
	<g>
		<path class="st1" d="M279.1,97.5c0.7,1.7,1.2,3.5,1.8,5.2l5.4-1.8c-0.6-1.8-1.2-3.7-1.9-5.4L279.1,97.5z"/>
		<path class="st2" d="M283.6,101.9c-1.5,0.5-3.1-0.3-3.6-1.7c-0.2-0.7-0.2-1.5,0.2-2.1c0.3-0.6,0.9-1.2,1.6-1.5
			c0.7-0.3,1.5-0.2,2.2,0.1c0.6,0.3,1.2,0.9,1.4,1.6C285.9,99.8,285.1,101.4,283.6,101.9z"/>
	</g>
	<g>
		<path class="st1" d="M282.4,107.6c0.5,1.8,1.1,3.5,1.4,5.3l5.5-1.4c-0.4-1.9-1-3.7-1.5-5.6L282.4,107.6z"/>
		<path class="st2" d="M286.6,112.2c-1.5,0.4-3-0.5-3.4-2c-0.4-1.5,0.5-3,2-3.5c1.5-0.4,3.1,0.4,3.5,2
			C289.1,110.3,288.1,111.9,286.6,112.2z"/>
	</g>
	<g>
		<path class="st1" d="M284.9,117.8c0.4,1.8,0.7,3.6,1,5.4l5.6-0.9c-0.3-1.9-0.6-3.8-1-5.7L284.9,117.8z"/>
		<path class="st2" d="M288.7,122.8c-1.5,0.3-3-0.8-3.3-2.3c-0.3-1.5,0.8-3,2.3-3.3c1.6-0.3,3,0.7,3.3,2.3
			C291.3,121.1,290.3,122.5,288.7,122.8z"/>
	</g>
	<g>
		<polygon class="st1" points="286.7,128.2 287,131 287.2,132.3 287.3,133.7 293,133.2 292.9,131.8 292.7,130.3 292.3,127.5 		"/>
		<path class="st2" d="M290.1,133.5c-1.6,0.1-2.9-1-3.1-2.5c-0.2-1.5,0.9-2.9,2.5-3.1c1.6-0.2,3,0.9,3.2,2.5
			C292.9,131.9,291.7,133.3,290.1,133.5z"/>
	</g>
	<g>
		<path class="st1" d="M287.7,138.7c0.1,1.8,0.1,3.7,0.2,5.5l5.7-0.1c-0.1-1.9-0.1-3.8-0.2-5.8L287.7,138.7z"/>
		<path class="st2" d="M290.7,144.2c-1.6,0-2.9-1.2-2.9-2.7c0-0.8,0.3-1.5,0.8-2c0.5-0.5,1.2-0.9,1.9-0.9c0.8,0,1.5,0.2,2.1,0.7
			c0.5,0.5,0.9,1.2,0.9,2C293.5,142.9,292.3,144.2,290.7,144.2z"/>
	</g>
</g>
</svg>
