<svg version="1" xmlns="http://www.w3.org/2000/svg" width="933.333" height="933.333" viewBox="0 0 700.000000 700.000000"><path d="M376.3 17.3c-9.1 18.4-24.9 59.6-35.6 93.2-2.5 7.7-5 15.2-5.6 16.7l-1 2.7-6.5-3.8c-9.8-5.7-31.1-13.6-42.1-15.5-11.2-2.1-25.7-3.1-36.5-2.6-4.4.2-4.2.2 3.5 2.1 10.1 2.5 9.4 2.2 19 6.1 13 5.2 26.3 15.6 33.3 26 3.2 4.7 5.8 10.3 4.4 9.5-.4-.3-4.1-.8-8.2-1.1-4.1-.3-9.3-.8-11.5-1.1-8-1-13.2-1.4-24-2-6-.4-12.1-.9-13.5-1.1-4.1-.8-58.3-1.4-61-.7-1.7.5 4.2 2 19 5 47.9 9.5 80.2 19.1 110.6 32.7 18 8 29 9.9 40.9 7.1 3.6-.8 15.3-5.9 27.6-12 39.4-19.5 69.2-32.2 102.8-43.6 9.6-3.2 17.6-6.1 17.8-6.3.9-.9-21.1 1-33.1 2.9-5 .7-10.9 1.6-13.1 1.9-2.2.3-5 .7-6.1 1-1.2.2-3.9.7-6 1-2.2.4-7.3 1.3-11.4 2.1-4.1.8-8.7 1.7-10.2 2-4.8.9-8.2 1.6-12.8 2.6-2.5.6-5.6 1.3-6.9 1.5-1.3.3-5.1 1.1-8.5 1.9-3.4.8-6.3 1.5-6.6 1.5-.3 0 1.6-4.4 4.2-9.8 4-8.3 10.3-25.2 11.3-30.2.2-.8.8-3.3 1.4-5.5 3.1-11.8 5.9-40.5 3.9-40.5-.4 0-.8.6-.8 1.4 0 3-6.3 20.4-10.2 28.1-6.6 13-16 24.6-26.9 32.8-3.2 2.4-10 5.9-10.5 5.4-.2-.2.7-6.4 2.1-13.8 2.8-15.2 8.1-48.6 9-56.9.3-3 .8-7.5 1-10 .3-2.5.7-6.8 1-9.5 1.4-11.9 2.2-30.2 1.3-31-.3-.3-2.8 4.1-5.5 9.8zM273.7 195.6c-.1.1-4.7.4-10.2.7-5.5.3-11.1.8-12.5 1.1-1.4.3-4.3.7-6.6.9-10.9 1.2-32.1 7.3-46.7 13.4-36.1 15.1-67.7 41.4-89.3 74.3-7.1 10.9-7 10.8-11.3 19-14.1 27.4-22.7 56.7-25.8 88.5-1.5 14.8-.8 48.5 1.1 60.5.3 1.4 1 5.9 1.6 10 3.7 23.5 11.6 49.9 21.1 69.8 2.1 4.6 3.9 8.5 3.9 8.7 0 .3 2.6 5.1 5.7 10.7 35.1 63.7 89.1 106.9 158.8 127.1 6.6 1.9 13.6 3.8 15.5 4.1 1.9.3 6.8 1.2 10.8 2.1 4.1.8 9.7 1.8 12.5 2.1 2.9.3 6.3.7 7.7 1 15.6 2.6 64.7 2.5 79.2-.1 1.3-.3 3.9-.7 5.8-.9 27.8-3.8 60.6-14.2 87-27.6 15.5-8 44-27.4 53.9-36.9 16.6-15.7 24.6-23.9 30.1-31.1 1.9-2.5 3.7-4.7 4-5 2.8-2.5 16.2-22.1 22.1-32.2 14.6-25 27-57.8 31.5-83.6.2-1.2.6-3.4.9-5 .6-3.4 1.4-9.2 2.9-21.2 1.2-9.3 1.3-46.9.2-54-.3-1.9-.8-5.5-1.1-8-2.6-22.9-10.3-49-20.8-71-20.5-43.2-52.7-76.2-94-96.4-12-5.9-31.2-13.1-37.6-14.2-1.4-.3-5.1-1.1-8.1-1.8-3-.8-8-1.7-11-2.1-3-.4-6.4-.9-7.5-1.1-10.9-2.2-46.8-2.1-59.5 0-1.4.3-4.3.7-6.5 1.1-2.2.3-5.6.8-7.5 1.1-1.9.3-8.3 1.6-14.2 3l-10.6 2.4-10.4-2.4c-5.7-1.4-12.1-2.7-14.3-3.1-2.2-.3-6.7-1-10-1.5-10.4-1.6-39.6-3.4-40.8-2.4zm24.3 44.8c12.9 1.3 26.3 3.6 36 6.3 15.7 4.2 15.2 4.2 24.7 1.6 9.8-2.6 19.7-4.8 25.8-5.7 2.3-.4 5.1-.8 6.4-1.1 4.6-.9 17.8-1.8 26.6-1.8 73.7-.5 133.1 42.2 156.6 112.2 7.4 22.4 10.4 41.4 10.4 67.1-.1 22.4-1.6 34.2-7.9 61.5-.7 2.9-5.1 16.3-7.1 21.5-2.7 7.1-13.7 29.5-14.6 29.8-.5.2-.9.8-.9 1.4 0 .5-2.5 4.9-5.6 9.6-17.2 26.4-43.6 52.6-69.3 68.7-.9.5-2.7 1.7-4.1 2.6-20.1 12.9-57.1 26.4-82.5 30.3-2.2.3-5.6.8-7.5 1.1-24.7 3.7-67 2.2-90.7-3-36.4-8.1-68-22.4-93.5-42.3-6.7-5.2-19.4-16.8-24.2-22.1-1.7-1.9-4.1-4.4-5.2-5.6-4.7-4.7-18.2-23.5-23.7-32.7-16.3-27.3-27.2-58.7-31.2-89.3-.3-2.2-.9-6.9-1.4-10.5-1.3-10.2-.6-41.2 1.3-52.5 2.8-16.7 2.9-17.2 5.1-25 17.1-60.9 61.7-105.6 117.5-118.1 1.9-.4 3.7-.8 4-.9 16.6-3.7 36.4-4.8 55-3.1z"/><path d="M386.6 316.1c.3.5 1 .9 1.6.9 1.9 0 13.5 8.9 19.9 15.2 10 10.1 16.1 21.1 17.6 32.1 1.9 13.3.1 23.1-6.5 36.7-5.9 12-5.7 11.6-4.1 10.2.8-.7 4.4-3.6 8-6.5 3.6-2.8 9.8-7.8 13.6-11 3.9-3.1 7.5-5.7 8.1-5.7 1.5 0 4.1 8.5 4.5 14.9 2.1 29.9-21.9 47.8-66.6 49.6-19 .8-29.7 2.9-41.4 8.1-22.4 9.9-38.9 32.5-42.8 58.6l-.7 4.5 6.4 6.3c25.5 25 57.4 38 93.8 38.2 14.1.1 32.3-2.3 33.6-4.3.3-.5-.9-2.9-2.6-5.5-1.8-2.5-3-4.7-2.8-4.8.1-.1 3.3-2.4 7-5 22.7-16 41.5-47.6 47.8-80.5 1.4-7.4 1.8-13.3 1.6-25.6-.2-8.8-.6-17.4-1-19-.3-1.7-1.1-5.3-1.7-8-8.3-38.9-34.9-73.3-70.4-91-10.7-5.4-24.1-10.3-22.9-8.4zM357 496.5c7.5 3.8 10.5 13.8 6.5 21.5-4.9 9.5-17.9 11.4-25.2 3.8-8.7-9.3-5.6-22.2 6.4-26.3 4-1.4 8.1-1.1 12.3 1z"/><path d="M283.5 320.1c-3.3.4-7.1 1-8.5 1.3-1.4.2-3.2.5-4 .5-3.4.2-4.1 1.6-2.5 4.8.9 1.7 2.2 3.6 3 4.3.8.7 1.5 1.6 1.5 2 0 .4-2.6 2.6-5.8 4.8-15.5 10.9-28.8 27.3-38.2 47.4-4.1 8.8-9.5 24.7-10.4 30.8-.3 1.9-.8 4.6-1.1 6-1.4 7-2.1 28.1-1.1 34 .3 1.4.7 4.7 1.1 7.4 1.3 10.3 5.2 23.9 9.7 33.6 1.1 2.4 2.4 5.4 2.9 6.5.5 1.1 2.1 4.1 3.6 6.7 14.2 24 33 41.6 56.8 53.3 9.3 4.6 21.5 9.2 21.5 8.1 0-.2-2.8-2-6.2-4.2-8.2-5-21.5-18.3-25.7-25.8-8.1-14.1-9.8-30.8-4.7-45.2 2.1-6 5.5-13.3 8.3-17.7l2.5-4-4.7 3.4c-4.1 2.9-9.9 7.7-17.5 14.3-1.4 1.2-4.2 3.4-6.2 4.9l-3.7 2.8-1.2-2.3c-2.1-3.9-3.6-12-3.3-18.8.5-14.8 9.6-28 24-35.1 12.4-6 22.8-8 48.9-9.4 10.4-.6 11.6-.7 20-2.6 29.2-6.4 49.7-27.5 56.8-58.4l2.1-9.7-6.9-6.6c-9.9-9.5-14.3-12.9-25-19.4-12.8-7.8-30.9-14.3-48.5-17.3-5.8-1.1-31.1-1.3-37.5-.4zm74.8 43.4c12.4 8.5 7.8 27.4-7.1 29.2-14.2 1.6-23-14.8-14-26.2 4.6-5.9 14.7-7.3 21.1-3z"/></svg>