<svg xmlns="http://www.w3.org/2000/svg" viewBox="0 0 110.467 103.313">
  <defs>
    <style>
      .cls-1 {
        fill: #e8e2d9;
      }

      .cls-2 {
        fill: #fff;
      }

      .cls-3 {
        fill: #70b25f;
      }
    </style>
  </defs>
  <g id="Слой_3" transform="translate(-2238.874 -1865.687)">
    <g id="Group_29" data-name="Group 29">
      <ellipse id="Ellipse_68" data-name="Ellipse 68" class="cls-1" cx="45.3" cy="5.4" rx="45.3" ry="5.4" transform="translate(2253 1958.2)"/>
      <path id="Path_80" data-name="Path 80" class="cls-1" d="M2265.8,1951.5h0a.791.791,0,1,0,.9-1.3h0a.886.886,0,0,0-1.1.2A.731.731,0,0,0,2265.8,1951.5Zm-2-1.3h0c.4.2.9.2,1.1-.2s.2-.9-.2-1.1a.71.71,0,0,0-1.1.2A.8.8,0,0,0,2263.8,1950.2Zm-2.6-2h0a.781.781,0,1,0,1-1.2h0a.792.792,0,0,0-1.1.1.784.784,0,0,0,.1,1.1Zm-2.4-2.1h0a.778.778,0,0,0,1.1-1.1h0a.785.785,0,0,0-1.1,0,.654.654,0,0,0,0,1.1Zm-2.3-2.3h0a.778.778,0,0,0,1.1-1.1h0a.778.778,0,0,0-1.1,1.1Zm-2.1-2.4h0a.781.781,0,0,0,1.2-1h0a.792.792,0,0,0-1.1-.1C2254.1,1940.5,2254.1,1941,2254.4,1941.4Zm-2-2.6h0a.8.8,0,0,0,1.1.2c.4-.2.4-.7.2-1.1h0a.722.722,0,0,0-1.1-.2A.886.886,0,0,0,2252.4,1938.8Zm-1.7-2.7h0a.806.806,0,1,0,.3-1.1A.732.732,0,0,0,2250.7,1936.1Zm-1.6-2.9h0a.806.806,0,0,0,1.4-.8h0a.8.8,0,0,0-1.1-.3A.947.947,0,0,0,2249.1,1933.2Zm-1.4-2.9h0a.762.762,0,1,0,1.4-.6h0a.731.731,0,0,0-1-.4A.819.819,0,0,0,2247.7,1930.3Zm-1.1-3h0a.791.791,0,0,0,1.5-.5h0a.825.825,0,0,0-1-.5.747.747,0,0,0-.5,1Zm-1-3.1h0a.887.887,0,0,0,1,.6.832.832,0,0,0,.6-1,.825.825,0,0,0-1.6.4Zm-.7-3.2h0a.765.765,0,0,0,1.5-.3h0a.765.765,0,0,0-1.5.3Zm-.5-3.2h0a.806.806,0,1,0,1.6-.2h0a.961.961,0,0,0-.9-.7C2244.7,1917,2244.3,1917.4,2244.4,1917.8Zm-.3-3.2h0a.8.8,0,1,0,1.6,0h0a.86.86,0,0,0-.8-.8.789.789,0,0,0-.8.8Zm0-3.2h0a.789.789,0,0,0,.8.8.736.736,0,0,0,.8-.8.789.789,0,0,0-.8-.8A.736.736,0,0,0,2244.1,1911.4Zm.1-3.3h0a.806.806,0,1,0,1.6.2h0a.806.806,0,1,0-1.6-.2Zm.4-3.2h0a.779.779,0,0,0,.7.9c.5.1.8-.2.9-.7h0a.779.779,0,0,0-.7-.9A.96.96,0,0,0,2244.6,1904.9Zm.7-3.1h0a.825.825,0,0,0,1.6.4h0a.887.887,0,0,0-.6-1A.764.764,0,0,0,2245.3,1901.8Zm.9-3.2h0a.791.791,0,0,0,1.5.5h0a.825.825,0,0,0-.5-1A.779.779,0,0,0,2246.2,1898.6Zm1.1-3h0a.762.762,0,1,0,1.4.6h0a.762.762,0,1,0-1.4-.6Zm1.3-3h0a.828.828,0,1,0,1.1-.4A.949.949,0,0,0,2248.6,1892.6Zm1.5-2.8h0a.806.806,0,1,0,1.1-.3A.8.8,0,0,0,2250.1,1889.8Zm1.7-2.8h0a.791.791,0,1,0,1.1-.2A.937.937,0,0,0,2251.8,1887Zm1.9-2.6h0a.781.781,0,0,0,1.2,1h0a.781.781,0,0,0-1.2-1Zm2-2.5h0a.781.781,0,0,0,1.2,1h0a.713.713,0,0,0-.1-1.1.792.792,0,0,0-1.1.1Zm2.2-2.4h0a.778.778,0,0,0,1.1,1.1h0a.778.778,0,0,0-1.1-1.1Zm2.4-2.2h0a.781.781,0,1,0,1.1.1A.792.792,0,0,0,2260.3,1877.3Zm2.5-2h0a.937.937,0,0,0-.2,1.1.913.913,0,0,0,1.1.2h0a.792.792,0,0,0,.1-1.1C2263.7,1875.1,2263.2,1875,2262.8,1875.3Zm2.6-1.9h0a.791.791,0,1,0,1.1.2A.8.8,0,0,0,2265.4,1873.4Zm2.8-1.7h0a.806.806,0,1,0,.8,1.4h0a.806.806,0,1,0-.8-1.4Zm2.9-1.5h0a.828.828,0,0,0,.7,1.5h0a.841.841,0,0,0,.4-1.1A.873.873,0,0,0,2271.1,1870.2Zm2.9-1.3h0a.762.762,0,1,0,1,.4A.886.886,0,0,0,2274,1868.9Zm3.1-1.1h0a.791.791,0,0,0,.5,1.5h0a.825.825,0,0,0,.5-1A.877.877,0,0,0,2277.1,1867.8Zm3.1-.8h0a.825.825,0,1,0,.4,1.6.764.764,0,0,0,.6-1A.741.741,0,0,0,2280.2,1867Zm3.2-.7h0a.765.765,0,1,0,.3,1.5h0a.765.765,0,1,0-.3-1.5Zm3.2-.4h0a.806.806,0,0,0,.2,1.6c.5-.1.8-.4.7-.9A.779.779,0,0,0,2286.6,1865.9Zm3.2-.2h0a.8.8,0,0,0,0,1.6h0a.86.86,0,0,0,.8-.8C2290.6,1866.1,2290.2,1865.6,2289.8,1865.7Zm3.2,0h0a.8.8,0,1,0,.8.8A.789.789,0,0,0,2293,1865.7Zm3.3.2h0c-.4-.1-.8.3-.9.7s.3.8.7.9h0c.4.1.8-.3.9-.7A.961.961,0,0,0,2296.3,1865.9Zm3.2.5h0a.765.765,0,1,0-.3,1.5h0a.765.765,0,1,0,.3-1.5Zm3.1.8h0a.825.825,0,1,0-.4,1.6h0a.8.8,0,0,0,1-.6A.764.764,0,0,0,2302.6,1867.2Zm3.1.9h0a.791.791,0,0,0-.5,1.5h0a.825.825,0,0,0,1-.5A.747.747,0,0,0,2305.7,1868.1Zm3.1,1.1h0a.7.7,0,0,0-1,.4c-.1.4,0,.9.4,1a.7.7,0,0,0,1-.4A.819.819,0,0,0,2308.8,1869.2Zm2.9,1.4h0a.806.806,0,1,0,.3,1.1A.8.8,0,0,0,2311.7,1870.6Zm2.8,1.6h0a.806.806,0,1,0-.8,1.4h0a.806.806,0,1,0,.8-1.4Zm2.7,1.8h0c-.4-.2-.9-.2-1.1.2s-.2.9.2,1.1h0c.4.2.9.2,1.1-.2A.71.71,0,0,0,2317.2,1874Zm2.6,1.9h0a.781.781,0,1,0-1,1.2h0a.792.792,0,0,0,1.1-.1.708.708,0,0,0-.1-1.1Zm2.5,2h0a.781.781,0,1,0-1,1.2h0a.792.792,0,0,0,1.1-.1A.713.713,0,0,0,2322.3,1877.9Zm2.4,2.2h0a.778.778,0,0,0-1.1,1.1h0a.778.778,0,0,0,1.1-1.1Zm2.3,2.2h0a.778.778,0,0,0-1.1,1.1h0a.778.778,0,0,0,1.1-1.1Zm2.2,2.3h0a.781.781,0,0,0-1.2,1h0a.792.792,0,0,0,1.1.1A.784.784,0,0,0,2329.2,1884.6Zm2.1,2.5h0a.781.781,0,0,0-1.2,1h0a.792.792,0,0,0,1.1.1A.713.713,0,0,0,2331.3,1887.1Zm2,2.5h0a.781.781,0,0,0-1.2,1h0a.781.781,0,0,0,1.2-1Zm2,2.5h0a.791.791,0,1,0-.2,1.1A.885.885,0,0,0,2335.3,1892.1Zm1.8,2.7h0a.791.791,0,0,0-1.3.9h0a.71.71,0,0,0,1.1.2A.8.8,0,0,0,2337.1,1894.8Zm1.7,2.7h0a.806.806,0,0,0-1.4.8h0a.806.806,0,0,0,1.4-.8Zm1.6,2.8h0a.806.806,0,1,0-.3,1.1A.8.8,0,0,0,2340.4,1900.3Zm1.5,2.8h0a.828.828,0,1,0-1.5.7h0a.828.828,0,1,0,1.5-.7Zm1.4,2.9h0a.828.828,0,1,0-1.5.7h0a.828.828,0,1,0,1.5-.7Zm1.2,3h0a.762.762,0,1,0-1.4.6h0a.731.731,0,0,0,1,.4A.7.7,0,0,0,2344.5,1909Zm1.2,3h0a.791.791,0,0,0-1.5.5h0a.791.791,0,0,0,1.5-.5Zm.9,3.1h0a.825.825,0,0,0-1.6.4h0a.887.887,0,0,0,1,.6A.8.8,0,0,0,2346.6,1915.1Zm.8,3.2h0a.765.765,0,1,0-.6.9A.779.779,0,0,0,2347.4,1918.3Zm.5,3.1h0a.961.961,0,0,0-.9-.7c-.4,0-.7.5-.7.9s.5.7.9.7A.7.7,0,0,0,2347.9,1921.4Zm.4,3.2h0a.806.806,0,1,0-1.6.2h0a.748.748,0,0,0,.9.7A.808.808,0,0,0,2348.3,1924.6Zm.1,3.3h0a.8.8,0,0,0-1.6,0h0a.86.86,0,0,0,.8.8A.789.789,0,0,0,2348.4,1927.9Zm-.1,3.2h0a.806.806,0,1,0-1.6-.2h0a.961.961,0,0,0,.7.9.779.779,0,0,0,.9-.7Zm-.5,3.3h0a.765.765,0,0,0-1.5-.3h0a.765.765,0,0,0,1.5.3Zm-.7,3.1h0a.791.791,0,0,0-1.5-.5h0a.825.825,0,0,0,.5,1C2346.5,1938.2,2346.9,1937.9,2347.1,1937.5Zm-1.1,3.1h0a.762.762,0,1,0-1.4-.6h0a.7.7,0,0,0,.4,1A.758.758,0,0,0,2346,1940.6Zm-1.5,2.9h0a.806.806,0,1,0-1.1.3A.8.8,0,0,0,2344.5,1943.5Zm-1.7,2.8h0a.791.791,0,0,0-1.3-.9h0a.71.71,0,0,0,.2,1.1A.722.722,0,0,0,2342.8,1946.3Zm-2,2.6h0a.781.781,0,1,0-1.1.1A.91.91,0,0,0,2340.8,1948.9Zm-2.3,2.3h0a.778.778,0,0,0-1.1-1.1h0a.778.778,0,0,0,1.1,1.1Zm-2.5,2.1h0a.781.781,0,1,0-1-1.2h0a.792.792,0,0,0-.1,1.1A.91.91,0,0,0,2336,1953.3Zm-2.7,1.8h0a.806.806,0,1,0-.8-1.4h0a.8.8,0,0,0-.3,1.1C2332.5,1955.2,2332.9,1955.4,2333.3,1955.1Zm-2.8,1.6h0a.806.806,0,1,0-.8-1.4h0a.806.806,0,1,0,.8,1.4Zm-2.9,1.4h0a.762.762,0,0,0-.6-1.4h0a.73.73,0,0,0-.4,1A.7.7,0,0,0,2327.6,1958.1Zm-3,1.2h0a.791.791,0,0,0-.5-1.5h0a.825.825,0,0,0-.5,1A.747.747,0,0,0,2324.6,1959.3Zm-3.1,1h0a.791.791,0,0,0-.5-1.5h0a.747.747,0,0,0-.5,1A.825.825,0,0,0,2321.5,1960.3Zm-3.1.8h0a.765.765,0,1,0-.9-.6A.73.73,0,0,0,2318.4,1961.1Zm-3.2.6h0a.806.806,0,0,0-.2-1.6h0a.961.961,0,0,0-.7.9.808.808,0,0,0,.9.7Zm-3.2.4h0a.748.748,0,0,0,.7-.9c-.1-.5-.4-.8-.9-.7a.748.748,0,0,0-.7.9A.876.876,0,0,0,2312,1962.1Zm-3.2.2h0a.8.8,0,1,0-.8-.8C2308,1962,2308.3,1962.4,2308.8,1962.3Zm-3.2.1h0a.8.8,0,0,0,0-1.6h0a.86.86,0,0,0-.8.8.736.736,0,0,0,.8.8Zm-3.3,0h0a.789.789,0,0,0,.8-.8.736.736,0,0,0-.8-.8h0a.789.789,0,0,0-.8.8C2301.6,1962,2301.9,1962.4,2302.3,1962.4Zm-3.2-.2h0a.806.806,0,0,0,.2-1.6h0a.96.96,0,0,0-.9.7A.808.808,0,0,0,2299.1,1962.2Zm-3.2-.3h0c.4.1.8-.3.9-.7s-.3-.8-.7-.9h0c-.4-.1-.8.3-.9.7a.961.961,0,0,0,.7.9Zm-3.2-.5h0a.806.806,0,1,0-.7-.9A.961.961,0,0,0,2292.7,1961.4Zm-3.1-.6h0a.765.765,0,1,0,.3-1.5h0a.73.73,0,0,0-.9.6.875.875,0,0,0,.6.9Zm-3.1-.7h0a.825.825,0,1,0,.4-1.6h0a.887.887,0,0,0-1,.6.764.764,0,0,0,.6,1Zm-3.1-.8h0a.791.791,0,0,0,.5-1.5h0a.825.825,0,0,0-1,.5c-.2.4,0,.8.5,1Zm-3.1-1h0a.791.791,0,0,0,.5-1.5h0a.825.825,0,0,0-1,.5A.876.876,0,0,0,2280.3,1958.3Zm-3-1.1h0a.791.791,0,1,0-.5-1A.876.876,0,0,0,2277.3,1957.2Zm-3-1.2h0a.762.762,0,1,0-.4-1A.758.758,0,0,0,2274.3,1956Zm-2.9-1.4h0a.828.828,0,0,0,.7-1.5h0a.828.828,0,0,0-.7,1.5Zm-2.9-1.5h0a.806.806,0,1,0-.3-1.1A.8.8,0,0,0,2268.5,1953.1Z"/>
      <path id="Path_81" data-name="Path 81" class="cls-1" d="M2329.6,1878.7c-1.3,1.4-2.8,2.5-4.1,3.9a9.074,9.074,0,0,0-1.9,4.5c-.1.5.9.6,1.2.5a13.139,13.139,0,0,0,4-3c1.4-1.4,1.8-3.4,2.9-5C2332.6,1878.3,2330.3,1877.9,2329.6,1878.7Z"/>
      <path id="Path_82" data-name="Path 82" class="cls-1" d="M2246.7,1890c1.5.9,9.6,6,10.6,2.8a.919.919,0,0,0-.2-1c-2.5-2.3-6.2-3.2-9.5-3.4C2246.9,1888.3,2245.7,1889.3,2246.7,1890Z"/>
      <path id="Path_83" data-name="Path 83" class="cls-1" d="M2280,1876.9c.5.7.9,1.5,1.4,2.2a6.49,6.49,0,0,0,1.9,1.8c.3.2,1.2.2,1.1-.3a5.452,5.452,0,0,0-.5-2.2c-.4-.8-.9-1.7-1.4-2.5C2281.8,1874.8,2279.1,1875.6,2280,1876.9Z"/>
      <path id="Path_84" data-name="Path 84" class="cls-1" d="M2286.5,1965.2c6.1,0,3.9-5,4.2-10,.5-8,1.4-20.4-4.9-26.4-3.9,2.6-1.2,11.4-.6,15.3A134.371,134.371,0,0,1,2286.5,1965.2Z"/>
      <path id="Path_85" data-name="Path 85" class="cls-1" d="M2268.8,1954.5h0c-3.5,0-4.9-2.9-7.3-4.8a5.943,5.943,0,0,0-3.8-1.4c-.9,0-1.7.2-2.5.2a4.548,4.548,0,0,0-2.8.5,14.916,14.916,0,0,0-1.2,1.4,9.8,9.8,0,0,1-2.2,1.3c-2.3,1-5.9.2-6.1-2.8-.1-1.2,1-1.8.6-3.1a5.277,5.277,0,0,0-2.5-3,3.638,3.638,0,0,1-2.1-3.6,2.883,2.883,0,0,1,1.8-2.2c1-.5,1.7-.2,2.7-.2.1-1.9-.7-4.1.1-6,.9-2.2,3.5-.2,4.8.4.4-1.6-.3-4.6,2.5-3.9-.3-1.4.9-3.9,2.6-2.8.7-1.4,1.9-3.3,3.8-2.8,1.8.4,1.9,2.6,1.5,4a6.109,6.109,0,0,1,3-.8,1.374,1.374,0,0,1,1.2.4c.3.5,0,.7-.3,1.1.3-.5,1.7,0,1.9.4.4.8-.4,1.9-.8,2.5,2.9,1.7,7,5.2,2.6,7.8,3.2-.2,14.8,3.2,7.1,6.8,1.4,2.1,1,4.2-.4,6.2-.6.9-1.4,1.6-2,2.4C2270.3,1953.5,2270,1954.5,2268.8,1954.5Z"/>
      <path id="Path_86" data-name="Path 86" class="cls-1" d="M2307.8,1916.5h0c-.6,3.6-3.9,4.5-6.3,6.7a6.725,6.725,0,0,0-2.2,3.7,24.5,24.5,0,0,0-.2,2.7,6.094,6.094,0,0,0,0,3c.3.6.9,1,1.2,1.5a10.889,10.889,0,0,1,1,2.5c.6,2.5-.9,6.1-4,5.8-1.3-.1-1.6-1.4-3.1-1.2a5.19,5.19,0,0,0-3.5,2.1,3.863,3.863,0,0,1-4.1,1.5,2.991,2.991,0,0,1-1.9-2.3,5.3,5.3,0,0,1,.3-2.8c-1.9-.5-4.4,0-6.1-1.2-2.1-1.4.4-3.6,1.3-4.9-1.5-.7-4.8-.6-3.6-3.3-1.5.1-3.8-1.7-2.4-3.2-1.3-1-3-2.5-2.2-4.5.8-1.7,3.1-1.5,4.4-.8a6.071,6.071,0,0,1-.2-3.3c.1-.4.2-1,.6-1.1.6-.3.7.1,1.1.5-.5-.4.3-1.8.8-1.9.9-.2,1.9.8,2.4,1.3,2.3-2.7,6.7-6.3,8.6-1.3.4-3.3,6.1-14.6,8.4-6.1,2.4-1.1,4.5-.2,6.3,1.5.8.8,1.4,1.8,2.1,2.5C2307.1,1914.8,2308.1,1915.2,2307.8,1916.5Z"/>
      <path id="Path_87" data-name="Path 87" class="cls-1" d="M2257.8,1961.7a10.756,10.756,0,0,1,3.1-.7c-.9-3.5-2.1-7-3.2-10.5-.6-1.7-1.1-8.4-2.5-9.4-1.6-1.1-1.7,1-1.3,2.1.7,1.9,1.3,3.7,1.8,5.6A93.786,93.786,0,0,1,2257.8,1961.7Z"/>
      <path id="Path_88" data-name="Path 88" class="cls-1" d="M2292.2,1942.7c.2-3,1.9-7,5.2-7.6-2.3-4.5-2.8-14.7,4.8-14.2v-.1c-2.6-6.4.5-12.5,7.9-9.8,1.2-4.7,5.3-9.4,10-10.8,2.2-.6,7.9-1,7.2,2.8,7.1-1,11.1,4.5,5.8,10,4.5,1.2,16.5,10.2,6.3,12.4,8.1,2.2,7.3,13.1-1.2,13.8,6.3,2.3,5.9,9.5-1,10.4-6.1.8-11-3.6-15.8-6.6-3.7-2.3-8.5-2.3-12.9-2.1A128.961,128.961,0,0,0,2292.2,1942.7Z"/>
      <path id="Path_89" data-name="Path 89" class="cls-1" d="M2315.1,1961.5c4.5-.1,2.6-7.3,2.5-10-.2-3.6,2-9.6.1-12.9-1.4-2.4-3.6-2.5-5.6-.7a3.344,3.344,0,0,0-1.1,2.7,104.471,104.471,0,0,0,.4,12.5C2311.5,1955.3,2311.7,1961.6,2315.1,1961.5Z"/>
      <path id="Path_90" data-name="Path 90" class="cls-2" d="M2305.6,1918.6a2.514,2.514,0,0,0,.2,1.5.3.3,0,0,0,.4,0,1.938,1.938,0,0,0,.2-1.5C2306.3,1918,2305.6,1918,2305.6,1918.6Z"/>
      <path id="Path_91" data-name="Path 91" class="cls-2" d="M2305.3,1924.7a4.494,4.494,0,0,0,.1,2.3c.1.3.4.3.5,0a4.5,4.5,0,0,0,.1-2.3C2306.1,1924.2,2305.3,1924.2,2305.3,1924.7Z"/>
      <path id="Path_92" data-name="Path 92" class="cls-2" d="M2299.3,1928.6v1.4a1.431,1.431,0,0,0,.3,1.1.446.446,0,0,0,.5,0,1.431,1.431,0,0,0,.3-1.1v-1.4C2300.5,1927.8,2299.3,1927.8,2299.3,1928.6Z"/>
      <path id="Path_93" data-name="Path 93" class="cls-2" d="M2319.3,1922.2a6.6,6.6,0,0,0,.1,1.4c0,.2.2.3.4.4h.3c.2,0,.3-.2.4-.4a6.6,6.6,0,0,0,.1-1.4C2320.4,1921.5,2319.3,1921.5,2319.3,1922.2Z"/>
      <path id="Path_94" data-name="Path 94" class="cls-2" d="M2317.3,1908.6a1.845,1.845,0,0,0,.4,1.3.3.3,0,0,0,.4,0,1.575,1.575,0,0,0,.4-1.3A.6.6,0,1,0,2317.3,1908.6Z"/>
      <path id="Path_95" data-name="Path 95" class="cls-2" d="M2326,1920.8a1.575,1.575,0,0,0,.4,1.3.3.3,0,0,0,.4,0,1.575,1.575,0,0,0,.4-1.3A.6.6,0,1,0,2326,1920.8Z"/>
      <path id="Path_96" data-name="Path 96" class="cls-2" d="M2313.7,1921.1v1.1c0,.4.2.5.4.8a.3.3,0,0,0,.4,0,1.039,1.039,0,0,0,.4-.8v-1.1A.6.6,0,1,0,2313.7,1921.1Z"/>
      <path id="Path_97" data-name="Path 97" class="cls-2" d="M2308.9,1933.9c0,.5,0,1.6.7,1.6s.7-1.1.7-1.6A.7.7,0,1,0,2308.9,1933.9Z"/>
      <path id="Path_98" data-name="Path 98" class="cls-2" d="M2303.5,1935.4a4.224,4.224,0,0,0,.3,1.2.3.3,0,0,0,.4,0,1.676,1.676,0,0,0,.3-1.2A.523.523,0,1,0,2303.5,1935.4Z"/>
      <path id="Path_99" data-name="Path 99" class="cls-2" d="M2323.5,1935.3a2.522,2.522,0,0,0,.6,1.7.452.452,0,0,0,.6,0c.5-.6.1-1.1,0-1.7A.6.6,0,1,0,2323.5,1935.3Z"/>
      <path id="Path_100" data-name="Path 100" class="cls-2" d="M2322.9,1927.5a1.814,1.814,0,0,0,.3,1.3.375.375,0,0,0,.6,0,2.082,2.082,0,0,0,.3-1.3C2324.2,1926.7,2322.8,1926.7,2322.9,1927.5Z"/>
      <path id="Path_101" data-name="Path 101" class="cls-2" d="M2338.5,1930.3c.2.4.2.8.4,1.2a.567.567,0,0,0,1,0,2.117,2.117,0,0,0-.2-1.9C2339.3,1928.8,2338,1929.5,2338.5,1930.3Z"/>
      <path id="Path_102" data-name="Path 102" class="cls-2" d="M2336.8,1919.6c0,.2.1.3.1.5a.567.567,0,0,0,1,0,.9.9,0,0,0,.1-.5A.631.631,0,1,0,2336.8,1919.6Z"/>
      <path id="Path_103" data-name="Path 103" class="cls-2" d="M2321.7,1911a.6.6,0,0,0,.1.4.591.591,0,0,0,1.1,0,.6.6,0,0,0,.1-.4A.669.669,0,1,0,2321.7,1911Z"/>
      <path id="Path_104" data-name="Path 104" class="cls-2" d="M2318.8,1915.8v1a.425.425,0,0,0,.6.4c.6-.2.6-.9.6-1.4A.6.6,0,1,0,2318.8,1915.8Z"/>
      <path id="Path_105" data-name="Path 105" class="cls-2" d="M2329.8,1905.6a6.6,6.6,0,0,0-.1,1.4c0,.4.2,1.1.7,1.1s.7-.7.7-1.1a6.6,6.6,0,0,0-.1-1.4C2331,1904.9,2329.9,1904.9,2329.8,1905.6Z"/>
      <path id="Path_106" data-name="Path 106" class="cls-2" d="M2332.3,1940.8c0,.5,0,1.1.5,1.4a.3.3,0,0,0,.4,0c.5-.3.5-.9.5-1.4A.7.7,0,0,0,2332.3,1940.8Z"/>
      <path id="Path_107" data-name="Path 107" class="cls-2" d="M2247.1,1933.3a3.8,3.8,0,0,0,.3,1.8c.1.1.3.1.3,0a3.61,3.61,0,0,0,.3-1.8C2248,1932.8,2247.1,1932.8,2247.1,1933.3Z"/>
      <path id="Path_108" data-name="Path 108" class="cls-2" d="M2244.4,1939.4c0,.6-.3,1.7.2,2.2h.2c.5-.4.3-1.6.2-2.2C2245.1,1939,2244.4,1939,2244.4,1939.4Z"/>
      <path id="Path_109" data-name="Path 109" class="cls-2" d="M2247.8,1945.8a2.193,2.193,0,0,0,.7,1.7c.1.1.3,0,.4,0,.5-.5.2-1,.1-1.6C2248.9,1945.1,2247.7,1945,2247.8,1945.8Z"/>
      <path id="Path_110" data-name="Path 110" class="cls-2" d="M2250.8,1936.1a2.155,2.155,0,0,0,.4,1.6.3.3,0,0,0,.4,0,2.155,2.155,0,0,0,.4-1.6A.6.6,0,1,0,2250.8,1936.1Z"/>
      <path id="Path_111" data-name="Path 111" class="cls-2" d="M2254.6,1928.5a2.186,2.186,0,0,1,.3.5.49.49,0,0,0,.9-.1,1.322,1.322,0,0,0-.2-1.2A.642.642,0,1,0,2254.6,1928.5Z"/>
      <path id="Path_112" data-name="Path 112" class="cls-2" d="M2259.9,1929.7c0,.5-.2,1.2.3,1.6a.3.3,0,0,0,.4,0c.4-.4.3-1.1.3-1.6C2260.8,1929.1,2259.9,1929.1,2259.9,1929.7Z"/>
      <path id="Path_113" data-name="Path 113" class="cls-2" d="M2255.5,1934.4a1.949,1.949,0,0,0,.1,1.3.567.567,0,0,0,1,0,1.952,1.952,0,0,0,.1-1.3A.6.6,0,1,0,2255.5,1934.4Z"/>
      <path id="Path_114" data-name="Path 114" class="cls-2" d="M2256.7,1941.4a2.277,2.277,0,0,0,.4,1.6c.1.1.2.1.4,0,.4-.4.3-1.1.4-1.6C2257.9,1940.7,2256.7,1940.7,2256.7,1941.4Z"/>
      <path id="Path_115" data-name="Path 115" class="cls-2" d="M2264.8,1943.7c.2.5.2,1.2.6,1.6a.3.3,0,0,0,.4,0c.6-.6.3-1.5.1-2.2C2265.6,1942.3,2264.4,1942.9,2264.8,1943.7Z"/>
      <path id="Path_116" data-name="Path 116" class="cls-2" d="M2264.7,1937.2a3.591,3.591,0,0,0,.2,1.8.3.3,0,0,0,.4,0,3.591,3.591,0,0,0,.2-1.8A.4.4,0,0,0,2264.7,1937.2Z"/>
      <path id="Path_117" data-name="Path 117" class="cls-2" d="M2278.9,1922.7a2.769,2.769,0,0,0,.3,1.3c.1.2.4.6.7.6.9,0,.4-1.5.4-1.9C2280.2,1921.9,2278.8,1921.9,2278.9,1922.7Z"/>
      <path id="Path_118" data-name="Path 118" class="cls-2" d="M2284,1919.5a3.815,3.815,0,0,1,.3,1,.591.591,0,0,0,1.1,0,3.332,3.332,0,0,0-.2-1.7C2284.8,1918,2283.6,1918.7,2284,1919.5Z"/>
      <path id="Path_119" data-name="Path 119" class="cls-2" d="M2291.9,1916.6v1.1c0,.4.2.5.4.8a.3.3,0,0,0,.4,0,.811.811,0,0,0,.4-.8v-1.1C2293.3,1915.7,2291.9,1915.7,2291.9,1916.6Z"/>
      <path id="Path_120" data-name="Path 120" class="cls-2" d="M2296.6,1915.5c0,.6.3,1.5,1,1.5.3,0,.5-.3.6-.6v-.6c0-.1-.1-.3-.1-.4C2298,1914.6,2296.6,1914.6,2296.6,1915.5Z"/>
      <path id="Path_121" data-name="Path 121" class="cls-2" d="M2295.6,1909.9a4.224,4.224,0,0,0,.3,1.2.385.385,0,0,0,.7,0,2.376,2.376,0,0,0,.3-1.2C2297,1909.1,2295.5,1909.1,2295.6,1909.9Z"/>
      <path id="Path_122" data-name="Path 122" class="cls-2" d="M2292.7,1922.2a2.357,2.357,0,0,0,.2.8.43.43,0,0,0,.4.4h.3c.2,0,.3-.2.4-.4.1-.3.1-.5.2-.8C2294.3,1921.3,2292.6,1921.3,2292.7,1922.2Z"/>
      <path id="Path_123" data-name="Path 123" class="cls-2" d="M2289.9,1929.7a2.966,2.966,0,0,0,.2,1.6c.2.2.5.2.6,0a2.966,2.966,0,0,0,.2-1.6A.5.5,0,1,0,2289.9,1929.7Z"/>
      <path id="Path_124" data-name="Path 124" class="cls-2" d="M2285.6,1925.5a3.591,3.591,0,0,0,.2,1.8c.1.1.3.1.3,0a3.591,3.591,0,0,0,.2-1.8C2286.3,1925.1,2285.6,1925.1,2285.6,1925.5Z"/>
      <path id="Path_125" data-name="Path 125" class="cls-2" d="M2280.9,1929.1a7.561,7.561,0,0,0,.1,1.5c.1.2.4.2.4,0a7.561,7.561,0,0,0,.1-1.5C2281.6,1928.7,2280.8,1928.7,2280.9,1929.1Z"/>
      <path id="Path_126" data-name="Path 126" class="cls-2" d="M2283,1936.8c.3.8.2,1.7.5,2.5a.3.3,0,0,0,.4,0,3.591,3.591,0,0,0-.1-2.7C2283.7,1936,2282.9,1936.2,2283,1936.8Z"/>
      <path id="Path_127" data-name="Path 127" class="cls-2" d="M2287.4,1938a5.278,5.278,0,0,0,.1,1.3.451.451,0,0,0,.3.3h.2a.451.451,0,0,0,.3-.3,5.7,5.7,0,0,0,.1-1.3A.5.5,0,0,0,2287.4,1938Z"/>
      <path id="Path_128" data-name="Path 128" class="cls-2" d="M2291.6,1936.1a1.431,1.431,0,0,0,.3,1.1.609.609,0,0,0,.8,0,1.431,1.431,0,0,0,.3-1.1A.7.7,0,0,0,2291.6,1936.1Z"/>
      <path id="Path_129" data-name="Path 129" class="cls-2" d="M2253.1,1941.3a2.934,2.934,0,0,0-.4,1.6c0,.4.1,1.2.5,1.4,1.1.5,1-1.9,1.2-2.5A.71.71,0,0,0,2253.1,1941.3Z"/>
      <path id="Path_130" data-name="Path 130" class="cls-2" d="M2332.8,1934.7a3.713,3.713,0,0,0,.4,1.4.483.483,0,0,0,.7,0,2.3,2.3,0,0,0,.4-1.4C2334.4,1933.7,2332.6,1933.7,2332.8,1934.7Z"/>
      <path id="Path_131" data-name="Path 131" class="cls-2" d="M2330.1,1925.2a1.792,1.792,0,0,0,.4,1.4.454.454,0,0,0,.5,0,3.253,3.253,0,0,0,.4-1.4C2331.4,1924.5,2330.1,1924.5,2330.1,1925.2Z"/>
      <path id="Path_132" data-name="Path 132" class="cls-2" d="M2316.5,1935.4a7.73,7.73,0,0,0,.2,1.5,2.846,2.846,0,0,0,.4,1.2.446.446,0,0,0,.5,0,2.01,2.01,0,0,0,.4-1.3,4.712,4.712,0,0,0-.4-1.7C2317.3,1934.3,2316.4,1934.8,2316.5,1935.4Z"/>
      <path id="Path_133" data-name="Path 133" class="cls-2" d="M2315.1,1928v1.1c0,.4-.2.8-.1,1.2a.247.247,0,0,0,.4.1c.6-.5.5-1.7.4-2.4C2315.8,1927.6,2315.1,1927.6,2315.1,1928Z"/>
      <path id="Path_134" data-name="Path 134" class="cls-2" d="M2297.4,1938.6c.2.2.3.6.6.8a.454.454,0,0,0,.5,0,1.5,1.5,0,0,0,.1-1.8C2297.9,1936.8,2296.6,1937.8,2297.4,1938.6Z"/>
    </g>
    <path id="Path_135" data-name="Path 135" class="cls-3" d="M2344.9,1945.6c-.9,0-1.9.1-2.8.1-1.2-4.4-2.4-8.7-3.3-13.2-1.1-5.2-3-10.1-4.4-15.2,3.6.8,8.2-2.9,4.5-5.6-12.2-8.7-24.5-17.3-38.2-23.6a4.672,4.672,0,0,0-4.7.5,145.2,145.2,0,0,1-32.2,21.6c-3.4,1.7-1.4,4.8,1.2,5.3-3.1,10.5-5.4,21.2-9.6,31.4-1.5,0-2.9,0-4.4-.1-3.3-.1-3.2,3.8,0,4.1,16.2,1.3,32.5,1.9,48.8,2.2,15.4.3,31,.9,46.4-.7C2351.3,1951.9,2349.7,1945.4,2344.9,1945.6Zm-5.7.2-6.6.3c.2-4.9-.4-10-.7-14.8-.3-5.4-.7-10.7-1.1-16.1,1.3,4.9,3.1,9.7,4.4,14.6C2336.7,1935.2,2337.7,1940.6,2339.2,1945.8Zm-35.4-34.3c-2.1.1-4.1.2-6.2.3-.1,0-.1-.1-.2-.1.3-2.5.5-5,.7-7.5.2-2.9.8-6,.5-8.9a5.009,5.009,0,0,0,.8-.7,189.469,189.469,0,0,1,26.2,16.6C2318.2,1911.3,2311,1911.2,2303.8,1911.5Zm-7.1,19.8c.3,5.2.2,10.6.9,15.7-4.4.1-8.9.1-13.3.1.6-4.8-.1-10-.1-14.7.1-6,1-12.3.5-18.2l11.5-.3C2296.1,1919.7,2296.4,1925.5,2296.7,1931.3Zm.2-34.7c-1.3,4.8-.9,10.4-1.4,15.3-6.1.2-12.1.5-18.2.5-.5,0-2.1-.1-3.9-.2A154.564,154.564,0,0,0,2296.9,1896.6Zm-30.6,22.6c.1-.4.3-1.1.5-1.8.1,4.7.3,9.3.6,14,.3,5.2.2,10.6.8,15.8-3.7,0-7.4-.1-11.1-.2C2261.1,1938.1,2263.4,1928.5,2266.3,1919.2Zm3.9,28c.4-5.2-.3-10.6-.6-15.8-.3-5.5-.8-11-1.1-16.6.3-.1.5-.3.8-.4h2.1c2.8,0,5.7-.1,8.5-.1h3.4c-.9,5.3-.4,11-.3,16.3,0,5.6.2,11.1.4,16.7C2278.9,1947.2,2274.6,1947.2,2270.2,1947.2Zm29.7-.2c.4-4.6-.2-9.3-.5-13.8-.4-6.5-.9-13-1.3-19.5,2.5-.1,5-.2,7.4-.3,3-.1,6-.1,9-.2-.3,4.8.3,9.6.5,14.4.3,5.6.6,11.4,1.3,16.9,0,.2.4.2.4,0,.3-5.6.1-11.3.1-16.9a70.028,70.028,0,0,0-1.2-14.4c4.2,0,8.4,0,12.6-.2.3.2.6.5.9.7,0,5.8.3,11.7.7,17.5.3,4.9.2,9.9.7,14.9Q2315.2,1946.85,2299.9,1947Z"/>
  </g>
</svg>
