<svg xmlns="http://www.w3.org/2000/svg" viewBox="0 0 86 102.2">
  <defs>
    <style>
      .cls-1 {
        fill: #ffffff;
      }

      .cls-2 {
        fill: #000000;
      }
    </style>
  </defs>
  <g id="Слой_4" transform="translate(-2492.6 -1865.1)">
    <g id="Group_27" data-name="Group 27">
      <path id="Path_72" data-name="Path 72" class="cls-1" d="M2554.7,1965c0,1.3-8.8,2.3-19.7,2.3s-19.7-1-19.7-2.3,8.8-2.3,19.7-2.3S2554.7,1963.7,2554.7,1965Z"/>
      <path id="Path_73" data-name="Path 73" class="cls-1" d="M2511.6,1947.9c22.2,14,55.6-8.5,45.8-36.1-4.6-13.2-18.1-16.4-29.4-10.3-5.3,2.8-9,7.4-13.6,11.3-3.9,3.3-7.1,5.2-9.7,10.1C2499.5,1932.8,2502.5,1942.3,2511.6,1947.9Z"/>
      <path id="Path_74" data-name="Path 74" class="cls-1" d="M2510.5,1940.8h0a.652.652,0,0,0,.7-1.1h0a.652.652,0,0,0-.7,1.1Zm-1-.7h0a.652.652,0,1,0-.2-.9A.764.764,0,0,0,2509.5,1940.1Zm-2.1-1.6h0a.64.64,0,1,0,.8-1h0a.633.633,0,0,0-.9.1C2507,1937.8,2507.1,1938.2,2507.4,1938.5Zm-2.1-1.8h0a.707.707,0,0,0,1-1h0a.707.707,0,0,0-1,1Zm-1.9-2h0a.707.707,0,0,0,1-1h0a.666.666,0,0,0-1,0A.909.909,0,0,0,2503.4,1934.7Zm-1.8-2.1h0a.64.64,0,1,0,.1-.9A.744.744,0,0,0,2501.6,1932.6Zm-1.6-2.2h0a.652.652,0,1,0,1.1-.7h0a.652.652,0,1,0-1.1.7Zm-1.4-2.3h0a.652.652,0,1,0,1.1-.7h0a.652.652,0,1,0-1.1.7Zm-1.4-2.4h0a.671.671,0,1,0,1.2-.6h0a.687.687,0,0,0-.9-.3A.807.807,0,0,0,2497.2,1925.7Zm-1.1-2.5h0a.7.7,0,1,0,1.3-.5h0a.751.751,0,0,0-.9-.4C2496.1,1922.5,2495.9,1922.9,2496.1,1923.2Zm-1-2.5h0c.1.4.5.5.9.4s.5-.5.4-.9h0a.751.751,0,0,0-.9-.4C2495.1,1919.9,2495,1920.3,2495.1,1920.7Zm-.8-2.6h0a.667.667,0,0,0,1.3-.3.749.749,0,0,0-.8-.5A.688.688,0,0,0,2494.3,1918.1Zm-.7-2.7h0a.667.667,0,0,0,1.3-.3h0a.618.618,0,0,0-.8-.5.749.749,0,0,0-.5.8Zm-.5-2.7h0a.707.707,0,0,0,1.4-.2h0a.76.76,0,0,0-.8-.6A.838.838,0,0,0,2493.1,1912.7Zm-.3-2.7h0a.661.661,0,0,0,.7.6c.3,0,.6-.4.6-.7h0a.661.661,0,0,0-.7-.6A.563.563,0,0,0,2492.8,1910Zm-.2-2.7h0a.7.7,0,0,0,1.4,0h0a.7.7,0,0,0-1.4,0Zm0-2.7h0a.652.652,0,1,0,.7-.6C2493,1903.9,2492.7,1904.2,2492.6,1904.6Zm.2-2.8h0c0,.4.2.7.6.7s.7-.2.7-.6h0c0-.4-.2-.7-.6-.7a.857.857,0,0,0-.7.6Zm.4-2.7h0c-.1.4.2.7.6.8s.7-.2.8-.6h0c.1-.4-.2-.7-.6-.8A.761.761,0,0,0,2493.2,1899.1Zm.5-2.7h0a.667.667,0,1,0,1.3.3h0a.618.618,0,0,0-.5-.8.688.688,0,0,0-.8.5Zm.8-2.6h0a.632.632,0,1,0,.8-.4A.542.542,0,0,0,2494.5,1893.8Zm.9-2.6h0a.7.7,0,1,0,.9-.4A.751.751,0,0,0,2495.4,1891.2Zm1.1-2.5h0a.671.671,0,1,0,1.2.6h0a.687.687,0,0,0-.3-.9A.63.63,0,0,0,2496.5,1888.7Zm1.2-2.4h0a.671.671,0,1,0,1.2.6h0a.671.671,0,1,0-1.2-.6Zm1.4-2.4h0a.652.652,0,1,0,1.1.7h0a.652.652,0,1,0-1.1-.7Zm1.5-2.3h0a.652.652,0,1,0,.9-.2A.765.765,0,0,0,2500.6,1881.6Zm1.6-2.1h0a.64.64,0,0,0,1,.8h0a.633.633,0,0,0-.1-.9C2502.9,1879.1,2502.5,1879.2,2502.2,1879.5Zm1.8-2.1h0a.707.707,0,1,0,1,0A.668.668,0,0,0,2504,1877.4Zm2-1.9h0a.707.707,0,0,0,1,1h0a.707.707,0,0,0-1-1Zm2-1.8h0a.64.64,0,1,0,.9.1A.564.564,0,0,0,2508,1873.7Zm2.2-1.7h0a.652.652,0,0,0,.7,1.1h0a.652.652,0,0,0-.7-1.1Zm2.3-1.5h0a.652.652,0,0,0,.7,1.1h0a.652.652,0,0,0-.7-1.1Zm2.4-1.4h0a.671.671,0,1,0,.9.3A.806.806,0,0,0,2514.9,1869.1Zm2.5-1.1h0a.7.7,0,0,0,.5,1.3h0a.751.751,0,0,0,.4-.9C2518.1,1868,2517.7,1867.8,2517.4,1868Zm2.5-1h0c-.4.1-.5.5-.4.9s.5.5.9.4h0c.4-.1.5-.5.4-.9A.807.807,0,0,0,2519.9,1867Zm2.6-.8h0a.667.667,0,1,0,.8.5A.689.689,0,0,0,2522.5,1866.2Zm2.7-.6h0a.667.667,0,1,0,.3,1.3h0a.618.618,0,0,0,.5-.8A.792.792,0,0,0,2525.2,1865.6Zm2.7-.3h0a.652.652,0,1,0,.7.6A.562.562,0,0,0,2527.9,1865.3Zm2.8-.2h0a.7.7,0,1,0,.7.7A.751.751,0,0,0,2530.7,1865.1Zm2.7.1h0a.652.652,0,1,0-.1,1.3c.3,0,.7-.3.7-.6A.563.563,0,0,0,2533.4,1865.2Zm2.8.2h0c-.4-.1-.7.2-.8.6s.2.7.6.8h0c.4.1.7-.2.8-.6A.871.871,0,0,0,2536.2,1865.4Zm2.7.5h0a.667.667,0,0,0-.3,1.3h0a.689.689,0,0,0,.8-.5A.891.891,0,0,0,2538.9,1865.9Zm2.6.7h0a.632.632,0,0,0-.8.4.68.68,0,0,0,.4.8h0a.632.632,0,0,0,.8-.4A.542.542,0,0,0,2541.5,1866.6Zm2.6.9h0a.74.74,0,0,0-.9.4c-.2.4,0,.7.4.9h0a.74.74,0,0,0,.9-.4A.751.751,0,0,0,2544.1,1867.5Zm2.5,1.1h0a.671.671,0,1,0,.3.9A.61.61,0,0,0,2546.6,1868.6Zm2.4,1.3h0a.652.652,0,0,0-.7,1.1h0a.651.651,0,0,0,.9-.2A.534.534,0,0,0,2549,1869.9Zm2.4,1.4h0a.652.652,0,0,0-.7,1.1h0a.652.652,0,0,0,.7-1.1Zm2.2,1.6h0a.64.64,0,1,0-.8,1h0a.633.633,0,0,0,.9-.1A.648.648,0,0,0,2553.6,1872.9Zm2.1,1.8h0a.64.64,0,1,0-.8,1h0a.64.64,0,1,0,.8-1Zm2,1.8h0a.707.707,0,0,0-1,1h0a.76.76,0,0,0,1,0A.668.668,0,0,0,2557.7,1876.5Zm2,1.9h0a.707.707,0,0,0-1,1h0a.668.668,0,0,0,1,0,.76.76,0,0,0,0-1Zm1.8,2h0a.711.711,0,1,0-.1,1A.675.675,0,0,0,2561.5,1880.4Zm1.8,2h0a.64.64,0,0,0-1,.8h0a.642.642,0,0,0,.9.1C2563.5,1883.2,2563.5,1882.7,2563.3,1882.4Zm1.7,2.2h0a.64.64,0,0,0-1,.8c.3.3.6.4.9.1A.744.744,0,0,0,2565,1884.6Zm1.6,2.2h0a.652.652,0,1,0-1.1.7h0a.652.652,0,1,0,1.1-.7Zm1.5,2.2h0a.652.652,0,1,0-.2.9A.651.651,0,0,0,2568.1,1889Zm1.5,2.3h0a.652.652,0,1,0-1.1.7h0a.652.652,0,1,0,1.1-.7Zm1.3,2.3h0a.671.671,0,1,0-1.2.6h0a.806.806,0,0,0,.9.3C2571,1894.4,2571.1,1894,2570.9,1893.6Zm1.3,2.4h0a.671.671,0,1,0-.3.9C2572.3,1896.8,2572.4,1896.4,2572.2,1896Zm1.2,2.5h0a.671.671,0,1,0-1.2.6h0a.671.671,0,1,0,1.2-.6Zm1.1,2.5h0a.7.7,0,1,0-.4.9A.74.74,0,0,0,2574.5,1901Zm1,2.5h0a.7.7,0,1,0-1.3.5h0a.751.751,0,0,0,.9.4A.808.808,0,0,0,2575.5,1903.5Zm.9,2.6h0a.632.632,0,1,0-1.2.4h0a.542.542,0,0,0,.8.4A.735.735,0,0,0,2576.4,1906.1Zm.7,2.6h0a.657.657,0,0,0-.8-.5.749.749,0,0,0-.5.8h0a.657.657,0,0,0,.8.5A.689.689,0,0,0,2577.1,1908.7Zm.6,2.7h0a.667.667,0,1,0-1.3.3h0a.618.618,0,0,0,.8.5A.657.657,0,0,0,2577.7,1911.4Zm.5,2.7h0a.707.707,0,0,0-1.4.2h0a.76.76,0,0,0,.8.6C2578,1914.8,2578.3,1914.4,2578.2,1914.1Zm.3,2.7h0a.652.652,0,0,0-1.3.1h0a.652.652,0,0,0,1.3-.1Zm.1,2.7h0a.7.7,0,0,0-1.4,0h0a.7.7,0,0,0,1.4,0Zm0,2.7h0a.652.652,0,1,0-.7.6C2578.2,1922.9,2578.5,1922.6,2578.6,1922.2Zm-.3,2.8h0c.1-.4-.2-.7-.6-.8s-.7.2-.8.6.2.7.6.8A.871.871,0,0,0,2578.3,1925Zm-.6,2.7h0a.667.667,0,1,0-1.3-.3h0a.618.618,0,0,0,.5.8A.688.688,0,0,0,2577.7,1927.7Zm-.7,2.6h0a.7.7,0,1,0-.9.4C2576.4,1930.9,2576.8,1930.7,2577,1930.3Zm-1.1,2.6h0a.671.671,0,1,0-.9.3A.63.63,0,0,0,2575.9,1932.9Zm-1.3,2.4h0a.652.652,0,1,0-1.1-.7h0a.652.652,0,1,0,1.1.7Zm-1.5,2.3h0a.64.64,0,0,0-1-.8h0a.633.633,0,0,0,.1.9A.647.647,0,0,0,2573.1,1937.6Zm-1.8,2.1h0a.707.707,0,0,0-1-1h0a.76.76,0,0,0,0,1A.668.668,0,0,0,2571.3,1939.7Zm-2,1.9h0a.64.64,0,1,0-.8-1h0a.758.758,0,0,0-.1,1A.631.631,0,0,0,2569.3,1941.6Zm-2.1,1.8h0a.652.652,0,1,0-.9-.2A.651.651,0,0,0,2567.2,1943.4Zm-2.3,1.5h0a.652.652,0,0,0-.7-1.1h0a.652.652,0,0,0,.7,1.1Zm-2.4,1.3h0a.671.671,0,0,0-.6-1.2h0a.687.687,0,0,0-.3.9A.658.658,0,0,0,2562.5,1946.2Zm-2.5,1.1h0a.7.7,0,1,0-.9-.4A.608.608,0,0,0,2560,1947.3Zm-2.6,1h0c.4-.1.5-.5.4-.9s-.5-.5-.9-.4h0c-.4.1-.5.5-.4.9A.87.87,0,0,0,2557.4,1948.3Zm-2.6.8h0a.667.667,0,1,0-.3-1.3h0a.657.657,0,0,0-.5.8.792.792,0,0,0,.8.5Zm-2.7.6h0a.667.667,0,0,0-.3-1.3h0a.618.618,0,0,0-.5.8.89.89,0,0,0,.8.5Zm-2.7.4h0c.4,0,.6-.4.6-.8s-.4-.6-.8-.6h0c-.4,0-.6.4-.6.8A.838.838,0,0,0,2549.4,1950.1Zm-2.7.3h0a.661.661,0,0,0,.6-.7c0-.3-.4-.6-.7-.6-.4,0-.6.3-.6.7A.669.669,0,0,0,2546.7,1950.4Zm-2.7.1h0a.7.7,0,0,0,0-1.4h0a.7.7,0,0,0,0,1.4Zm-2.7,0h0a.7.7,0,0,0,0-1.4h0a.7.7,0,0,0,0,1.4Zm-2.8-.2h0c.4,0,.7-.2.7-.6s-.2-.7-.6-.7h0c-.4,0-.7.2-.7.6A.669.669,0,0,0,2538.5,1950.3Zm-2.7-.2h0a.707.707,0,1,0,.2-1.4h0a.761.761,0,0,0-.8.6A.871.871,0,0,0,2535.8,1950.1Zm-2.7-.4h0a.689.689,0,0,0,.8-.5.749.749,0,0,0-.5-.8h0a.689.689,0,0,0-.8.5.749.749,0,0,0,.5.8Zm-2.6-.6h0a.689.689,0,0,0,.8-.5.749.749,0,0,0-.5-.8h0a.689.689,0,0,0-.8.5C2529.9,1948.7,2530.1,1949.1,2530.5,1949.1Zm-2.7-.6h0a.667.667,0,0,0,.3-1.3h0a.618.618,0,0,0-.8.5A.891.891,0,0,0,2527.8,1948.5Zm-2.6-.8h0a.633.633,0,1,0-.4-.8A.632.632,0,0,0,2525.2,1947.7Zm-2.6-.8h0a.87.87,0,0,0,.9-.4c.2-.3-.1-.7-.4-.9h0a.807.807,0,0,0-.9.4.751.751,0,0,0,.4.9Zm-2.5-1h0a.7.7,0,0,0,.5-1.3h0a.74.74,0,0,0-.9.4A.751.751,0,0,0,2520.1,1945.9Zm-2.5-1.1h0a.671.671,0,0,0,.6-1.2h0a.687.687,0,0,0-.9.3A.63.63,0,0,0,2517.6,1944.8Zm-2.4-1.2h0a.671.671,0,0,0,.6-1.2h0a.687.687,0,0,0-.9.3A.61.61,0,0,0,2515.2,1943.6Zm-2.4-1.3h0a.652.652,0,1,0-.2-.9A.651.651,0,0,0,2512.8,1942.3Z"/>
      <path id="Path_75" data-name="Path 75" class="cls-1" d="M2523.1,1871.7c.8.9,1.4,1.9,2.3,2.8a6.091,6.091,0,0,0,3.5,1.7c.4.1,1-.1,1-.5a3.172,3.172,0,0,0-1.3-2.6c-1.2-.9-2.4-1.6-3.6-2.4C2524.3,1870.3,2522.2,1870.7,2523.1,1871.7Z"/>
      <path id="Path_76" data-name="Path 76" class="cls-1" d="M2540.6,1875.4a26.558,26.558,0,0,1,3.4-4c.9-1,3-2.2,2.8-3.7a.9.9,0,0,0-1-.7c-3.7.1-6.6,4.6-7.6,7.8C2537.9,1875.9,2540.1,1876.2,2540.6,1875.4Z"/>
      <path id="Path_77" data-name="Path 77" class="cls-1" d="M2523.9,1880.1a13.486,13.486,0,0,0-4.4-.7c-1.3.1-2.5-.2-3.8.2-.4.1-1.1.5-.8,1a5.592,5.592,0,0,0,2.3,2,9.907,9.907,0,0,0,1.7,1.1,22.526,22.526,0,0,0,2.4.8c1.6.5,3.6.5,4.8-.9C2527.4,1881.9,2525.4,1880.5,2523.9,1880.1Z"/>
    </g>
    <g id="Group_28" data-name="Group 28">
      <path id="Path_78" data-name="Path 78" class="cls-2" d="M2526.1,1912.3a10.059,10.059,0,0,1-3,0c-1,1.4-2.2,2.6-3.3,4.2C2522.5,1917.6,2525.1,1915.1,2526.1,1912.3Z"/>
      <path id="Path_79" data-name="Path 79" class="cls-2" d="M2556.6,1894.7a14.283,14.283,0,0,0,1.4-2c.1-.3-.1-.5-.4-.4a10.965,10.965,0,0,0-2.1,1.4c1-2.2.2-4.8.6-8.1-.5,2-2,3.2-3.1,4.6-.3-1.2-2.6-2.3-3.8-2.9.3-.2.7-.4,1-.6.6-.3,1.3-.5,1.5-1.2a.365.365,0,0,0-.2-.5l-.2-.1h-.1a.368.368,0,0,1-.3-.1h-.2a3.253,3.253,0,0,0-1.4.4,6.369,6.369,0,0,0-1.4.8,1,1,0,0,1,.4-.5c.5-.5,1.2-1.1,1-1.9-.1-.3-.6-.4-.8-.4-1.9,0-3.4,2.3-3.8,3.9v.3h-.1v-.1a4.073,4.073,0,0,0-1.2-1.7c.1-.1.1-.2.2-.2,1.5-2.7.5-5.4,2.9-7.8-2.3,0-4.3,1.7-5.9,3.1a5.246,5.246,0,0,0-1,1.1c-.3.5-.8.9-1.1,1.4-1.7-2.2-5.1-3.2-7.7-4.4,1.8,1,2.4,3,3.4,4.7,0,.1-.1.3-.1.4-.5.1-.9.2-1.4.3a12.21,12.21,0,0,0-2-3.5,8.288,8.288,0,0,1,.7,4.1.85.85,0,0,0-.3.5v.6a10.9,10.9,0,0,0-4-2.7,9.993,9.993,0,0,0,2.9,4.4,12.459,12.459,0,0,1-4.7.3,5.912,5.912,0,0,0,5,.9,6.924,6.924,0,0,1-2.3,3,4.284,4.284,0,0,0,3.2-1.2v2c0,.1-.1.1-.1.2l-.6.3c-1.5.7-3.6,1.8-5.1.6.3.2.5.8.8,1a4.81,4.81,0,0,0,1.1.9,10.071,10.071,0,0,0,2.3,1.2h0a4.192,4.192,0,0,0-.4,1.5v.1a12.751,12.751,0,0,0-1.9.1,5.024,5.024,0,0,0-.6-2.4,8,8,0,0,0-1.5-2.1,9.029,9.029,0,0,0-1-.9,2.185,2.185,0,0,1-.5-.3c-.1-.1-.4-.1-.5-.2,1.1,1.1,1.2,2.7,1.3,4.1a4.259,4.259,0,0,0,.2,1.1,2.18,2.18,0,0,0,.5.8,9.851,9.851,0,0,1-1.7-.2,9.355,9.355,0,0,1-1.6-.4c-.1-3.4-3.6-5.2-6.1-7,2,1.6,1.4,4.8,3.1,6.4a8.756,8.756,0,0,0-1.6.2,7.028,7.028,0,0,0-4.5.6.52.52,0,0,0-.4-.2,4.023,4.023,0,0,0-2.4-.3.569.569,0,0,0-.4.7,2,2,0,0,0,1.2,1,2.579,2.579,0,0,0-.8,1.3.319.319,0,0,0,.3.3,7.46,7.46,0,0,0,1.2-.7,4.192,4.192,0,0,0-.4,1.5c0,.3.2.4.4.3a8.343,8.343,0,0,0,1.6-2.1.853.853,0,0,0,0-.7,12.668,12.668,0,0,1,1.8-.6,4.012,4.012,0,0,1,1.9-.1,1,1,0,0,0,.4.5c-1.9.8-2.4,3.1-4.1,3.9v.1c2.3.5,5.3-1.4,6.9-3.2l1.8.3c-.1.1-.1.2-.2.3a9.351,9.351,0,0,0-.4,3.3,6.348,6.348,0,0,1-.5,3.1c.9-1.4,3-1.9,3.7-3.4a3.734,3.734,0,0,0,.1-3.1,45.139,45.139,0,0,0,5.2-.1,11.037,11.037,0,0,0,.2,1.8,1.856,1.856,0,0,0,.2.7,4.266,4.266,0,0,0-1.1,1.2,3.752,3.752,0,0,0-1.1.1,3.3,3.3,0,0,0-1.3.7c-.8.6-1.2,1.6-2,2.3a6.969,6.969,0,0,1-2.4,1.7,5.639,5.639,0,0,1-1.2.4,1.7,1.7,0,0,1-.7.1h-.6c.1.4,1,.9,1.3,1.1a3.081,3.081,0,0,0,1.2.5c.1,0,.3.1.4.1.1-.1.2-.2.3-.2a10.822,10.822,0,0,0,1.8,0,9.851,9.851,0,0,0,1.7-.2c.4-.1.7-.2,1-.3s.7-.2,1-.3.7-.2,1-.3c.2-.1.5.2.4.5-.1.1-.2.2-.2.3a3.738,3.738,0,0,1-2,1.2,22.911,22.911,0,0,0-1,2.3,9.345,9.345,0,0,0-.7,2.2c-.1.3-.3,1.2-.1,1.5.2.4.6-.4.8-.7a10.715,10.715,0,0,1,1.9-1.8c.3-.2.6-.5.9-.7a2.1,2.1,0,0,0,.8,1.1c-2.7,1.7-.1,3.7,2.2,2.7a21.727,21.727,0,0,0,.1,2.6c-.6,1.8-1.1,3.8-2.2,5.2a3.544,3.544,0,0,1-.9-.4c-.6-.2-2.7-.3-3-.6.8.7,1.8,1.3,2.6,2-.1,0-.1.1-.2.1a.6.6,0,0,1,.4.1,5.306,5.306,0,0,1,1,1.2c-1.9-.7-3.8-.1-5.7.5a8.245,8.245,0,0,1,5.1,1.2,12.841,12.841,0,0,0-4,2.9,10.943,10.943,0,0,0,5-1.3,11.694,11.694,0,0,1-1.3,4.5,5.353,5.353,0,0,0,2.4-4.4,5.246,5.246,0,0,1,1,1.1,4.628,4.628,0,0,0-1.3,1.8,10.831,10.831,0,0,1-.8,1.9v.1c-2.2.1-4.3.2-6.5.2-.7,0-1.5.5-1.3,1.3a146.555,146.555,0,0,1,5,16.8c-2.8.1-5.7.1-8.5.3-1.8.1-1.8,2.1,0,2.3,10.1.8,20.2.7,30.2.5,4.3-.1,3.3-5.5-.8-4.7-.9.2-1.8.3-2.7.5,1.6-5.6,3.6-11.1,4.2-17,.1-.7-.8-1-1.3-1h-4.8a2.076,2.076,0,0,0-.6-1c-.2-.3-.5-.6-.7-.9h1.7a6.979,6.979,0,0,0,2-.8,11.427,11.427,0,0,0,2.9-1.5.735.735,0,0,0-.6-.2,6.861,6.861,0,0,1-.8-.3,3.332,3.332,0,0,0-1.7-.2l-.6.3a3.353,3.353,0,0,1-1,0,12.226,12.226,0,0,1-3.3-.2c0-1.2-.1-2.3-.1-3.5a15.5,15.5,0,0,0,5.3,1.2,5.294,5.294,0,0,1-1.9-3.1c-.2-.6-.4-1.3-.6-1.9a5.3,5.3,0,0,0-.8-1.7.35.35,0,0,0-.2-.1.9.9,0,0,0,.5-.1c.5-.2.9,1.2,1.7,1h0a2.177,2.177,0,0,0,.7.9c.2.2.5,0,.7-.2,1-1.4-.6-3.7-1.5-4.8a8.869,8.869,0,0,0-2.7-2.3,4.484,4.484,0,0,0,1.2-.1,4.869,4.869,0,0,1,1.2-.1c.8.7,1.7,1.4,2.6,2.1-.6-.7-1.1-1.4-1.6-2.1a30.019,30.019,0,0,1,4.3.3l-.3-.3a2.991,2.991,0,0,0,.4-.8c.1-.3-.2-.8-.2-1.1a5.367,5.367,0,0,0-.5-1.1,5.542,5.542,0,0,1,.8.6,10.942,10.942,0,0,1,.5,1.7,5.835,5.835,0,0,0,.9,2.3c.2.2.7.2.8-.1a2.763,2.763,0,0,0,.1-2.2c.1.1.2.1.3.2a.1.1,0,0,1,.1.1c0,.1.1.2.1.3.1.5.1,1.1.2,1.6a.622.622,0,0,0,.6.4h.5c.3-.1.6-.2.7-.6a4.827,4.827,0,0,0-1.2-3.3c.3.1.5.3.8.4.5.3,1.4.7,2,.3.9-.6-.9-1.6-1.2-1.8a4.558,4.558,0,0,0-2.3-.5,3.292,3.292,0,0,1,1.3-.7,4.921,4.921,0,0,0,1.7-.6c.1-.1.2-.3.1-.4-1-1.2-3.2-.5-4.5.6l-.1-.1a5.025,5.025,0,0,0,1.2-.8c.2-.2.1-.4-.1-.6l-.1-.1a.446.446,0,0,0-.5,0l-1.2.3c-.1,0-.1.1-.2.1a1.379,1.379,0,0,1-.3-.4c.1-.2.2-.3.2-.5a.319.319,0,0,0-.3-.3,2.769,2.769,0,0,0-.9-.1,13.841,13.841,0,0,0-4.9-3.2,23.74,23.74,0,0,1,8.4-3.1c-2.5-1.2-5.7-.7-8.2.5h.2c.3,0,1.2.2,1.5,0a6.165,6.165,0,0,1-5.3.9,10.25,10.25,0,0,1-1.4-.4,6.108,6.108,0,0,1-1.4-.7l-.2-.2c-.1-.1-.2-.3-.3-.4a.367.367,0,0,1-.1-.3,1.481,1.481,0,0,1-.1-.7v-.2a1.423,1.423,0,0,1,.2-.6.1.1,0,0,1,.1-.1h-.7a5.354,5.354,0,0,0-1.5-1.5,18.852,18.852,0,0,0-2.4-1.4c-.5-.2-.9-.4-1.4-.6,0-.1.1-.3.1-.4.3,0,.5.1.8.1.2,0,.3.1.5.1a4.6,4.6,0,0,0,2.6,0h0a1.61,1.61,0,0,0,.7-.4,6.45,6.45,0,0,0,.9-.8c.1.1.1.2.2.3v.2l-.3.6a2.245,2.245,0,0,0,.2,2.6l.1.1a1.246,1.246,0,0,0,1.2.3c.2,0,.4-.1.6-.1h.1c.1,0,.2-.1.3-.1a10.94,10.94,0,0,0,1.1,1h-1c.3.2.6.3.9.5.1.1.2.1.3.2s.2.1.3.2a5.542,5.542,0,0,1,.8.6,5.669,5.669,0,0,0,1.3.8,11.734,11.734,0,0,1,1.4-4.1,10.754,10.754,0,0,0,3.1-.1c0,.1-.1.3-.1.4-.1,1.8,2.1,2.4,3.5,2.7a6.224,6.224,0,0,0,5.3-.9c-.2.2-1.2,0-1.5,0a6.467,6.467,0,0,1-1.3-.4,10.965,10.965,0,0,1-2.1-1.4c-.5-.3-1-.7-1.5-1a13.3,13.3,0,0,0,5.5-3.5c3.1,3.4,6.9,1.1,8.6-2.8C2562.2,1894.8,2559.3,1894.2,2556.6,1894.7Zm-15.1,24.7h0c-.1,0-.2.1-.3.1v-.2C2541.3,1919.3,2541.4,1919.4,2541.5,1919.4Zm-5.2-3.9h0c.2.6.9,1.9,1.5,3.1,0,1.3.1,2.7.1,4a.367.367,0,0,0-.1.3,4.468,4.468,0,0,0,0,2.8c-1.3.3-2,3.1-1.7,4.4.5,1.7,1.2,2.1,2,1.8v1.6a3.178,3.178,0,0,0-1.2-1.1,6.364,6.364,0,0,0-2-2,8.246,8.246,0,0,0-1.3-.7v-3a10.594,10.594,0,0,0,1.2-1c1.4-1.5,3.8-5.5,1.4-7.2a2.232,2.232,0,0,0-1.4-.3c-.3-.9-.8-1.5-1.4-1.5v-.3a3.785,3.785,0,0,0-.1-2.6v-.4a7.5,7.5,0,0,0,2.5-.9,1.7,1.7,0,0,0-.1.7A3.919,3.919,0,0,0,2536.3,1915.5Zm-2.9,16.2c.4.2.8.4,1.3.6h-.5a2.153,2.153,0,0,0-.8,0Zm.2-25.9h-.6c-.2,0-.4-.1-.7-.1-.2,0-.4-.1-.6-.1s-.4-.1-.7-.1h0c-.4-.1-.3-.5,0-.6h.2a11.261,11.261,0,0,1,1.8.3h.2l.6.3C2533.9,1905.6,2533.8,1905.8,2533.6,1905.8Zm8.5-14.8h-.1a.439.439,0,0,0-.1-.5c.1,0,.2-.1.3-.1A1.27,1.27,0,0,0,2542.1,1891Zm-6.8-5.6c.2.1.4.3.6.4-.3.1-.7.2-1,.3a1.267,1.267,0,0,0,.1-.6A.368.368,0,0,0,2535.3,1885.4Zm6.4,7.7c-.1-.2.1-.4.2-.2a19.987,19.987,0,0,1,1.9,2.2,3.982,3.982,0,0,1,.9,2.1c0,.2-.2.3-.4.2a9.464,9.464,0,0,1-1.1-2A7.035,7.035,0,0,0,2541.7,1893.1Zm.5-6.2a9.441,9.441,0,0,0,.3.9,1,1,0,0,0,.5.4c-.3.2-.6.3-.9.5a4.692,4.692,0,0,0-.6-.9c-.1-.1-.2-.1-.4-.2A4.9,4.9,0,0,0,2542.2,1886.9Zm-2.4,1.3c-.1.1-.1.2-.2.4h-.1c0-.1.1-.2.1-.3A.309.309,0,0,1,2539.8,1888.2Zm6.8,50.6c-.8,5.6-2.8,10.9-4.3,16.3-4.4.5-8.8.6-13.2.7-.7-5.5-2.8-10.7-4.3-16.1,1.4,0,2.9-.1,4.3-.1-.1.7-.2,1.5-.3,2.2,0,.4-.1.8-.1,1.2a3.33,3.33,0,0,1,0,1c1.6-3.3,5.3-3.1,7.7-4.9,1-.1,2-.1,3-.2a12.607,12.607,0,0,0,5.3,4.7c-.2-.1-.4-.8-.5-1a4.248,4.248,0,0,1-.2-1.1,15.468,15.468,0,0,1-.1-2.2v-.5Zm-5.3-16.7a1.421,1.421,0,0,0-.6-.2c-.2-.1-.3-.1-.5-.2v-.4a2.438,2.438,0,0,0,1.2,0l.3,1.2A.78.78,0,0,0,2541.3,1922.1Zm2-.8h0c0,.1-.1.1-.2,0a.6.6,0,0,0-.1-.4A1.383,1.383,0,0,0,2543.3,1921.3Zm4.1-7.7a12.68,12.68,0,0,1,.6,1.8c.1.3.1.6.2.8-1.3-1-2.6-1.8-3.3-3.6h0a4.144,4.144,0,0,1,1.6.3,1.08,1.08,0,0,0,.7.3c.1,0,.2.1.3.1C2547.4,1913.4,2547.3,1913.5,2547.4,1913.6Zm4.6.6v.1l-.1-.1Zm-1-1.2c0,.1-.1.1-.1.2a.367.367,0,0,0-.1.3,2.094,2.094,0,0,1-.6-.4.368.368,0,0,1,.3-.1C2550.6,1912.9,2550.8,1913,2551,1913Zm-5.6-1.6h-1c-.1-.2-.1-.4-.2-.5A6.124,6.124,0,0,0,2545.4,1911.4Zm-7.8-7.4h0c.2,0,.2.1.3.2v.5l-.1.1a.1.1,0,0,1-.1.1c0,.1-.1.1-.2.2a3.039,3.039,0,0,1-.7.5c-.2.2-.5.3-.7.5-.3.2-.5.5-.8.7l-.9.9a14.947,14.947,0,0,1-1.3,1.1,1.754,1.754,0,0,0-.5.4h-.1a.333.333,0,0,1-.4-.5,7.105,7.105,0,0,1,1-1.4c.3-.4.6-.7.9-1.1a6.029,6.029,0,0,1,.8-.8,5.542,5.542,0,0,1,.8-.6,1.754,1.754,0,0,0,.5-.4h.1A1.792,1.792,0,0,1,2537.6,1904Zm4.1-3.2c-.2-.1-.5-.3-.7-.4s-.3-.2-.5-.3a1.854,1.854,0,0,0,.7-1.2,6.354,6.354,0,0,0,1.8.6A7.979,7.979,0,0,0,2541.7,1900.8Zm4-2.4a.309.309,0,0,0,.1-.2,1.423,1.423,0,0,0-.6.2c-.4-.1-.7-.1-1.1-.2a8.478,8.478,0,0,0,1.9-1,23.014,23.014,0,0,1,5-2.4c-2-.6-3.9-.3-5.6-1.8a9.442,9.442,0,0,1-1-1,9.6,9.6,0,0,0,.6-2.6h.1c-.1.5.3.9.5,1.3a3.588,3.588,0,0,0,1,1.4c.4.3,1.4.3,1.5-.3a2.044,2.044,0,0,0-.3-1.7,2.54,2.54,0,0,0-1.3-1.2l.6-.3a22.8,22.8,0,0,1,3,1.7c.4.3,1.4,1.5,2.2,1.5,0,.1-.1.2-.2.3-.6,1.5.3,3.3-.7,5.2a4.343,4.343,0,0,1-.7.4A11.235,11.235,0,0,1,2545.7,1898.4Z"/>
    </g>
  </g>
</svg>
