<svg xmlns="http://www.w3.org/2000/svg" viewBox="0 0 98.5 99.927">
  <defs>
    <style>
      .cls-1 {
        fill: #e8e2d9;
      }

      .cls-2 {
        fill: #fff;
      }

      .cls-3 {
        fill: #70b25f;
      }
    </style>
  </defs>
  <g id="bichromie" transform="translate(-2032.4 -1868.273)">
    <g id="Group_26" data-name="Group 26">
      <path id="Path_46" data-name="Path 46" class="cls-1" d="M2092.8,1949.8c-7.2.5-14.5.9-21.8,1-2.7,0-11.5,1.2-14.1-.6a1.206,1.206,0,0,1-.5-.5c-.8-1.2-.6-5.3-.9-6.8-.5-2.3-1.1-4.6-1.6-6.9-.9-4.8-1.6-9.5-2.7-14.3-.6-2.5.7-4.5,2.3-6.2,2.4-2.7,4.7-1.8,7.9-.7.2,3.7,1.4,7.9,2.1,11.5a21.105,21.105,0,0,0,3.8-.4c.7-14-1.2-28.2,2.6-41.8a56.119,56.119,0,0,1,5.8,0,104.836,104.836,0,0,1,4.6,22.8,90.435,90.435,0,0,0,1.1,9.1c.2,1.1.2,3.3,1,4.1.9,1,2.3.7,3.8.6,0-1.5-.2-6.2.9-7,.9-.6,5,0,6.1,0,.2,4.8,0,9.8.3,14.6,1.2.1,2.6-.3,3.5.6.1-.9,2.1-8.8,1.4-9.1-1-.4-1.9-.6-2.9-1,1.1-4.3,2.3-8.4,3.2-12.7l1.8-8.1c.4-1.7,2.1-5.3,1.8-7,1,5.1,1.6,10.3,2.1,15.5.5,4.6,2.2,9.7,1.9,14.3-.3.1-.5.2-.8.3-.1,0,.6,8.6.6,9.4,4.1.1,8,1.6,12.1,2a154.453,154.453,0,0,1,5,17.3C2122.9,1948.7,2095.7,1949.6,2092.8,1949.8Z"/>
      <path id="Path_47" data-name="Path 47" class="cls-2" d="M2053.4,1920.6a4.146,4.146,0,0,0,.3,1.6.208.208,0,0,0,.4,0,4.146,4.146,0,0,0,.3-1.6C2054.3,1920,2053.3,1920,2053.4,1920.6Z"/>
      <path id="Path_48" data-name="Path 48" class="cls-2" d="M2056.7,1919.6a12.113,12.113,0,0,0,.5,1.8,6.7,6.7,0,0,0,.7,1.8c.1.2.4.2.4-.1.4-1.2-.4-2.6-.7-3.8C2057.6,1918.7,2056.6,1918.9,2056.7,1919.6Z"/>
      <path id="Path_49" data-name="Path 49" class="cls-2" d="M2056.3,1927.8c.3.7.3,1.5.9,2.1.2.2.5.1.5-.1a5.927,5.927,0,0,0,0-2.3A.718.718,0,1,0,2056.3,1927.8Z"/>
      <path id="Path_50" data-name="Path 50" class="cls-2" d="M2060.7,1930.2a22.866,22.866,0,0,0,.8,2.8c.1.2.4.2.4,0a5.032,5.032,0,0,0-.1-3.2C2061.7,1929.1,2060.5,1929.5,2060.7,1930.2Z"/>
      <path id="Path_51" data-name="Path 51" class="cls-2" d="M2071.4,1886.8a3.144,3.144,0,0,0,.5,2.1c.1.2.4.2.6,0a3.144,3.144,0,0,0,.5-2.1A.8.8,0,0,0,2071.4,1886.8Z"/>
      <path id="Path_52" data-name="Path 52" class="cls-2" d="M2076.5,1899.3a1.913,1.913,0,0,0,.4,1.5.3.3,0,0,0,.4,0,2.026,2.026,0,0,0,.4-1.5C2077.8,1898.5,2076.5,1898.5,2076.5,1899.3Z"/>
      <path id="Path_53" data-name="Path 53" class="cls-2" d="M2072.3,1909.2a4.084,4.084,0,0,0,.3,2.2.283.283,0,0,0,.5,0,4.086,4.086,0,0,0,.3-2.2A.551.551,0,0,0,2072.3,1909.2Z"/>
      <path id="Path_54" data-name="Path 54" class="cls-2" d="M2069.1,1915.1a6.877,6.877,0,0,0,.3,2.5.208.208,0,0,0,.4,0,7.149,7.149,0,0,0,.3-2.5C2070.2,1914.5,2069.1,1914.5,2069.1,1915.1Z"/>
      <path id="Path_55" data-name="Path 55" class="cls-2" d="M2074.7,1915.1c0,.6-.1,1.6.4,2a.446.446,0,0,0,.5,0c.5-.4.4-1.4.4-2A.652.652,0,0,0,2074.7,1915.1Z"/>
      <path id="Path_56" data-name="Path 56" class="cls-2" d="M2071.5,1922.4v1.4a1.575,1.575,0,0,0,.4,1.3.446.446,0,0,0,.5,0c.3-.3.3-.8.4-1.2v-1.6C2072.8,1921.5,2071.5,1921.5,2071.5,1922.4Z"/>
      <path id="Path_57" data-name="Path 57" class="cls-2" d="M2072.1,1932.6a2.273,2.273,0,0,0,.5,1.8.3.3,0,0,0,.4,0,2.273,2.273,0,0,0,.5-1.8C2073.6,1931.6,2072.1,1931.6,2072.1,1932.6Z"/>
      <path id="Path_58" data-name="Path 58" class="cls-2" d="M2083.5,1925.5a2.473,2.473,0,0,0,.4.9.3.3,0,0,0,.4,0,3.548,3.548,0,0,0,.4-.9C2085.2,1924.4,2083.1,1924.4,2083.5,1925.5Z"/>
      <path id="Path_59" data-name="Path 59" class="cls-2" d="M2089.2,1916.9l.3.9c.1.2.3.2.5,0a1.613,1.613,0,0,0,.3-.9C2090.6,1915.9,2089,1915.9,2089.2,1916.9Z"/>
      <path id="Path_60" data-name="Path 60" class="cls-2" d="M2087,1924.4a2.458,2.458,0,0,0,.5,1.7.283.283,0,0,0,.5,0,2.618,2.618,0,0,0,.5-1.7C2088.6,1923.4,2087,1923.4,2087,1924.4Z"/>
      <path id="Path_61" data-name="Path 61" class="cls-2" d="M2090.2,1930.5a4.139,4.139,0,0,0,.5,1.9.208.208,0,0,0,.4,0,6.688,6.688,0,0,0,.5-1.9C2091.7,1929.6,2090.1,1929.6,2090.2,1930.5Z"/>
      <path id="Path_62" data-name="Path 62" class="cls-2" d="M2084.3,1933a9.692,9.692,0,0,0,.1,1.7.445.445,0,0,0,.6.2c.7-.4.7-1.2.8-1.9A.754.754,0,0,0,2084.3,1933Z"/>
      <path id="Path_63" data-name="Path 63" class="cls-2" d="M2100.5,1924a2.828,2.828,0,0,0,.4,1.8.3.3,0,0,0,.4,0,2.827,2.827,0,0,0,.4-1.8A.6.6,0,1,0,2100.5,1924Z"/>
      <path id="Path_64" data-name="Path 64" class="cls-2" d="M2104.1,1930.1c.3.5.2,1,.5,1.5.1.1.3.1.3,0a2.776,2.776,0,0,0,0-1.8A.436.436,0,1,0,2104.1,1930.1Z"/>
      <path id="Path_65" data-name="Path 65" class="cls-2" d="M2100.5,1934.6a2.828,2.828,0,0,0,.4,1.8.3.3,0,0,0,.4,0,2.827,2.827,0,0,0,.4-1.8C2101.8,1933.8,2100.4,1933.8,2100.5,1934.6Z"/>
      <ellipse id="Ellipse_67" data-name="Ellipse 67" class="cls-1" cx="38.7" cy="5.1" rx="38.7" ry="5.1" transform="translate(2050.2 1958)"/>
      <path id="Path_66" data-name="Path 66" class="cls-1" d="M2052.9,1953.7h0a.776.776,0,0,0,1-.2.751.751,0,0,0-.2-1h0a.752.752,0,0,0-1,.2.684.684,0,0,0,.2,1Zm-2.2-1.4h0a.721.721,0,1,0-.2-1A.775.775,0,0,0,2050.7,1952.3Zm-2.4-1.9h0a.781.781,0,1,0,1-1.2h0a.792.792,0,0,0-1.1.1A.772.772,0,0,0,2048.3,1950.4Zm-2.3-2h0a.778.778,0,0,0,1.1-1.1h0a.778.778,0,0,0-1.1,1.1Zm-2.1-2.1h0a.778.778,0,0,0,1.1-1.1h0a.778.778,0,0,0-1.1,1.1Zm-2-2.4h0a.781.781,0,0,0,1.2-1h0a.784.784,0,0,0-1.1-.1A.792.792,0,0,0,2041.9,1943.9Zm-1.8-2.4h0a.721.721,0,1,0,.2-1A.751.751,0,0,0,2040.1,1941.5Zm-1.6-2.6h0a.738.738,0,0,0,1.3-.7h0a.714.714,0,0,0-1-.3A.636.636,0,0,0,2038.5,1938.9Zm-1.5-2.7h0a.738.738,0,1,0,1.3-.7h0a.693.693,0,0,0-1-.3A.777.777,0,0,0,2037,1936.2Zm-1.3-2.8h0a.762.762,0,1,0,.4-1A1.022,1.022,0,0,0,2035.7,1933.4Zm-1-2.8h0a.791.791,0,0,0,1.5-.5h0a.825.825,0,0,0-1-.5A.747.747,0,0,0,2034.7,1930.6Zm-.9-2.9h0a.728.728,0,1,0,.5-.9A.715.715,0,0,0,2033.8,1927.7Zm-.7-3h0a.765.765,0,1,0,1.5-.3h0a.765.765,0,1,0-1.5.3Zm-.4-3h0a.752.752,0,1,0,1.5-.1h0a.773.773,0,0,0-.8-.7A.66.66,0,0,0,2032.7,1921.7Zm-.3-3.1h0a.752.752,0,0,0,1.5-.1h0a.773.773,0,0,0-.8-.7A.849.849,0,0,0,2032.4,1918.6Zm0-3h0a.752.752,0,1,0,.8-.7A.666.666,0,0,0,2032.4,1915.6Zm.2-3.1h0a.752.752,0,0,0,1.5.1h0a.752.752,0,1,0-1.5-.1Zm.4-3h0a.765.765,0,0,0,1.5.3h0a.779.779,0,0,0-.6-.9A.689.689,0,0,0,2033,1909.5Zm.6-3h0a.728.728,0,0,0,1.4.4h0a.728.728,0,1,0-1.4-.4Zm.9-2.9h0a.728.728,0,0,0,1.4.4h0a.728.728,0,1,0-1.4-.4Zm1-2.9h0a.762.762,0,1,0,1.4.6h0a.762.762,0,0,0-1.4-.6Zm1.3-2.8h0a.738.738,0,0,0,1.3.7h0a.738.738,0,1,0-1.3-.7Zm1.4-2.6h0a.738.738,0,0,0,1.3.7h0a.693.693,0,0,0-.3-1A.714.714,0,0,0,2038.2,1895.3Zm1.6-2.6h0a.721.721,0,0,0,1.2.8h0a.776.776,0,0,0-.2-1A.7.7,0,0,0,2039.8,1892.7Zm1.8-2.5h0a.781.781,0,1,0,1.2,1h0a.781.781,0,0,0-1.2-1Zm2-2.3h0a.781.781,0,1,0,1.1-.1A.713.713,0,0,0,2043.6,1887.9Zm2.1-2.3h0a.778.778,0,0,0,1.1,1.1h0a.778.778,0,0,0-1.1-1.1Zm2.2-2h0a.781.781,0,1,0,1,1.2h0a.9.9,0,0,0,.1-1.1.714.714,0,0,0-1.1-.1Zm2.4-2h0a.781.781,0,1,0,1.1.1A1.1,1.1,0,0,0,2050.3,1881.6Zm2.5-1.7h0a.721.721,0,1,0,.8,1.2h0a.721.721,0,0,0-.8-1.2Zm2.6-1.6h0a.738.738,0,1,0,1,.3A.714.714,0,0,0,2055.4,1878.3Zm2.7-1.4h0a.819.819,0,0,0-.4,1c.1.4.6.5,1,.4h0a.819.819,0,0,0,.4-1A.7.7,0,0,0,2058.1,1876.9Zm2.8-1.2h0a.762.762,0,0,0,.6,1.4h0a.73.73,0,0,0,.4-1A.819.819,0,0,0,2060.9,1875.7Zm2.9-1h0a.728.728,0,0,0,.4,1.4h0a.728.728,0,0,0-.4-1.4Zm2.9-.8h0a.765.765,0,1,0,.3,1.5h0a.779.779,0,0,0,.6-.9A.709.709,0,0,0,2066.7,1873.9Zm3-.6h0a.765.765,0,1,0,.3,1.5h0a.765.765,0,1,0-.3-1.5Zm3-.4h0a.752.752,0,0,0,.1,1.5h0a.773.773,0,0,0,.7-.8A.659.659,0,0,0,2072.7,1872.9Zm3.1-.2h0a.752.752,0,0,0,.1,1.5h0a.773.773,0,0,0,.7-.8A.849.849,0,0,0,2075.8,1872.7Zm3,0h0a.752.752,0,0,0-.1,1.5h0a.773.773,0,0,0,.8-.7C2079.6,1873.1,2079.2,1872.8,2078.8,1872.7Zm3.1.3h0a.709.709,0,0,0-.8.7c0,.5.2.8.7.8h0a.709.709,0,0,0,.8-.7.773.773,0,0,0-.7-.8Zm3,.5h0a.765.765,0,1,0-.3,1.5h0a.765.765,0,1,0,.3-1.5Zm3,.7h0a.728.728,0,0,0-.4,1.4h0a.728.728,0,0,0,.4-1.4Zm2.9.9h0a.791.791,0,0,0-.5,1.5h0a.877.877,0,0,0,1-.5A.779.779,0,0,0,2090.8,1875.1Zm2.8,1.1h0a.762.762,0,0,0-.6,1.4h0a.731.731,0,0,0,1-.4A.7.7,0,0,0,2093.6,1876.2Zm2.8,1.3h0a.738.738,0,0,0-.7,1.3h0a.777.777,0,0,0,1-.3A.693.693,0,0,0,2096.4,1877.5Zm2.7,1.5h0a.721.721,0,0,0-.8,1.2h0a.721.721,0,1,0,.8-1.2Zm2.5,1.6h0a.721.721,0,1,0-.8,1.2h0a.684.684,0,0,0,1-.2A.8.8,0,0,0,2101.6,1880.6Zm2.4,1.9h0a.781.781,0,1,0,.1,1.1C2104.4,1883.2,2104.4,1882.7,2104,1882.5Zm2.4,1.9h0a.781.781,0,1,0,.1,1.1C2106.7,1885.1,2106.7,1884.6,2106.4,1884.4Zm2.2,2h0a.778.778,0,0,0-1.1,1.1h0a.785.785,0,0,0,1.1,0,.708.708,0,0,0,0-1.1Zm2.2,2.1h0a.778.778,0,0,0-1.1,1.1h0a.778.778,0,0,0,1.1-1.1Zm2.1,2.3h0a.781.781,0,0,0-1.2,1h0a.909.909,0,0,0,1.1.1A.784.784,0,0,0,2112.9,1890.8Zm2,2.2h0a.781.781,0,0,0-1.2,1h0a.784.784,0,0,0,1.1.1A.9.9,0,0,0,2114.9,1893Zm1.9,2.4h0a.784.784,0,0,0-1.1-.1.708.708,0,0,0-.1,1.1h0a.784.784,0,0,0,1.1.1A.909.909,0,0,0,2116.8,1895.4Zm1.8,2.4h0a.721.721,0,1,0-.2,1A.752.752,0,0,0,2118.6,1897.8Zm1.7,2.5h0a.721.721,0,0,0-1.2.8h0a.775.775,0,0,0,1,.2C2120.4,1901.2,2120.5,1900.7,2120.3,1900.3Zm1.6,2.6h0a.738.738,0,1,0-1.3.7h0a.714.714,0,0,0,1,.3A.693.693,0,0,0,2121.9,1902.9Zm1.5,2.6h0a.738.738,0,0,0-1.3.7h0a.714.714,0,0,0,1,.3A.693.693,0,0,0,2123.4,1905.5Zm1.4,2.7h0a.738.738,0,0,0-1.3.7h0a.738.738,0,1,0,1.3-.7Zm1.3,2.8h0a.762.762,0,1,0-1.4.6h0a.819.819,0,0,0,1,.4A.758.758,0,0,0,2126.1,1911Zm1.2,2.8h0a.762.762,0,1,0-1.4.6h0a.731.731,0,0,0,1,.4A.863.863,0,0,0,2127.3,1913.8Zm1,2.8h0a.728.728,0,1,0-1.4.4h0a.76.76,0,0,0,.9.5.653.653,0,0,0,.5-.9Zm.9,2.9h0a.728.728,0,1,0-1.4.4h0a.728.728,0,1,0,1.4-.4Zm.7,3h0a.765.765,0,0,0-1.5.3h0a.779.779,0,0,0,.9.6A.709.709,0,0,0,2129.9,1922.5Zm.6,3h0a.73.73,0,0,0-.9-.6.676.676,0,0,0-.6.9c.1.4.4.7.8.6A.96.96,0,0,0,2130.5,1925.5Zm.3,3h0a.752.752,0,1,0-.7.8A.773.773,0,0,0,2130.8,1928.5Zm.1,3.1h0a.752.752,0,1,0-.8.7A.713.713,0,0,0,2130.9,1931.6Zm-.1,3h0a.752.752,0,1,0-1.5-.1h0a.773.773,0,0,0,.7.8A.849.849,0,0,0,2130.8,1934.6Zm-.5,3.1h0a.765.765,0,0,0-1.5-.3h0a.765.765,0,0,0,1.5.3Zm-.7,3h0a.728.728,0,1,0-1.4-.4h0a.715.715,0,0,0,.5.9.8.8,0,0,0,.9-.5Zm-1,2.8h0a.762.762,0,1,0-1.4-.6h0a.762.762,0,1,0,1.4.6Zm-1.4,2.8h0a.738.738,0,1,0-1.3-.7h0a.738.738,0,0,0,1.3.7Zm-1.6,2.6h0a.684.684,0,0,0-.2-1c-.4-.2-.8-.2-1,.2h0a.684.684,0,0,0,.2,1A.705.705,0,0,0,2125.6,1948.9Zm-2,2.4h0a.781.781,0,1,0-1.1.1A.792.792,0,0,0,2123.6,1951.3Zm-2.1,2.2h0a.778.778,0,0,0-1.1-1.1h0a.778.778,0,0,0,1.1,1.1Zm-2.4,2h0a.781.781,0,1,0-1-1.2h0a.784.784,0,0,0-.1,1.1A.91.91,0,0,0,2119.1,1955.5Zm-2.5,1.7h0a.721.721,0,1,0-.8-1.2c-.3.3-.5.7-.2,1A.775.775,0,0,0,2116.6,1957.2Zm-2.7,1.5h0a.738.738,0,1,0-.7-1.3h0a.693.693,0,0,0-.3,1,.714.714,0,0,0,1,.3Zm-2.7,1.3h0a.762.762,0,0,0-.6-1.4h0a.73.73,0,0,0-.4,1A.7.7,0,0,0,2111.2,1960Zm-2.9,1.1h0a.791.791,0,1,0-1-.5C2107.5,1961.1,2107.9,1961.3,2108.3,1961.1Zm-2.9,1h0a.728.728,0,0,0-.4-1.4h0a.715.715,0,0,0-.5.9.8.8,0,0,0,.9.5Zm-2.9.7h0a.765.765,0,1,0-.3-1.5h0a.765.765,0,1,0,.3,1.5Zm-3,.6h0a.765.765,0,1,0-.3-1.5h0a.731.731,0,0,0-.6.9A1.013,1.013,0,0,0,2099.5,1963.4Zm-3,.3h0a.752.752,0,1,0-.1-1.5h0a.773.773,0,0,0-.7.8.666.666,0,0,0,.8.7Zm-3.1.3h0a.752.752,0,1,0-.1-1.5h0a.773.773,0,0,0-.7.8.849.849,0,0,0,.8.7Zm-3,.1h0a.752.752,0,1,0-.1-1.5h0a.713.713,0,0,0-.7.8.859.859,0,0,0,.8.7Zm-3-.1h0a.752.752,0,1,0-.7-.8C2086.6,1963.7,2086.9,1964,2087.4,1964Zm-3.1-.2h0a.752.752,0,1,0,.1-1.5h0a.752.752,0,0,0-.1,1.5Zm-3-.3h0a.66.66,0,0,0,.8-.7c0-.5-.2-.8-.7-.8h0a.66.66,0,0,0-.8.7A.773.773,0,0,0,2081.3,1963.5Zm-3-.4h0a.765.765,0,1,0-.6-.9A.778.778,0,0,0,2078.3,1963.1Zm-3-.6h0a.765.765,0,1,0,.3-1.5h0a.765.765,0,1,0-.3,1.5Zm-2.9-.6h0a.728.728,0,1,0-.5-.9C2071.7,1961.3,2072,1961.8,2072.4,1961.9Zm-2.9-.8h0a.728.728,0,0,0,.4-1.4h0a.715.715,0,0,0-.9.5A.761.761,0,0,0,2069.5,1961.1Zm-2.9-1h0a.791.791,0,0,0,.5-1.5h0a.877.877,0,0,0-1,.5A.779.779,0,0,0,2066.6,1960.1Zm-2.9-1h0a.762.762,0,0,0,.6-1.4h0a.731.731,0,0,0-1,.4C2063.2,1958.5,2063.3,1959,2063.7,1959.1Zm-2.8-1.1h0a.762.762,0,0,0,.6-1.4h0a.731.731,0,0,0-1,.4.863.863,0,0,0,.4,1Zm-2.7-1.3h0a.738.738,0,1,0,.7-1.3h0a.777.777,0,0,0-1,.3A.714.714,0,0,0,2058.2,1956.7Zm-2.7-1.4h0a.738.738,0,1,0-.3-1A.714.714,0,0,0,2055.5,1955.3Z"/>
      <path id="Path_67" data-name="Path 67" class="cls-1" d="M2109.1,1868.9c-2.6,2-5.9,4.9-5.5,8.5.1.9,1.4.9,2,.6,2.9-1.6,5.3-3.9,7.9-6C2116.4,1869.5,2111.2,1867.1,2109.1,1868.9Z"/>
      <path id="Path_68" data-name="Path 68" class="cls-1" d="M2118.1,1878.9c-1.3,1-2.5,2-3.7,3-1,.9-2,2.3-1.3,3.7a1.255,1.255,0,0,0,1.1.6c3.2,0,5.7-2.6,8.1-4.3a1.776,1.776,0,0,0,0-3A3.777,3.777,0,0,0,2118.1,1878.9Z"/>
      <path id="Path_69" data-name="Path 69" class="cls-1" d="M2052.7,1878.6a12.375,12.375,0,0,1,1.8,1.4,11.793,11.793,0,0,0,2.1,1.8c.4.2,1.5.3,1.5-.4,0-1.9-1.9-3.3-3.3-4.2a1.988,1.988,0,0,0-2.1,0A.769.769,0,0,0,2052.7,1878.6Z"/>
      <path id="Path_70" data-name="Path 70" class="cls-1" d="M2059,1875.4a18.614,18.614,0,0,1,2.3,1.3,9.376,9.376,0,0,0,1.5.6,4.192,4.192,0,0,0,1.5.4,1.149,1.149,0,0,0,1.1-.6c.2-.4,0-.8-.1-1.2,0-.1-.1-.5-.1-.6,0-.2-.4-.6-.5-.8a8.393,8.393,0,0,0-3.1-2.2,3.4,3.4,0,0,0-3.5.6A1.581,1.581,0,0,0,2059,1875.4Z"/>
    </g>
    <path id="Path_71" data-name="Path 71" class="cls-3" d="M2115.1,1947.2a31.234,31.234,0,0,0-8.8-1.7c1.3-11.5,2.7-23.1,1.6-34.6,2.6-.1,5.2-2.5,2.7-4.6-4.8-3.9-9.5-8.1-14.8-11.3-2.9-1.7-6-3.9-9.2-2.1-7.5,4.2-15.3,8.7-21.8,14.4-2.8,2.4,2,5.1,4.1,3.1.3-.3.6-.5.9-.8-.4,11.8-.5,23.6-.5,35.4-1.9.1-3.7.1-5.6.2-3.2.2-3.3,4.3,0,4.1,8.1-.4,16.1-.1,24.1.2,2.2.2,4.4.4,6.6.4,6.8.6,14.4,1.6,20.6-.6A1.071,1.071,0,0,0,2115.1,1947.2Zm-26.1-50a51.033,51.033,0,0,1,11.3,8.2,134.492,134.492,0,0,0-26.9,1.4A125.689,125.689,0,0,1,2089,1897.2Zm-17.4,21.8c.1-2.5.1-5,.2-7.5.1-3.4,1.5-3.3,4.5-3.7a138.213,138.213,0,0,1,15.8-1.1,84.141,84.141,0,0,1,9.9.1c1.1,1.1,2.3,2.1,3.5,3.2a110.51,110.51,0,0,1,.4,11.5,210.38,210.38,0,0,1-2.1,23.8c-4.4-.1-8.8.1-12.9-.1-1.3-.1-2.7-.1-4-.1q0-9.45.9-18.9c.5-5.1,3.4-13.8.6-18.4-.1-.2-.4-.1-.5,0-1.4,2.4-.9,5.3-.9,8.1,0,3.4-.1,6.9-.4,10.3-.5,6.3-1,12.6-.9,18.8-4.8-.1-9.6-.2-14.4-.1C2071.3,1936.3,2071.4,1927.7,2071.6,1919Z"/>
  </g>
</svg>
