<?xml version="1.0" encoding="utf-8"?>
<!-- Generator: Adobe Illustrator 21.0.0, SVG Export Plug-In . SVG Version: 6.00 Build 0)  -->
<svg version="1.1" id="Calque_1" xmlns="http://www.w3.org/2000/svg" xmlns:xlink="http://www.w3.org/1999/xlink" x="0px" y="0px"
	 viewBox="0 0 370.7 183.6" style="enable-background:new 0 0 370.7 183.6;" xml:space="preserve">
<style type="text/css">
	.st0{fill:#E64648;}
	.st1{fill:none;}
	.st2{enable-background:new    ;}
</style>
<g id="FLECHES_1_">
	<g id="FLECHES_2_">
		<g id="Fleches_1_">
			<g>
				<g>
					<g>
						
							<rect x="185.8" y="131" transform="matrix(0.8473 -0.5311 0.5311 0.8473 -27.0502 168.902)" class="st0" width="189" height="1"/>
					</g>
					<g>
						<g>
							<polygon class="st0" points="358.4,79.6 363.4,79.4 361,83.8 							"/>
						</g>
					</g>
					<g>
						<g>
							<polygon class="st0" points="199.5,179.2 197.1,183.6 202.1,183.4 							"/>
						</g>
					</g>
				</g>
			</g>
			<g>
				<g>
					<g>
						
							<rect x="77.5" y="95.6" transform="matrix(0.5284 -0.849 0.849 0.5284 -91.3717 137.4149)" class="st0" width="1" height="110.7"/>
					</g>
					<g>
						<g>
							<polygon class="st0" points="30.3,124.2 28,119.8 33,120 							"/>
						</g>
					</g>
					<g>
						<g>
							<polygon class="st0" points="123,182 128,182.1 125.7,177.7 							"/>
						</g>
					</g>
				</g>
			</g>
			<g>
				
					<rect x="112.1" y="122.4" transform="matrix(0.8663 -0.4995 0.4995 0.8663 -30.3054 131.8669)" class="st0" width="238.2" height="0.2"/>
			</g>
			<g>
				
					<rect x="19.8" y="88.3" transform="matrix(0.8732 -0.4873 0.4873 0.8732 -32.4532 52.1452)" class="st0" width="128.4" height="0.3"/>
			</g>
			<g>
				<polygon class="st0" points="363.3,79.5 224.2,0.2 224.4,0 363.5,79.3 				"/>
			</g>
			<g>
				
					<rect x="126.9" y="62.8" transform="matrix(0.4969 -0.8678 0.8678 0.4969 -60.5671 182.4306)" class="st0" width="0.3" height="161.2"/>
			</g>
			<g>
				<rect y="157.8" class="st1" width="66" height="16"/>
			</g>
			<g class="st2">
				<path class="st0" d="M1,165.7c0.4,0.2,1.2,0.6,2.1,0.6c1.1,0,1.7-0.5,1.7-1.2c0-0.9-0.9-1.3-1.8-1.3H2v-1.5h0.8
					c0.7,0,1.6-0.3,1.6-1.1c0-0.5-0.4-1-1.3-1c-0.7,0-1.5,0.3-1.9,0.5l-0.4-1.5c0.5-0.4,1.6-0.7,2.8-0.7c1.9,0,3,1,3,2.3
					c0,1-0.5,1.7-1.7,2.1v0c1.1,0.2,2,1,2,2.2c0,1.6-1.4,2.8-3.7,2.8c-1.2,0-2.2-0.3-2.7-0.6L1,165.7z"/>
				<path class="st0" d="M8.2,165.4c0-1.1,0.6-1.8,1.6-2.3v0c-0.9-0.4-1.3-1.2-1.3-2c0-1.5,1.4-2.6,3.2-2.6c2.1,0,3,1.2,3,2.3
					c0,0.8-0.4,1.6-1.3,2v0c0.9,0.3,1.7,1.1,1.7,2.3c0,1.7-1.4,2.8-3.5,2.8C9.3,167.9,8.2,166.6,8.2,165.4z M12.9,165.3
					c0-0.8-0.6-1.3-1.4-1.5c-0.7,0.2-1.1,0.7-1.1,1.4c0,0.7,0.5,1.3,1.3,1.3C12.4,166.4,12.9,165.9,12.9,165.3z M10.5,161
					c0,0.6,0.6,1,1.3,1.2c0.5-0.1,0.9-0.6,0.9-1.2c0-0.6-0.3-1.1-1.1-1.1C10.9,159.9,10.5,160.4,10.5,161z"/>
				<path class="st0" d="M22.9,163.1c0,2.8-1.1,4.7-3.5,4.7c-2.4,0-3.4-2.1-3.4-4.7c0-2.6,1.1-4.7,3.5-4.7
					C21.9,158.5,22.9,160.7,22.9,163.1z M18.1,163.2c0,2.1,0.5,3.1,1.3,3.1c0.8,0,1.3-1,1.3-3.1c0-2-0.4-3.1-1.3-3.1
					C18.7,160.1,18.1,161.1,18.1,163.2z"/>
				<path class="st0" d="M32.1,167.6c-0.4,0.2-1.1,0.3-1.9,0.3c-2.2,0-3.6-1.3-3.6-3.5c0-2,1.4-3.6,3.9-3.6c0.6,0,1.2,0.1,1.6,0.3
					l-0.3,1.6c-0.3-0.1-0.6-0.2-1.2-0.2c-1.1,0-1.8,0.8-1.8,1.9c0,1.3,0.8,1.9,1.9,1.9c0.5,0,0.9-0.1,1.2-0.2L32.1,167.6z"/>
				<path class="st0" d="M33.3,163.1c0-0.9,0-1.6-0.1-2.2H35l0.1,0.9h0c0.3-0.4,0.9-1.1,2.1-1.1c0.9,0,1.6,0.4,1.9,1.2h0
					c0.3-0.4,0.6-0.6,0.9-0.8c0.4-0.2,0.8-0.3,1.3-0.3c1.3,0,2.3,0.9,2.3,3v4h-2.1V164c0-1-0.3-1.6-1-1.6c-0.5,0-0.8,0.3-1,0.7
					c-0.1,0.2-0.1,0.4-0.1,0.5v4h-2.1v-3.8c0-0.9-0.3-1.5-1-1.5c-0.5,0-0.9,0.4-1,0.8c-0.1,0.2-0.1,0.4-0.1,0.5v4h-2.1V163.1z"/>
			</g>
			<g>
				<rect x="304.7" y="140.5" class="st1" width="66" height="16"/>
			</g>
			<g class="st2">
				<path class="st0" d="M311.3,143.1h-3.5l-0.2,1.4c0.2,0,0.4,0,0.6,0c0.9,0,1.8,0.2,2.4,0.7c0.7,0.5,1.1,1.2,1.1,2.3
					c0,1.7-1.5,3.2-3.9,3.2c-1.1,0-2-0.3-2.5-0.5l0.4-1.6c0.4,0.2,1.2,0.4,2.1,0.4c0.9,0,1.8-0.4,1.8-1.4c0-0.9-0.7-1.5-2.6-1.5
					c-0.5,0-0.9,0-1.2,0.1l0.6-4.8h5V143.1z"/>
				<path class="st0" d="M313.7,148.9c0.3,0,0.5,0,0.9,0c0.6,0,1.3-0.2,1.8-0.6c0.6-0.4,1-1,1.1-1.7l0,0c-0.4,0.4-1,0.7-1.8,0.7
					c-1.5,0-2.8-1.1-2.8-2.8c0-1.8,1.4-3.3,3.4-3.3c2.3,0,3.4,1.8,3.4,3.9c0,1.9-0.6,3.3-1.6,4.2c-0.9,0.8-2.1,1.2-3.5,1.3
					c-0.4,0-0.7,0-1,0V148.9z M315,144.3c0,0.8,0.4,1.5,1.3,1.5c0.6,0,1-0.3,1.2-0.6c0.1-0.1,0.1-0.3,0.1-0.5c0-1-0.4-1.9-1.3-1.9
					C315.5,142.7,315,143.3,315,144.3z"/>
				<path class="st0" d="M321.2,148.3c0.4,0.2,1.2,0.6,2.1,0.6c1.1,0,1.7-0.5,1.7-1.2c0-0.9-0.9-1.3-1.8-1.3h-0.9v-1.5h0.8
					c0.7,0,1.6-0.3,1.6-1.1c0-0.5-0.4-1-1.3-1c-0.7,0-1.5,0.3-1.9,0.5l-0.4-1.5c0.5-0.4,1.6-0.7,2.8-0.7c1.9,0,3,1,3,2.3
					c0,1-0.5,1.7-1.7,2.1v0c1.1,0.2,2,1,2,2.2c0,1.6-1.4,2.8-3.7,2.8c-1.2,0-2.2-0.3-2.7-0.6L321.2,148.3z"/>
				<path class="st0" d="M336.8,150.2c-0.4,0.2-1.1,0.3-1.9,0.3c-2.2,0-3.6-1.3-3.6-3.5c0-2,1.4-3.6,3.9-3.6c0.6,0,1.2,0.1,1.6,0.3
					l-0.3,1.6c-0.3-0.1-0.6-0.2-1.2-0.2c-1.1,0-1.8,0.8-1.8,1.9c0,1.3,0.8,1.9,1.9,1.9c0.5,0,0.9-0.1,1.2-0.2L336.8,150.2z"/>
				<path class="st0" d="M338,145.7c0-0.9,0-1.6-0.1-2.2h1.8l0.1,0.9h0c0.3-0.4,0.9-1.1,2.1-1.1c0.9,0,1.6,0.4,1.9,1.2h0
					c0.3-0.4,0.6-0.6,0.9-0.8c0.4-0.2,0.8-0.3,1.3-0.3c1.3,0,2.3,0.9,2.3,3v4h-2.1v-3.7c0-1-0.3-1.6-1-1.6c-0.5,0-0.8,0.3-1,0.7
					c-0.1,0.2-0.1,0.4-0.1,0.5v4h-2.1v-3.8c0-0.9-0.3-1.5-1-1.5c-0.5,0-0.9,0.4-1,0.8c-0.1,0.2-0.1,0.4-0.1,0.5v4H338V145.7z"/>
			</g>
		</g>
	</g>
</g>
</svg>
