<?xml version="1.0" encoding="utf-8"?>
<!-- Generator: Adobe Illustrator 21.0.0, SVG Export Plug-In . SVG Version: 6.00 Build 0)  -->
<svg version="1.1" id="Calque_1" xmlns="http://www.w3.org/2000/svg" xmlns:xlink="http://www.w3.org/1999/xlink" x="0px" y="0px"
	 viewBox="0 0 169.9 197.8" style="enable-background:new 0 0 169.9 197.8;" xml:space="preserve">
<style type="text/css">
	.st0{fill:none;stroke:#E1E0E0;stroke-width:0.6845;stroke-miterlimit:10;}
	.st1{fill:none;stroke:#353435;stroke-width:1.3689;stroke-miterlimit:10;}
	.st2{fill:#E1E1D6;stroke:#E1E1D6;stroke-width:0.6845;stroke-miterlimit:10;}
	.st3{fill:#FCFCFC;stroke:#B7B6B6;stroke-width:1.7112;stroke-linejoin:bevel;stroke-miterlimit:10;}
	.st4{opacity:0.6;fill:url(#SVGID_1_);enable-background:new    ;}
	.st5{opacity:0.6;fill:url(#SVGID_2_);enable-background:new    ;}
	.st6{opacity:0.6;fill:url(#SVGID_3_);enable-background:new    ;}
	.st7{fill:url(#SVGID_4_);}
	.st8{fill:none;stroke:#2B2B2B;stroke-width:2.3956;stroke-miterlimit:10;}
	.st9{fill:none;stroke:#2B2B2B;stroke-width:1.3689;stroke-miterlimit:10;}
	.st10{fill:none;stroke:#2B2B2B;stroke-width:0.6845;stroke-miterlimit:10;}
	.st11{opacity:0.6;fill:none;stroke:#2B2B2B;stroke-width:1.3689;stroke-miterlimit:10;enable-background:new    ;}
	.st12{fill:#2B2B2B;}
	.st13{opacity:0.3;fill:none;stroke:#2B2B2B;stroke-width:1.3689;stroke-miterlimit:10;enable-background:new    ;}
	.st14{opacity:0.5;fill:none;stroke:#2B2B2B;stroke-width:1.3689;stroke-miterlimit:10;enable-background:new    ;}
	.st15{fill:#2B2B2B;stroke:#2B2B2B;stroke-width:0.1207;stroke-miterlimit:10;}
	.st16{fill:#E3EFF4;stroke:#2B2B2B;stroke-width:1.3689;stroke-linejoin:bevel;stroke-miterlimit:10;}
	.st17{fill:none;stroke:#2B2B2B;stroke-width:1.3689;stroke-linejoin:bevel;stroke-miterlimit:10;}
	.st18{fill:none;stroke:#2B2B2B;stroke-width:2.0534;stroke-miterlimit:10;}
	
		.st19{opacity:0.4;fill:none;stroke:#E7E8E9;stroke-width:0.3423;stroke-linejoin:bevel;stroke-miterlimit:10;enable-background:new    ;}
	.st20{opacity:0.5;fill:url(#SVGID_5_);enable-background:new    ;}
	.st21{opacity:0.5;}
	.st22{fill:#424242;}
	
		.st23{opacity:0.7;fill:none;stroke:#333333;stroke-width:0.6844;stroke-linejoin:bevel;stroke-miterlimit:10;enable-background:new    ;}
</style>
<g id="ILLU">
	<g id="Illu">
		<g>
			<line class="st0" x1="167.5" y1="44.5" x2="134.8" y2="108.4"/>
			<line class="st0" x1="102.9" y1="20.9" x2="134.8" y2="108.4"/>
			<line class="st0" x1="71.1" y1="99.9" x2="104.2" y2="169.1"/>
			<line class="st0" x1="167.5" y1="44.5" x2="137.7" y2="148.2"/>
			<line class="st0" x1="37.5" y1="59" x2="103.4" y2="78.8"/>
			<line class="st0" x1="78.7" y1="20.3" x2="132" y2="3.3"/>
			<line class="st1" x1="101.3" y1="20.9" x2="101.3" y2="90.4"/>
			<line class="st1" x1="135.1" y1="2.7" x2="135.1" y2="109.7"/>
			<line class="st1" x1="100.4" y1="4" x2="168.7" y2="42.8"/>
			<polygon class="st2" points="169.2,129.4 101.3,90.2 0.3,150 0.3,157.2 70.5,197.4 169.2,136.7 			"/>
			<polygon class="st3" points="0.5,150 101.3,90.2 169.4,129.5 70.5,190.2 			"/>
			
				<linearGradient id="SVGID_1_" gradientUnits="userSpaceOnUse" x1="37.2638" y1="675.5967" x2="35.3321" y2="799.2257" gradientTransform="matrix(1 0 0 1 0 -622)">
				<stop  offset="0" style="stop-color:#FFFFFF"/>
				<stop  offset="1" style="stop-color:#CCE2EA"/>
			</linearGradient>
			<polygon class="st4" points="2,149.9 2,61 36.1,59.2 70.2,99.3 70.2,189.8 			"/>
			
				<linearGradient id="SVGID_2_" gradientUnits="userSpaceOnUse" x1="101.7422" y1="687.1281" x2="169.6423" y2="687.1281" gradientTransform="matrix(1 0 0 1 0 -622)">
				<stop  offset="0" style="stop-color:#FFFFFF"/>
				<stop  offset="1" style="stop-color:#CCE2EA"/>
			</linearGradient>
			<polygon class="st5" points="101.7,89.5 101.7,3 134.4,1 169.4,41.9 169.6,129.3 			"/>
			
				<linearGradient id="SVGID_3_" gradientUnits="userSpaceOnUse" x1="37.6423" y1="717.6281" x2="169.4423" y2="717.6281" gradientTransform="matrix(1 0 0 1 0 -622)">
				<stop  offset="0" style="stop-color:#FFFFFF"/>
				<stop  offset="1" style="stop-color:#CCE2EA"/>
			</linearGradient>
			<polygon class="st6" points="169.2,42.7 136.8,2.8 37.6,59.5 71.4,99.3 71.4,188.5 169.4,130 			"/>
			
				<linearGradient id="SVGID_4_" gradientUnits="userSpaceOnUse" x1="3.8422" y1="652.4281" x2="134.4423" y2="652.4281" gradientTransform="matrix(1 0 0 1 0 -622)">
				<stop  offset="0" style="stop-color:#FFFFFF"/>
				<stop  offset="1" style="stop-color:#CCE2EA"/>
			</linearGradient>
			<polygon class="st7" points="100.7,3.2 3.8,59.7 36.1,58.2 134.4,1.2 			"/>
			<polyline class="st8" points="36.8,59.1 70.1,98.6 70.1,190.1 			"/>
			<polyline class="st9" points="70.7,39.5 104,79.6 104,170 			"/>
			<polyline class="st9" points="102.9,20.3 137.3,61.2 137.4,149.4 			"/>
			<polyline class="st8" points="134.2,1.6 168.4,42.2 168.4,129.8 			"/>
			<line class="st9" x1="0.5" y1="63.5" x2="69.7" y2="103.2"/>
			<line class="st10" x1="0.9" y1="61.5" x2="70.4" y2="101.3"/>
			<polyline class="st8" points="36.1,59.1 1.2,60.9 1.2,150 			"/>
			<line class="st11" x1="36.8" y1="39.5" x2="36.8" y2="57.8"/>
			<line class="st9" x1="69.9" y1="38.4" x2="36.8" y2="39.5"/>
			<line class="st11" x1="69.7" y1="20.9" x2="69.7" y2="38.9"/>
			<line class="st9" x1="103.7" y1="18.6" x2="69.7" y2="20.9"/>
			<polygon class="st12" points="101.4,4.7 100.5,2.3 134.6,0.1 134.7,2.4 			"/>
			<line class="st13" x1="69.7" y1="38.4" x2="69.7" y2="108.9"/>
			<line class="st13" x1="36.8" y1="56.3" x2="36.8" y2="126.8"/>
			<line class="st14" x1="101.3" y1="3.6" x2="101.3" y2="20.9"/>
			<polygon class="st15" points="1,61.4 0.2,59.9 100.5,2.3 102.6,4 			"/>
			<polygon class="st15" points="36.5,60.5 35.4,57.9 134.5,0.1 136.3,2.3 			"/>
			<polygon class="st15" points="70.8,101.3 69.7,98.3 168.6,40.9 169.4,43.5 			"/>
			<polygon class="st12" points="70.5,191.6 69.9,191.2 0.1,151.1 0,148.7 70.5,188.8 169.6,127.9 169.6,130.8 			"/>
			<polygon class="st16" points="99.8,17.5 66.4,36.6 37.8,37.7 71.3,19.5 			"/>
			<polygon class="st17" points="99.8,18.7 66.4,37.8 37.8,38.9 71.3,20.6 			"/>
			<polygon class="st17" points="100.7,19.2 67.4,38.3 38.8,39.4 72.3,21.2 			"/>
			<g>
				<polygon class="st18" points="66.6,101.3 35.9,83.8 35.9,169.4 66.6,187.5 				"/>
				<polygon class="st19" points="65.5,100.9 34.8,83.5 34.8,169.1 65.5,187.2 				"/>
				
					<linearGradient id="SVGID_5_" gradientUnits="userSpaceOnUse" x1="40.0186" y1="716.4983" x2="64.5824" y2="805.2682" gradientTransform="matrix(1 0 0 1 0 -622)">
					<stop  offset="0" style="stop-color:#FFFFFF"/>
					<stop  offset="1" style="stop-color:#CCE2EA"/>
				</linearGradient>
				<polygon class="st20" points="66.5,100.8 35.8,83.4 35.8,169 66.5,187.1 				"/>
				<polygon class="st12" points="66.6,101.3 35.9,83.8 35.9,92.6 66.6,109.8 				"/>
				<g class="st21">
					<g>
						<polygon class="st22" points="69.4,101.3 66.6,100.1 66.6,186.1 69.4,187.5 						"/>
					</g>
				</g>
				<polygon class="st23" points="67.3,101.3 36.6,83.8 36.6,169.4 67.3,187.5 				"/>
			</g>
		</g>
	</g>
</g>
</svg>
