<?xml version="1.0" encoding="utf-8"?>
<!-- Generator: Adobe Illustrator 21.0.0, SVG Export Plug-In . SVG Version: 6.00 Build 0)  -->
<svg version="1.1" id="Calque_1" xmlns="http://www.w3.org/2000/svg" xmlns:xlink="http://www.w3.org/1999/xlink" x="0px" y="0px"
	 viewBox="0 0 298.7 112.8" style="enable-background:new 0 0 298.7 112.8;" xml:space="preserve">
<style type="text/css">
	.st0{fill:#E64648;}
	.st1{fill:none;}
</style>
<g>
	<g id="FLECHES">
		<g id="fleche">
			<g>
				<g>
					<g>
						
							<rect x="157.3" y="77.9" transform="matrix(0.8556 -0.5177 0.5177 0.8556 -10.3518 119.6622)" class="st0" width="103.9" height="1"/>
					</g>
					<g>
						<g>
							<polygon class="st0" points="251.8,49.8 256.8,49.7 254.4,54.1 							"/>
						</g>
					</g>
					<g>
						<g>
							<polygon class="st0" points="164.1,102.7 161.7,107.1 166.7,107 							"/>
						</g>
					</g>
				</g>
			</g>
			<g>
				<g>
					<g>
						
							<rect x="73.6" y="51.5" transform="matrix(0.5147 -0.8574 0.8574 0.5147 -38.3071 105.5525)" class="st0" width="1" height="70.3"/>
					</g>
					<g>
						<g>
							<polygon class="st0" points="43.9,71.5 41.5,67.1 46.5,67.2 							"/>
						</g>
					</g>
					<g>
						<g>
							<polygon class="st0" points="102.4,106.5 107.4,106.5 105,102.2 							"/>
						</g>
					</g>
				</g>
			</g>
			<g>
				
					<rect x="97.3" y="69.9" transform="matrix(0.8575 -0.5145 0.5145 0.8575 -12.0398 96.6832)" class="st0" width="142.4" height="0.3"/>
			</g>
			<g>
				
					<rect x="35.2" y="43.9" transform="matrix(0.8646 -0.5024 0.5024 0.8646 -11.131 46.8267)" class="st0" width="92.2" height="0.3"/>
			</g>
			<g>
				
					<rect x="113.7" y="25" transform="matrix(0.4924 -0.8704 0.8704 0.4924 -11.8577 139.7075)" class="st0" width="0.2" height="110.1"/>
			</g>
			<g>
				
					<rect x="215.2" y="-23.4" transform="matrix(0.5139 -0.8579 0.8579 0.5139 83.4097 196.8388)" class="st0" width="0.3" height="96.5"/>
			</g>
			<g>
				<rect y="96.8" class="st1" width="66" height="16"/>
			</g>
			<g>
				<rect x="232.7" y="86.5" class="st1" width="66" height="16"/>
			</g>
		</g>
	</g>
	<g>
		<path class="st0" d="M7.3,106.9h-2v-5.4l0-0.9l0-1c-0.3,0.3-0.6,0.5-0.7,0.6l-1.1,0.9l-1-1.2l3-2.4h1.6V106.9z"/>
		<path class="st0" d="M13.3,100.9c0.9,0,1.6,0.3,2.2,0.8s0.8,1.2,0.8,2.1c0,1-0.3,1.8-1,2.4c-0.6,0.6-1.6,0.8-2.8,0.8
			c-1,0-1.9-0.2-2.5-0.5v-1.7c0.3,0.2,0.7,0.3,1.2,0.4s0.9,0.2,1.3,0.2c1.2,0,1.8-0.5,1.8-1.5c0-0.9-0.6-1.4-1.9-1.4
			c-0.2,0-0.5,0-0.7,0.1s-0.5,0.1-0.7,0.1l-0.8-0.4l0.4-4.8h5.1v1.7h-3.3l-0.2,1.8l0.2,0C12.6,100.9,12.9,100.9,13.3,100.9z"/>
		<path class="st0" d="M23.8,101.5c0,1.8-0.4,3.2-1.2,4.1c-0.8,0.9-1.9,1.4-3.5,1.4c-0.6,0-1,0-1.3-0.1v-1.6
			c0.4,0.1,0.7,0.1,1.1,0.1c0.7,0,1.2-0.1,1.6-0.3c0.4-0.2,0.8-0.5,1-0.9c0.2-0.4,0.4-1,0.4-1.7h-0.1c-0.2,0.4-0.5,0.7-0.9,0.8
			s-0.7,0.2-1.2,0.2c-0.8,0-1.5-0.3-1.9-0.8c-0.5-0.5-0.7-1.2-0.7-2.2c0-1,0.3-1.8,0.9-2.4c0.6-0.6,1.3-0.9,2.3-0.9
			c0.7,0,1.3,0.2,1.8,0.5s0.9,0.8,1.2,1.4C23.7,99.9,23.8,100.7,23.8,101.5z M20.4,99c-0.4,0-0.7,0.1-1,0.4s-0.3,0.7-0.3,1.2
			c0,0.5,0.1,0.8,0.3,1.1c0.2,0.3,0.5,0.4,1,0.4c0.4,0,0.7-0.1,1-0.4c0.3-0.3,0.4-0.6,0.4-0.9c0-0.5-0.1-0.9-0.4-1.3
			C21.2,99.2,20.9,99,20.4,99z"/>
		<path class="st0" d="M31.6,107c-2.2,0-3.3-1.2-3.3-3.7c0-1.2,0.3-2.1,0.9-2.8c0.6-0.6,1.5-1,2.6-1c0.8,0,1.6,0.2,2.2,0.5l-0.6,1.5
			c-0.3-0.1-0.6-0.2-0.9-0.3c-0.3-0.1-0.5-0.1-0.8-0.1c-1,0-1.5,0.7-1.5,2.2c0,1.4,0.5,2.1,1.5,2.1c0.4,0,0.7,0,1-0.1
			c0.3-0.1,0.6-0.3,1-0.5v1.7c-0.3,0.2-0.6,0.3-1,0.4C32.5,106.9,32.1,107,31.6,107z"/>
		<path class="st0" d="M41.8,106.9h-1.9v-4.2c0-0.5-0.1-0.9-0.3-1.2c-0.2-0.3-0.4-0.4-0.8-0.4c-0.5,0-0.9,0.2-1.1,0.5
			c-0.2,0.4-0.3,1-0.3,1.8v3.4h-1.9v-7.1h1.5l0.3,0.9h0.1c0.2-0.3,0.5-0.6,0.8-0.8c0.4-0.2,0.8-0.3,1.2-0.3c1.1,0,1.8,0.3,2.2,1h0.2
			c0.2-0.3,0.5-0.6,0.8-0.8c0.4-0.2,0.8-0.3,1.3-0.3c0.8,0,1.4,0.2,1.8,0.6c0.4,0.4,0.6,1.1,0.6,2v4.6h-2v-4.2
			c0-0.5-0.1-0.9-0.3-1.2c-0.2-0.3-0.4-0.4-0.8-0.4c-0.5,0-0.8,0.2-1.1,0.5s-0.4,0.9-0.4,1.6V106.9z"/>
	</g>
	<g>
		<path class="st0" d="M236,95.2h-6.4v-1.3l2.3-2.3c0.7-0.7,1.1-1.2,1.3-1.4s0.4-0.5,0.4-0.7c0.1-0.2,0.1-0.5,0.1-0.7
			c0-0.4-0.1-0.6-0.3-0.8c-0.2-0.2-0.5-0.3-0.8-0.3c-0.4,0-0.7,0.1-1,0.2s-0.7,0.4-1,0.7l-1-1.2c0.4-0.4,0.8-0.7,1.1-0.8
			c0.3-0.2,0.6-0.3,1-0.4c0.3-0.1,0.7-0.1,1.2-0.1c0.6,0,1.1,0.1,1.5,0.3c0.4,0.2,0.8,0.5,1,0.9s0.4,0.8,0.4,1.3
			c0,0.4-0.1,0.8-0.2,1.2s-0.4,0.7-0.7,1.1c-0.3,0.4-0.9,0.9-1.6,1.7l-1.2,1.1v0.1h4V95.2z"/>
		<path class="st0" d="M243.3,95.2h-6.4v-1.3l2.3-2.3c0.7-0.7,1.1-1.2,1.3-1.4c0.2-0.3,0.4-0.5,0.4-0.7c0.1-0.2,0.1-0.5,0.1-0.7
			c0-0.4-0.1-0.6-0.3-0.8c-0.2-0.2-0.5-0.3-0.8-0.3c-0.4,0-0.7,0.1-1,0.2c-0.3,0.2-0.7,0.4-1,0.7l-1-1.2c0.4-0.4,0.8-0.7,1.1-0.8
			c0.3-0.2,0.6-0.3,1-0.4c0.3-0.1,0.7-0.1,1.2-0.1c0.6,0,1.1,0.1,1.5,0.3c0.4,0.2,0.8,0.5,1,0.9c0.2,0.4,0.4,0.8,0.4,1.3
			c0,0.4-0.1,0.8-0.2,1.2s-0.4,0.7-0.7,1.1c-0.3,0.4-0.9,0.9-1.6,1.7l-1.2,1.1v0.1h4V95.2z"/>
		<path class="st0" d="M250.7,93.3h-1.1v1.9h-1.9v-1.9h-3.9V92l4-5.9h1.8v5.7h1.1V93.3z M247.8,91.8v-1.5c0-0.3,0-0.6,0-1.1
			c0-0.5,0-0.8,0-0.9h0c-0.2,0.3-0.3,0.7-0.6,1l-1.7,2.5H247.8z"/>
		<path class="st0" d="M258.1,95.3c-2.2,0-3.3-1.2-3.3-3.6c0-1.2,0.3-2.1,0.9-2.7c0.6-0.6,1.4-0.9,2.5-0.9c0.8,0,1.5,0.2,2.2,0.5
			l-0.6,1.5c-0.3-0.1-0.6-0.2-0.8-0.3c-0.3-0.1-0.5-0.1-0.8-0.1c-1,0-1.5,0.7-1.5,2.1c0,1.4,0.5,2,1.5,2c0.4,0,0.7,0,1-0.1
			c0.3-0.1,0.6-0.3,0.9-0.5v1.6c-0.3,0.2-0.6,0.3-0.9,0.4C259,95.3,258.6,95.3,258.1,95.3z"/>
		<path class="st0" d="M268.1,95.2h-1.9v-4.1c0-0.5-0.1-0.9-0.3-1.1c-0.2-0.3-0.4-0.4-0.8-0.4c-0.5,0-0.8,0.2-1.1,0.5
			c-0.2,0.4-0.3,0.9-0.3,1.8v3.3h-1.9v-7h1.5l0.3,0.9h0.1c0.2-0.3,0.5-0.6,0.8-0.8s0.8-0.3,1.2-0.3c1,0,1.7,0.3,2.1,1h0.2
			c0.2-0.3,0.5-0.6,0.8-0.8c0.4-0.2,0.8-0.3,1.2-0.3c0.8,0,1.4,0.2,1.8,0.6c0.4,0.4,0.6,1.1,0.6,1.9v4.5h-1.9v-4.1
			c0-0.5-0.1-0.9-0.3-1.1c-0.2-0.3-0.4-0.4-0.8-0.4c-0.5,0-0.8,0.2-1,0.5s-0.3,0.9-0.3,1.6V95.2z"/>
	</g>
</g>
</svg>
