<?xml version="1.0" encoding="utf-8"?>
<!-- Generator: Adobe Illustrator 21.0.0, SVG Export Plug-In . SVG Version: 6.00 Build 0)  -->
<svg version="1.1" id="Calque_1" xmlns="http://www.w3.org/2000/svg" xmlns:xlink="http://www.w3.org/1999/xlink" x="0px" y="0px"
	 viewBox="0 0 285.3 225.8" style="enable-background:new 0 0 285.3 225.8;" xml:space="preserve">
<style type="text/css">
	.st0{fill:#E1E1D6;stroke:#E1E1D6;stroke-width:0.6874;stroke-miterlimit:10;}
	.st1{fill:#FCFCFC;stroke:#2B2B2B;stroke-width:1.8186;stroke-linejoin:bevel;stroke-miterlimit:10;}
	.st2{fill:none;stroke:#E1E0E0;stroke-width:0.6874;stroke-miterlimit:10;}
	.st3{fill:none;}
	.st4{opacity:0.7;enable-background:new    ;}
	.st5{clip-path:url(#SVGID_2_);}
	.st6{fill:none;stroke:#2B2B2B;stroke-width:1.3747;stroke-miterlimit:10;}
	.st7{opacity:0.8;fill:none;stroke:#5E5F5F;stroke-width:1.2124;stroke-miterlimit:10;enable-background:new    ;}
	.st8{fill:none;stroke:#5E5F5F;stroke-width:0.3437;stroke-miterlimit:10;}
	.st9{opacity:0.7;fill:none;stroke:#FFFFFF;stroke-width:0.3437;stroke-miterlimit:10;enable-background:new    ;}
	.st10{fill:none;stroke:#FFFFFF;stroke-width:0.3437;stroke-miterlimit:10;}
	.st11{fill:none;stroke:#565656;stroke-width:0.3437;stroke-miterlimit:10;}
	.st12{opacity:0.7;fill:none;stroke:#565656;stroke-width:0.3437;stroke-miterlimit:10;enable-background:new    ;}
	.st13{fill:none;stroke:#131313;stroke-width:1.3747;stroke-miterlimit:10;}
	.st14{opacity:0.6;fill:none;stroke:#131313;stroke-width:1.3747;stroke-miterlimit:10;enable-background:new    ;}
	.st15{opacity:0.7;fill:none;stroke:#131313;stroke-width:1.3747;stroke-miterlimit:10;enable-background:new    ;}
	.st16{opacity:0.6;fill:url(#SVGID_3_);enable-background:new    ;}
	.st17{opacity:0.7;fill:url(#SVGID_4_);enable-background:new    ;}
	.st18{opacity:0.6;fill:url(#SVGID_5_);enable-background:new    ;}
	.st19{clip-path:url(#SVGID_7_);}
	.st20{opacity:0.6;fill:none;stroke:#2B2B2B;stroke-width:1.3747;stroke-miterlimit:10;enable-background:new    ;}
	.st21{opacity:0.8;enable-background:new    ;}
	.st22{clip-path:url(#SVGID_9_);}
	.st23{fill:#2B2B2B;stroke:#2B2B2B;stroke-width:0.1212;stroke-miterlimit:10;}
	.st24{fill:none;stroke:#131313;stroke-width:2.4058;stroke-miterlimit:10;}
	.st25{fill:none;stroke:#222323;stroke-width:2.0621;stroke-miterlimit:10;}
	.st26{fill:#131313;}
	.st27{fill:url(#SVGID_10_);stroke:#222323;stroke-width:2.0621;stroke-linejoin:bevel;stroke-miterlimit:10;}
	.st28{fill:url(#SVGID_11_);stroke:#222323;stroke-width:2.0621;stroke-linejoin:bevel;stroke-miterlimit:10;}
	.st29{fill:none;stroke:#222323;stroke-width:1.3747;stroke-miterlimit:10;}
	.st30{fill:#E3EFF4;stroke:#2B2B2B;stroke-width:1.3747;stroke-linejoin:bevel;stroke-miterlimit:10;}
	.st31{fill:none;stroke:#2B2B2B;stroke-width:2.0621;stroke-miterlimit:10;}
	.st32{opacity:0.5;fill:none;stroke:#3F3F3F;stroke-width:0.3437;stroke-miterlimit:10;enable-background:new    ;}
	.st33{opacity:0.5;fill:none;stroke:#FFFFFF;stroke-width:0.3437;stroke-miterlimit:10;enable-background:new    ;}
	.st34{opacity:0.7;fill:none;stroke:#3F3F3F;stroke-width:0.3437;stroke-miterlimit:10;enable-background:new    ;}
	.st35{opacity:0.4;fill:none;stroke:#E7E8E9;stroke-width:0.3437;stroke-miterlimit:10;enable-background:new    ;}
	.st36{opacity:0.5;fill:url(#SVGID_12_);enable-background:new    ;}
	.st37{fill:#2B2B2B;}
	.st38{opacity:0.5;}
	.st39{fill:#424242;}
	.st40{opacity:0.7;fill:none;stroke:#333333;stroke-width:0.6874;stroke-miterlimit:10;enable-background:new    ;}
</style>
<g id="ILLU_1_">
	<g id="ILLU_2_">
		<g id="Illu_1_">
			<g>
				<polygon class="st0" points="284.9,116.3 173.7,51.7 0.6,153.9 0.6,161.2 111.4,225.4 284.3,124 				"/>
				<polygon class="st1" points="0.6,153.9 173.7,51.7 284.3,116.8 111.4,218.2 				"/>
				<line class="st2" x1="272.3" y1="53.2" x2="262.6" y2="129.6"/>
				<line class="st2" x1="99.4" y1="153.1" x2="133.1" y2="204.9"/>
				<line class="st2" x1="185" y1="1.7" x2="152.5" y2="63.7"/>
				<polygon class="st3" points="271.9,52.5 227.5,1 55.6,102.4 99,153.8 110.4,217.8 283.3,116.5 				"/>
				<g class="st4">
					<g>
						<g>
							<g>
								<defs>
									<polygon id="SVGID_1_" points="173.9,51.7 1.3,153.8 12.4,104 55.6,102.4 178.3,31.2 									"/>
								</defs>
								<clipPath id="SVGID_2_">
									<use xlink:href="#SVGID_1_"  style="overflow:visible;"/>
								</clipPath>
								<g class="st5">
									<polyline class="st6" points="22.5,140.9 34.2,91 78.3,89.5 121.7,140.9 133.1,204.9 									"/>
									<polyline class="st6" points="44.1,128.4 55.8,78.4 99.9,77 143.3,128.4 154.7,192.4 									"/>
									<polyline class="st6" points="65.7,115.8 77.3,65.9 121.5,64.4 164.9,115.8 176.3,179.8 									"/>
									<polyline class="st6" points="87.4,102.9 98.9,53.3 143,51.9 186.5,103.3 197.8,167.3 									"/>
									<polyline class="st6" points="130.4,77.8 142.1,28.2 186.2,26.8 229.6,78.2 241,142.2 									"/>
									<polyline class="st6" points="151.6,64.8 163.6,15.7 207.8,14.2 251.2,65.6 262.6,129.6 									"/>
									<line class="st6" x1="185" y1="1.7" x2="185" y2="58.2"/>
									<polyline class="st6" points="108.9,90.4 120.5,40.8 164.6,39.3 208,90.7 219.4,154.7 									"/>
								</g>
							</g>
						</g>
					</g>
				</g>
				<line class="st7" x1="173.4" y1="52.5" x2="178.5" y2="30.5"/>
				<polyline class="st8" points="179,30.5 185.5,2.5 229.6,1 273,52.5 284.4,116.5 				"/>
				<line class="st9" x1="207.3" y1="1.5" x2="207.3" y2="71.2"/>
				<line class="st10" x1="250.3" y1="31" x2="250.3" y2="96.7"/>
				<line class="st9" x1="271.9" y1="52.9" x2="271.9" y2="109.3"/>
				<line class="st10" x1="197.5" y1="1.8" x2="257.5" y2="35.7"/>
				<line class="st11" x1="250.9" y1="31.5" x2="250.9" y2="97.2"/>
				<line class="st12" x1="272.5" y1="53.4" x2="272.6" y2="109.8"/>
				<line class="st11" x1="198.1" y1="2.3" x2="258.1" y2="36.1"/>
				<line class="st13" x1="207.7" y1="1.8" x2="207.7" y2="71.4"/>
				<line class="st13" x1="250.7" y1="31.8" x2="250.7" y2="97"/>
				<line class="st13" x1="185.3" y1="49.8" x2="185.3" y2="58.3"/>
				<line class="st14" x1="185.3" y1="2.3" x2="185.3" y2="49.8"/>
				<line class="st13" x1="228.7" y1="2.6" x2="228.7" y2="83.9"/>
				<line class="st15" x1="272.3" y1="53.2" x2="272.3" y2="109.6"/>
				<line class="st13" x1="197.9" y1="2.1" x2="257.9" y2="35.9"/>
				
					<linearGradient id="SVGID_3_" gradientUnits="userSpaceOnUse" x1="56.3" y1="-481.29" x2="284" y2="-481.29" gradientTransform="matrix(1 0 0 -1 0 -371.89)">
					<stop  offset="0" style="stop-color:#FFFFFF"/>
					<stop  offset="1" style="stop-color:#CCE2EA"/>
				</linearGradient>
				<path class="st16" d="M272.6,52.5L228.2,1L56.3,102.4l43.4,51.4l11.4,64L284,116.4L272.6,52.5z M98.6,114.2l-20.4-24l21.8-13
					l20.2,24.2L98.6,114.2z M185.7,65.3l-20.4-24l21.8-13l20.2,24.2L185.7,65.3z"/>
				
					<linearGradient id="SVGID_4_" gradientUnits="userSpaceOnUse" x1="180.006" y1="-391.4488" x2="33.0886" y2="-472.1806" gradientTransform="matrix(1 0 0 -1 0 -371.89)">
					<stop  offset="0" style="stop-color:#FFFFFF"/>
					<stop  offset="1" style="stop-color:#CCE2EA"/>
				</linearGradient>
				<polyline class="st17" points="228.2,1 185,2.5 12.1,103.9 18.2,103.7 55.3,102.4 				"/>
				
					<linearGradient id="SVGID_5_" gradientUnits="userSpaceOnUse" x1="0.5" y1="-531.99" x2="111.1" y2="-531.99" gradientTransform="matrix(1 0 0 -1 0 -371.89)">
					<stop  offset="0" style="stop-color:#FFFFFF"/>
					<stop  offset="1" style="stop-color:#CCE2EA"/>
				</linearGradient>
				<polygon class="st18" points="0.5,153.8 12.1,103.9 56.3,102.4 99.7,153.8 111.1,217.8 				"/>
				<g>
					<g>
						<g>
							<g>
								<defs>
									<polygon id="SVGID_6_" points="271.9,52.5 227.5,1 55.6,102.4 99,153.8 110.4,217.8 283.3,116.5 									"/>
								</defs>
								<clipPath id="SVGID_7_">
									<use xlink:href="#SVGID_6_"  style="overflow:visible;"/>
								</clipPath>
								<g class="st19">
									<polyline class="st6" points="78.3,89.5 121.7,140.9 133.1,204.9 									"/>
									<polyline class="st6" points="114.2,93.9 143.3,128.4 154.7,192.4 									"/>
									<line class="st20" x1="99.9" y1="77" x2="114.2" y2="93.9"/>
									<polyline class="st6" points="121.5,64.4 164.9,115.8 176.3,179.8 									"/>
									<polyline class="st6" points="143,51.9 186.5,103.3 197.8,167.3 									"/>
									<polyline class="st6" points="200.9,44.2 229.6,78.2 241,142.2 									"/>
									<line class="st20" x1="186.2" y1="26.8" x2="200.9" y2="44.2"/>
									<polyline class="st6" points="207.8,14.2 251.2,65.6 262.6,129.6 									"/>
									<line class="st6" x1="12.1" y1="103.9" x2="99.4" y2="153.1"/>
									<polyline class="st6" points="164.6,39.3 208,90.7 219.4,154.7 									"/>
								</g>
							</g>
						</g>
					</g>
				</g>
				<g class="st21">
					<g>
						<g>
							<g>
								<defs>
									<polygon id="SVGID_8_" points="12.1,103.9 18.2,103.7 55.3,102.4 228.2,1 185,2.5 									"/>
								</defs>
								<clipPath id="SVGID_9_">
									<use xlink:href="#SVGID_8_"  style="overflow:visible;"/>
								</clipPath>
								<g class="st22">
									<polyline class="st6" points="22.5,140.9 34.2,91 78.3,89.5 121.7,140.9 133.1,204.9 									"/>
									<polyline class="st6" points="44.1,128.4 55.8,78.4 99.9,77 143.3,128.4 154.7,192.4 									"/>
									<polyline class="st6" points="65.7,115.8 77.3,65.9 121.5,64.4 164.9,115.8 176.3,179.8 									"/>
									<polyline class="st6" points="87.4,102.9 98.9,53.3 143,51.9 186.5,103.3 197.8,167.3 									"/>
									<polyline class="st6" points="130.4,77.8 142.1,28.2 186.2,26.8 229.6,78.2 241,142.2 									"/>
									<polyline class="st6" points="152,64.8 163.6,15.7 207.8,14.2 251.2,65.6 262.6,129.6 									"/>
									<polyline class="st6" points="173.2,51.6 184.8,2.5 229,1 272.4,52.5 283.8,116.5 									"/>
									<line class="st6" x1="12.1" y1="103.9" x2="99.4" y2="153.1"/>
									<line class="st6" x1="185" y1="1.7" x2="185" y2="58.2"/>
									<polyline class="st6" points="108.9,90.4 120.5,40.8 164.6,39.3 208,90.7 219.4,154.7 									"/>
								</g>
							</g>
						</g>
					</g>
				</g>
				
					<rect x="-1.6" y="52.2" transform="matrix(0.8627 -0.5057 0.5057 0.8627 -13.3967 57.1714)" class="st23" width="200.4" height="2.1"/>
				
					<rect x="42.4" y="50.8" transform="matrix(0.8627 -0.5057 0.5057 0.8627 -6.643 79.2333)" class="st23" width="200.4" height="2.1"/>
				
					<rect x="86" y="102.1" transform="matrix(0.8659 -0.5003 0.5003 0.8659 -26.6768 106.8178)" class="st23" width="199.7" height="2.1"/>
				<line class="st10" x1="12.1" y1="103.9" x2="185" y2="2.5"/>
				<line class="st24" x1="56.1" y1="102.5" x2="229" y2="1.2"/>
				<line class="st10" x1="99.4" y1="153.1" x2="272.3" y2="53.2"/>
				<line class="st25" x1="12.6" y1="103.9" x2="185.5" y2="2.5"/>
				<line class="st25" x1="56.6" y1="102.5" x2="229.5" y2="1.2"/>
				<line class="st25" x1="99.9" y1="153.1" x2="272.8" y2="53.2"/>
				<polyline class="st26" points="184.4,1.5 229.6,0 273.5,52 285,116.3 282.9,116.7 271.6,52.9 228.7,2.1 185.8,3.5 				"/>
				
					<linearGradient id="SVGID_10_" gradientUnits="userSpaceOnUse" x1="78.6" y1="-461.19" x2="123.46" y2="-461.19" gradientTransform="matrix(1 0 0 -1 0 -371.89)">
					<stop  offset="0" style="stop-color:#FFFFFF"/>
					<stop  offset="1" style="stop-color:#CCE2EA"/>
				</linearGradient>
				<polygon class="st27" points="78.6,89.8 101.1,101.4 123.4,88.6 100,77.2 				"/>
				
					<linearGradient id="SVGID_11_" gradientUnits="userSpaceOnUse" x1="166.2" y1="-411.34" x2="211.06" y2="-411.34" gradientTransform="matrix(1 0 0 -1 0 -371.89)">
					<stop  offset="0" style="stop-color:#FFFFFF"/>
					<stop  offset="1" style="stop-color:#CCE2EA"/>
				</linearGradient>
				<polygon class="st28" points="166.2,39.9 188.7,51.6 211,38.7 187.6,27.3 				"/>
				<line class="st29" x1="120.2" y1="101.4" x2="98.6" y2="114.2"/>
				<line class="st29" x1="207.3" y1="51.8" x2="185.6" y2="64.6"/>
				<polygon class="st30" points="118.7,63.7 97,76.3 77.8,77.1 99.7,64.5 				"/>
				<polygon class="st30" points="204.7,13.7 183.2,25.8 164.3,26.5 185.7,14.3 				"/>
				<line class="st2" x1="12.1" y1="103.9" x2="99.4" y2="153.1"/>
				<line class="st2" x1="12.1" y1="103.9" x2="34.8" y2="173.5"/>
				<line class="st31" x1="34.8" y1="108" x2="34.8" y2="173.5"/>
				<line class="st32" x1="34.4" y1="107.8" x2="34.4" y2="173.3"/>
				
					<rect x="54.8" y="87" transform="matrix(0.49 -0.8717 0.8717 0.49 -75.7608 109.6854)" class="st23" width="2.1" height="65.2"/>
				<line class="st33" x1="27.4" y1="103.6" x2="84.3" y2="135.6"/>
				<line class="st34" x1="27.9" y1="103.6" x2="84.8" y2="135.6"/>
				<line class="st31" x1="99.4" y1="153.1" x2="99.4" y2="210.9"/>
				<line class="st33" x1="98.6" y1="152.8" x2="98.6" y2="210.7"/>
				<line class="st34" x1="99" y1="153.3" x2="99" y2="211.2"/>
				<line class="st31" x1="12.1" y1="103.9" x2="12.1" y2="160.4"/>
				<line class="st32" x1="11.8" y1="103.6" x2="11.8" y2="160.1"/>
				<polygon class="st23" points="110,218 98.7,154.3 55.8,103.5 12.9,104.9 2.3,154 0.3,153.6 11.3,102.9 56.7,101.4 100.6,153.4 
					112.1,217.6 				"/>
				<polyline class="st32" points="1.6,153.9 12.4,104 56.5,102.5 99.9,153.9 111.3,218 				"/>
				<polygon class="st31" points="76.7,133.2 54.2,120.4 54.2,185.1 76.7,198.4 				"/>
				<polygon class="st35" points="75.9,132.9 53.3,120.1 53.3,184.8 75.9,198.2 				"/>
				
					<linearGradient id="SVGID_12_" gradientUnits="userSpaceOnUse" x1="56.9015" y1="-500.589" x2="75.3486" y2="-567.254" gradientTransform="matrix(1 0 0 -1 0 -371.89)">
					<stop  offset="0" style="stop-color:#FFFFFF"/>
					<stop  offset="1" style="stop-color:#CCE2EA"/>
				</linearGradient>
				<polygon class="st36" points="76.6,133.1 54,120.2 54,185 76.6,198.3 				"/>
				<polygon class="st37" points="76.7,133.2 54.2,120.4 54.2,126.9 76.7,139.4 				"/>
				<g class="st38">
					<g>
						<polygon class="st39" points="78.8,133.2 76.7,132.4 76.7,197.3 78.8,198.4 						"/>
					</g>
				</g>
				<polygon class="st40" points="77.2,133.2 54.7,120.4 54.7,185.1 77.2,198.4 				"/>
				<polyline class="st37" points="284.9,116.3 284.9,117.8 112,219.2 110.8,219.2 0,155 1.2,152.9 111.4,216.8 282.9,116.2 				"/>
			</g>
		</g>
	</g>
</g>
</svg>
